%TF.GenerationSoftware,KiCad,Pcbnew,5.1.9-1.fc32*%
%TF.CreationDate,2021-03-16T17:09:34+05:30*%
%TF.ProjectId,BioAmp-EXG-Panel,42696f41-6d70-42d4-9558-472d50616e65,rev?*%
%TF.SameCoordinates,Original*%
%TF.FileFunction,Profile,NP*%
%FSLAX46Y46*%
G04 Gerber Fmt 4.6, Leading zero omitted, Abs format (unit mm)*
G04 Created by KiCad (PCBNEW 5.1.9-1.fc32) date 2021-03-16 17:09:34*
%MOMM*%
%LPD*%
G01*
G04 APERTURE LIST*
%TA.AperFunction,Profile*%
%ADD10C,0.100000*%
%TD*%
G04 APERTURE END LIST*
D10*
X48000200Y-47010000D02*
X59708800Y-47010000D01*
X47903000Y-47014800D02*
X48000200Y-47010000D01*
X47806900Y-47029000D02*
X47903000Y-47014800D01*
X47712600Y-47052600D02*
X47806900Y-47029000D01*
X47621100Y-47085400D02*
X47712600Y-47052600D01*
X47533300Y-47126900D02*
X47621100Y-47085400D01*
X47450000Y-47176900D02*
X47533300Y-47126900D01*
X47372000Y-47234700D02*
X47450000Y-47176900D01*
X47300000Y-47300000D02*
X47372000Y-47234700D01*
X47234700Y-47372000D02*
X47300000Y-47300000D01*
X47176900Y-47450000D02*
X47234700Y-47372000D01*
X47126900Y-47533300D02*
X47176900Y-47450000D01*
X47085400Y-47621100D02*
X47126900Y-47533300D01*
X47052600Y-47712600D02*
X47085400Y-47621100D01*
X47029000Y-47806900D02*
X47052600Y-47712600D01*
X47014800Y-47903000D02*
X47029000Y-47806900D01*
X47010000Y-48000200D02*
X47014800Y-47903000D01*
X47010000Y-139999800D02*
X47010000Y-48000200D01*
X47014800Y-140097100D02*
X47010000Y-139999800D01*
X47029000Y-140193200D02*
X47014800Y-140097100D01*
X47052600Y-140287400D02*
X47029000Y-140193200D01*
X47085400Y-140378900D02*
X47052600Y-140287400D01*
X47126900Y-140466700D02*
X47085400Y-140378900D01*
X47176900Y-140550100D02*
X47126900Y-140466700D01*
X47234700Y-140628100D02*
X47176900Y-140550100D01*
X47300000Y-140700100D02*
X47234700Y-140628100D01*
X47372000Y-140765300D02*
X47300000Y-140700100D01*
X47450000Y-140823200D02*
X47372000Y-140765300D01*
X47533300Y-140873200D02*
X47450000Y-140823200D01*
X47621100Y-140914700D02*
X47533300Y-140873200D01*
X47712600Y-140947400D02*
X47621100Y-140914700D01*
X47806900Y-140971000D02*
X47712600Y-140947400D01*
X47903000Y-140985300D02*
X47806900Y-140971000D01*
X48000200Y-140990100D02*
X47903000Y-140985300D01*
X59708800Y-140990100D02*
X48000200Y-140990100D01*
X59806000Y-140985300D02*
X59708800Y-140990100D01*
X59902100Y-140971000D02*
X59806000Y-140985300D01*
X59996400Y-140947400D02*
X59902100Y-140971000D01*
X60087900Y-140914700D02*
X59996400Y-140947400D01*
X60175700Y-140873200D02*
X60087900Y-140914700D01*
X60259000Y-140823200D02*
X60175700Y-140873200D01*
X60337000Y-140765300D02*
X60259000Y-140823200D01*
X60409000Y-140700100D02*
X60337000Y-140765300D01*
X60474300Y-140628100D02*
X60409000Y-140700100D01*
X60532100Y-140550100D02*
X60474300Y-140628100D01*
X60582100Y-140466700D02*
X60532100Y-140550100D01*
X60623600Y-140378900D02*
X60582100Y-140466700D01*
X60656400Y-140287400D02*
X60623600Y-140378900D01*
X60680000Y-140193200D02*
X60656400Y-140287400D01*
X60694200Y-140097100D02*
X60680000Y-140193200D01*
X60699000Y-139999800D02*
X60694200Y-140097100D01*
X60699000Y-138991300D02*
X60699000Y-139999800D01*
X60694200Y-138894000D02*
X60699000Y-138991300D01*
X60680000Y-138797900D02*
X60694200Y-138894000D01*
X60656400Y-138703700D02*
X60680000Y-138797900D01*
X60623600Y-138612200D02*
X60656400Y-138703700D01*
X60582100Y-138524400D02*
X60623600Y-138612200D01*
X60532100Y-138441100D02*
X60582100Y-138524400D01*
X60474300Y-138363000D02*
X60532100Y-138441100D01*
X60409000Y-138291100D02*
X60474300Y-138363000D01*
X60337000Y-138225800D02*
X60409000Y-138291100D01*
X60259000Y-138167900D02*
X60337000Y-138225800D01*
X60175700Y-138118000D02*
X60259000Y-138167900D01*
X60087900Y-138076500D02*
X60175700Y-138118000D01*
X59996400Y-138043700D02*
X60087900Y-138076500D01*
X59902100Y-138020100D02*
X59996400Y-138043700D01*
X59806000Y-138005900D02*
X59902100Y-138020100D01*
X59708800Y-138001100D02*
X59806000Y-138005900D01*
X51006600Y-138001100D02*
X59708800Y-138001100D01*
X50895600Y-137995300D02*
X51006600Y-138001100D01*
X50792200Y-137978900D02*
X50895600Y-137995300D01*
X50691000Y-137951800D02*
X50792200Y-137978900D01*
X50593200Y-137914300D02*
X50691000Y-137951800D01*
X50511200Y-137872900D02*
X50593200Y-137914300D01*
X50488500Y-137859800D02*
X50511200Y-137872900D01*
X50422500Y-137816900D02*
X50488500Y-137859800D01*
X50401400Y-137801600D02*
X50422500Y-137816900D01*
X50330200Y-137743500D02*
X50401400Y-137801600D01*
X50256200Y-137669400D02*
X50330200Y-137743500D01*
X50190600Y-137588400D02*
X50256200Y-137669400D01*
X50133500Y-137500600D02*
X50190600Y-137588400D01*
X50086000Y-137407300D02*
X50133500Y-137500600D01*
X50052700Y-137321700D02*
X50086000Y-137407300D01*
X50044600Y-137296700D02*
X50052700Y-137321700D01*
X50024200Y-137220600D02*
X50044600Y-137296700D01*
X50018800Y-137195200D02*
X50024200Y-137220600D01*
X50004800Y-137104400D02*
X50018800Y-137195200D01*
X49999000Y-136993600D02*
X50004800Y-137104400D01*
X49999100Y-128999900D02*
X49999000Y-136993600D01*
X50004900Y-128895200D02*
X49999100Y-128999900D01*
X50021300Y-128791700D02*
X50004900Y-128895200D01*
X50048400Y-128690600D02*
X50021300Y-128791700D01*
X50086000Y-128592800D02*
X50048400Y-128690600D01*
X50133300Y-128499900D02*
X50086000Y-128592800D01*
X50190300Y-128412100D02*
X50133300Y-128499900D01*
X50256200Y-128330700D02*
X50190300Y-128412100D01*
X50330300Y-128256600D02*
X50256200Y-128330700D01*
X50411600Y-128190600D02*
X50330300Y-128256600D01*
X50488500Y-128140300D02*
X50411600Y-128190600D01*
X50511200Y-128127200D02*
X50488500Y-128140300D01*
X50581400Y-128091500D02*
X50511200Y-128127200D01*
X50605100Y-128080900D02*
X50581400Y-128091500D01*
X50691100Y-128048300D02*
X50605100Y-128080900D01*
X50792200Y-128021200D02*
X50691100Y-128048300D01*
X50895200Y-128004900D02*
X50792200Y-128021200D01*
X50999900Y-127999100D02*
X50895200Y-128004900D01*
X59708800Y-127999100D02*
X50999900Y-127999100D01*
X59806000Y-127994300D02*
X59708800Y-127999100D01*
X59902100Y-127980000D02*
X59806000Y-127994300D01*
X59996400Y-127956400D02*
X59902100Y-127980000D01*
X60087900Y-127923700D02*
X59996400Y-127956400D01*
X60175700Y-127882200D02*
X60087900Y-127923700D01*
X60259000Y-127832200D02*
X60175700Y-127882200D01*
X60337000Y-127774300D02*
X60259000Y-127832200D01*
X60409000Y-127709100D02*
X60337000Y-127774300D01*
X60474300Y-127637100D02*
X60409000Y-127709100D01*
X60532100Y-127559100D02*
X60474300Y-127637100D01*
X60582100Y-127475700D02*
X60532100Y-127559100D01*
X60623600Y-127387900D02*
X60582100Y-127475700D01*
X60656400Y-127296500D02*
X60623600Y-127387900D01*
X60680000Y-127202200D02*
X60656400Y-127296500D01*
X60694200Y-127106100D02*
X60680000Y-127202200D01*
X60699000Y-127008800D02*
X60694200Y-127106100D01*
X60699000Y-125991300D02*
X60699000Y-127008800D01*
X60694200Y-125894000D02*
X60699000Y-125991300D01*
X60680000Y-125797900D02*
X60694200Y-125894000D01*
X60656400Y-125703600D02*
X60680000Y-125797900D01*
X60623600Y-125612200D02*
X60656400Y-125703600D01*
X60582100Y-125524300D02*
X60623600Y-125612200D01*
X60532100Y-125441000D02*
X60582100Y-125524300D01*
X60474300Y-125363000D02*
X60532100Y-125441000D01*
X60409000Y-125291000D02*
X60474300Y-125363000D01*
X60337000Y-125225700D02*
X60409000Y-125291000D01*
X60259000Y-125167900D02*
X60337000Y-125225700D01*
X60175700Y-125117900D02*
X60259000Y-125167900D01*
X60087900Y-125076400D02*
X60175700Y-125117900D01*
X59996400Y-125043700D02*
X60087900Y-125076400D01*
X59902100Y-125020100D02*
X59996400Y-125043700D01*
X59806000Y-125005800D02*
X59902100Y-125020100D01*
X59708800Y-125001000D02*
X59806000Y-125005800D01*
X51006500Y-125001000D02*
X59708800Y-125001000D01*
X50895100Y-124995200D02*
X51006500Y-125001000D01*
X50792200Y-124978900D02*
X50895100Y-124995200D01*
X50691000Y-124951800D02*
X50792200Y-124978900D01*
X50593200Y-124914300D02*
X50691000Y-124951800D01*
X50511200Y-124872900D02*
X50593200Y-124914300D01*
X50488500Y-124859800D02*
X50511200Y-124872900D01*
X50422500Y-124816900D02*
X50488500Y-124859800D01*
X50401400Y-124801600D02*
X50422500Y-124816900D01*
X50330200Y-124743500D02*
X50401400Y-124801600D01*
X50256200Y-124669400D02*
X50330200Y-124743500D01*
X50190600Y-124588400D02*
X50256200Y-124669400D01*
X50133500Y-124500600D02*
X50190600Y-124588400D01*
X50086000Y-124407300D02*
X50133500Y-124500600D01*
X50052700Y-124321700D02*
X50086000Y-124407300D01*
X50044600Y-124296700D02*
X50052700Y-124321700D01*
X50024200Y-124220600D02*
X50044600Y-124296700D01*
X50018800Y-124195200D02*
X50024200Y-124220600D01*
X50004800Y-124104400D02*
X50018800Y-124195200D01*
X49999000Y-123993600D02*
X50004800Y-124104400D01*
X49999100Y-115999800D02*
X49999000Y-123993600D01*
X50004900Y-115895200D02*
X49999100Y-115999800D01*
X50021300Y-115791700D02*
X50004900Y-115895200D01*
X50048400Y-115690600D02*
X50021300Y-115791700D01*
X50086000Y-115592800D02*
X50048400Y-115690600D01*
X50133300Y-115499900D02*
X50086000Y-115592800D01*
X50190300Y-115412100D02*
X50133300Y-115499900D01*
X50256200Y-115330700D02*
X50190300Y-115412100D01*
X50330300Y-115256600D02*
X50256200Y-115330700D01*
X50411600Y-115190600D02*
X50330300Y-115256600D01*
X50488500Y-115140300D02*
X50411600Y-115190600D01*
X50511200Y-115127200D02*
X50488500Y-115140300D01*
X50581400Y-115091400D02*
X50511200Y-115127200D01*
X50605100Y-115080900D02*
X50581400Y-115091400D01*
X50691100Y-115048300D02*
X50605100Y-115080900D01*
X50792200Y-115021200D02*
X50691100Y-115048300D01*
X50895200Y-115004900D02*
X50792200Y-115021200D01*
X50999900Y-114999100D02*
X50895200Y-115004900D01*
X59708800Y-114999000D02*
X50999900Y-114999100D01*
X59806000Y-114994200D02*
X59708800Y-114999000D01*
X59902100Y-114980000D02*
X59806000Y-114994200D01*
X59996400Y-114956400D02*
X59902100Y-114980000D01*
X60087900Y-114923700D02*
X59996400Y-114956400D01*
X60175700Y-114882100D02*
X60087900Y-114923700D01*
X60259000Y-114832200D02*
X60175700Y-114882100D01*
X60337000Y-114774300D02*
X60259000Y-114832200D01*
X60409000Y-114709100D02*
X60337000Y-114774300D01*
X60474300Y-114637100D02*
X60409000Y-114709100D01*
X60532100Y-114559000D02*
X60474300Y-114637100D01*
X60582100Y-114475700D02*
X60532100Y-114559000D01*
X60623600Y-114387900D02*
X60582100Y-114475700D01*
X60656400Y-114296400D02*
X60623600Y-114387900D01*
X60680000Y-114202200D02*
X60656400Y-114296400D01*
X60694200Y-114106100D02*
X60680000Y-114202200D01*
X60699000Y-114008800D02*
X60694200Y-114106100D01*
X60699000Y-112991300D02*
X60699000Y-114008800D01*
X60694200Y-112894000D02*
X60699000Y-112991300D01*
X60680000Y-112797900D02*
X60694200Y-112894000D01*
X60656400Y-112703600D02*
X60680000Y-112797900D01*
X60623600Y-112612200D02*
X60656400Y-112703600D01*
X60582100Y-112524300D02*
X60623600Y-112612200D01*
X60532100Y-112441000D02*
X60582100Y-112524300D01*
X60474300Y-112363000D02*
X60532100Y-112441000D01*
X60409000Y-112291000D02*
X60474300Y-112363000D01*
X60337000Y-112225700D02*
X60409000Y-112291000D01*
X60259000Y-112167900D02*
X60337000Y-112225700D01*
X60175700Y-112117900D02*
X60259000Y-112167900D01*
X60087900Y-112076400D02*
X60175700Y-112117900D01*
X59996400Y-112043700D02*
X60087900Y-112076400D01*
X59902100Y-112020000D02*
X59996400Y-112043700D01*
X59806000Y-112005800D02*
X59902100Y-112020000D01*
X59708800Y-112001000D02*
X59806000Y-112005800D01*
X51006500Y-112001000D02*
X59708800Y-112001000D01*
X50895600Y-111995200D02*
X51006500Y-112001000D01*
X50792200Y-111978900D02*
X50895600Y-111995200D01*
X50703400Y-111955500D02*
X50792200Y-111978900D01*
X50678400Y-111947300D02*
X50703400Y-111955500D01*
X50604900Y-111919100D02*
X50678400Y-111947300D01*
X50581100Y-111908500D02*
X50604900Y-111919100D01*
X50499400Y-111866500D02*
X50581100Y-111908500D01*
X50411600Y-111809400D02*
X50499400Y-111866500D01*
X50330600Y-111743800D02*
X50411600Y-111809400D01*
X50256500Y-111669800D02*
X50330600Y-111743800D01*
X50190600Y-111588400D02*
X50256500Y-111669800D01*
X50140300Y-111511600D02*
X50190600Y-111588400D01*
X50127100Y-111488800D02*
X50140300Y-111511600D01*
X50091400Y-111418700D02*
X50127100Y-111488800D01*
X50080800Y-111394900D02*
X50091400Y-111418700D01*
X50048200Y-111309000D02*
X50080800Y-111394900D01*
X50021200Y-111207800D02*
X50048200Y-111309000D01*
X50004900Y-111104900D02*
X50021200Y-111207800D01*
X49999100Y-110999900D02*
X50004900Y-111104900D01*
X49999100Y-102999800D02*
X49999100Y-110999900D01*
X50004900Y-102895200D02*
X49999100Y-102999800D01*
X50021300Y-102791700D02*
X50004900Y-102895200D01*
X50048400Y-102690500D02*
X50021300Y-102791700D01*
X50086000Y-102592800D02*
X50048400Y-102690500D01*
X50133300Y-102499900D02*
X50086000Y-102592800D01*
X50190300Y-102412100D02*
X50133300Y-102499900D01*
X50256200Y-102330600D02*
X50190300Y-102412100D01*
X50330300Y-102256600D02*
X50256200Y-102330600D01*
X50411600Y-102190600D02*
X50330300Y-102256600D01*
X50488500Y-102140300D02*
X50411600Y-102190600D01*
X50511200Y-102127200D02*
X50488500Y-102140300D01*
X50581400Y-102091400D02*
X50511200Y-102127200D01*
X50605100Y-102080900D02*
X50581400Y-102091400D01*
X50691100Y-102048300D02*
X50605100Y-102080900D01*
X50792200Y-102021200D02*
X50691100Y-102048300D01*
X50895200Y-102004900D02*
X50792200Y-102021200D01*
X50999900Y-101999100D02*
X50895200Y-102004900D01*
X59708800Y-101999000D02*
X50999900Y-101999100D01*
X59806000Y-101994200D02*
X59708800Y-101999000D01*
X59902100Y-101980000D02*
X59806000Y-101994200D01*
X59996400Y-101956400D02*
X59902100Y-101980000D01*
X60087900Y-101923700D02*
X59996400Y-101956400D01*
X60175700Y-101882100D02*
X60087900Y-101923700D01*
X60259000Y-101832200D02*
X60175700Y-101882100D01*
X60337000Y-101774300D02*
X60259000Y-101832200D01*
X60409000Y-101709000D02*
X60337000Y-101774300D01*
X60474300Y-101637100D02*
X60409000Y-101709000D01*
X60532100Y-101559000D02*
X60474300Y-101637100D01*
X60582100Y-101475700D02*
X60532100Y-101559000D01*
X60623600Y-101387900D02*
X60582100Y-101475700D01*
X60656400Y-101296400D02*
X60623600Y-101387900D01*
X60680000Y-101202200D02*
X60656400Y-101296400D01*
X60694200Y-101106100D02*
X60680000Y-101202200D01*
X60699000Y-101008800D02*
X60694200Y-101106100D01*
X60699000Y-99991300D02*
X60699000Y-101008800D01*
X60694200Y-99894000D02*
X60699000Y-99991300D01*
X60680000Y-99797900D02*
X60694200Y-99894000D01*
X60656400Y-99703600D02*
X60680000Y-99797900D01*
X60623600Y-99612200D02*
X60656400Y-99703600D01*
X60582100Y-99524300D02*
X60623600Y-99612200D01*
X60532100Y-99441000D02*
X60582100Y-99524300D01*
X60474300Y-99363000D02*
X60532100Y-99441000D01*
X60409000Y-99291000D02*
X60474300Y-99363000D01*
X60337000Y-99225700D02*
X60409000Y-99291000D01*
X60259000Y-99167900D02*
X60337000Y-99225700D01*
X60175700Y-99117900D02*
X60259000Y-99167900D01*
X60087900Y-99076400D02*
X60175700Y-99117900D01*
X59996400Y-99043700D02*
X60087900Y-99076400D01*
X59902100Y-99020000D02*
X59996400Y-99043700D01*
X59806000Y-99005800D02*
X59902100Y-99020000D01*
X59708800Y-99001000D02*
X59806000Y-99005800D01*
X51006500Y-99001000D02*
X59708800Y-99001000D01*
X50895600Y-98995200D02*
X51006500Y-99001000D01*
X50792200Y-98978900D02*
X50895600Y-98995200D01*
X50703400Y-98955400D02*
X50792200Y-98978900D01*
X50678400Y-98947300D02*
X50703400Y-98955400D01*
X50604900Y-98919100D02*
X50678400Y-98947300D01*
X50581100Y-98908500D02*
X50604900Y-98919100D01*
X50499400Y-98866500D02*
X50581100Y-98908500D01*
X50411600Y-98809400D02*
X50499400Y-98866500D01*
X50330600Y-98743800D02*
X50411600Y-98809400D01*
X50256500Y-98669800D02*
X50330600Y-98743800D01*
X50190600Y-98588400D02*
X50256500Y-98669800D01*
X50140300Y-98511600D02*
X50190600Y-98588400D01*
X50127100Y-98488800D02*
X50140300Y-98511600D01*
X50091400Y-98418700D02*
X50127100Y-98488800D01*
X50080800Y-98394900D02*
X50091400Y-98418700D01*
X50048200Y-98309000D02*
X50080800Y-98394900D01*
X50021200Y-98207800D02*
X50048200Y-98309000D01*
X50004900Y-98104900D02*
X50021200Y-98207800D01*
X49999100Y-97999900D02*
X50004900Y-98104900D01*
X49999100Y-89999800D02*
X49999100Y-97999900D01*
X50004900Y-89895100D02*
X49999100Y-89999800D01*
X50021300Y-89791700D02*
X50004900Y-89895100D01*
X50048400Y-89690500D02*
X50021300Y-89791700D01*
X50086000Y-89592800D02*
X50048400Y-89690500D01*
X50133300Y-89499900D02*
X50086000Y-89592800D01*
X50190300Y-89412000D02*
X50133300Y-89499900D01*
X50256200Y-89330600D02*
X50190300Y-89412000D01*
X50330300Y-89256600D02*
X50256200Y-89330600D01*
X50411600Y-89190600D02*
X50330300Y-89256600D01*
X50488500Y-89140300D02*
X50411600Y-89190600D01*
X50511200Y-89127200D02*
X50488500Y-89140300D01*
X50581400Y-89091400D02*
X50511200Y-89127200D01*
X50605100Y-89080900D02*
X50581400Y-89091400D01*
X50691100Y-89048300D02*
X50605100Y-89080900D01*
X50792200Y-89021200D02*
X50691100Y-89048300D01*
X50895200Y-89004900D02*
X50792200Y-89021200D01*
X50999900Y-88999100D02*
X50895200Y-89004900D01*
X59708800Y-88999000D02*
X50999900Y-88999100D01*
X59806000Y-88994200D02*
X59708800Y-88999000D01*
X59902100Y-88980000D02*
X59806000Y-88994200D01*
X59996400Y-88956400D02*
X59902100Y-88980000D01*
X60087900Y-88923600D02*
X59996400Y-88956400D01*
X60175700Y-88882100D02*
X60087900Y-88923600D01*
X60259000Y-88832200D02*
X60175700Y-88882100D01*
X60337000Y-88774300D02*
X60259000Y-88832200D01*
X60409000Y-88709000D02*
X60337000Y-88774300D01*
X60474300Y-88637100D02*
X60409000Y-88709000D01*
X60532100Y-88559000D02*
X60474300Y-88637100D01*
X60582100Y-88475700D02*
X60532100Y-88559000D01*
X60623600Y-88387900D02*
X60582100Y-88475700D01*
X60656400Y-88296400D02*
X60623600Y-88387900D01*
X60680000Y-88202200D02*
X60656400Y-88296400D01*
X60694200Y-88106100D02*
X60680000Y-88202200D01*
X60699000Y-88008800D02*
X60694200Y-88106100D01*
X60699000Y-86991300D02*
X60699000Y-88008800D01*
X60694200Y-86894000D02*
X60699000Y-86991300D01*
X60680000Y-86797900D02*
X60694200Y-86894000D01*
X60656400Y-86703600D02*
X60680000Y-86797900D01*
X60623600Y-86612200D02*
X60656400Y-86703600D01*
X60582100Y-86524300D02*
X60623600Y-86612200D01*
X60532100Y-86441000D02*
X60582100Y-86524300D01*
X60474300Y-86363000D02*
X60532100Y-86441000D01*
X60409000Y-86291000D02*
X60474300Y-86363000D01*
X60337000Y-86225700D02*
X60409000Y-86291000D01*
X60259000Y-86167900D02*
X60337000Y-86225700D01*
X60175700Y-86117900D02*
X60259000Y-86167900D01*
X60087900Y-86076400D02*
X60175700Y-86117900D01*
X59996400Y-86043600D02*
X60087900Y-86076400D01*
X59902100Y-86020000D02*
X59996400Y-86043600D01*
X59806000Y-86005800D02*
X59902100Y-86020000D01*
X59708800Y-86001000D02*
X59806000Y-86005800D01*
X51006500Y-86001000D02*
X59708800Y-86001000D01*
X50908300Y-85996200D02*
X51006500Y-86001000D01*
X50882400Y-85993500D02*
X50908300Y-85996200D01*
X50804900Y-85981200D02*
X50882400Y-85993500D01*
X50779200Y-85975700D02*
X50804900Y-85981200D01*
X50691000Y-85951800D02*
X50779200Y-85975700D01*
X50605200Y-85919200D02*
X50691000Y-85951800D01*
X50581100Y-85908500D02*
X50605200Y-85919200D01*
X50499900Y-85866700D02*
X50581100Y-85908500D01*
X50422700Y-85817000D02*
X50499900Y-85866700D01*
X50401400Y-85801600D02*
X50422700Y-85817000D01*
X50330600Y-85743800D02*
X50401400Y-85801600D01*
X50265400Y-85679100D02*
X50330600Y-85743800D01*
X50247800Y-85659600D02*
X50265400Y-85679100D01*
X50190300Y-85588000D02*
X50247800Y-85659600D01*
X50133500Y-85500500D02*
X50190300Y-85588000D01*
X50091500Y-85418900D02*
X50133500Y-85500500D01*
X50080800Y-85394900D02*
X50091500Y-85418900D01*
X50052700Y-85321600D02*
X50080800Y-85394900D01*
X50044700Y-85296900D02*
X50052700Y-85321600D01*
X50021300Y-85208300D02*
X50044700Y-85296900D01*
X50006500Y-85117700D02*
X50021300Y-85208300D01*
X50003800Y-85091500D02*
X50006500Y-85117700D01*
X49999000Y-84993500D02*
X50003800Y-85091500D01*
X49999100Y-76999800D02*
X49999000Y-84993500D01*
X50004900Y-76895100D02*
X49999100Y-76999800D01*
X50021300Y-76791700D02*
X50004900Y-76895100D01*
X50048300Y-76691000D02*
X50021300Y-76791700D01*
X50085800Y-76593200D02*
X50048300Y-76691000D01*
X50133300Y-76499900D02*
X50085800Y-76593200D01*
X50190300Y-76412000D02*
X50133300Y-76499900D01*
X50256200Y-76330600D02*
X50190300Y-76412000D01*
X50321100Y-76265300D02*
X50256200Y-76330600D01*
X50340400Y-76247900D02*
X50321100Y-76265300D01*
X50411600Y-76190600D02*
X50340400Y-76247900D01*
X50488500Y-76140300D02*
X50411600Y-76190600D01*
X50511200Y-76127200D02*
X50488500Y-76140300D01*
X50581400Y-76091400D02*
X50511200Y-76127200D01*
X50605100Y-76080800D02*
X50581400Y-76091400D01*
X50691100Y-76048300D02*
X50605100Y-76080800D01*
X50792200Y-76021200D02*
X50691100Y-76048300D01*
X50895200Y-76004900D02*
X50792200Y-76021200D01*
X50999900Y-75999100D02*
X50895200Y-76004900D01*
X59708800Y-75999000D02*
X50999900Y-75999100D01*
X59806000Y-75994200D02*
X59708800Y-75999000D01*
X59902100Y-75980000D02*
X59806000Y-75994200D01*
X59996400Y-75956400D02*
X59902100Y-75980000D01*
X60087900Y-75923600D02*
X59996400Y-75956400D01*
X60175700Y-75882100D02*
X60087900Y-75923600D01*
X60259000Y-75832200D02*
X60175700Y-75882100D01*
X60337000Y-75774300D02*
X60259000Y-75832200D01*
X60409000Y-75709000D02*
X60337000Y-75774300D01*
X60474300Y-75637100D02*
X60409000Y-75709000D01*
X60532100Y-75559000D02*
X60474300Y-75637100D01*
X60582100Y-75475700D02*
X60532100Y-75559000D01*
X60623600Y-75387900D02*
X60582100Y-75475700D01*
X60656400Y-75296400D02*
X60623600Y-75387900D01*
X60680000Y-75202100D02*
X60656400Y-75296400D01*
X60694200Y-75106000D02*
X60680000Y-75202100D01*
X60699000Y-75008800D02*
X60694200Y-75106000D01*
X60699000Y-73991200D02*
X60699000Y-75008800D01*
X60694200Y-73894000D02*
X60699000Y-73991200D01*
X60680000Y-73797900D02*
X60694200Y-73894000D01*
X60656400Y-73703600D02*
X60680000Y-73797900D01*
X60623600Y-73612200D02*
X60656400Y-73703600D01*
X60582100Y-73524300D02*
X60623600Y-73612200D01*
X60532100Y-73441000D02*
X60582100Y-73524300D01*
X60474300Y-73363000D02*
X60532100Y-73441000D01*
X60409000Y-73291000D02*
X60474300Y-73363000D01*
X60337000Y-73225700D02*
X60409000Y-73291000D01*
X60259000Y-73167900D02*
X60337000Y-73225700D01*
X60175700Y-73117900D02*
X60259000Y-73167900D01*
X60087900Y-73076400D02*
X60175700Y-73117900D01*
X59996400Y-73043600D02*
X60087900Y-73076400D01*
X59902100Y-73020000D02*
X59996400Y-73043600D01*
X59806000Y-73005800D02*
X59902100Y-73020000D01*
X59708800Y-73001000D02*
X59806000Y-73005800D01*
X50999800Y-73000900D02*
X59708800Y-73001000D01*
X50895100Y-72995200D02*
X50999800Y-73000900D01*
X50791700Y-72978700D02*
X50895100Y-72995200D01*
X50690500Y-72951600D02*
X50791700Y-72978700D01*
X50592700Y-72914000D02*
X50690500Y-72951600D01*
X50499900Y-72866700D02*
X50592700Y-72914000D01*
X50412000Y-72809700D02*
X50499900Y-72866700D01*
X50330600Y-72743800D02*
X50412000Y-72809700D01*
X50256500Y-72669800D02*
X50330600Y-72743800D01*
X50190600Y-72588400D02*
X50256500Y-72669800D01*
X50140300Y-72511600D02*
X50190600Y-72588400D01*
X50127100Y-72488800D02*
X50140300Y-72511600D01*
X50091400Y-72418700D02*
X50127100Y-72488800D01*
X50080800Y-72394900D02*
X50091400Y-72418700D01*
X50048200Y-72309000D02*
X50080800Y-72394900D01*
X50021200Y-72207800D02*
X50048200Y-72309000D01*
X50004900Y-72104800D02*
X50021200Y-72207800D01*
X49999100Y-71999900D02*
X50004900Y-72104800D01*
X49999000Y-64006400D02*
X49999100Y-71999900D01*
X50004800Y-63895600D02*
X49999000Y-64006400D01*
X50021200Y-63792200D02*
X50004800Y-63895600D01*
X50048300Y-63691000D02*
X50021200Y-63792200D01*
X50085800Y-63593200D02*
X50048300Y-63691000D01*
X50127100Y-63511200D02*
X50085800Y-63593200D01*
X50140300Y-63488500D02*
X50127100Y-63511200D01*
X50190300Y-63412000D02*
X50140300Y-63488500D01*
X50247800Y-63340400D02*
X50190300Y-63412000D01*
X50265400Y-63320900D02*
X50247800Y-63340400D01*
X50330300Y-63256500D02*
X50265400Y-63320900D01*
X50412100Y-63190300D02*
X50330300Y-63256500D01*
X50488500Y-63140300D02*
X50412100Y-63190300D01*
X50511200Y-63127200D02*
X50488500Y-63140300D01*
X50592800Y-63086000D02*
X50511200Y-63127200D01*
X50678400Y-63052700D02*
X50592800Y-63086000D01*
X50703400Y-63044600D02*
X50678400Y-63052700D01*
X50791700Y-63021300D02*
X50703400Y-63044600D01*
X50882400Y-63006600D02*
X50791700Y-63021300D01*
X50908500Y-63003800D02*
X50882400Y-63006600D01*
X51006500Y-62999000D02*
X50908500Y-63003800D01*
X59708800Y-62999000D02*
X51006500Y-62999000D01*
X59806000Y-62994200D02*
X59708800Y-62999000D01*
X59902100Y-62980000D02*
X59806000Y-62994200D01*
X59996400Y-62956400D02*
X59902100Y-62980000D01*
X60087900Y-62923600D02*
X59996400Y-62956400D01*
X60175700Y-62882100D02*
X60087900Y-62923600D01*
X60259000Y-62832200D02*
X60175700Y-62882100D01*
X60337000Y-62774300D02*
X60259000Y-62832200D01*
X60409000Y-62709000D02*
X60337000Y-62774300D01*
X60474300Y-62637000D02*
X60409000Y-62709000D01*
X60532100Y-62559000D02*
X60474300Y-62637000D01*
X60582100Y-62475700D02*
X60532100Y-62559000D01*
X60623600Y-62387900D02*
X60582100Y-62475700D01*
X60656400Y-62296400D02*
X60623600Y-62387900D01*
X60680000Y-62202100D02*
X60656400Y-62296400D01*
X60694200Y-62106000D02*
X60680000Y-62202100D01*
X60699000Y-62008800D02*
X60694200Y-62106000D01*
X60699000Y-60991200D02*
X60699000Y-62008800D01*
X60694200Y-60894000D02*
X60699000Y-60991200D01*
X60680000Y-60797900D02*
X60694200Y-60894000D01*
X60656400Y-60703600D02*
X60680000Y-60797900D01*
X60623600Y-60612100D02*
X60656400Y-60703600D01*
X60582100Y-60524300D02*
X60623600Y-60612100D01*
X60532100Y-60441000D02*
X60582100Y-60524300D01*
X60474300Y-60363000D02*
X60532100Y-60441000D01*
X60409000Y-60291000D02*
X60474300Y-60363000D01*
X60337000Y-60225700D02*
X60409000Y-60291000D01*
X60259000Y-60167900D02*
X60337000Y-60225700D01*
X60175700Y-60117900D02*
X60259000Y-60167900D01*
X60087900Y-60076400D02*
X60175700Y-60117900D01*
X59996400Y-60043600D02*
X60087900Y-60076400D01*
X59902100Y-60020000D02*
X59996400Y-60043600D01*
X59806000Y-60005800D02*
X59902100Y-60020000D01*
X59708800Y-60001000D02*
X59806000Y-60005800D01*
X50999800Y-60000900D02*
X59708800Y-60001000D01*
X50895100Y-59995100D02*
X50999800Y-60000900D01*
X50792200Y-59978800D02*
X50895100Y-59995100D01*
X50691000Y-59951800D02*
X50792200Y-59978800D01*
X50605200Y-59919200D02*
X50691000Y-59951800D01*
X50581100Y-59908500D02*
X50605200Y-59919200D01*
X50511000Y-59872800D02*
X50581100Y-59908500D01*
X50488500Y-59859700D02*
X50511000Y-59872800D01*
X50411600Y-59809400D02*
X50488500Y-59859700D01*
X50340400Y-59752200D02*
X50411600Y-59809400D01*
X50321100Y-59734800D02*
X50340400Y-59752200D01*
X50256200Y-59669400D02*
X50321100Y-59734800D01*
X50190300Y-59587900D02*
X50256200Y-59669400D01*
X50133300Y-59500100D02*
X50190300Y-59587900D01*
X50085700Y-59406700D02*
X50133300Y-59500100D01*
X50048400Y-59309400D02*
X50085700Y-59406700D01*
X50021300Y-59208300D02*
X50048400Y-59309400D01*
X50004900Y-59104800D02*
X50021300Y-59208300D01*
X49999100Y-59000100D02*
X50004900Y-59104800D01*
X49999000Y-51006600D02*
X49999100Y-59000100D01*
X50004800Y-50895600D02*
X49999000Y-51006600D01*
X50021200Y-50792200D02*
X50004800Y-50895600D01*
X50044600Y-50703400D02*
X50021200Y-50792200D01*
X50052700Y-50678400D02*
X50044600Y-50703400D01*
X50086000Y-50592700D02*
X50052700Y-50678400D01*
X50133300Y-50499900D02*
X50086000Y-50592700D01*
X50183000Y-50422700D02*
X50133300Y-50499900D01*
X50198400Y-50401400D02*
X50183000Y-50422700D01*
X50256600Y-50330200D02*
X50198400Y-50401400D01*
X50330300Y-50256500D02*
X50256600Y-50330200D01*
X50401400Y-50198500D02*
X50330300Y-50256500D01*
X50422600Y-50183000D02*
X50401400Y-50198500D01*
X50499900Y-50133300D02*
X50422600Y-50183000D01*
X50592800Y-50086000D02*
X50499900Y-50133300D01*
X50690600Y-50048400D02*
X50592800Y-50086000D01*
X50779200Y-50024300D02*
X50690600Y-50048400D01*
X50804900Y-50018800D02*
X50779200Y-50024300D01*
X50895700Y-50004800D02*
X50804900Y-50018800D01*
X51006500Y-49999000D02*
X50895700Y-50004800D01*
X59708800Y-49999000D02*
X51006500Y-49999000D01*
X59806000Y-49994200D02*
X59708800Y-49999000D01*
X59902100Y-49980000D02*
X59806000Y-49994200D01*
X59996400Y-49956400D02*
X59902100Y-49980000D01*
X60087900Y-49923600D02*
X59996400Y-49956400D01*
X60175700Y-49882100D02*
X60087900Y-49923600D01*
X60259000Y-49832100D02*
X60175700Y-49882100D01*
X60337000Y-49774300D02*
X60259000Y-49832100D01*
X60409000Y-49709000D02*
X60337000Y-49774300D01*
X60474300Y-49637000D02*
X60409000Y-49709000D01*
X60532100Y-49559000D02*
X60474300Y-49637000D01*
X60582100Y-49475700D02*
X60532100Y-49559000D01*
X60623600Y-49387900D02*
X60582100Y-49475700D01*
X60656400Y-49296400D02*
X60623600Y-49387900D01*
X60680000Y-49202100D02*
X60656400Y-49296400D01*
X60694200Y-49106000D02*
X60680000Y-49202100D01*
X60699000Y-49008800D02*
X60694200Y-49106000D01*
X60699000Y-48000200D02*
X60699000Y-49008800D01*
X60694200Y-47903000D02*
X60699000Y-48000200D01*
X60680000Y-47806900D02*
X60694200Y-47903000D01*
X60656400Y-47712600D02*
X60680000Y-47806900D01*
X60623600Y-47621100D02*
X60656400Y-47712600D01*
X60582100Y-47533300D02*
X60623600Y-47621100D01*
X60532100Y-47450000D02*
X60582100Y-47533300D01*
X60474300Y-47372000D02*
X60532100Y-47450000D01*
X60409000Y-47300000D02*
X60474300Y-47372000D01*
X60337000Y-47234700D02*
X60409000Y-47300000D01*
X60259000Y-47176900D02*
X60337000Y-47234700D01*
X60175700Y-47126900D02*
X60259000Y-47176900D01*
X60087900Y-47085400D02*
X60175700Y-47126900D01*
X59996400Y-47052600D02*
X60087900Y-47085400D01*
X59902100Y-47029000D02*
X59996400Y-47052600D01*
X59806000Y-47014800D02*
X59902100Y-47029000D01*
X59708800Y-47010000D02*
X59806000Y-47014800D01*
X65691200Y-47010000D02*
X88108800Y-47010000D01*
X65594000Y-47014800D02*
X65691200Y-47010000D01*
X65497900Y-47029000D02*
X65594000Y-47014800D01*
X65403600Y-47052600D02*
X65497900Y-47029000D01*
X65312200Y-47085400D02*
X65403600Y-47052600D01*
X65224300Y-47126900D02*
X65312200Y-47085400D01*
X65141000Y-47176900D02*
X65224300Y-47126900D01*
X65063000Y-47234700D02*
X65141000Y-47176900D01*
X64991000Y-47300000D02*
X65063000Y-47234700D01*
X64925700Y-47372000D02*
X64991000Y-47300000D01*
X64867900Y-47450000D02*
X64925700Y-47372000D01*
X64817900Y-47533300D02*
X64867900Y-47450000D01*
X64776400Y-47621100D02*
X64817900Y-47533300D01*
X64743600Y-47712600D02*
X64776400Y-47621100D01*
X64720000Y-47806900D02*
X64743600Y-47712600D01*
X64705800Y-47903000D02*
X64720000Y-47806900D01*
X64701000Y-48000200D02*
X64705800Y-47903000D01*
X64701000Y-49008800D02*
X64701000Y-48000200D01*
X64705800Y-49106000D02*
X64701000Y-49008800D01*
X64720000Y-49202100D02*
X64705800Y-49106000D01*
X64743600Y-49296400D02*
X64720000Y-49202100D01*
X64776400Y-49387900D02*
X64743600Y-49296400D01*
X64817900Y-49475700D02*
X64776400Y-49387900D01*
X64867900Y-49559000D02*
X64817900Y-49475700D01*
X64925700Y-49637000D02*
X64867900Y-49559000D01*
X64991000Y-49709000D02*
X64925700Y-49637000D01*
X65063000Y-49774300D02*
X64991000Y-49709000D01*
X65141000Y-49832100D02*
X65063000Y-49774300D01*
X65224300Y-49882100D02*
X65141000Y-49832100D01*
X65312200Y-49923600D02*
X65224300Y-49882100D01*
X65403600Y-49956400D02*
X65312200Y-49923600D01*
X65497900Y-49980000D02*
X65403600Y-49956400D01*
X65594000Y-49994200D02*
X65497900Y-49980000D01*
X65691200Y-49999000D02*
X65594000Y-49994200D01*
X74393400Y-49999000D02*
X65691200Y-49999000D01*
X74504400Y-50004800D02*
X74393400Y-49999000D01*
X74607800Y-50021200D02*
X74504400Y-50004800D01*
X74709000Y-50048300D02*
X74607800Y-50021200D01*
X74806800Y-50085800D02*
X74709000Y-50048300D01*
X74888800Y-50127100D02*
X74806800Y-50085800D01*
X74911500Y-50140300D02*
X74888800Y-50127100D01*
X74977500Y-50183100D02*
X74911500Y-50140300D01*
X74998600Y-50198400D02*
X74977500Y-50183100D01*
X75069800Y-50256600D02*
X74998600Y-50198400D01*
X75143800Y-50330600D02*
X75069800Y-50256600D01*
X75209400Y-50411600D02*
X75143800Y-50330600D01*
X75266500Y-50499500D02*
X75209400Y-50411600D01*
X75314000Y-50592800D02*
X75266500Y-50499500D01*
X75347300Y-50678400D02*
X75314000Y-50592800D01*
X75355400Y-50703400D02*
X75347300Y-50678400D01*
X75375800Y-50779400D02*
X75355400Y-50703400D01*
X75381200Y-50804900D02*
X75375800Y-50779400D01*
X75395200Y-50895700D02*
X75381200Y-50804900D01*
X75401000Y-51006400D02*
X75395200Y-50895700D01*
X75400900Y-59000200D02*
X75401000Y-51006400D01*
X75395100Y-59104900D02*
X75400900Y-59000200D01*
X75378700Y-59208300D02*
X75395100Y-59104900D01*
X75351600Y-59309500D02*
X75378700Y-59208300D01*
X75314000Y-59407300D02*
X75351600Y-59309500D01*
X75266700Y-59500100D02*
X75314000Y-59407300D01*
X75209700Y-59588000D02*
X75266700Y-59500100D01*
X75143800Y-59669400D02*
X75209700Y-59588000D01*
X75069700Y-59743500D02*
X75143800Y-59669400D01*
X74988400Y-59809400D02*
X75069700Y-59743500D01*
X74911500Y-59859700D02*
X74988400Y-59809400D01*
X74888800Y-59872900D02*
X74911500Y-59859700D01*
X74818600Y-59908600D02*
X74888800Y-59872900D01*
X74794900Y-59919200D02*
X74818600Y-59908600D01*
X74708900Y-59951800D02*
X74794900Y-59919200D01*
X74607800Y-59978800D02*
X74708900Y-59951800D01*
X74504800Y-59995100D02*
X74607800Y-59978800D01*
X74400100Y-60000900D02*
X74504800Y-59995100D01*
X65691200Y-60001000D02*
X74400100Y-60000900D01*
X65594000Y-60005800D02*
X65691200Y-60001000D01*
X65497900Y-60020000D02*
X65594000Y-60005800D01*
X65403600Y-60043600D02*
X65497900Y-60020000D01*
X65312200Y-60076400D02*
X65403600Y-60043600D01*
X65224300Y-60117900D02*
X65312200Y-60076400D01*
X65141000Y-60167900D02*
X65224300Y-60117900D01*
X65063000Y-60225700D02*
X65141000Y-60167900D01*
X64991000Y-60291000D02*
X65063000Y-60225700D01*
X64925700Y-60363000D02*
X64991000Y-60291000D01*
X64867900Y-60441000D02*
X64925700Y-60363000D01*
X64817900Y-60524300D02*
X64867900Y-60441000D01*
X64776400Y-60612100D02*
X64817900Y-60524300D01*
X64743600Y-60703600D02*
X64776400Y-60612100D01*
X64720000Y-60797900D02*
X64743600Y-60703600D01*
X64705800Y-60894000D02*
X64720000Y-60797900D01*
X64701000Y-60991200D02*
X64705800Y-60894000D01*
X64701000Y-62008800D02*
X64701000Y-60991200D01*
X64705800Y-62106000D02*
X64701000Y-62008800D01*
X64720000Y-62202100D02*
X64705800Y-62106000D01*
X64743600Y-62296400D02*
X64720000Y-62202100D01*
X64776400Y-62387900D02*
X64743600Y-62296400D01*
X64817900Y-62475700D02*
X64776400Y-62387900D01*
X64867900Y-62559000D02*
X64817900Y-62475700D01*
X64925700Y-62637000D02*
X64867900Y-62559000D01*
X64991000Y-62709000D02*
X64925700Y-62637000D01*
X65063000Y-62774300D02*
X64991000Y-62709000D01*
X65141000Y-62832100D02*
X65063000Y-62774300D01*
X65224300Y-62882100D02*
X65141000Y-62832100D01*
X65312200Y-62923600D02*
X65224300Y-62882100D01*
X65403600Y-62956400D02*
X65312200Y-62923600D01*
X65497900Y-62980000D02*
X65403600Y-62956400D01*
X65594000Y-62994200D02*
X65497900Y-62980000D01*
X65691200Y-62999000D02*
X65594000Y-62994200D01*
X74393400Y-62999000D02*
X65691200Y-62999000D01*
X74504400Y-63004800D02*
X74393400Y-62999000D01*
X74607800Y-63021200D02*
X74504400Y-63004800D01*
X74709000Y-63048300D02*
X74607800Y-63021200D01*
X74806800Y-63085800D02*
X74709000Y-63048300D01*
X74888800Y-63127100D02*
X74806800Y-63085800D01*
X74911500Y-63140300D02*
X74888800Y-63127100D01*
X74977500Y-63183200D02*
X74911500Y-63140300D01*
X74998600Y-63198500D02*
X74977500Y-63183200D01*
X75069800Y-63256600D02*
X74998600Y-63198500D01*
X75143800Y-63330700D02*
X75069800Y-63256600D01*
X75209400Y-63411700D02*
X75143800Y-63330700D01*
X75266500Y-63499500D02*
X75209400Y-63411700D01*
X75314000Y-63592800D02*
X75266500Y-63499500D01*
X75347300Y-63678400D02*
X75314000Y-63592800D01*
X75355400Y-63703400D02*
X75347300Y-63678400D01*
X75375800Y-63779400D02*
X75355400Y-63703400D01*
X75381200Y-63804900D02*
X75375800Y-63779400D01*
X75395200Y-63895700D02*
X75381200Y-63804900D01*
X75401000Y-64006400D02*
X75395200Y-63895700D01*
X75400900Y-72000200D02*
X75401000Y-64006400D01*
X75395100Y-72104900D02*
X75400900Y-72000200D01*
X75378700Y-72208300D02*
X75395100Y-72104900D01*
X75351600Y-72309500D02*
X75378700Y-72208300D01*
X75314000Y-72407300D02*
X75351600Y-72309500D01*
X75266700Y-72500100D02*
X75314000Y-72407300D01*
X75209700Y-72588000D02*
X75266700Y-72500100D01*
X75143800Y-72669400D02*
X75209700Y-72588000D01*
X75069700Y-72743500D02*
X75143800Y-72669400D01*
X74988400Y-72809400D02*
X75069700Y-72743500D01*
X74911500Y-72859700D02*
X74988400Y-72809400D01*
X74888800Y-72872900D02*
X74911500Y-72859700D01*
X74818600Y-72908600D02*
X74888800Y-72872900D01*
X74794900Y-72919200D02*
X74818600Y-72908600D01*
X74708900Y-72951800D02*
X74794900Y-72919200D01*
X74607800Y-72978900D02*
X74708900Y-72951800D01*
X74504800Y-72995200D02*
X74607800Y-72978900D01*
X74400100Y-73000900D02*
X74504800Y-72995200D01*
X65691200Y-73001000D02*
X74400100Y-73000900D01*
X65594000Y-73005800D02*
X65691200Y-73001000D01*
X65497900Y-73020000D02*
X65594000Y-73005800D01*
X65403600Y-73043600D02*
X65497900Y-73020000D01*
X65312200Y-73076400D02*
X65403600Y-73043600D01*
X65224300Y-73117900D02*
X65312200Y-73076400D01*
X65141000Y-73167900D02*
X65224300Y-73117900D01*
X65063000Y-73225700D02*
X65141000Y-73167900D01*
X64991000Y-73291000D02*
X65063000Y-73225700D01*
X64925700Y-73363000D02*
X64991000Y-73291000D01*
X64867900Y-73441000D02*
X64925700Y-73363000D01*
X64817900Y-73524300D02*
X64867900Y-73441000D01*
X64776400Y-73612200D02*
X64817900Y-73524300D01*
X64743600Y-73703600D02*
X64776400Y-73612200D01*
X64720000Y-73797900D02*
X64743600Y-73703600D01*
X64705800Y-73894000D02*
X64720000Y-73797900D01*
X64701000Y-73991300D02*
X64705800Y-73894000D01*
X64701000Y-75008800D02*
X64701000Y-73991300D01*
X64705800Y-75106000D02*
X64701000Y-75008800D01*
X64720000Y-75202100D02*
X64705800Y-75106000D01*
X64743600Y-75296400D02*
X64720000Y-75202100D01*
X64776400Y-75387900D02*
X64743600Y-75296400D01*
X64817900Y-75475700D02*
X64776400Y-75387900D01*
X64867900Y-75559000D02*
X64817900Y-75475700D01*
X64925700Y-75637000D02*
X64867900Y-75559000D01*
X64991000Y-75709000D02*
X64925700Y-75637000D01*
X65063000Y-75774300D02*
X64991000Y-75709000D01*
X65141000Y-75832200D02*
X65063000Y-75774300D01*
X65224300Y-75882100D02*
X65141000Y-75832200D01*
X65312200Y-75923600D02*
X65224300Y-75882100D01*
X65403600Y-75956400D02*
X65312200Y-75923600D01*
X65497900Y-75980000D02*
X65403600Y-75956400D01*
X65594000Y-75994200D02*
X65497900Y-75980000D01*
X65691200Y-75999000D02*
X65594000Y-75994200D01*
X74393400Y-75999000D02*
X65691200Y-75999000D01*
X74504400Y-76004800D02*
X74393400Y-75999000D01*
X74607800Y-76021200D02*
X74504400Y-76004800D01*
X74709000Y-76048300D02*
X74607800Y-76021200D01*
X74806800Y-76085800D02*
X74709000Y-76048300D01*
X74888800Y-76127100D02*
X74806800Y-76085800D01*
X74911500Y-76140300D02*
X74888800Y-76127100D01*
X74977500Y-76183200D02*
X74911500Y-76140300D01*
X74998600Y-76198500D02*
X74977500Y-76183200D01*
X75069800Y-76256600D02*
X74998600Y-76198500D01*
X75143800Y-76330700D02*
X75069800Y-76256600D01*
X75209400Y-76411700D02*
X75143800Y-76330700D01*
X75266500Y-76499500D02*
X75209400Y-76411700D01*
X75314000Y-76592800D02*
X75266500Y-76499500D01*
X75347300Y-76678400D02*
X75314000Y-76592800D01*
X75355400Y-76703400D02*
X75347300Y-76678400D01*
X75375800Y-76779400D02*
X75355400Y-76703400D01*
X75381200Y-76804900D02*
X75375800Y-76779400D01*
X75395200Y-76895700D02*
X75381200Y-76804900D01*
X75401000Y-77006400D02*
X75395200Y-76895700D01*
X75400900Y-85000200D02*
X75401000Y-77006400D01*
X75395100Y-85104900D02*
X75400900Y-85000200D01*
X75378700Y-85208300D02*
X75395100Y-85104900D01*
X75351600Y-85309500D02*
X75378700Y-85208300D01*
X75314000Y-85407300D02*
X75351600Y-85309500D01*
X75266700Y-85500100D02*
X75314000Y-85407300D01*
X75209700Y-85588000D02*
X75266700Y-85500100D01*
X75143800Y-85669400D02*
X75209700Y-85588000D01*
X75069700Y-85743500D02*
X75143800Y-85669400D01*
X74988400Y-85809400D02*
X75069700Y-85743500D01*
X74911500Y-85859700D02*
X74988400Y-85809400D01*
X74888800Y-85872900D02*
X74911500Y-85859700D01*
X74818600Y-85908600D02*
X74888800Y-85872900D01*
X74794900Y-85919200D02*
X74818600Y-85908600D01*
X74708900Y-85951800D02*
X74794900Y-85919200D01*
X74607800Y-85978900D02*
X74708900Y-85951800D01*
X74504800Y-85995200D02*
X74607800Y-85978900D01*
X74400100Y-86000900D02*
X74504800Y-85995200D01*
X65691200Y-86001000D02*
X74400100Y-86000900D01*
X65594000Y-86005800D02*
X65691200Y-86001000D01*
X65497900Y-86020000D02*
X65594000Y-86005800D01*
X65403600Y-86043700D02*
X65497900Y-86020000D01*
X65312200Y-86076400D02*
X65403600Y-86043700D01*
X65224300Y-86117900D02*
X65312200Y-86076400D01*
X65141000Y-86167900D02*
X65224300Y-86117900D01*
X65063000Y-86225700D02*
X65141000Y-86167900D01*
X64991000Y-86291000D02*
X65063000Y-86225700D01*
X64925700Y-86363000D02*
X64991000Y-86291000D01*
X64867900Y-86441000D02*
X64925700Y-86363000D01*
X64817900Y-86524300D02*
X64867900Y-86441000D01*
X64776400Y-86612200D02*
X64817900Y-86524300D01*
X64743600Y-86703600D02*
X64776400Y-86612200D01*
X64720000Y-86797900D02*
X64743600Y-86703600D01*
X64705800Y-86894000D02*
X64720000Y-86797900D01*
X64701000Y-86991300D02*
X64705800Y-86894000D01*
X64701000Y-88008800D02*
X64701000Y-86991300D01*
X64705800Y-88106000D02*
X64701000Y-88008800D01*
X64720000Y-88202100D02*
X64705800Y-88106000D01*
X64743600Y-88296400D02*
X64720000Y-88202100D01*
X64776400Y-88387900D02*
X64743600Y-88296400D01*
X64817900Y-88475700D02*
X64776400Y-88387900D01*
X64867900Y-88559000D02*
X64817900Y-88475700D01*
X64925700Y-88637100D02*
X64867900Y-88559000D01*
X64991000Y-88709000D02*
X64925700Y-88637100D01*
X65063000Y-88774300D02*
X64991000Y-88709000D01*
X65141000Y-88832200D02*
X65063000Y-88774300D01*
X65224300Y-88882100D02*
X65141000Y-88832200D01*
X65312200Y-88923600D02*
X65224300Y-88882100D01*
X65403600Y-88956400D02*
X65312200Y-88923600D01*
X65497900Y-88980000D02*
X65403600Y-88956400D01*
X65594000Y-88994200D02*
X65497900Y-88980000D01*
X65691200Y-88999000D02*
X65594000Y-88994200D01*
X74393400Y-88999000D02*
X65691200Y-88999000D01*
X74504400Y-89004800D02*
X74393400Y-88999000D01*
X74595100Y-89018800D02*
X74504400Y-89004800D01*
X74620800Y-89024300D02*
X74595100Y-89018800D01*
X74709500Y-89048400D02*
X74620800Y-89024300D01*
X74806800Y-89085800D02*
X74709500Y-89048400D01*
X74888800Y-89127200D02*
X74806800Y-89085800D01*
X74911500Y-89140300D02*
X74888800Y-89127200D01*
X74988400Y-89190700D02*
X74911500Y-89140300D01*
X75069400Y-89256200D02*
X74988400Y-89190700D01*
X75134600Y-89320900D02*
X75069400Y-89256200D01*
X75152200Y-89340400D02*
X75134600Y-89320900D01*
X75209700Y-89412100D02*
X75152200Y-89340400D01*
X75266500Y-89499500D02*
X75209700Y-89412100D01*
X75308500Y-89581100D02*
X75266500Y-89499500D01*
X75319200Y-89605200D02*
X75308500Y-89581100D01*
X75351800Y-89691100D02*
X75319200Y-89605200D01*
X75378700Y-89791800D02*
X75351800Y-89691100D01*
X75395200Y-89895700D02*
X75378700Y-89791800D01*
X75401000Y-90006600D02*
X75395200Y-89895700D01*
X75400900Y-98000200D02*
X75401000Y-90006600D01*
X75395100Y-98104900D02*
X75400900Y-98000200D01*
X75378700Y-98208400D02*
X75395100Y-98104900D01*
X75351800Y-98309000D02*
X75378700Y-98208400D01*
X75314200Y-98406800D02*
X75351800Y-98309000D01*
X75266700Y-98500200D02*
X75314200Y-98406800D01*
X75209700Y-98588000D02*
X75266700Y-98500200D01*
X75143800Y-98669400D02*
X75209700Y-98588000D01*
X75078900Y-98734800D02*
X75143800Y-98669400D01*
X75059600Y-98752200D02*
X75078900Y-98734800D01*
X74988400Y-98809400D02*
X75059600Y-98752200D01*
X74911500Y-98859700D02*
X74988400Y-98809400D01*
X74888800Y-98872900D02*
X74911500Y-98859700D01*
X74818600Y-98908600D02*
X74888800Y-98872900D01*
X74794900Y-98919200D02*
X74818600Y-98908600D01*
X74708900Y-98951800D02*
X74794900Y-98919200D01*
X74607800Y-98978900D02*
X74708900Y-98951800D01*
X74504800Y-98995200D02*
X74607800Y-98978900D01*
X74400100Y-99000900D02*
X74504800Y-98995200D01*
X65691200Y-99001000D02*
X74400100Y-99000900D01*
X65594000Y-99005800D02*
X65691200Y-99001000D01*
X65497900Y-99020100D02*
X65594000Y-99005800D01*
X65403600Y-99043700D02*
X65497900Y-99020100D01*
X65312200Y-99076400D02*
X65403600Y-99043700D01*
X65224300Y-99117900D02*
X65312200Y-99076400D01*
X65141000Y-99167900D02*
X65224300Y-99117900D01*
X65063000Y-99225700D02*
X65141000Y-99167900D01*
X64991000Y-99291000D02*
X65063000Y-99225700D01*
X64925700Y-99363000D02*
X64991000Y-99291000D01*
X64867900Y-99441000D02*
X64925700Y-99363000D01*
X64817900Y-99524300D02*
X64867900Y-99441000D01*
X64776400Y-99612200D02*
X64817900Y-99524300D01*
X64743600Y-99703600D02*
X64776400Y-99612200D01*
X64720000Y-99797900D02*
X64743600Y-99703600D01*
X64705800Y-99894000D02*
X64720000Y-99797900D01*
X64701000Y-99991300D02*
X64705800Y-99894000D01*
X64701000Y-101008800D02*
X64701000Y-99991300D01*
X64705800Y-101106000D02*
X64701000Y-101008800D01*
X64720000Y-101202200D02*
X64705800Y-101106000D01*
X64743600Y-101296400D02*
X64720000Y-101202200D01*
X64776400Y-101387900D02*
X64743600Y-101296400D01*
X64817900Y-101475700D02*
X64776400Y-101387900D01*
X64867900Y-101559000D02*
X64817900Y-101475700D01*
X64925700Y-101637100D02*
X64867900Y-101559000D01*
X64991000Y-101709000D02*
X64925700Y-101637100D01*
X65063000Y-101774300D02*
X64991000Y-101709000D01*
X65141000Y-101832200D02*
X65063000Y-101774300D01*
X65224300Y-101882100D02*
X65141000Y-101832200D01*
X65312200Y-101923600D02*
X65224300Y-101882100D01*
X65403600Y-101956400D02*
X65312200Y-101923600D01*
X65497900Y-101980000D02*
X65403600Y-101956400D01*
X65594000Y-101994200D02*
X65497900Y-101980000D01*
X65691300Y-101999000D02*
X65594000Y-101994200D01*
X74393400Y-101999000D02*
X65691300Y-101999000D01*
X74491500Y-102003800D02*
X74393400Y-101999000D01*
X74517600Y-102006600D02*
X74491500Y-102003800D01*
X74608300Y-102021300D02*
X74517600Y-102006600D01*
X74696600Y-102044600D02*
X74608300Y-102021300D01*
X74721600Y-102052700D02*
X74696600Y-102044600D01*
X74806800Y-102085800D02*
X74721600Y-102052700D01*
X74888800Y-102127200D02*
X74806800Y-102085800D01*
X74911500Y-102140300D02*
X74888800Y-102127200D01*
X74988000Y-102190400D02*
X74911500Y-102140300D01*
X75059600Y-102247900D02*
X74988000Y-102190400D01*
X75079100Y-102265400D02*
X75059600Y-102247900D01*
X75143500Y-102330300D02*
X75079100Y-102265400D01*
X75201500Y-102401400D02*
X75143500Y-102330300D01*
X75217000Y-102422700D02*
X75201500Y-102401400D01*
X75266500Y-102499500D02*
X75217000Y-102422700D01*
X75314300Y-102593300D02*
X75266500Y-102499500D01*
X75351800Y-102691100D02*
X75314300Y-102593300D01*
X75378800Y-102792300D02*
X75351800Y-102691100D01*
X75395200Y-102895700D02*
X75378800Y-102792300D01*
X75401000Y-103006500D02*
X75395200Y-102895700D01*
X75400900Y-110999900D02*
X75401000Y-103006500D01*
X75395100Y-111104900D02*
X75400900Y-110999900D01*
X75378800Y-111207900D02*
X75395100Y-111104900D01*
X75351800Y-111309000D02*
X75378800Y-111207900D01*
X75319200Y-111394900D02*
X75351800Y-111309000D01*
X75308500Y-111418900D02*
X75319200Y-111394900D01*
X75272800Y-111489000D02*
X75308500Y-111418900D01*
X75259700Y-111511600D02*
X75272800Y-111489000D01*
X75209400Y-111588400D02*
X75259700Y-111511600D01*
X75143400Y-111669800D02*
X75209400Y-111588400D01*
X75069700Y-111743500D02*
X75143400Y-111669800D01*
X74988400Y-111809400D02*
X75069700Y-111743500D01*
X74900500Y-111866500D02*
X74988400Y-111809400D01*
X74807200Y-111914100D02*
X74900500Y-111866500D01*
X74709400Y-111951600D02*
X74807200Y-111914100D01*
X74608300Y-111978800D02*
X74709400Y-111951600D01*
X74504800Y-111995200D02*
X74608300Y-111978800D01*
X74400100Y-112000900D02*
X74504800Y-111995200D01*
X65691300Y-112001000D02*
X74400100Y-112000900D01*
X65594000Y-112005800D02*
X65691300Y-112001000D01*
X65497900Y-112020100D02*
X65594000Y-112005800D01*
X65403600Y-112043700D02*
X65497900Y-112020100D01*
X65312200Y-112076400D02*
X65403600Y-112043700D01*
X65224300Y-112117900D02*
X65312200Y-112076400D01*
X65141000Y-112167900D02*
X65224300Y-112117900D01*
X65063000Y-112225800D02*
X65141000Y-112167900D01*
X64991000Y-112291000D02*
X65063000Y-112225800D01*
X64925700Y-112363000D02*
X64991000Y-112291000D01*
X64867900Y-112441000D02*
X64925700Y-112363000D01*
X64817900Y-112524300D02*
X64867900Y-112441000D01*
X64776400Y-112612200D02*
X64817900Y-112524300D01*
X64743600Y-112703600D02*
X64776400Y-112612200D01*
X64720000Y-112797900D02*
X64743600Y-112703600D01*
X64705800Y-112894000D02*
X64720000Y-112797900D01*
X64701000Y-112991300D02*
X64705800Y-112894000D01*
X64701000Y-114008800D02*
X64701000Y-112991300D01*
X64705800Y-114106100D02*
X64701000Y-114008800D01*
X64720000Y-114202200D02*
X64705800Y-114106100D01*
X64743600Y-114296400D02*
X64720000Y-114202200D01*
X64776400Y-114387900D02*
X64743600Y-114296400D01*
X64817900Y-114475700D02*
X64776400Y-114387900D01*
X64867900Y-114559000D02*
X64817900Y-114475700D01*
X64925700Y-114637100D02*
X64867900Y-114559000D01*
X64991000Y-114709000D02*
X64925700Y-114637100D01*
X65063000Y-114774300D02*
X64991000Y-114709000D01*
X65141000Y-114832200D02*
X65063000Y-114774300D01*
X65224300Y-114882100D02*
X65141000Y-114832200D01*
X65312200Y-114923600D02*
X65224300Y-114882100D01*
X65403600Y-114956400D02*
X65312200Y-114923600D01*
X65497900Y-114980000D02*
X65403600Y-114956400D01*
X65594000Y-114994200D02*
X65497900Y-114980000D01*
X65691300Y-114999000D02*
X65594000Y-114994200D01*
X74400200Y-114999100D02*
X65691300Y-114999000D01*
X74504900Y-115004900D02*
X74400200Y-114999100D01*
X74607800Y-115021200D02*
X74504900Y-115004900D01*
X74709000Y-115048300D02*
X74607800Y-115021200D01*
X74794900Y-115080900D02*
X74709000Y-115048300D01*
X74818900Y-115091600D02*
X74794900Y-115080900D01*
X74889000Y-115127300D02*
X74818900Y-115091600D01*
X74911500Y-115140300D02*
X74889000Y-115127300D01*
X74988400Y-115190700D02*
X74911500Y-115140300D01*
X75059600Y-115247900D02*
X74988400Y-115190700D01*
X75078900Y-115265300D02*
X75059600Y-115247900D01*
X75143800Y-115330700D02*
X75078900Y-115265300D01*
X75209700Y-115412100D02*
X75143800Y-115330700D01*
X75266700Y-115500000D02*
X75209700Y-115412100D01*
X75314300Y-115593300D02*
X75266700Y-115500000D01*
X75351600Y-115690600D02*
X75314300Y-115593300D01*
X75378700Y-115791800D02*
X75351600Y-115690600D01*
X75395100Y-115895200D02*
X75378700Y-115791800D01*
X75400900Y-115999900D02*
X75395100Y-115895200D01*
X75401000Y-123993400D02*
X75400900Y-115999900D01*
X75396200Y-124091500D02*
X75401000Y-123993400D01*
X75393500Y-124117700D02*
X75396200Y-124091500D01*
X75378700Y-124208400D02*
X75393500Y-124117700D01*
X75355300Y-124296900D02*
X75378700Y-124208400D01*
X75347300Y-124321600D02*
X75355300Y-124296900D01*
X75319200Y-124394900D02*
X75347300Y-124321600D01*
X75308500Y-124418900D02*
X75319200Y-124394900D01*
X75266700Y-124500200D02*
X75308500Y-124418900D01*
X75217000Y-124577400D02*
X75266700Y-124500200D01*
X75201600Y-124598600D02*
X75217000Y-124577400D01*
X75143800Y-124669400D02*
X75201600Y-124598600D01*
X75079100Y-124734600D02*
X75143800Y-124669400D01*
X75059600Y-124752200D02*
X75079100Y-124734600D01*
X74988400Y-124809500D02*
X75059600Y-124752200D01*
X74911500Y-124859800D02*
X74988400Y-124809500D01*
X74888800Y-124872900D02*
X74911500Y-124859800D01*
X74806700Y-124914300D02*
X74888800Y-124872900D01*
X74709400Y-124951700D02*
X74806700Y-124914300D01*
X74620800Y-124975800D02*
X74709400Y-124951700D01*
X74595100Y-124981200D02*
X74620800Y-124975800D01*
X74517600Y-124993500D02*
X74595100Y-124981200D01*
X74491800Y-124996200D02*
X74517600Y-124993500D01*
X74393500Y-125001000D02*
X74491800Y-124996200D01*
X65691300Y-125001000D02*
X74393500Y-125001000D01*
X65594000Y-125005800D02*
X65691300Y-125001000D01*
X65497900Y-125020100D02*
X65594000Y-125005800D01*
X65403600Y-125043700D02*
X65497900Y-125020100D01*
X65312200Y-125076400D02*
X65403600Y-125043700D01*
X65224300Y-125117900D02*
X65312200Y-125076400D01*
X65141000Y-125167900D02*
X65224300Y-125117900D01*
X65063000Y-125225800D02*
X65141000Y-125167900D01*
X64991000Y-125291000D02*
X65063000Y-125225800D01*
X64925700Y-125363000D02*
X64991000Y-125291000D01*
X64867900Y-125441000D02*
X64925700Y-125363000D01*
X64817900Y-125524400D02*
X64867900Y-125441000D01*
X64776400Y-125612200D02*
X64817900Y-125524400D01*
X64743600Y-125703700D02*
X64776400Y-125612200D01*
X64720000Y-125797900D02*
X64743600Y-125703700D01*
X64705800Y-125894000D02*
X64720000Y-125797900D01*
X64701000Y-125991300D02*
X64705800Y-125894000D01*
X64701000Y-127008800D02*
X64701000Y-125991300D01*
X64705800Y-127106100D02*
X64701000Y-127008800D01*
X64720000Y-127202200D02*
X64705800Y-127106100D01*
X64743600Y-127296500D02*
X64720000Y-127202200D01*
X64776400Y-127387900D02*
X64743600Y-127296500D01*
X64817900Y-127475800D02*
X64776400Y-127387900D01*
X64867900Y-127559100D02*
X64817900Y-127475800D01*
X64925700Y-127637100D02*
X64867900Y-127559100D01*
X64991000Y-127709100D02*
X64925700Y-127637100D01*
X65063000Y-127774400D02*
X64991000Y-127709100D01*
X65141000Y-127832200D02*
X65063000Y-127774400D01*
X65224300Y-127882200D02*
X65141000Y-127832200D01*
X65312100Y-127923700D02*
X65224300Y-127882200D01*
X65403600Y-127956400D02*
X65312100Y-127923700D01*
X65497900Y-127980000D02*
X65403600Y-127956400D01*
X65594000Y-127994300D02*
X65497900Y-127980000D01*
X65691200Y-127999100D02*
X65594000Y-127994300D01*
X74400200Y-127999200D02*
X65691200Y-127999100D01*
X74504900Y-128004900D02*
X74400200Y-127999200D01*
X74607800Y-128021200D02*
X74504900Y-128004900D01*
X74709000Y-128048300D02*
X74607800Y-128021200D01*
X74794900Y-128080900D02*
X74709000Y-128048300D01*
X74818900Y-128091600D02*
X74794900Y-128080900D01*
X74889000Y-128127300D02*
X74818900Y-128091600D01*
X74911500Y-128140300D02*
X74889000Y-128127300D01*
X74988400Y-128190700D02*
X74911500Y-128140300D01*
X75069800Y-128256600D02*
X74988400Y-128190700D01*
X75143500Y-128330300D02*
X75069800Y-128256600D01*
X75209400Y-128411700D02*
X75143500Y-128330300D01*
X75266500Y-128499500D02*
X75209400Y-128411700D01*
X75314000Y-128592800D02*
X75266500Y-128499500D01*
X75351600Y-128690600D02*
X75314000Y-128592800D01*
X75378700Y-128791800D02*
X75351600Y-128690600D01*
X75395100Y-128895200D02*
X75378700Y-128791800D01*
X75400900Y-128999900D02*
X75395100Y-128895200D01*
X75401000Y-136993500D02*
X75400900Y-128999900D01*
X75396200Y-137091500D02*
X75401000Y-136993500D01*
X75393500Y-137117700D02*
X75396200Y-137091500D01*
X75378700Y-137208400D02*
X75393500Y-137117700D01*
X75355300Y-137296900D02*
X75378700Y-137208400D01*
X75347300Y-137321700D02*
X75355300Y-137296900D01*
X75319200Y-137394900D02*
X75347300Y-137321700D01*
X75308500Y-137418900D02*
X75319200Y-137394900D01*
X75266400Y-137500600D02*
X75308500Y-137418900D01*
X75209700Y-137588000D02*
X75266400Y-137500600D01*
X75143800Y-137669400D02*
X75209700Y-137588000D01*
X75079100Y-137734600D02*
X75143800Y-137669400D01*
X75059600Y-137752200D02*
X75079100Y-137734600D01*
X74998400Y-137801800D02*
X75059600Y-137752200D01*
X74977400Y-137817000D02*
X74998400Y-137801800D01*
X74900100Y-137866800D02*
X74977400Y-137817000D01*
X74807200Y-137914100D02*
X74900100Y-137866800D01*
X74709400Y-137951700D02*
X74807200Y-137914100D01*
X74620800Y-137975800D02*
X74709400Y-137951700D01*
X74595100Y-137981200D02*
X74620800Y-137975800D01*
X74504300Y-137995300D02*
X74595100Y-137981200D01*
X74393500Y-138001100D02*
X74504300Y-137995300D01*
X65691200Y-138001100D02*
X74393500Y-138001100D01*
X65594000Y-138005900D02*
X65691200Y-138001100D01*
X65497900Y-138020100D02*
X65594000Y-138005900D01*
X65403600Y-138043700D02*
X65497900Y-138020100D01*
X65312100Y-138076400D02*
X65403600Y-138043700D01*
X65224300Y-138118000D02*
X65312100Y-138076400D01*
X65141000Y-138167900D02*
X65224300Y-138118000D01*
X65063000Y-138225800D02*
X65141000Y-138167900D01*
X64991000Y-138291000D02*
X65063000Y-138225800D01*
X64925700Y-138363000D02*
X64991000Y-138291000D01*
X64867900Y-138441100D02*
X64925700Y-138363000D01*
X64817900Y-138524400D02*
X64867900Y-138441100D01*
X64776400Y-138612200D02*
X64817900Y-138524400D01*
X64743600Y-138703700D02*
X64776400Y-138612200D01*
X64720000Y-138797900D02*
X64743600Y-138703700D01*
X64705800Y-138894000D02*
X64720000Y-138797900D01*
X64701000Y-138991300D02*
X64705800Y-138894000D01*
X64701000Y-139999800D02*
X64701000Y-138991300D01*
X64705800Y-140097100D02*
X64701000Y-139999800D01*
X64720000Y-140193200D02*
X64705800Y-140097100D01*
X64743600Y-140287400D02*
X64720000Y-140193200D01*
X64776400Y-140378900D02*
X64743600Y-140287400D01*
X64817900Y-140466700D02*
X64776400Y-140378900D01*
X64867900Y-140550100D02*
X64817900Y-140466700D01*
X64925700Y-140628100D02*
X64867900Y-140550100D01*
X64991000Y-140700100D02*
X64925700Y-140628100D01*
X65063000Y-140765300D02*
X64991000Y-140700100D01*
X65141000Y-140823200D02*
X65063000Y-140765300D01*
X65224300Y-140873200D02*
X65141000Y-140823200D01*
X65312200Y-140914700D02*
X65224300Y-140873200D01*
X65403600Y-140947400D02*
X65312200Y-140914700D01*
X65497900Y-140971000D02*
X65403600Y-140947400D01*
X65594000Y-140985300D02*
X65497900Y-140971000D01*
X65691200Y-140990100D02*
X65594000Y-140985300D01*
X88108800Y-140990100D02*
X65691200Y-140990100D01*
X88206000Y-140985300D02*
X88108800Y-140990100D01*
X88302100Y-140971000D02*
X88206000Y-140985300D01*
X88396400Y-140947400D02*
X88302100Y-140971000D01*
X88487900Y-140914700D02*
X88396400Y-140947400D01*
X88575700Y-140873200D02*
X88487900Y-140914700D01*
X88659000Y-140823200D02*
X88575700Y-140873200D01*
X88737100Y-140765300D02*
X88659000Y-140823200D01*
X88809000Y-140700100D02*
X88737100Y-140765300D01*
X88874300Y-140628100D02*
X88809000Y-140700100D01*
X88932200Y-140550100D02*
X88874300Y-140628100D01*
X88982100Y-140466700D02*
X88932200Y-140550100D01*
X89023600Y-140378900D02*
X88982100Y-140466700D01*
X89056400Y-140287400D02*
X89023600Y-140378900D01*
X89080000Y-140193200D02*
X89056400Y-140287400D01*
X89094200Y-140097100D02*
X89080000Y-140193200D01*
X89099000Y-139999800D02*
X89094200Y-140097100D01*
X89099000Y-138991300D02*
X89099000Y-139999800D01*
X89094200Y-138894000D02*
X89099000Y-138991300D01*
X89080000Y-138797900D02*
X89094200Y-138894000D01*
X89056400Y-138703700D02*
X89080000Y-138797900D01*
X89023600Y-138612200D02*
X89056400Y-138703700D01*
X88982100Y-138524400D02*
X89023600Y-138612200D01*
X88932200Y-138441100D02*
X88982100Y-138524400D01*
X88874300Y-138363000D02*
X88932200Y-138441100D01*
X88809000Y-138291100D02*
X88874300Y-138363000D01*
X88737100Y-138225800D02*
X88809000Y-138291100D01*
X88659000Y-138167900D02*
X88737100Y-138225800D01*
X88575700Y-138118000D02*
X88659000Y-138167900D01*
X88487900Y-138076500D02*
X88575700Y-138118000D01*
X88396400Y-138043700D02*
X88487900Y-138076500D01*
X88302100Y-138020100D02*
X88396400Y-138043700D01*
X88206000Y-138005900D02*
X88302100Y-138020100D01*
X88108800Y-138001100D02*
X88206000Y-138005900D01*
X79406600Y-138001100D02*
X88108800Y-138001100D01*
X79295600Y-137995300D02*
X79406600Y-138001100D01*
X79192200Y-137978900D02*
X79295600Y-137995300D01*
X79091000Y-137951800D02*
X79192200Y-137978900D01*
X78993200Y-137914300D02*
X79091000Y-137951800D01*
X78911200Y-137872900D02*
X78993200Y-137914300D01*
X78888500Y-137859800D02*
X78911200Y-137872900D01*
X78822500Y-137816900D02*
X78888500Y-137859800D01*
X78801400Y-137801600D02*
X78822500Y-137816900D01*
X78730200Y-137743500D02*
X78801400Y-137801600D01*
X78656200Y-137669400D02*
X78730200Y-137743500D01*
X78590600Y-137588400D02*
X78656200Y-137669400D01*
X78533500Y-137500600D02*
X78590600Y-137588400D01*
X78486000Y-137407300D02*
X78533500Y-137500600D01*
X78452700Y-137321700D02*
X78486000Y-137407300D01*
X78444600Y-137296700D02*
X78452700Y-137321700D01*
X78424200Y-137220600D02*
X78444600Y-137296700D01*
X78418800Y-137195200D02*
X78424200Y-137220600D01*
X78404800Y-137104400D02*
X78418800Y-137195200D01*
X78399000Y-136993600D02*
X78404800Y-137104400D01*
X78399100Y-128999900D02*
X78399000Y-136993600D01*
X78404900Y-128895200D02*
X78399100Y-128999900D01*
X78421300Y-128791700D02*
X78404900Y-128895200D01*
X78448400Y-128690600D02*
X78421300Y-128791700D01*
X78486000Y-128592800D02*
X78448400Y-128690600D01*
X78533300Y-128499900D02*
X78486000Y-128592800D01*
X78590300Y-128412100D02*
X78533300Y-128499900D01*
X78656200Y-128330700D02*
X78590300Y-128412100D01*
X78730300Y-128256600D02*
X78656200Y-128330700D01*
X78811600Y-128190600D02*
X78730300Y-128256600D01*
X78888500Y-128140300D02*
X78811600Y-128190600D01*
X78911200Y-128127200D02*
X78888500Y-128140300D01*
X78981400Y-128091500D02*
X78911200Y-128127200D01*
X79005100Y-128080900D02*
X78981400Y-128091500D01*
X79091100Y-128048300D02*
X79005100Y-128080900D01*
X79192200Y-128021200D02*
X79091100Y-128048300D01*
X79295200Y-128004900D02*
X79192200Y-128021200D01*
X79399900Y-127999100D02*
X79295200Y-128004900D01*
X88108800Y-127999100D02*
X79399900Y-127999100D01*
X88206000Y-127994300D02*
X88108800Y-127999100D01*
X88302100Y-127980000D02*
X88206000Y-127994300D01*
X88396400Y-127956400D02*
X88302100Y-127980000D01*
X88487900Y-127923700D02*
X88396400Y-127956400D01*
X88575700Y-127882200D02*
X88487900Y-127923700D01*
X88659000Y-127832200D02*
X88575700Y-127882200D01*
X88737100Y-127774300D02*
X88659000Y-127832200D01*
X88809000Y-127709100D02*
X88737100Y-127774300D01*
X88874300Y-127637100D02*
X88809000Y-127709100D01*
X88932200Y-127559100D02*
X88874300Y-127637100D01*
X88982100Y-127475700D02*
X88932200Y-127559100D01*
X89023600Y-127387900D02*
X88982100Y-127475700D01*
X89056400Y-127296500D02*
X89023600Y-127387900D01*
X89080000Y-127202200D02*
X89056400Y-127296500D01*
X89094200Y-127106100D02*
X89080000Y-127202200D01*
X89099000Y-127008800D02*
X89094200Y-127106100D01*
X89099000Y-125991300D02*
X89099000Y-127008800D01*
X89094200Y-125894000D02*
X89099000Y-125991300D01*
X89080000Y-125797900D02*
X89094200Y-125894000D01*
X89056400Y-125703600D02*
X89080000Y-125797900D01*
X89023600Y-125612200D02*
X89056400Y-125703600D01*
X88982100Y-125524300D02*
X89023600Y-125612200D01*
X88932200Y-125441000D02*
X88982100Y-125524300D01*
X88874300Y-125363000D02*
X88932200Y-125441000D01*
X88809000Y-125291000D02*
X88874300Y-125363000D01*
X88737100Y-125225700D02*
X88809000Y-125291000D01*
X88659000Y-125167900D02*
X88737100Y-125225700D01*
X88575700Y-125117900D02*
X88659000Y-125167900D01*
X88487900Y-125076400D02*
X88575700Y-125117900D01*
X88396400Y-125043700D02*
X88487900Y-125076400D01*
X88302100Y-125020100D02*
X88396400Y-125043700D01*
X88206000Y-125005800D02*
X88302100Y-125020100D01*
X88108800Y-125001000D02*
X88206000Y-125005800D01*
X79406500Y-125001000D02*
X88108800Y-125001000D01*
X79295100Y-124995200D02*
X79406500Y-125001000D01*
X79192200Y-124978900D02*
X79295100Y-124995200D01*
X79091000Y-124951800D02*
X79192200Y-124978900D01*
X78993200Y-124914300D02*
X79091000Y-124951800D01*
X78911200Y-124872900D02*
X78993200Y-124914300D01*
X78888500Y-124859800D02*
X78911200Y-124872900D01*
X78822500Y-124816900D02*
X78888500Y-124859800D01*
X78801400Y-124801600D02*
X78822500Y-124816900D01*
X78730200Y-124743500D02*
X78801400Y-124801600D01*
X78656200Y-124669400D02*
X78730200Y-124743500D01*
X78590600Y-124588400D02*
X78656200Y-124669400D01*
X78533500Y-124500600D02*
X78590600Y-124588400D01*
X78486000Y-124407300D02*
X78533500Y-124500600D01*
X78452700Y-124321700D02*
X78486000Y-124407300D01*
X78444600Y-124296700D02*
X78452700Y-124321700D01*
X78424200Y-124220600D02*
X78444600Y-124296700D01*
X78418800Y-124195200D02*
X78424200Y-124220600D01*
X78404800Y-124104400D02*
X78418800Y-124195200D01*
X78399000Y-123993600D02*
X78404800Y-124104400D01*
X78399100Y-115999800D02*
X78399000Y-123993600D01*
X78404900Y-115895200D02*
X78399100Y-115999800D01*
X78421300Y-115791700D02*
X78404900Y-115895200D01*
X78448400Y-115690600D02*
X78421300Y-115791700D01*
X78486000Y-115592800D02*
X78448400Y-115690600D01*
X78533300Y-115499900D02*
X78486000Y-115592800D01*
X78590300Y-115412100D02*
X78533300Y-115499900D01*
X78656200Y-115330700D02*
X78590300Y-115412100D01*
X78730300Y-115256600D02*
X78656200Y-115330700D01*
X78811600Y-115190600D02*
X78730300Y-115256600D01*
X78888500Y-115140300D02*
X78811600Y-115190600D01*
X78911200Y-115127200D02*
X78888500Y-115140300D01*
X78981400Y-115091400D02*
X78911200Y-115127200D01*
X79005100Y-115080900D02*
X78981400Y-115091400D01*
X79091100Y-115048300D02*
X79005100Y-115080900D01*
X79192200Y-115021200D02*
X79091100Y-115048300D01*
X79295200Y-115004900D02*
X79192200Y-115021200D01*
X79399900Y-114999100D02*
X79295200Y-115004900D01*
X88108800Y-114999000D02*
X79399900Y-114999100D01*
X88206000Y-114994200D02*
X88108800Y-114999000D01*
X88302100Y-114980000D02*
X88206000Y-114994200D01*
X88396400Y-114956400D02*
X88302100Y-114980000D01*
X88487900Y-114923700D02*
X88396400Y-114956400D01*
X88575700Y-114882100D02*
X88487900Y-114923700D01*
X88659000Y-114832200D02*
X88575700Y-114882100D01*
X88737100Y-114774300D02*
X88659000Y-114832200D01*
X88809000Y-114709100D02*
X88737100Y-114774300D01*
X88874300Y-114637100D02*
X88809000Y-114709100D01*
X88932200Y-114559000D02*
X88874300Y-114637100D01*
X88982100Y-114475700D02*
X88932200Y-114559000D01*
X89023600Y-114387900D02*
X88982100Y-114475700D01*
X89056400Y-114296400D02*
X89023600Y-114387900D01*
X89080000Y-114202200D02*
X89056400Y-114296400D01*
X89094200Y-114106100D02*
X89080000Y-114202200D01*
X89099000Y-114008800D02*
X89094200Y-114106100D01*
X89099000Y-112991300D02*
X89099000Y-114008800D01*
X89094200Y-112894000D02*
X89099000Y-112991300D01*
X89080000Y-112797900D02*
X89094200Y-112894000D01*
X89056400Y-112703600D02*
X89080000Y-112797900D01*
X89023600Y-112612200D02*
X89056400Y-112703600D01*
X88982100Y-112524300D02*
X89023600Y-112612200D01*
X88932200Y-112441000D02*
X88982100Y-112524300D01*
X88874300Y-112363000D02*
X88932200Y-112441000D01*
X88809000Y-112291000D02*
X88874300Y-112363000D01*
X88737100Y-112225700D02*
X88809000Y-112291000D01*
X88659000Y-112167900D02*
X88737100Y-112225700D01*
X88575700Y-112117900D02*
X88659000Y-112167900D01*
X88487900Y-112076400D02*
X88575700Y-112117900D01*
X88396400Y-112043700D02*
X88487900Y-112076400D01*
X88302100Y-112020000D02*
X88396400Y-112043700D01*
X88206000Y-112005800D02*
X88302100Y-112020000D01*
X88108800Y-112001000D02*
X88206000Y-112005800D01*
X79406500Y-112001000D02*
X88108800Y-112001000D01*
X79295600Y-111995200D02*
X79406500Y-112001000D01*
X79192200Y-111978900D02*
X79295600Y-111995200D01*
X79103400Y-111955500D02*
X79192200Y-111978900D01*
X79078400Y-111947300D02*
X79103400Y-111955500D01*
X79004900Y-111919100D02*
X79078400Y-111947300D01*
X78981200Y-111908500D02*
X79004900Y-111919100D01*
X78899400Y-111866500D02*
X78981200Y-111908500D01*
X78811600Y-111809400D02*
X78899400Y-111866500D01*
X78730600Y-111743800D02*
X78811600Y-111809400D01*
X78656500Y-111669800D02*
X78730600Y-111743800D01*
X78590600Y-111588400D02*
X78656500Y-111669800D01*
X78540300Y-111511600D02*
X78590600Y-111588400D01*
X78527100Y-111488800D02*
X78540300Y-111511600D01*
X78491400Y-111418700D02*
X78527100Y-111488800D01*
X78480800Y-111394900D02*
X78491400Y-111418700D01*
X78448200Y-111309000D02*
X78480800Y-111394900D01*
X78421200Y-111207800D02*
X78448200Y-111309000D01*
X78404900Y-111104900D02*
X78421200Y-111207800D01*
X78399100Y-110999900D02*
X78404900Y-111104900D01*
X78399100Y-102999800D02*
X78399100Y-110999900D01*
X78404900Y-102895200D02*
X78399100Y-102999800D01*
X78421300Y-102791700D02*
X78404900Y-102895200D01*
X78448400Y-102690500D02*
X78421300Y-102791700D01*
X78486000Y-102592800D02*
X78448400Y-102690500D01*
X78533300Y-102499900D02*
X78486000Y-102592800D01*
X78590300Y-102412100D02*
X78533300Y-102499900D01*
X78656200Y-102330600D02*
X78590300Y-102412100D01*
X78730300Y-102256600D02*
X78656200Y-102330600D01*
X78811600Y-102190600D02*
X78730300Y-102256600D01*
X78888500Y-102140300D02*
X78811600Y-102190600D01*
X78911200Y-102127200D02*
X78888500Y-102140300D01*
X78981400Y-102091400D02*
X78911200Y-102127200D01*
X79005100Y-102080900D02*
X78981400Y-102091400D01*
X79091100Y-102048300D02*
X79005100Y-102080900D01*
X79192200Y-102021200D02*
X79091100Y-102048300D01*
X79295200Y-102004900D02*
X79192200Y-102021200D01*
X79399900Y-101999100D02*
X79295200Y-102004900D01*
X88108800Y-101999000D02*
X79399900Y-101999100D01*
X88206000Y-101994200D02*
X88108800Y-101999000D01*
X88302100Y-101980000D02*
X88206000Y-101994200D01*
X88396400Y-101956400D02*
X88302100Y-101980000D01*
X88487900Y-101923700D02*
X88396400Y-101956400D01*
X88575700Y-101882100D02*
X88487900Y-101923700D01*
X88659000Y-101832200D02*
X88575700Y-101882100D01*
X88737100Y-101774300D02*
X88659000Y-101832200D01*
X88809000Y-101709000D02*
X88737100Y-101774300D01*
X88874300Y-101637100D02*
X88809000Y-101709000D01*
X88932200Y-101559000D02*
X88874300Y-101637100D01*
X88982100Y-101475700D02*
X88932200Y-101559000D01*
X89023600Y-101387900D02*
X88982100Y-101475700D01*
X89056400Y-101296400D02*
X89023600Y-101387900D01*
X89080000Y-101202200D02*
X89056400Y-101296400D01*
X89094200Y-101106100D02*
X89080000Y-101202200D01*
X89099000Y-101008800D02*
X89094200Y-101106100D01*
X89099000Y-99991300D02*
X89099000Y-101008800D01*
X89094200Y-99894000D02*
X89099000Y-99991300D01*
X89080000Y-99797900D02*
X89094200Y-99894000D01*
X89056400Y-99703600D02*
X89080000Y-99797900D01*
X89023600Y-99612200D02*
X89056400Y-99703600D01*
X88982100Y-99524300D02*
X89023600Y-99612200D01*
X88932200Y-99441000D02*
X88982100Y-99524300D01*
X88874300Y-99363000D02*
X88932200Y-99441000D01*
X88809000Y-99291000D02*
X88874300Y-99363000D01*
X88737100Y-99225700D02*
X88809000Y-99291000D01*
X88659000Y-99167900D02*
X88737100Y-99225700D01*
X88575700Y-99117900D02*
X88659000Y-99167900D01*
X88487900Y-99076400D02*
X88575700Y-99117900D01*
X88396400Y-99043700D02*
X88487900Y-99076400D01*
X88302100Y-99020000D02*
X88396400Y-99043700D01*
X88206000Y-99005800D02*
X88302100Y-99020000D01*
X88108800Y-99001000D02*
X88206000Y-99005800D01*
X79406500Y-99001000D02*
X88108800Y-99001000D01*
X79295600Y-98995200D02*
X79406500Y-99001000D01*
X79192200Y-98978900D02*
X79295600Y-98995200D01*
X79103400Y-98955400D02*
X79192200Y-98978900D01*
X79078400Y-98947300D02*
X79103400Y-98955400D01*
X79004900Y-98919100D02*
X79078400Y-98947300D01*
X78981200Y-98908500D02*
X79004900Y-98919100D01*
X78899400Y-98866500D02*
X78981200Y-98908500D01*
X78811600Y-98809400D02*
X78899400Y-98866500D01*
X78730600Y-98743800D02*
X78811600Y-98809400D01*
X78656500Y-98669800D02*
X78730600Y-98743800D01*
X78590600Y-98588400D02*
X78656500Y-98669800D01*
X78540300Y-98511600D02*
X78590600Y-98588400D01*
X78527100Y-98488800D02*
X78540300Y-98511600D01*
X78491400Y-98418700D02*
X78527100Y-98488800D01*
X78480800Y-98394900D02*
X78491400Y-98418700D01*
X78448200Y-98309000D02*
X78480800Y-98394900D01*
X78421200Y-98207800D02*
X78448200Y-98309000D01*
X78404900Y-98104900D02*
X78421200Y-98207800D01*
X78399100Y-97999900D02*
X78404900Y-98104900D01*
X78399100Y-89999800D02*
X78399100Y-97999900D01*
X78404900Y-89895100D02*
X78399100Y-89999800D01*
X78421300Y-89791700D02*
X78404900Y-89895100D01*
X78448400Y-89690500D02*
X78421300Y-89791700D01*
X78486000Y-89592800D02*
X78448400Y-89690500D01*
X78533300Y-89499900D02*
X78486000Y-89592800D01*
X78590300Y-89412000D02*
X78533300Y-89499900D01*
X78656200Y-89330600D02*
X78590300Y-89412000D01*
X78730300Y-89256600D02*
X78656200Y-89330600D01*
X78811600Y-89190600D02*
X78730300Y-89256600D01*
X78888500Y-89140300D02*
X78811600Y-89190600D01*
X78911200Y-89127200D02*
X78888500Y-89140300D01*
X78981400Y-89091400D02*
X78911200Y-89127200D01*
X79005100Y-89080900D02*
X78981400Y-89091400D01*
X79091100Y-89048300D02*
X79005100Y-89080900D01*
X79192200Y-89021200D02*
X79091100Y-89048300D01*
X79295200Y-89004900D02*
X79192200Y-89021200D01*
X79399900Y-88999100D02*
X79295200Y-89004900D01*
X88108800Y-88999000D02*
X79399900Y-88999100D01*
X88206000Y-88994200D02*
X88108800Y-88999000D01*
X88302100Y-88980000D02*
X88206000Y-88994200D01*
X88396400Y-88956400D02*
X88302100Y-88980000D01*
X88487900Y-88923600D02*
X88396400Y-88956400D01*
X88575700Y-88882100D02*
X88487900Y-88923600D01*
X88659000Y-88832200D02*
X88575700Y-88882100D01*
X88737100Y-88774300D02*
X88659000Y-88832200D01*
X88809000Y-88709000D02*
X88737100Y-88774300D01*
X88874300Y-88637100D02*
X88809000Y-88709000D01*
X88932200Y-88559000D02*
X88874300Y-88637100D01*
X88982100Y-88475700D02*
X88932200Y-88559000D01*
X89023600Y-88387900D02*
X88982100Y-88475700D01*
X89056400Y-88296400D02*
X89023600Y-88387900D01*
X89080000Y-88202200D02*
X89056400Y-88296400D01*
X89094200Y-88106100D02*
X89080000Y-88202200D01*
X89099000Y-88008800D02*
X89094200Y-88106100D01*
X89099000Y-86991300D02*
X89099000Y-88008800D01*
X89094200Y-86894000D02*
X89099000Y-86991300D01*
X89080000Y-86797900D02*
X89094200Y-86894000D01*
X89056400Y-86703600D02*
X89080000Y-86797900D01*
X89023600Y-86612200D02*
X89056400Y-86703600D01*
X88982100Y-86524300D02*
X89023600Y-86612200D01*
X88932200Y-86441000D02*
X88982100Y-86524300D01*
X88874300Y-86363000D02*
X88932200Y-86441000D01*
X88809000Y-86291000D02*
X88874300Y-86363000D01*
X88737100Y-86225700D02*
X88809000Y-86291000D01*
X88659000Y-86167900D02*
X88737100Y-86225700D01*
X88575700Y-86117900D02*
X88659000Y-86167900D01*
X88487900Y-86076400D02*
X88575700Y-86117900D01*
X88396400Y-86043600D02*
X88487900Y-86076400D01*
X88302100Y-86020000D02*
X88396400Y-86043600D01*
X88206000Y-86005800D02*
X88302100Y-86020000D01*
X88108800Y-86001000D02*
X88206000Y-86005800D01*
X79406500Y-86001000D02*
X88108800Y-86001000D01*
X79308300Y-85996200D02*
X79406500Y-86001000D01*
X79282400Y-85993500D02*
X79308300Y-85996200D01*
X79204900Y-85981200D02*
X79282400Y-85993500D01*
X79179200Y-85975700D02*
X79204900Y-85981200D01*
X79091000Y-85951800D02*
X79179200Y-85975700D01*
X79005200Y-85919200D02*
X79091000Y-85951800D01*
X78981200Y-85908500D02*
X79005200Y-85919200D01*
X78899900Y-85866700D02*
X78981200Y-85908500D01*
X78822700Y-85817000D02*
X78899900Y-85866700D01*
X78801400Y-85801600D02*
X78822700Y-85817000D01*
X78730600Y-85743800D02*
X78801400Y-85801600D01*
X78665400Y-85679100D02*
X78730600Y-85743800D01*
X78647800Y-85659600D02*
X78665400Y-85679100D01*
X78590300Y-85588000D02*
X78647800Y-85659600D01*
X78533500Y-85500500D02*
X78590300Y-85588000D01*
X78491500Y-85418900D02*
X78533500Y-85500500D01*
X78480800Y-85394900D02*
X78491500Y-85418900D01*
X78452700Y-85321600D02*
X78480800Y-85394900D01*
X78444700Y-85296900D02*
X78452700Y-85321600D01*
X78421300Y-85208300D02*
X78444700Y-85296900D01*
X78406600Y-85117700D02*
X78421300Y-85208300D01*
X78403800Y-85091500D02*
X78406600Y-85117700D01*
X78399000Y-84993500D02*
X78403800Y-85091500D01*
X78399100Y-76999800D02*
X78399000Y-84993500D01*
X78404900Y-76895100D02*
X78399100Y-76999800D01*
X78421300Y-76791700D02*
X78404900Y-76895100D01*
X78448300Y-76691000D02*
X78421300Y-76791700D01*
X78485800Y-76593200D02*
X78448300Y-76691000D01*
X78533300Y-76499900D02*
X78485800Y-76593200D01*
X78590300Y-76412000D02*
X78533300Y-76499900D01*
X78656200Y-76330600D02*
X78590300Y-76412000D01*
X78721100Y-76265300D02*
X78656200Y-76330600D01*
X78740400Y-76247900D02*
X78721100Y-76265300D01*
X78811600Y-76190600D02*
X78740400Y-76247900D01*
X78888500Y-76140300D02*
X78811600Y-76190600D01*
X78911200Y-76127200D02*
X78888500Y-76140300D01*
X78981400Y-76091400D02*
X78911200Y-76127200D01*
X79005100Y-76080800D02*
X78981400Y-76091400D01*
X79091100Y-76048300D02*
X79005100Y-76080800D01*
X79192200Y-76021200D02*
X79091100Y-76048300D01*
X79295200Y-76004900D02*
X79192200Y-76021200D01*
X79399900Y-75999100D02*
X79295200Y-76004900D01*
X88108800Y-75999000D02*
X79399900Y-75999100D01*
X88206000Y-75994200D02*
X88108800Y-75999000D01*
X88302100Y-75980000D02*
X88206000Y-75994200D01*
X88396400Y-75956400D02*
X88302100Y-75980000D01*
X88487900Y-75923600D02*
X88396400Y-75956400D01*
X88575700Y-75882100D02*
X88487900Y-75923600D01*
X88659000Y-75832200D02*
X88575700Y-75882100D01*
X88737100Y-75774300D02*
X88659000Y-75832200D01*
X88809000Y-75709000D02*
X88737100Y-75774300D01*
X88874300Y-75637100D02*
X88809000Y-75709000D01*
X88932200Y-75559000D02*
X88874300Y-75637100D01*
X88982100Y-75475700D02*
X88932200Y-75559000D01*
X89023600Y-75387900D02*
X88982100Y-75475700D01*
X89056400Y-75296400D02*
X89023600Y-75387900D01*
X89080000Y-75202100D02*
X89056400Y-75296400D01*
X89094200Y-75106000D02*
X89080000Y-75202100D01*
X89099000Y-75008800D02*
X89094200Y-75106000D01*
X89099000Y-73991200D02*
X89099000Y-75008800D01*
X89094200Y-73894000D02*
X89099000Y-73991200D01*
X89080000Y-73797900D02*
X89094200Y-73894000D01*
X89056400Y-73703600D02*
X89080000Y-73797900D01*
X89023600Y-73612200D02*
X89056400Y-73703600D01*
X88982100Y-73524300D02*
X89023600Y-73612200D01*
X88932200Y-73441000D02*
X88982100Y-73524300D01*
X88874300Y-73363000D02*
X88932200Y-73441000D01*
X88809000Y-73291000D02*
X88874300Y-73363000D01*
X88737100Y-73225700D02*
X88809000Y-73291000D01*
X88659000Y-73167900D02*
X88737100Y-73225700D01*
X88575700Y-73117900D02*
X88659000Y-73167900D01*
X88487900Y-73076400D02*
X88575700Y-73117900D01*
X88396400Y-73043600D02*
X88487900Y-73076400D01*
X88302100Y-73020000D02*
X88396400Y-73043600D01*
X88206000Y-73005800D02*
X88302100Y-73020000D01*
X88108800Y-73001000D02*
X88206000Y-73005800D01*
X79399800Y-73000900D02*
X88108800Y-73001000D01*
X79295100Y-72995200D02*
X79399800Y-73000900D01*
X79191700Y-72978700D02*
X79295100Y-72995200D01*
X79090500Y-72951600D02*
X79191700Y-72978700D01*
X78992700Y-72914000D02*
X79090500Y-72951600D01*
X78899900Y-72866700D02*
X78992700Y-72914000D01*
X78812000Y-72809700D02*
X78899900Y-72866700D01*
X78730600Y-72743800D02*
X78812000Y-72809700D01*
X78656500Y-72669800D02*
X78730600Y-72743800D01*
X78590600Y-72588400D02*
X78656500Y-72669800D01*
X78540300Y-72511600D02*
X78590600Y-72588400D01*
X78527100Y-72488800D02*
X78540300Y-72511600D01*
X78491400Y-72418700D02*
X78527100Y-72488800D01*
X78480800Y-72394900D02*
X78491400Y-72418700D01*
X78448200Y-72309000D02*
X78480800Y-72394900D01*
X78421200Y-72207800D02*
X78448200Y-72309000D01*
X78404900Y-72104800D02*
X78421200Y-72207800D01*
X78399100Y-71999900D02*
X78404900Y-72104800D01*
X78399000Y-64006400D02*
X78399100Y-71999900D01*
X78404800Y-63895600D02*
X78399000Y-64006400D01*
X78421200Y-63792200D02*
X78404800Y-63895600D01*
X78448300Y-63691000D02*
X78421200Y-63792200D01*
X78485800Y-63593200D02*
X78448300Y-63691000D01*
X78527100Y-63511200D02*
X78485800Y-63593200D01*
X78540300Y-63488500D02*
X78527100Y-63511200D01*
X78590300Y-63412000D02*
X78540300Y-63488500D01*
X78647800Y-63340400D02*
X78590300Y-63412000D01*
X78665400Y-63320900D02*
X78647800Y-63340400D01*
X78730300Y-63256500D02*
X78665400Y-63320900D01*
X78812100Y-63190300D02*
X78730300Y-63256500D01*
X78888500Y-63140300D02*
X78812100Y-63190300D01*
X78911200Y-63127200D02*
X78888500Y-63140300D01*
X78992800Y-63086000D02*
X78911200Y-63127200D01*
X79078400Y-63052700D02*
X78992800Y-63086000D01*
X79103400Y-63044600D02*
X79078400Y-63052700D01*
X79191700Y-63021300D02*
X79103400Y-63044600D01*
X79282400Y-63006600D02*
X79191700Y-63021300D01*
X79308500Y-63003800D02*
X79282400Y-63006600D01*
X79406600Y-62999000D02*
X79308500Y-63003800D01*
X88108800Y-62999000D02*
X79406600Y-62999000D01*
X88206000Y-62994200D02*
X88108800Y-62999000D01*
X88302100Y-62980000D02*
X88206000Y-62994200D01*
X88396400Y-62956400D02*
X88302100Y-62980000D01*
X88487900Y-62923600D02*
X88396400Y-62956400D01*
X88575700Y-62882100D02*
X88487900Y-62923600D01*
X88659000Y-62832200D02*
X88575700Y-62882100D01*
X88737100Y-62774300D02*
X88659000Y-62832200D01*
X88809000Y-62709000D02*
X88737100Y-62774300D01*
X88874300Y-62637000D02*
X88809000Y-62709000D01*
X88932200Y-62559000D02*
X88874300Y-62637000D01*
X88982100Y-62475700D02*
X88932200Y-62559000D01*
X89023600Y-62387900D02*
X88982100Y-62475700D01*
X89056400Y-62296400D02*
X89023600Y-62387900D01*
X89080000Y-62202100D02*
X89056400Y-62296400D01*
X89094200Y-62106000D02*
X89080000Y-62202100D01*
X89099000Y-62008800D02*
X89094200Y-62106000D01*
X89099000Y-60991200D02*
X89099000Y-62008800D01*
X89094200Y-60894000D02*
X89099000Y-60991200D01*
X89080000Y-60797900D02*
X89094200Y-60894000D01*
X89056400Y-60703600D02*
X89080000Y-60797900D01*
X89023600Y-60612100D02*
X89056400Y-60703600D01*
X88982100Y-60524300D02*
X89023600Y-60612100D01*
X88932200Y-60441000D02*
X88982100Y-60524300D01*
X88874300Y-60363000D02*
X88932200Y-60441000D01*
X88809000Y-60291000D02*
X88874300Y-60363000D01*
X88737100Y-60225700D02*
X88809000Y-60291000D01*
X88659000Y-60167900D02*
X88737100Y-60225700D01*
X88575700Y-60117900D02*
X88659000Y-60167900D01*
X88487900Y-60076400D02*
X88575700Y-60117900D01*
X88396400Y-60043600D02*
X88487900Y-60076400D01*
X88302100Y-60020000D02*
X88396400Y-60043600D01*
X88206000Y-60005800D02*
X88302100Y-60020000D01*
X88108800Y-60001000D02*
X88206000Y-60005800D01*
X79399800Y-60000900D02*
X88108800Y-60001000D01*
X79295100Y-59995100D02*
X79399800Y-60000900D01*
X79192200Y-59978800D02*
X79295100Y-59995100D01*
X79091000Y-59951800D02*
X79192200Y-59978800D01*
X79005200Y-59919200D02*
X79091000Y-59951800D01*
X78981200Y-59908500D02*
X79005200Y-59919200D01*
X78911000Y-59872800D02*
X78981200Y-59908500D01*
X78888500Y-59859700D02*
X78911000Y-59872800D01*
X78811600Y-59809400D02*
X78888500Y-59859700D01*
X78740400Y-59752200D02*
X78811600Y-59809400D01*
X78721100Y-59734800D02*
X78740400Y-59752200D01*
X78656200Y-59669400D02*
X78721100Y-59734800D01*
X78590300Y-59587900D02*
X78656200Y-59669400D01*
X78533300Y-59500100D02*
X78590300Y-59587900D01*
X78485700Y-59406700D02*
X78533300Y-59500100D01*
X78448400Y-59309400D02*
X78485700Y-59406700D01*
X78421300Y-59208300D02*
X78448400Y-59309400D01*
X78404900Y-59104800D02*
X78421300Y-59208300D01*
X78399100Y-59000100D02*
X78404900Y-59104800D01*
X78399000Y-51006600D02*
X78399100Y-59000100D01*
X78404800Y-50895600D02*
X78399000Y-51006600D01*
X78421200Y-50792200D02*
X78404800Y-50895600D01*
X78444600Y-50703400D02*
X78421200Y-50792200D01*
X78452700Y-50678400D02*
X78444600Y-50703400D01*
X78486000Y-50592700D02*
X78452700Y-50678400D01*
X78533300Y-50499900D02*
X78486000Y-50592700D01*
X78583000Y-50422700D02*
X78533300Y-50499900D01*
X78598500Y-50401400D02*
X78583000Y-50422700D01*
X78656600Y-50330200D02*
X78598500Y-50401400D01*
X78730300Y-50256500D02*
X78656600Y-50330200D01*
X78801400Y-50198500D02*
X78730300Y-50256500D01*
X78822700Y-50183000D02*
X78801400Y-50198500D01*
X78899900Y-50133300D02*
X78822700Y-50183000D01*
X78992800Y-50086000D02*
X78899900Y-50133300D01*
X79090600Y-50048400D02*
X78992800Y-50086000D01*
X79179200Y-50024300D02*
X79090600Y-50048400D01*
X79204900Y-50018800D02*
X79179200Y-50024300D01*
X79295700Y-50004800D02*
X79204900Y-50018800D01*
X79406600Y-49999000D02*
X79295700Y-50004800D01*
X88108800Y-49999000D02*
X79406600Y-49999000D01*
X88206000Y-49994200D02*
X88108800Y-49999000D01*
X88302100Y-49980000D02*
X88206000Y-49994200D01*
X88396400Y-49956400D02*
X88302100Y-49980000D01*
X88487900Y-49923600D02*
X88396400Y-49956400D01*
X88575700Y-49882100D02*
X88487900Y-49923600D01*
X88659000Y-49832100D02*
X88575700Y-49882100D01*
X88737100Y-49774300D02*
X88659000Y-49832100D01*
X88809000Y-49709000D02*
X88737100Y-49774300D01*
X88874300Y-49637000D02*
X88809000Y-49709000D01*
X88932200Y-49559000D02*
X88874300Y-49637000D01*
X88982100Y-49475700D02*
X88932200Y-49559000D01*
X89023600Y-49387900D02*
X88982100Y-49475700D01*
X89056400Y-49296400D02*
X89023600Y-49387900D01*
X89080000Y-49202100D02*
X89056400Y-49296400D01*
X89094200Y-49106000D02*
X89080000Y-49202100D01*
X89099000Y-49008800D02*
X89094200Y-49106000D01*
X89099000Y-48000200D02*
X89099000Y-49008800D01*
X89094200Y-47903000D02*
X89099000Y-48000200D01*
X89080000Y-47806900D02*
X89094200Y-47903000D01*
X89056400Y-47712600D02*
X89080000Y-47806900D01*
X89023600Y-47621100D02*
X89056400Y-47712600D01*
X88982100Y-47533300D02*
X89023600Y-47621100D01*
X88932200Y-47450000D02*
X88982100Y-47533300D01*
X88874300Y-47372000D02*
X88932200Y-47450000D01*
X88809000Y-47300000D02*
X88874300Y-47372000D01*
X88737100Y-47234700D02*
X88809000Y-47300000D01*
X88659000Y-47176900D02*
X88737100Y-47234700D01*
X88575700Y-47126900D02*
X88659000Y-47176900D01*
X88487900Y-47085400D02*
X88575700Y-47126900D01*
X88396400Y-47052600D02*
X88487900Y-47085400D01*
X88302100Y-47029000D02*
X88396400Y-47052600D01*
X88206000Y-47014800D02*
X88302100Y-47029000D01*
X88108800Y-47010000D02*
X88206000Y-47014800D01*
X94091300Y-47010000D02*
X116508800Y-47010000D01*
X93994000Y-47014800D02*
X94091300Y-47010000D01*
X93897900Y-47029000D02*
X93994000Y-47014800D01*
X93803600Y-47052600D02*
X93897900Y-47029000D01*
X93712200Y-47085400D02*
X93803600Y-47052600D01*
X93624300Y-47126900D02*
X93712200Y-47085400D01*
X93541000Y-47176900D02*
X93624300Y-47126900D01*
X93463000Y-47234700D02*
X93541000Y-47176900D01*
X93391000Y-47300000D02*
X93463000Y-47234700D01*
X93325700Y-47372000D02*
X93391000Y-47300000D01*
X93267900Y-47450000D02*
X93325700Y-47372000D01*
X93217900Y-47533300D02*
X93267900Y-47450000D01*
X93176400Y-47621100D02*
X93217900Y-47533300D01*
X93143700Y-47712600D02*
X93176400Y-47621100D01*
X93120000Y-47806900D02*
X93143700Y-47712600D01*
X93105800Y-47903000D02*
X93120000Y-47806900D01*
X93101000Y-48000200D02*
X93105800Y-47903000D01*
X93101000Y-49008800D02*
X93101000Y-48000200D01*
X93105800Y-49106000D02*
X93101000Y-49008800D01*
X93120000Y-49202100D02*
X93105800Y-49106000D01*
X93143700Y-49296400D02*
X93120000Y-49202100D01*
X93176400Y-49387900D02*
X93143700Y-49296400D01*
X93217900Y-49475700D02*
X93176400Y-49387900D01*
X93267900Y-49559000D02*
X93217900Y-49475700D01*
X93325700Y-49637000D02*
X93267900Y-49559000D01*
X93391000Y-49709000D02*
X93325700Y-49637000D01*
X93463000Y-49774300D02*
X93391000Y-49709000D01*
X93541000Y-49832100D02*
X93463000Y-49774300D01*
X93624300Y-49882100D02*
X93541000Y-49832100D01*
X93712200Y-49923600D02*
X93624300Y-49882100D01*
X93803600Y-49956400D02*
X93712200Y-49923600D01*
X93897900Y-49980000D02*
X93803600Y-49956400D01*
X93994000Y-49994200D02*
X93897900Y-49980000D01*
X94091300Y-49999000D02*
X93994000Y-49994200D01*
X102793400Y-49999000D02*
X94091300Y-49999000D01*
X102904400Y-50004800D02*
X102793400Y-49999000D01*
X103007800Y-50021200D02*
X102904400Y-50004800D01*
X103109000Y-50048300D02*
X103007800Y-50021200D01*
X103206800Y-50085800D02*
X103109000Y-50048300D01*
X103288800Y-50127100D02*
X103206800Y-50085800D01*
X103311500Y-50140300D02*
X103288800Y-50127100D01*
X103377600Y-50183100D02*
X103311500Y-50140300D01*
X103398600Y-50198400D02*
X103377600Y-50183100D01*
X103469800Y-50256600D02*
X103398600Y-50198400D01*
X103543800Y-50330600D02*
X103469800Y-50256600D01*
X103609400Y-50411600D02*
X103543800Y-50330600D01*
X103666500Y-50499500D02*
X103609400Y-50411600D01*
X103714100Y-50592800D02*
X103666500Y-50499500D01*
X103747300Y-50678400D02*
X103714100Y-50592800D01*
X103755400Y-50703400D02*
X103747300Y-50678400D01*
X103775800Y-50779400D02*
X103755400Y-50703400D01*
X103781200Y-50804900D02*
X103775800Y-50779400D01*
X103795200Y-50895700D02*
X103781200Y-50804900D01*
X103801000Y-51006400D02*
X103795200Y-50895700D01*
X103800900Y-59000200D02*
X103801000Y-51006400D01*
X103795100Y-59104900D02*
X103800900Y-59000200D01*
X103778700Y-59208300D02*
X103795100Y-59104900D01*
X103751600Y-59309500D02*
X103778700Y-59208300D01*
X103714000Y-59407300D02*
X103751600Y-59309500D01*
X103666700Y-59500100D02*
X103714000Y-59407300D01*
X103609700Y-59588000D02*
X103666700Y-59500100D01*
X103543800Y-59669400D02*
X103609700Y-59588000D01*
X103469800Y-59743500D02*
X103543800Y-59669400D01*
X103388400Y-59809400D02*
X103469800Y-59743500D01*
X103311600Y-59859700D02*
X103388400Y-59809400D01*
X103288800Y-59872900D02*
X103311600Y-59859700D01*
X103218700Y-59908600D02*
X103288800Y-59872900D01*
X103194900Y-59919200D02*
X103218700Y-59908600D01*
X103109000Y-59951800D02*
X103194900Y-59919200D01*
X103007800Y-59978800D02*
X103109000Y-59951800D01*
X102904800Y-59995100D02*
X103007800Y-59978800D01*
X102800100Y-60000900D02*
X102904800Y-59995100D01*
X94091300Y-60001000D02*
X102800100Y-60000900D01*
X93994000Y-60005800D02*
X94091300Y-60001000D01*
X93897900Y-60020000D02*
X93994000Y-60005800D01*
X93803600Y-60043600D02*
X93897900Y-60020000D01*
X93712200Y-60076400D02*
X93803600Y-60043600D01*
X93624300Y-60117900D02*
X93712200Y-60076400D01*
X93541000Y-60167900D02*
X93624300Y-60117900D01*
X93463000Y-60225700D02*
X93541000Y-60167900D01*
X93391000Y-60291000D02*
X93463000Y-60225700D01*
X93325700Y-60363000D02*
X93391000Y-60291000D01*
X93267900Y-60441000D02*
X93325700Y-60363000D01*
X93217900Y-60524300D02*
X93267900Y-60441000D01*
X93176400Y-60612100D02*
X93217900Y-60524300D01*
X93143700Y-60703600D02*
X93176400Y-60612100D01*
X93120000Y-60797900D02*
X93143700Y-60703600D01*
X93105800Y-60894000D02*
X93120000Y-60797900D01*
X93101000Y-60991200D02*
X93105800Y-60894000D01*
X93101000Y-62008800D02*
X93101000Y-60991200D01*
X93105800Y-62106000D02*
X93101000Y-62008800D01*
X93120000Y-62202100D02*
X93105800Y-62106000D01*
X93143700Y-62296400D02*
X93120000Y-62202100D01*
X93176400Y-62387900D02*
X93143700Y-62296400D01*
X93217900Y-62475700D02*
X93176400Y-62387900D01*
X93267900Y-62559000D02*
X93217900Y-62475700D01*
X93325700Y-62637000D02*
X93267900Y-62559000D01*
X93391000Y-62709000D02*
X93325700Y-62637000D01*
X93463000Y-62774300D02*
X93391000Y-62709000D01*
X93541000Y-62832100D02*
X93463000Y-62774300D01*
X93624300Y-62882100D02*
X93541000Y-62832100D01*
X93712200Y-62923600D02*
X93624300Y-62882100D01*
X93803600Y-62956400D02*
X93712200Y-62923600D01*
X93897900Y-62980000D02*
X93803600Y-62956400D01*
X93994000Y-62994200D02*
X93897900Y-62980000D01*
X94091300Y-62999000D02*
X93994000Y-62994200D01*
X102793400Y-62999000D02*
X94091300Y-62999000D01*
X102904400Y-63004800D02*
X102793400Y-62999000D01*
X103007800Y-63021200D02*
X102904400Y-63004800D01*
X103109000Y-63048300D02*
X103007800Y-63021200D01*
X103206800Y-63085800D02*
X103109000Y-63048300D01*
X103288800Y-63127100D02*
X103206800Y-63085800D01*
X103311500Y-63140300D02*
X103288800Y-63127100D01*
X103377600Y-63183200D02*
X103311500Y-63140300D01*
X103398600Y-63198500D02*
X103377600Y-63183200D01*
X103469800Y-63256600D02*
X103398600Y-63198500D01*
X103543800Y-63330700D02*
X103469800Y-63256600D01*
X103609400Y-63411700D02*
X103543800Y-63330700D01*
X103666500Y-63499500D02*
X103609400Y-63411700D01*
X103714100Y-63592800D02*
X103666500Y-63499500D01*
X103747300Y-63678400D02*
X103714100Y-63592800D01*
X103755400Y-63703400D02*
X103747300Y-63678400D01*
X103775800Y-63779400D02*
X103755400Y-63703400D01*
X103781200Y-63804900D02*
X103775800Y-63779400D01*
X103795200Y-63895700D02*
X103781200Y-63804900D01*
X103801000Y-64006400D02*
X103795200Y-63895700D01*
X103800900Y-72000200D02*
X103801000Y-64006400D01*
X103795100Y-72104900D02*
X103800900Y-72000200D01*
X103778700Y-72208300D02*
X103795100Y-72104900D01*
X103751600Y-72309500D02*
X103778700Y-72208300D01*
X103714000Y-72407300D02*
X103751600Y-72309500D01*
X103666700Y-72500100D02*
X103714000Y-72407300D01*
X103609700Y-72588000D02*
X103666700Y-72500100D01*
X103543800Y-72669400D02*
X103609700Y-72588000D01*
X103469800Y-72743500D02*
X103543800Y-72669400D01*
X103388400Y-72809400D02*
X103469800Y-72743500D01*
X103311600Y-72859700D02*
X103388400Y-72809400D01*
X103288800Y-72872900D02*
X103311600Y-72859700D01*
X103218700Y-72908600D02*
X103288800Y-72872900D01*
X103194900Y-72919200D02*
X103218700Y-72908600D01*
X103109000Y-72951800D02*
X103194900Y-72919200D01*
X103007800Y-72978900D02*
X103109000Y-72951800D01*
X102904800Y-72995200D02*
X103007800Y-72978900D01*
X102800100Y-73000900D02*
X102904800Y-72995200D01*
X94091300Y-73001000D02*
X102800100Y-73000900D01*
X93994000Y-73005800D02*
X94091300Y-73001000D01*
X93897900Y-73020000D02*
X93994000Y-73005800D01*
X93803600Y-73043600D02*
X93897900Y-73020000D01*
X93712200Y-73076400D02*
X93803600Y-73043600D01*
X93624300Y-73117900D02*
X93712200Y-73076400D01*
X93541000Y-73167900D02*
X93624300Y-73117900D01*
X93463000Y-73225700D02*
X93541000Y-73167900D01*
X93391000Y-73291000D02*
X93463000Y-73225700D01*
X93325700Y-73363000D02*
X93391000Y-73291000D01*
X93267900Y-73441000D02*
X93325700Y-73363000D01*
X93217900Y-73524300D02*
X93267900Y-73441000D01*
X93176400Y-73612200D02*
X93217900Y-73524300D01*
X93143700Y-73703600D02*
X93176400Y-73612200D01*
X93120000Y-73797900D02*
X93143700Y-73703600D01*
X93105800Y-73894000D02*
X93120000Y-73797900D01*
X93101000Y-73991300D02*
X93105800Y-73894000D01*
X93101000Y-75008800D02*
X93101000Y-73991300D01*
X93105800Y-75106000D02*
X93101000Y-75008800D01*
X93120000Y-75202100D02*
X93105800Y-75106000D01*
X93143700Y-75296400D02*
X93120000Y-75202100D01*
X93176400Y-75387900D02*
X93143700Y-75296400D01*
X93217900Y-75475700D02*
X93176400Y-75387900D01*
X93267900Y-75559000D02*
X93217900Y-75475700D01*
X93325700Y-75637000D02*
X93267900Y-75559000D01*
X93391000Y-75709000D02*
X93325700Y-75637000D01*
X93463000Y-75774300D02*
X93391000Y-75709000D01*
X93541000Y-75832200D02*
X93463000Y-75774300D01*
X93624300Y-75882100D02*
X93541000Y-75832200D01*
X93712200Y-75923600D02*
X93624300Y-75882100D01*
X93803600Y-75956400D02*
X93712200Y-75923600D01*
X93897900Y-75980000D02*
X93803600Y-75956400D01*
X93994000Y-75994200D02*
X93897900Y-75980000D01*
X94091300Y-75999000D02*
X93994000Y-75994200D01*
X102793400Y-75999000D02*
X94091300Y-75999000D01*
X102904400Y-76004800D02*
X102793400Y-75999000D01*
X103007800Y-76021200D02*
X102904400Y-76004800D01*
X103109000Y-76048300D02*
X103007800Y-76021200D01*
X103206800Y-76085800D02*
X103109000Y-76048300D01*
X103288800Y-76127100D02*
X103206800Y-76085800D01*
X103311500Y-76140300D02*
X103288800Y-76127100D01*
X103377600Y-76183200D02*
X103311500Y-76140300D01*
X103398600Y-76198500D02*
X103377600Y-76183200D01*
X103469800Y-76256600D02*
X103398600Y-76198500D01*
X103543800Y-76330700D02*
X103469800Y-76256600D01*
X103609400Y-76411700D02*
X103543800Y-76330700D01*
X103666500Y-76499500D02*
X103609400Y-76411700D01*
X103714100Y-76592800D02*
X103666500Y-76499500D01*
X103747300Y-76678400D02*
X103714100Y-76592800D01*
X103755400Y-76703400D02*
X103747300Y-76678400D01*
X103775800Y-76779400D02*
X103755400Y-76703400D01*
X103781200Y-76804900D02*
X103775800Y-76779400D01*
X103795200Y-76895700D02*
X103781200Y-76804900D01*
X103801000Y-77006400D02*
X103795200Y-76895700D01*
X103800900Y-85000200D02*
X103801000Y-77006400D01*
X103795100Y-85104900D02*
X103800900Y-85000200D01*
X103778700Y-85208300D02*
X103795100Y-85104900D01*
X103751600Y-85309500D02*
X103778700Y-85208300D01*
X103714000Y-85407300D02*
X103751600Y-85309500D01*
X103666700Y-85500100D02*
X103714000Y-85407300D01*
X103609700Y-85588000D02*
X103666700Y-85500100D01*
X103543800Y-85669400D02*
X103609700Y-85588000D01*
X103469800Y-85743500D02*
X103543800Y-85669400D01*
X103388400Y-85809400D02*
X103469800Y-85743500D01*
X103311600Y-85859700D02*
X103388400Y-85809400D01*
X103288800Y-85872900D02*
X103311600Y-85859700D01*
X103218700Y-85908600D02*
X103288800Y-85872900D01*
X103194900Y-85919200D02*
X103218700Y-85908600D01*
X103109000Y-85951800D02*
X103194900Y-85919200D01*
X103007800Y-85978900D02*
X103109000Y-85951800D01*
X102904800Y-85995200D02*
X103007800Y-85978900D01*
X102800100Y-86000900D02*
X102904800Y-85995200D01*
X94091300Y-86001000D02*
X102800100Y-86000900D01*
X93994000Y-86005800D02*
X94091300Y-86001000D01*
X93897900Y-86020000D02*
X93994000Y-86005800D01*
X93803600Y-86043700D02*
X93897900Y-86020000D01*
X93712200Y-86076400D02*
X93803600Y-86043700D01*
X93624300Y-86117900D02*
X93712200Y-86076400D01*
X93541000Y-86167900D02*
X93624300Y-86117900D01*
X93463000Y-86225700D02*
X93541000Y-86167900D01*
X93391000Y-86291000D02*
X93463000Y-86225700D01*
X93325700Y-86363000D02*
X93391000Y-86291000D01*
X93267900Y-86441000D02*
X93325700Y-86363000D01*
X93217900Y-86524300D02*
X93267900Y-86441000D01*
X93176400Y-86612200D02*
X93217900Y-86524300D01*
X93143700Y-86703600D02*
X93176400Y-86612200D01*
X93120000Y-86797900D02*
X93143700Y-86703600D01*
X93105800Y-86894000D02*
X93120000Y-86797900D01*
X93101000Y-86991300D02*
X93105800Y-86894000D01*
X93101000Y-88008800D02*
X93101000Y-86991300D01*
X93105800Y-88106000D02*
X93101000Y-88008800D01*
X93120000Y-88202100D02*
X93105800Y-88106000D01*
X93143700Y-88296400D02*
X93120000Y-88202100D01*
X93176400Y-88387900D02*
X93143700Y-88296400D01*
X93217900Y-88475700D02*
X93176400Y-88387900D01*
X93267900Y-88559000D02*
X93217900Y-88475700D01*
X93325700Y-88637100D02*
X93267900Y-88559000D01*
X93391000Y-88709000D02*
X93325700Y-88637100D01*
X93463000Y-88774300D02*
X93391000Y-88709000D01*
X93541000Y-88832200D02*
X93463000Y-88774300D01*
X93624300Y-88882100D02*
X93541000Y-88832200D01*
X93712200Y-88923600D02*
X93624300Y-88882100D01*
X93803600Y-88956400D02*
X93712200Y-88923600D01*
X93897900Y-88980000D02*
X93803600Y-88956400D01*
X93994000Y-88994200D02*
X93897900Y-88980000D01*
X94091300Y-88999000D02*
X93994000Y-88994200D01*
X102793400Y-88999000D02*
X94091300Y-88999000D01*
X102904400Y-89004800D02*
X102793400Y-88999000D01*
X102995100Y-89018800D02*
X102904400Y-89004800D01*
X103020800Y-89024300D02*
X102995100Y-89018800D01*
X103109500Y-89048400D02*
X103020800Y-89024300D01*
X103206800Y-89085800D02*
X103109500Y-89048400D01*
X103288800Y-89127200D02*
X103206800Y-89085800D01*
X103311500Y-89140300D02*
X103288800Y-89127200D01*
X103388400Y-89190700D02*
X103311500Y-89140300D01*
X103469400Y-89256200D02*
X103388400Y-89190700D01*
X103534600Y-89320900D02*
X103469400Y-89256200D01*
X103552200Y-89340400D02*
X103534600Y-89320900D01*
X103609700Y-89412100D02*
X103552200Y-89340400D01*
X103666500Y-89499500D02*
X103609700Y-89412100D01*
X103708500Y-89581100D02*
X103666500Y-89499500D01*
X103719200Y-89605200D02*
X103708500Y-89581100D01*
X103751800Y-89691100D02*
X103719200Y-89605200D01*
X103778700Y-89791800D02*
X103751800Y-89691100D01*
X103795200Y-89895700D02*
X103778700Y-89791800D01*
X103801000Y-90006600D02*
X103795200Y-89895700D01*
X103800900Y-98000200D02*
X103801000Y-90006600D01*
X103795100Y-98104900D02*
X103800900Y-98000200D01*
X103778700Y-98208400D02*
X103795100Y-98104900D01*
X103751800Y-98309000D02*
X103778700Y-98208400D01*
X103714200Y-98406800D02*
X103751800Y-98309000D01*
X103666700Y-98500200D02*
X103714200Y-98406800D01*
X103609700Y-98588000D02*
X103666700Y-98500200D01*
X103543800Y-98669400D02*
X103609700Y-98588000D01*
X103478900Y-98734800D02*
X103543800Y-98669400D01*
X103459600Y-98752200D02*
X103478900Y-98734800D01*
X103388400Y-98809400D02*
X103459600Y-98752200D01*
X103311600Y-98859700D02*
X103388400Y-98809400D01*
X103288800Y-98872900D02*
X103311600Y-98859700D01*
X103218700Y-98908600D02*
X103288800Y-98872900D01*
X103194900Y-98919200D02*
X103218700Y-98908600D01*
X103109000Y-98951800D02*
X103194900Y-98919200D01*
X103007800Y-98978900D02*
X103109000Y-98951800D01*
X102904800Y-98995200D02*
X103007800Y-98978900D01*
X102800100Y-99000900D02*
X102904800Y-98995200D01*
X94091300Y-99001000D02*
X102800100Y-99000900D01*
X93994000Y-99005800D02*
X94091300Y-99001000D01*
X93897900Y-99020100D02*
X93994000Y-99005800D01*
X93803600Y-99043700D02*
X93897900Y-99020100D01*
X93712200Y-99076400D02*
X93803600Y-99043700D01*
X93624300Y-99117900D02*
X93712200Y-99076400D01*
X93541000Y-99167900D02*
X93624300Y-99117900D01*
X93463000Y-99225700D02*
X93541000Y-99167900D01*
X93391000Y-99291000D02*
X93463000Y-99225700D01*
X93325700Y-99363000D02*
X93391000Y-99291000D01*
X93267900Y-99441000D02*
X93325700Y-99363000D01*
X93217900Y-99524300D02*
X93267900Y-99441000D01*
X93176400Y-99612200D02*
X93217900Y-99524300D01*
X93143700Y-99703600D02*
X93176400Y-99612200D01*
X93120000Y-99797900D02*
X93143700Y-99703600D01*
X93105800Y-99894000D02*
X93120000Y-99797900D01*
X93101000Y-99991300D02*
X93105800Y-99894000D01*
X93101000Y-101008800D02*
X93101000Y-99991300D01*
X93105800Y-101106000D02*
X93101000Y-101008800D01*
X93120000Y-101202200D02*
X93105800Y-101106000D01*
X93143700Y-101296400D02*
X93120000Y-101202200D01*
X93176400Y-101387900D02*
X93143700Y-101296400D01*
X93217900Y-101475700D02*
X93176400Y-101387900D01*
X93267900Y-101559000D02*
X93217900Y-101475700D01*
X93325700Y-101637100D02*
X93267900Y-101559000D01*
X93391000Y-101709000D02*
X93325700Y-101637100D01*
X93463000Y-101774300D02*
X93391000Y-101709000D01*
X93541000Y-101832200D02*
X93463000Y-101774300D01*
X93624300Y-101882100D02*
X93541000Y-101832200D01*
X93712200Y-101923600D02*
X93624300Y-101882100D01*
X93803600Y-101956400D02*
X93712200Y-101923600D01*
X93897900Y-101980000D02*
X93803600Y-101956400D01*
X93994000Y-101994200D02*
X93897900Y-101980000D01*
X94091300Y-101999000D02*
X93994000Y-101994200D01*
X102793400Y-101999000D02*
X94091300Y-101999000D01*
X102891500Y-102003800D02*
X102793400Y-101999000D01*
X102917600Y-102006600D02*
X102891500Y-102003800D01*
X103008300Y-102021300D02*
X102917600Y-102006600D01*
X103096600Y-102044600D02*
X103008300Y-102021300D01*
X103121600Y-102052700D02*
X103096600Y-102044600D01*
X103206800Y-102085800D02*
X103121600Y-102052700D01*
X103288800Y-102127200D02*
X103206800Y-102085800D01*
X103311500Y-102140300D02*
X103288800Y-102127200D01*
X103388000Y-102190400D02*
X103311500Y-102140300D01*
X103459600Y-102247900D02*
X103388000Y-102190400D01*
X103479100Y-102265400D02*
X103459600Y-102247900D01*
X103543500Y-102330300D02*
X103479100Y-102265400D01*
X103601500Y-102401400D02*
X103543500Y-102330300D01*
X103617000Y-102422700D02*
X103601500Y-102401400D01*
X103666500Y-102499500D02*
X103617000Y-102422700D01*
X103714300Y-102593300D02*
X103666500Y-102499500D01*
X103751800Y-102691100D02*
X103714300Y-102593300D01*
X103778900Y-102792300D02*
X103751800Y-102691100D01*
X103795200Y-102895700D02*
X103778900Y-102792300D01*
X103801000Y-103006500D02*
X103795200Y-102895700D01*
X103800900Y-110999900D02*
X103801000Y-103006500D01*
X103795100Y-111104900D02*
X103800900Y-110999900D01*
X103778800Y-111207900D02*
X103795100Y-111104900D01*
X103751800Y-111309000D02*
X103778800Y-111207900D01*
X103719200Y-111394900D02*
X103751800Y-111309000D01*
X103708500Y-111418900D02*
X103719200Y-111394900D01*
X103672800Y-111489000D02*
X103708500Y-111418900D01*
X103659700Y-111511600D02*
X103672800Y-111489000D01*
X103609400Y-111588400D02*
X103659700Y-111511600D01*
X103543400Y-111669800D02*
X103609400Y-111588400D01*
X103469800Y-111743500D02*
X103543400Y-111669800D01*
X103388400Y-111809400D02*
X103469800Y-111743500D01*
X103300500Y-111866500D02*
X103388400Y-111809400D01*
X103207200Y-111914100D02*
X103300500Y-111866500D01*
X103109500Y-111951600D02*
X103207200Y-111914100D01*
X103008300Y-111978800D02*
X103109500Y-111951600D01*
X102904800Y-111995200D02*
X103008300Y-111978800D01*
X102800100Y-112000900D02*
X102904800Y-111995200D01*
X94091300Y-112001000D02*
X102800100Y-112000900D01*
X93994000Y-112005800D02*
X94091300Y-112001000D01*
X93897900Y-112020100D02*
X93994000Y-112005800D01*
X93803600Y-112043700D02*
X93897900Y-112020100D01*
X93712200Y-112076400D02*
X93803600Y-112043700D01*
X93624300Y-112117900D02*
X93712200Y-112076400D01*
X93541000Y-112167900D02*
X93624300Y-112117900D01*
X93463000Y-112225800D02*
X93541000Y-112167900D01*
X93391000Y-112291000D02*
X93463000Y-112225800D01*
X93325700Y-112363000D02*
X93391000Y-112291000D01*
X93267900Y-112441000D02*
X93325700Y-112363000D01*
X93217900Y-112524300D02*
X93267900Y-112441000D01*
X93176400Y-112612200D02*
X93217900Y-112524300D01*
X93143700Y-112703600D02*
X93176400Y-112612200D01*
X93120000Y-112797900D02*
X93143700Y-112703600D01*
X93105800Y-112894000D02*
X93120000Y-112797900D01*
X93101000Y-112991300D02*
X93105800Y-112894000D01*
X93101000Y-114008800D02*
X93101000Y-112991300D01*
X93105800Y-114106100D02*
X93101000Y-114008800D01*
X93120000Y-114202200D02*
X93105800Y-114106100D01*
X93143700Y-114296400D02*
X93120000Y-114202200D01*
X93176400Y-114387900D02*
X93143700Y-114296400D01*
X93217900Y-114475700D02*
X93176400Y-114387900D01*
X93267900Y-114559000D02*
X93217900Y-114475700D01*
X93325700Y-114637100D02*
X93267900Y-114559000D01*
X93391000Y-114709000D02*
X93325700Y-114637100D01*
X93463000Y-114774300D02*
X93391000Y-114709000D01*
X93541000Y-114832200D02*
X93463000Y-114774300D01*
X93624300Y-114882100D02*
X93541000Y-114832200D01*
X93712200Y-114923600D02*
X93624300Y-114882100D01*
X93803600Y-114956400D02*
X93712200Y-114923600D01*
X93897900Y-114980000D02*
X93803600Y-114956400D01*
X93994000Y-114994200D02*
X93897900Y-114980000D01*
X94091300Y-114999000D02*
X93994000Y-114994200D01*
X102800200Y-114999100D02*
X94091300Y-114999000D01*
X102904900Y-115004900D02*
X102800200Y-114999100D01*
X103007800Y-115021200D02*
X102904900Y-115004900D01*
X103109000Y-115048300D02*
X103007800Y-115021200D01*
X103194900Y-115080900D02*
X103109000Y-115048300D01*
X103218900Y-115091600D02*
X103194900Y-115080900D01*
X103289000Y-115127300D02*
X103218900Y-115091600D01*
X103311500Y-115140300D02*
X103289000Y-115127300D01*
X103388400Y-115190700D02*
X103311500Y-115140300D01*
X103459600Y-115247900D02*
X103388400Y-115190700D01*
X103478900Y-115265300D02*
X103459600Y-115247900D01*
X103543800Y-115330700D02*
X103478900Y-115265300D01*
X103609700Y-115412100D02*
X103543800Y-115330700D01*
X103666700Y-115500000D02*
X103609700Y-115412100D01*
X103714300Y-115593300D02*
X103666700Y-115500000D01*
X103751600Y-115690600D02*
X103714300Y-115593300D01*
X103778700Y-115791800D02*
X103751600Y-115690600D01*
X103795200Y-115895200D02*
X103778700Y-115791800D01*
X103800900Y-115999900D02*
X103795200Y-115895200D01*
X103801000Y-123993500D02*
X103800900Y-115999900D01*
X103796200Y-124091500D02*
X103801000Y-123993500D01*
X103793500Y-124117700D02*
X103796200Y-124091500D01*
X103778700Y-124208400D02*
X103793500Y-124117700D01*
X103755400Y-124296900D02*
X103778700Y-124208400D01*
X103747300Y-124321600D02*
X103755400Y-124296900D01*
X103719200Y-124394900D02*
X103747300Y-124321600D01*
X103708500Y-124418900D02*
X103719200Y-124394900D01*
X103666700Y-124500200D02*
X103708500Y-124418900D01*
X103617000Y-124577400D02*
X103666700Y-124500200D01*
X103601600Y-124598600D02*
X103617000Y-124577400D01*
X103543800Y-124669400D02*
X103601600Y-124598600D01*
X103479100Y-124734600D02*
X103543800Y-124669400D01*
X103459600Y-124752200D02*
X103479100Y-124734600D01*
X103388400Y-124809500D02*
X103459600Y-124752200D01*
X103311600Y-124859800D02*
X103388400Y-124809500D01*
X103288800Y-124872900D02*
X103311600Y-124859800D01*
X103206700Y-124914300D02*
X103288800Y-124872900D01*
X103109500Y-124951700D02*
X103206700Y-124914300D01*
X103020800Y-124975800D02*
X103109500Y-124951700D01*
X102995100Y-124981200D02*
X103020800Y-124975800D01*
X102917600Y-124993500D02*
X102995100Y-124981200D01*
X102891800Y-124996200D02*
X102917600Y-124993500D01*
X102793500Y-125001000D02*
X102891800Y-124996200D01*
X94091300Y-125001000D02*
X102793500Y-125001000D01*
X93994000Y-125005800D02*
X94091300Y-125001000D01*
X93897900Y-125020100D02*
X93994000Y-125005800D01*
X93803600Y-125043700D02*
X93897900Y-125020100D01*
X93712200Y-125076400D02*
X93803600Y-125043700D01*
X93624300Y-125117900D02*
X93712200Y-125076400D01*
X93541000Y-125167900D02*
X93624300Y-125117900D01*
X93463000Y-125225800D02*
X93541000Y-125167900D01*
X93391000Y-125291000D02*
X93463000Y-125225800D01*
X93325700Y-125363000D02*
X93391000Y-125291000D01*
X93267900Y-125441000D02*
X93325700Y-125363000D01*
X93217900Y-125524400D02*
X93267900Y-125441000D01*
X93176400Y-125612200D02*
X93217900Y-125524400D01*
X93143700Y-125703700D02*
X93176400Y-125612200D01*
X93120000Y-125797900D02*
X93143700Y-125703700D01*
X93105800Y-125894000D02*
X93120000Y-125797900D01*
X93101000Y-125991300D02*
X93105800Y-125894000D01*
X93101000Y-127008800D02*
X93101000Y-125991300D01*
X93105800Y-127106100D02*
X93101000Y-127008800D01*
X93120000Y-127202200D02*
X93105800Y-127106100D01*
X93143700Y-127296500D02*
X93120000Y-127202200D01*
X93176400Y-127387900D02*
X93143700Y-127296500D01*
X93217900Y-127475800D02*
X93176400Y-127387900D01*
X93267900Y-127559100D02*
X93217900Y-127475800D01*
X93325700Y-127637100D02*
X93267900Y-127559100D01*
X93391000Y-127709100D02*
X93325700Y-127637100D01*
X93463000Y-127774400D02*
X93391000Y-127709100D01*
X93541000Y-127832200D02*
X93463000Y-127774400D01*
X93624300Y-127882200D02*
X93541000Y-127832200D01*
X93712200Y-127923700D02*
X93624300Y-127882200D01*
X93803600Y-127956400D02*
X93712200Y-127923700D01*
X93897900Y-127980000D02*
X93803600Y-127956400D01*
X93994000Y-127994300D02*
X93897900Y-127980000D01*
X94091300Y-127999100D02*
X93994000Y-127994300D01*
X102800200Y-127999200D02*
X94091300Y-127999100D01*
X102904900Y-128004900D02*
X102800200Y-127999200D01*
X103007800Y-128021200D02*
X102904900Y-128004900D01*
X103109000Y-128048300D02*
X103007800Y-128021200D01*
X103194900Y-128080900D02*
X103109000Y-128048300D01*
X103218900Y-128091600D02*
X103194900Y-128080900D01*
X103289000Y-128127300D02*
X103218900Y-128091600D01*
X103311500Y-128140300D02*
X103289000Y-128127300D01*
X103388400Y-128190700D02*
X103311500Y-128140300D01*
X103469800Y-128256600D02*
X103388400Y-128190700D01*
X103543500Y-128330300D02*
X103469800Y-128256600D01*
X103609400Y-128411700D02*
X103543500Y-128330300D01*
X103666500Y-128499500D02*
X103609400Y-128411700D01*
X103714100Y-128592800D02*
X103666500Y-128499500D01*
X103751600Y-128690600D02*
X103714100Y-128592800D01*
X103778700Y-128791800D02*
X103751600Y-128690600D01*
X103795200Y-128895200D02*
X103778700Y-128791800D01*
X103800900Y-128999900D02*
X103795200Y-128895200D01*
X103801000Y-136993500D02*
X103800900Y-128999900D01*
X103796200Y-137091500D02*
X103801000Y-136993500D01*
X103793500Y-137117700D02*
X103796200Y-137091500D01*
X103778700Y-137208400D02*
X103793500Y-137117700D01*
X103755400Y-137296900D02*
X103778700Y-137208400D01*
X103747300Y-137321700D02*
X103755400Y-137296900D01*
X103719200Y-137394900D02*
X103747300Y-137321700D01*
X103708500Y-137418900D02*
X103719200Y-137394900D01*
X103666500Y-137500600D02*
X103708500Y-137418900D01*
X103609700Y-137588000D02*
X103666500Y-137500600D01*
X103543800Y-137669400D02*
X103609700Y-137588000D01*
X103479100Y-137734600D02*
X103543800Y-137669400D01*
X103459600Y-137752200D02*
X103479100Y-137734600D01*
X103398400Y-137801800D02*
X103459600Y-137752200D01*
X103377400Y-137817000D02*
X103398400Y-137801800D01*
X103300100Y-137866800D02*
X103377400Y-137817000D01*
X103207200Y-137914100D02*
X103300100Y-137866800D01*
X103109500Y-137951700D02*
X103207200Y-137914100D01*
X103020800Y-137975800D02*
X103109500Y-137951700D01*
X102995100Y-137981200D02*
X103020800Y-137975800D01*
X102904300Y-137995300D02*
X102995100Y-137981200D01*
X102793500Y-138001100D02*
X102904300Y-137995300D01*
X94091300Y-138001100D02*
X102793500Y-138001100D01*
X93994000Y-138005900D02*
X94091300Y-138001100D01*
X93897900Y-138020100D02*
X93994000Y-138005900D01*
X93803600Y-138043700D02*
X93897900Y-138020100D01*
X93712200Y-138076400D02*
X93803600Y-138043700D01*
X93624300Y-138118000D02*
X93712200Y-138076400D01*
X93541000Y-138167900D02*
X93624300Y-138118000D01*
X93463000Y-138225800D02*
X93541000Y-138167900D01*
X93391000Y-138291000D02*
X93463000Y-138225800D01*
X93325700Y-138363000D02*
X93391000Y-138291000D01*
X93267900Y-138441100D02*
X93325700Y-138363000D01*
X93217900Y-138524400D02*
X93267900Y-138441100D01*
X93176400Y-138612200D02*
X93217900Y-138524400D01*
X93143700Y-138703700D02*
X93176400Y-138612200D01*
X93120000Y-138797900D02*
X93143700Y-138703700D01*
X93105800Y-138894000D02*
X93120000Y-138797900D01*
X93101000Y-138991300D02*
X93105800Y-138894000D01*
X93101000Y-139999800D02*
X93101000Y-138991300D01*
X93105800Y-140097100D02*
X93101000Y-139999800D01*
X93120000Y-140193200D02*
X93105800Y-140097100D01*
X93143700Y-140287400D02*
X93120000Y-140193200D01*
X93176400Y-140378900D02*
X93143700Y-140287400D01*
X93217900Y-140466700D02*
X93176400Y-140378900D01*
X93267900Y-140550100D02*
X93217900Y-140466700D01*
X93325700Y-140628100D02*
X93267900Y-140550100D01*
X93391000Y-140700100D02*
X93325700Y-140628100D01*
X93463000Y-140765300D02*
X93391000Y-140700100D01*
X93541000Y-140823200D02*
X93463000Y-140765300D01*
X93624300Y-140873200D02*
X93541000Y-140823200D01*
X93712200Y-140914700D02*
X93624300Y-140873200D01*
X93803600Y-140947400D02*
X93712200Y-140914700D01*
X93897900Y-140971000D02*
X93803600Y-140947400D01*
X93994000Y-140985300D02*
X93897900Y-140971000D01*
X94091300Y-140990100D02*
X93994000Y-140985300D01*
X116508800Y-140990100D02*
X94091300Y-140990100D01*
X116606100Y-140985300D02*
X116508800Y-140990100D01*
X116702200Y-140971000D02*
X116606100Y-140985300D01*
X116796400Y-140947400D02*
X116702200Y-140971000D01*
X116887900Y-140914700D02*
X116796400Y-140947400D01*
X116975700Y-140873200D02*
X116887900Y-140914700D01*
X117059000Y-140823200D02*
X116975700Y-140873200D01*
X117137100Y-140765300D02*
X117059000Y-140823200D01*
X117209000Y-140700100D02*
X117137100Y-140765300D01*
X117274300Y-140628100D02*
X117209000Y-140700100D01*
X117332200Y-140550100D02*
X117274300Y-140628100D01*
X117382100Y-140466700D02*
X117332200Y-140550100D01*
X117423600Y-140378900D02*
X117382100Y-140466700D01*
X117456400Y-140287400D02*
X117423600Y-140378900D01*
X117480000Y-140193200D02*
X117456400Y-140287400D01*
X117494200Y-140097100D02*
X117480000Y-140193200D01*
X117499000Y-139999800D02*
X117494200Y-140097100D01*
X117499000Y-138991300D02*
X117499000Y-139999800D01*
X117494200Y-138894000D02*
X117499000Y-138991300D01*
X117480000Y-138797900D02*
X117494200Y-138894000D01*
X117456400Y-138703700D02*
X117480000Y-138797900D01*
X117423600Y-138612200D02*
X117456400Y-138703700D01*
X117382100Y-138524400D02*
X117423600Y-138612200D01*
X117332200Y-138441100D02*
X117382100Y-138524400D01*
X117274300Y-138363000D02*
X117332200Y-138441100D01*
X117209000Y-138291100D02*
X117274300Y-138363000D01*
X117137100Y-138225800D02*
X117209000Y-138291100D01*
X117059000Y-138167900D02*
X117137100Y-138225800D01*
X116975700Y-138118000D02*
X117059000Y-138167900D01*
X116887900Y-138076500D02*
X116975700Y-138118000D01*
X116796400Y-138043700D02*
X116887900Y-138076500D01*
X116702200Y-138020100D02*
X116796400Y-138043700D01*
X116606100Y-138005900D02*
X116702200Y-138020100D01*
X116508800Y-138001100D02*
X116606100Y-138005900D01*
X107806600Y-138001100D02*
X116508800Y-138001100D01*
X107695700Y-137995300D02*
X107806600Y-138001100D01*
X107592200Y-137978900D02*
X107695700Y-137995300D01*
X107491000Y-137951800D02*
X107592200Y-137978900D01*
X107393200Y-137914300D02*
X107491000Y-137951800D01*
X107311200Y-137872900D02*
X107393200Y-137914300D01*
X107288500Y-137859800D02*
X107311200Y-137872900D01*
X107222500Y-137816900D02*
X107288500Y-137859800D01*
X107201400Y-137801600D02*
X107222500Y-137816900D01*
X107130200Y-137743500D02*
X107201400Y-137801600D01*
X107056200Y-137669400D02*
X107130200Y-137743500D01*
X106990600Y-137588400D02*
X107056200Y-137669400D01*
X106933500Y-137500600D02*
X106990600Y-137588400D01*
X106886000Y-137407300D02*
X106933500Y-137500600D01*
X106852700Y-137321700D02*
X106886000Y-137407300D01*
X106844600Y-137296700D02*
X106852700Y-137321700D01*
X106824200Y-137220600D02*
X106844600Y-137296700D01*
X106818800Y-137195200D02*
X106824200Y-137220600D01*
X106804800Y-137104400D02*
X106818800Y-137195200D01*
X106799000Y-136993600D02*
X106804800Y-137104400D01*
X106799100Y-128999900D02*
X106799000Y-136993600D01*
X106804900Y-128895200D02*
X106799100Y-128999900D01*
X106821300Y-128791700D02*
X106804900Y-128895200D01*
X106848400Y-128690600D02*
X106821300Y-128791700D01*
X106886000Y-128592800D02*
X106848400Y-128690600D01*
X106933300Y-128499900D02*
X106886000Y-128592800D01*
X106990300Y-128412100D02*
X106933300Y-128499900D01*
X107056200Y-128330700D02*
X106990300Y-128412100D01*
X107130300Y-128256600D02*
X107056200Y-128330700D01*
X107211700Y-128190600D02*
X107130300Y-128256600D01*
X107288500Y-128140300D02*
X107211700Y-128190600D01*
X107311200Y-128127200D02*
X107288500Y-128140300D01*
X107381400Y-128091500D02*
X107311200Y-128127200D01*
X107405100Y-128080900D02*
X107381400Y-128091500D01*
X107491100Y-128048300D02*
X107405100Y-128080900D01*
X107592200Y-128021200D02*
X107491100Y-128048300D01*
X107695200Y-128004900D02*
X107592200Y-128021200D01*
X107799900Y-127999100D02*
X107695200Y-128004900D01*
X116508800Y-127999100D02*
X107799900Y-127999100D01*
X116606100Y-127994300D02*
X116508800Y-127999100D01*
X116702200Y-127980000D02*
X116606100Y-127994300D01*
X116796400Y-127956400D02*
X116702200Y-127980000D01*
X116887900Y-127923700D02*
X116796400Y-127956400D01*
X116975700Y-127882200D02*
X116887900Y-127923700D01*
X117059000Y-127832200D02*
X116975700Y-127882200D01*
X117137100Y-127774300D02*
X117059000Y-127832200D01*
X117209000Y-127709100D02*
X117137100Y-127774300D01*
X117274300Y-127637100D02*
X117209000Y-127709100D01*
X117332200Y-127559100D02*
X117274300Y-127637100D01*
X117382100Y-127475700D02*
X117332200Y-127559100D01*
X117423600Y-127387900D02*
X117382100Y-127475700D01*
X117456400Y-127296500D02*
X117423600Y-127387900D01*
X117480000Y-127202200D02*
X117456400Y-127296500D01*
X117494200Y-127106100D02*
X117480000Y-127202200D01*
X117499000Y-127008800D02*
X117494200Y-127106100D01*
X117499000Y-125991300D02*
X117499000Y-127008800D01*
X117494200Y-125894000D02*
X117499000Y-125991300D01*
X117480000Y-125797900D02*
X117494200Y-125894000D01*
X117456400Y-125703600D02*
X117480000Y-125797900D01*
X117423600Y-125612200D02*
X117456400Y-125703600D01*
X117382100Y-125524300D02*
X117423600Y-125612200D01*
X117332200Y-125441000D02*
X117382100Y-125524300D01*
X117274300Y-125363000D02*
X117332200Y-125441000D01*
X117209000Y-125291000D02*
X117274300Y-125363000D01*
X117137100Y-125225700D02*
X117209000Y-125291000D01*
X117059000Y-125167900D02*
X117137100Y-125225700D01*
X116975700Y-125117900D02*
X117059000Y-125167900D01*
X116887900Y-125076400D02*
X116975700Y-125117900D01*
X116796400Y-125043700D02*
X116887900Y-125076400D01*
X116702200Y-125020100D02*
X116796400Y-125043700D01*
X116606100Y-125005800D02*
X116702200Y-125020100D01*
X116508800Y-125001000D02*
X116606100Y-125005800D01*
X107806500Y-125001000D02*
X116508800Y-125001000D01*
X107695100Y-124995200D02*
X107806500Y-125001000D01*
X107592200Y-124978900D02*
X107695100Y-124995200D01*
X107491000Y-124951800D02*
X107592200Y-124978900D01*
X107393200Y-124914300D02*
X107491000Y-124951800D01*
X107311200Y-124872900D02*
X107393200Y-124914300D01*
X107288500Y-124859800D02*
X107311200Y-124872900D01*
X107222500Y-124816900D02*
X107288500Y-124859800D01*
X107201400Y-124801600D02*
X107222500Y-124816900D01*
X107130200Y-124743500D02*
X107201400Y-124801600D01*
X107056200Y-124669400D02*
X107130200Y-124743500D01*
X106990600Y-124588400D02*
X107056200Y-124669400D01*
X106933500Y-124500600D02*
X106990600Y-124588400D01*
X106886000Y-124407300D02*
X106933500Y-124500600D01*
X106852700Y-124321700D02*
X106886000Y-124407300D01*
X106844600Y-124296700D02*
X106852700Y-124321700D01*
X106824200Y-124220600D02*
X106844600Y-124296700D01*
X106818800Y-124195200D02*
X106824200Y-124220600D01*
X106804800Y-124104400D02*
X106818800Y-124195200D01*
X106799000Y-123993600D02*
X106804800Y-124104400D01*
X106799100Y-115999800D02*
X106799000Y-123993600D01*
X106804900Y-115895200D02*
X106799100Y-115999800D01*
X106821300Y-115791700D02*
X106804900Y-115895200D01*
X106848400Y-115690600D02*
X106821300Y-115791700D01*
X106886000Y-115592800D02*
X106848400Y-115690600D01*
X106933300Y-115499900D02*
X106886000Y-115592800D01*
X106990300Y-115412100D02*
X106933300Y-115499900D01*
X107056200Y-115330700D02*
X106990300Y-115412100D01*
X107130300Y-115256600D02*
X107056200Y-115330700D01*
X107211700Y-115190600D02*
X107130300Y-115256600D01*
X107288500Y-115140300D02*
X107211700Y-115190600D01*
X107311200Y-115127200D02*
X107288500Y-115140300D01*
X107381400Y-115091400D02*
X107311200Y-115127200D01*
X107405100Y-115080900D02*
X107381400Y-115091400D01*
X107491100Y-115048300D02*
X107405100Y-115080900D01*
X107592200Y-115021200D02*
X107491100Y-115048300D01*
X107695200Y-115004900D02*
X107592200Y-115021200D01*
X107799900Y-114999100D02*
X107695200Y-115004900D01*
X116508800Y-114999000D02*
X107799900Y-114999100D01*
X116606100Y-114994200D02*
X116508800Y-114999000D01*
X116702200Y-114980000D02*
X116606100Y-114994200D01*
X116796400Y-114956400D02*
X116702200Y-114980000D01*
X116887900Y-114923700D02*
X116796400Y-114956400D01*
X116975700Y-114882100D02*
X116887900Y-114923700D01*
X117059000Y-114832200D02*
X116975700Y-114882100D01*
X117137100Y-114774300D02*
X117059000Y-114832200D01*
X117209000Y-114709100D02*
X117137100Y-114774300D01*
X117274300Y-114637100D02*
X117209000Y-114709100D01*
X117332200Y-114559000D02*
X117274300Y-114637100D01*
X117382100Y-114475700D02*
X117332200Y-114559000D01*
X117423600Y-114387900D02*
X117382100Y-114475700D01*
X117456400Y-114296400D02*
X117423600Y-114387900D01*
X117480000Y-114202200D02*
X117456400Y-114296400D01*
X117494200Y-114106100D02*
X117480000Y-114202200D01*
X117499000Y-114008800D02*
X117494200Y-114106100D01*
X117499000Y-112991300D02*
X117499000Y-114008800D01*
X117494200Y-112894000D02*
X117499000Y-112991300D01*
X117480000Y-112797900D02*
X117494200Y-112894000D01*
X117456400Y-112703600D02*
X117480000Y-112797900D01*
X117423600Y-112612200D02*
X117456400Y-112703600D01*
X117382100Y-112524300D02*
X117423600Y-112612200D01*
X117332200Y-112441000D02*
X117382100Y-112524300D01*
X117274300Y-112363000D02*
X117332200Y-112441000D01*
X117209000Y-112291000D02*
X117274300Y-112363000D01*
X117137100Y-112225700D02*
X117209000Y-112291000D01*
X117059000Y-112167900D02*
X117137100Y-112225700D01*
X116975700Y-112117900D02*
X117059000Y-112167900D01*
X116887900Y-112076400D02*
X116975700Y-112117900D01*
X116796400Y-112043700D02*
X116887900Y-112076400D01*
X116702200Y-112020000D02*
X116796400Y-112043700D01*
X116606100Y-112005800D02*
X116702200Y-112020000D01*
X116508800Y-112001000D02*
X116606100Y-112005800D01*
X107806500Y-112001000D02*
X116508800Y-112001000D01*
X107695700Y-111995200D02*
X107806500Y-112001000D01*
X107592200Y-111978900D02*
X107695700Y-111995200D01*
X107503400Y-111955500D02*
X107592200Y-111978900D01*
X107478400Y-111947300D02*
X107503400Y-111955500D01*
X107404900Y-111919100D02*
X107478400Y-111947300D01*
X107381200Y-111908500D02*
X107404900Y-111919100D01*
X107299400Y-111866500D02*
X107381200Y-111908500D01*
X107211600Y-111809400D02*
X107299400Y-111866500D01*
X107130600Y-111743800D02*
X107211600Y-111809400D01*
X107056500Y-111669800D02*
X107130600Y-111743800D01*
X106990600Y-111588400D02*
X107056500Y-111669800D01*
X106940300Y-111511600D02*
X106990600Y-111588400D01*
X106927200Y-111488800D02*
X106940300Y-111511600D01*
X106891400Y-111418700D02*
X106927200Y-111488800D01*
X106880800Y-111394900D02*
X106891400Y-111418700D01*
X106848200Y-111309000D02*
X106880800Y-111394900D01*
X106821200Y-111207800D02*
X106848200Y-111309000D01*
X106804900Y-111104900D02*
X106821200Y-111207800D01*
X106799100Y-110999900D02*
X106804900Y-111104900D01*
X106799100Y-102999800D02*
X106799100Y-110999900D01*
X106804900Y-102895200D02*
X106799100Y-102999800D01*
X106821300Y-102791700D02*
X106804900Y-102895200D01*
X106848400Y-102690500D02*
X106821300Y-102791700D01*
X106886000Y-102592800D02*
X106848400Y-102690500D01*
X106933300Y-102499900D02*
X106886000Y-102592800D01*
X106990300Y-102412100D02*
X106933300Y-102499900D01*
X107056200Y-102330600D02*
X106990300Y-102412100D01*
X107130300Y-102256600D02*
X107056200Y-102330600D01*
X107211700Y-102190600D02*
X107130300Y-102256600D01*
X107288500Y-102140300D02*
X107211700Y-102190600D01*
X107311200Y-102127200D02*
X107288500Y-102140300D01*
X107381400Y-102091400D02*
X107311200Y-102127200D01*
X107405100Y-102080900D02*
X107381400Y-102091400D01*
X107491100Y-102048300D02*
X107405100Y-102080900D01*
X107592200Y-102021200D02*
X107491100Y-102048300D01*
X107695200Y-102004900D02*
X107592200Y-102021200D01*
X107799900Y-101999100D02*
X107695200Y-102004900D01*
X116508800Y-101999000D02*
X107799900Y-101999100D01*
X116606100Y-101994200D02*
X116508800Y-101999000D01*
X116702200Y-101980000D02*
X116606100Y-101994200D01*
X116796400Y-101956400D02*
X116702200Y-101980000D01*
X116887900Y-101923700D02*
X116796400Y-101956400D01*
X116975700Y-101882100D02*
X116887900Y-101923700D01*
X117059000Y-101832200D02*
X116975700Y-101882100D01*
X117137100Y-101774300D02*
X117059000Y-101832200D01*
X117209000Y-101709000D02*
X117137100Y-101774300D01*
X117274300Y-101637100D02*
X117209000Y-101709000D01*
X117332200Y-101559000D02*
X117274300Y-101637100D01*
X117382100Y-101475700D02*
X117332200Y-101559000D01*
X117423600Y-101387900D02*
X117382100Y-101475700D01*
X117456400Y-101296400D02*
X117423600Y-101387900D01*
X117480000Y-101202200D02*
X117456400Y-101296400D01*
X117494200Y-101106100D02*
X117480000Y-101202200D01*
X117499000Y-101008800D02*
X117494200Y-101106100D01*
X117499000Y-99991300D02*
X117499000Y-101008800D01*
X117494200Y-99894000D02*
X117499000Y-99991300D01*
X117480000Y-99797900D02*
X117494200Y-99894000D01*
X117456400Y-99703600D02*
X117480000Y-99797900D01*
X117423600Y-99612200D02*
X117456400Y-99703600D01*
X117382100Y-99524300D02*
X117423600Y-99612200D01*
X117332200Y-99441000D02*
X117382100Y-99524300D01*
X117274300Y-99363000D02*
X117332200Y-99441000D01*
X117209000Y-99291000D02*
X117274300Y-99363000D01*
X117137100Y-99225700D02*
X117209000Y-99291000D01*
X117059000Y-99167900D02*
X117137100Y-99225700D01*
X116975700Y-99117900D02*
X117059000Y-99167900D01*
X116887900Y-99076400D02*
X116975700Y-99117900D01*
X116796400Y-99043700D02*
X116887900Y-99076400D01*
X116702200Y-99020000D02*
X116796400Y-99043700D01*
X116606100Y-99005800D02*
X116702200Y-99020000D01*
X116508800Y-99001000D02*
X116606100Y-99005800D01*
X107806500Y-99001000D02*
X116508800Y-99001000D01*
X107695700Y-98995200D02*
X107806500Y-99001000D01*
X107592200Y-98978900D02*
X107695700Y-98995200D01*
X107503400Y-98955400D02*
X107592200Y-98978900D01*
X107478400Y-98947300D02*
X107503400Y-98955400D01*
X107404900Y-98919100D02*
X107478400Y-98947300D01*
X107381200Y-98908500D02*
X107404900Y-98919100D01*
X107299400Y-98866500D02*
X107381200Y-98908500D01*
X107211600Y-98809400D02*
X107299400Y-98866500D01*
X107130600Y-98743800D02*
X107211600Y-98809400D01*
X107056500Y-98669800D02*
X107130600Y-98743800D01*
X106990600Y-98588400D02*
X107056500Y-98669800D01*
X106940300Y-98511600D02*
X106990600Y-98588400D01*
X106927200Y-98488800D02*
X106940300Y-98511600D01*
X106891400Y-98418700D02*
X106927200Y-98488800D01*
X106880800Y-98394900D02*
X106891400Y-98418700D01*
X106848200Y-98309000D02*
X106880800Y-98394900D01*
X106821200Y-98207800D02*
X106848200Y-98309000D01*
X106804900Y-98104900D02*
X106821200Y-98207800D01*
X106799100Y-97999900D02*
X106804900Y-98104900D01*
X106799100Y-89999800D02*
X106799100Y-97999900D01*
X106804900Y-89895100D02*
X106799100Y-89999800D01*
X106821300Y-89791700D02*
X106804900Y-89895100D01*
X106848400Y-89690500D02*
X106821300Y-89791700D01*
X106886000Y-89592800D02*
X106848400Y-89690500D01*
X106933300Y-89499900D02*
X106886000Y-89592800D01*
X106990300Y-89412000D02*
X106933300Y-89499900D01*
X107056200Y-89330600D02*
X106990300Y-89412000D01*
X107130300Y-89256600D02*
X107056200Y-89330600D01*
X107211700Y-89190600D02*
X107130300Y-89256600D01*
X107288500Y-89140300D02*
X107211700Y-89190600D01*
X107311200Y-89127200D02*
X107288500Y-89140300D01*
X107381400Y-89091400D02*
X107311200Y-89127200D01*
X107405100Y-89080900D02*
X107381400Y-89091400D01*
X107491100Y-89048300D02*
X107405100Y-89080900D01*
X107592200Y-89021200D02*
X107491100Y-89048300D01*
X107695200Y-89004900D02*
X107592200Y-89021200D01*
X107799900Y-88999100D02*
X107695200Y-89004900D01*
X116508800Y-88999000D02*
X107799900Y-88999100D01*
X116606100Y-88994200D02*
X116508800Y-88999000D01*
X116702200Y-88980000D02*
X116606100Y-88994200D01*
X116796400Y-88956400D02*
X116702200Y-88980000D01*
X116887900Y-88923600D02*
X116796400Y-88956400D01*
X116975700Y-88882100D02*
X116887900Y-88923600D01*
X117059000Y-88832200D02*
X116975700Y-88882100D01*
X117137100Y-88774300D02*
X117059000Y-88832200D01*
X117209000Y-88709000D02*
X117137100Y-88774300D01*
X117274300Y-88637100D02*
X117209000Y-88709000D01*
X117332200Y-88559000D02*
X117274300Y-88637100D01*
X117382100Y-88475700D02*
X117332200Y-88559000D01*
X117423600Y-88387900D02*
X117382100Y-88475700D01*
X117456400Y-88296400D02*
X117423600Y-88387900D01*
X117480000Y-88202200D02*
X117456400Y-88296400D01*
X117494200Y-88106100D02*
X117480000Y-88202200D01*
X117499000Y-88008800D02*
X117494200Y-88106100D01*
X117499000Y-86991300D02*
X117499000Y-88008800D01*
X117494200Y-86894000D02*
X117499000Y-86991300D01*
X117480000Y-86797900D02*
X117494200Y-86894000D01*
X117456400Y-86703600D02*
X117480000Y-86797900D01*
X117423600Y-86612200D02*
X117456400Y-86703600D01*
X117382100Y-86524300D02*
X117423600Y-86612200D01*
X117332200Y-86441000D02*
X117382100Y-86524300D01*
X117274300Y-86363000D02*
X117332200Y-86441000D01*
X117209000Y-86291000D02*
X117274300Y-86363000D01*
X117137100Y-86225700D02*
X117209000Y-86291000D01*
X117059000Y-86167900D02*
X117137100Y-86225700D01*
X116975700Y-86117900D02*
X117059000Y-86167900D01*
X116887900Y-86076400D02*
X116975700Y-86117900D01*
X116796400Y-86043600D02*
X116887900Y-86076400D01*
X116702200Y-86020000D02*
X116796400Y-86043600D01*
X116606100Y-86005800D02*
X116702200Y-86020000D01*
X116508800Y-86001000D02*
X116606100Y-86005800D01*
X107806500Y-86001000D02*
X116508800Y-86001000D01*
X107708300Y-85996200D02*
X107806500Y-86001000D01*
X107682400Y-85993500D02*
X107708300Y-85996200D01*
X107604900Y-85981200D02*
X107682400Y-85993500D01*
X107579200Y-85975700D02*
X107604900Y-85981200D01*
X107491000Y-85951800D02*
X107579200Y-85975700D01*
X107405200Y-85919200D02*
X107491000Y-85951800D01*
X107381200Y-85908500D02*
X107405200Y-85919200D01*
X107299900Y-85866700D02*
X107381200Y-85908500D01*
X107222700Y-85817000D02*
X107299900Y-85866700D01*
X107201400Y-85801600D02*
X107222700Y-85817000D01*
X107130600Y-85743800D02*
X107201400Y-85801600D01*
X107065400Y-85679100D02*
X107130600Y-85743800D01*
X107047900Y-85659600D02*
X107065400Y-85679100D01*
X106990300Y-85588000D02*
X107047900Y-85659600D01*
X106933500Y-85500500D02*
X106990300Y-85588000D01*
X106891500Y-85418900D02*
X106933500Y-85500500D01*
X106880800Y-85394900D02*
X106891500Y-85418900D01*
X106852700Y-85321600D02*
X106880800Y-85394900D01*
X106844700Y-85296900D02*
X106852700Y-85321600D01*
X106821300Y-85208300D02*
X106844700Y-85296900D01*
X106806600Y-85117700D02*
X106821300Y-85208300D01*
X106803800Y-85091500D02*
X106806600Y-85117700D01*
X106799000Y-84993500D02*
X106803800Y-85091500D01*
X106799100Y-76999800D02*
X106799000Y-84993500D01*
X106804900Y-76895100D02*
X106799100Y-76999800D01*
X106821300Y-76791700D02*
X106804900Y-76895100D01*
X106848300Y-76691000D02*
X106821300Y-76791700D01*
X106885800Y-76593200D02*
X106848300Y-76691000D01*
X106933300Y-76499900D02*
X106885800Y-76593200D01*
X106990300Y-76412000D02*
X106933300Y-76499900D01*
X107056200Y-76330600D02*
X106990300Y-76412000D01*
X107121100Y-76265300D02*
X107056200Y-76330600D01*
X107140400Y-76247900D02*
X107121100Y-76265300D01*
X107211700Y-76190600D02*
X107140400Y-76247900D01*
X107288500Y-76140300D02*
X107211700Y-76190600D01*
X107311200Y-76127200D02*
X107288500Y-76140300D01*
X107381400Y-76091400D02*
X107311200Y-76127200D01*
X107405100Y-76080800D02*
X107381400Y-76091400D01*
X107491100Y-76048300D02*
X107405100Y-76080800D01*
X107592200Y-76021200D02*
X107491100Y-76048300D01*
X107695200Y-76004900D02*
X107592200Y-76021200D01*
X107799900Y-75999100D02*
X107695200Y-76004900D01*
X116508800Y-75999000D02*
X107799900Y-75999100D01*
X116606100Y-75994200D02*
X116508800Y-75999000D01*
X116702200Y-75980000D02*
X116606100Y-75994200D01*
X116796400Y-75956400D02*
X116702200Y-75980000D01*
X116887900Y-75923600D02*
X116796400Y-75956400D01*
X116975700Y-75882100D02*
X116887900Y-75923600D01*
X117059000Y-75832200D02*
X116975700Y-75882100D01*
X117137100Y-75774300D02*
X117059000Y-75832200D01*
X117209000Y-75709000D02*
X117137100Y-75774300D01*
X117274300Y-75637100D02*
X117209000Y-75709000D01*
X117332200Y-75559000D02*
X117274300Y-75637100D01*
X117382100Y-75475700D02*
X117332200Y-75559000D01*
X117423600Y-75387900D02*
X117382100Y-75475700D01*
X117456400Y-75296400D02*
X117423600Y-75387900D01*
X117480000Y-75202100D02*
X117456400Y-75296400D01*
X117494200Y-75106000D02*
X117480000Y-75202100D01*
X117499000Y-75008800D02*
X117494200Y-75106000D01*
X117499000Y-73991200D02*
X117499000Y-75008800D01*
X117494200Y-73894000D02*
X117499000Y-73991200D01*
X117480000Y-73797900D02*
X117494200Y-73894000D01*
X117456400Y-73703600D02*
X117480000Y-73797900D01*
X117423600Y-73612200D02*
X117456400Y-73703600D01*
X117382100Y-73524300D02*
X117423600Y-73612200D01*
X117332200Y-73441000D02*
X117382100Y-73524300D01*
X117274300Y-73363000D02*
X117332200Y-73441000D01*
X117209000Y-73291000D02*
X117274300Y-73363000D01*
X117137100Y-73225700D02*
X117209000Y-73291000D01*
X117059000Y-73167900D02*
X117137100Y-73225700D01*
X116975700Y-73117900D02*
X117059000Y-73167900D01*
X116887900Y-73076400D02*
X116975700Y-73117900D01*
X116796400Y-73043600D02*
X116887900Y-73076400D01*
X116702200Y-73020000D02*
X116796400Y-73043600D01*
X116606100Y-73005800D02*
X116702200Y-73020000D01*
X116508800Y-73001000D02*
X116606100Y-73005800D01*
X107799800Y-73000900D02*
X116508800Y-73001000D01*
X107695100Y-72995200D02*
X107799800Y-73000900D01*
X107591700Y-72978700D02*
X107695100Y-72995200D01*
X107490500Y-72951600D02*
X107591700Y-72978700D01*
X107392700Y-72914000D02*
X107490500Y-72951600D01*
X107299900Y-72866700D02*
X107392700Y-72914000D01*
X107212000Y-72809700D02*
X107299900Y-72866700D01*
X107130600Y-72743800D02*
X107212000Y-72809700D01*
X107056500Y-72669800D02*
X107130600Y-72743800D01*
X106990600Y-72588400D02*
X107056500Y-72669800D01*
X106940300Y-72511600D02*
X106990600Y-72588400D01*
X106927200Y-72488800D02*
X106940300Y-72511600D01*
X106891400Y-72418700D02*
X106927200Y-72488800D01*
X106880800Y-72394900D02*
X106891400Y-72418700D01*
X106848200Y-72309000D02*
X106880800Y-72394900D01*
X106821200Y-72207800D02*
X106848200Y-72309000D01*
X106804900Y-72104800D02*
X106821200Y-72207800D01*
X106799100Y-71999900D02*
X106804900Y-72104800D01*
X106799000Y-64006400D02*
X106799100Y-71999900D01*
X106804800Y-63895600D02*
X106799000Y-64006400D01*
X106821200Y-63792200D02*
X106804800Y-63895600D01*
X106848300Y-63691000D02*
X106821200Y-63792200D01*
X106885800Y-63593200D02*
X106848300Y-63691000D01*
X106927100Y-63511200D02*
X106885800Y-63593200D01*
X106940300Y-63488500D02*
X106927100Y-63511200D01*
X106990300Y-63412000D02*
X106940300Y-63488500D01*
X107047800Y-63340400D02*
X106990300Y-63412000D01*
X107065400Y-63320900D02*
X107047800Y-63340400D01*
X107130300Y-63256500D02*
X107065400Y-63320900D01*
X107212100Y-63190300D02*
X107130300Y-63256500D01*
X107288500Y-63140300D02*
X107212100Y-63190300D01*
X107311200Y-63127200D02*
X107288500Y-63140300D01*
X107392800Y-63086000D02*
X107311200Y-63127200D01*
X107478400Y-63052700D02*
X107392800Y-63086000D01*
X107503400Y-63044600D02*
X107478400Y-63052700D01*
X107591700Y-63021300D02*
X107503400Y-63044600D01*
X107682400Y-63006600D02*
X107591700Y-63021300D01*
X107708500Y-63003800D02*
X107682400Y-63006600D01*
X107806600Y-62999000D02*
X107708500Y-63003800D01*
X116508800Y-62999000D02*
X107806600Y-62999000D01*
X116606100Y-62994200D02*
X116508800Y-62999000D01*
X116702200Y-62980000D02*
X116606100Y-62994200D01*
X116796400Y-62956400D02*
X116702200Y-62980000D01*
X116887900Y-62923600D02*
X116796400Y-62956400D01*
X116975700Y-62882100D02*
X116887900Y-62923600D01*
X117059000Y-62832200D02*
X116975700Y-62882100D01*
X117137100Y-62774300D02*
X117059000Y-62832200D01*
X117209000Y-62709000D02*
X117137100Y-62774300D01*
X117274300Y-62637000D02*
X117209000Y-62709000D01*
X117332200Y-62559000D02*
X117274300Y-62637000D01*
X117382100Y-62475700D02*
X117332200Y-62559000D01*
X117423600Y-62387900D02*
X117382100Y-62475700D01*
X117456400Y-62296400D02*
X117423600Y-62387900D01*
X117480000Y-62202100D02*
X117456400Y-62296400D01*
X117494200Y-62106000D02*
X117480000Y-62202100D01*
X117499000Y-62008800D02*
X117494200Y-62106000D01*
X117499000Y-60991200D02*
X117499000Y-62008800D01*
X117494200Y-60894000D02*
X117499000Y-60991200D01*
X117480000Y-60797900D02*
X117494200Y-60894000D01*
X117456400Y-60703600D02*
X117480000Y-60797900D01*
X117423600Y-60612100D02*
X117456400Y-60703600D01*
X117382100Y-60524300D02*
X117423600Y-60612100D01*
X117332200Y-60441000D02*
X117382100Y-60524300D01*
X117274300Y-60363000D02*
X117332200Y-60441000D01*
X117209000Y-60291000D02*
X117274300Y-60363000D01*
X117137100Y-60225700D02*
X117209000Y-60291000D01*
X117059000Y-60167900D02*
X117137100Y-60225700D01*
X116975700Y-60117900D02*
X117059000Y-60167900D01*
X116887900Y-60076400D02*
X116975700Y-60117900D01*
X116796400Y-60043600D02*
X116887900Y-60076400D01*
X116702200Y-60020000D02*
X116796400Y-60043600D01*
X116606100Y-60005800D02*
X116702200Y-60020000D01*
X116508800Y-60001000D02*
X116606100Y-60005800D01*
X107799800Y-60000900D02*
X116508800Y-60001000D01*
X107695100Y-59995100D02*
X107799800Y-60000900D01*
X107592200Y-59978800D02*
X107695100Y-59995100D01*
X107491000Y-59951800D02*
X107592200Y-59978800D01*
X107405200Y-59919200D02*
X107491000Y-59951800D01*
X107381200Y-59908500D02*
X107405200Y-59919200D01*
X107311000Y-59872800D02*
X107381200Y-59908500D01*
X107288500Y-59859700D02*
X107311000Y-59872800D01*
X107211600Y-59809400D02*
X107288500Y-59859700D01*
X107140400Y-59752200D02*
X107211600Y-59809400D01*
X107121100Y-59734800D02*
X107140400Y-59752200D01*
X107056200Y-59669400D02*
X107121100Y-59734800D01*
X106990300Y-59587900D02*
X107056200Y-59669400D01*
X106933300Y-59500100D02*
X106990300Y-59587900D01*
X106885800Y-59406700D02*
X106933300Y-59500100D01*
X106848400Y-59309400D02*
X106885800Y-59406700D01*
X106821300Y-59208300D02*
X106848400Y-59309400D01*
X106804900Y-59104800D02*
X106821300Y-59208300D01*
X106799100Y-59000100D02*
X106804900Y-59104800D01*
X106799000Y-51006600D02*
X106799100Y-59000100D01*
X106804800Y-50895600D02*
X106799000Y-51006600D01*
X106821200Y-50792200D02*
X106804800Y-50895600D01*
X106844600Y-50703400D02*
X106821200Y-50792200D01*
X106852700Y-50678400D02*
X106844600Y-50703400D01*
X106886000Y-50592700D02*
X106852700Y-50678400D01*
X106933300Y-50499900D02*
X106886000Y-50592700D01*
X106983000Y-50422700D02*
X106933300Y-50499900D01*
X106998500Y-50401400D02*
X106983000Y-50422700D01*
X107056600Y-50330200D02*
X106998500Y-50401400D01*
X107130300Y-50256500D02*
X107056600Y-50330200D01*
X107201400Y-50198500D02*
X107130300Y-50256500D01*
X107222700Y-50183000D02*
X107201400Y-50198500D01*
X107299900Y-50133300D02*
X107222700Y-50183000D01*
X107392800Y-50086000D02*
X107299900Y-50133300D01*
X107490600Y-50048400D02*
X107392800Y-50086000D01*
X107579200Y-50024300D02*
X107490600Y-50048400D01*
X107604900Y-50018800D02*
X107579200Y-50024300D01*
X107695700Y-50004800D02*
X107604900Y-50018800D01*
X107806600Y-49999000D02*
X107695700Y-50004800D01*
X116508800Y-49999000D02*
X107806600Y-49999000D01*
X116606100Y-49994200D02*
X116508800Y-49999000D01*
X116702200Y-49980000D02*
X116606100Y-49994200D01*
X116796400Y-49956400D02*
X116702200Y-49980000D01*
X116887900Y-49923600D02*
X116796400Y-49956400D01*
X116975700Y-49882100D02*
X116887900Y-49923600D01*
X117059000Y-49832100D02*
X116975700Y-49882100D01*
X117137100Y-49774300D02*
X117059000Y-49832100D01*
X117209000Y-49709000D02*
X117137100Y-49774300D01*
X117274300Y-49637000D02*
X117209000Y-49709000D01*
X117332200Y-49559000D02*
X117274300Y-49637000D01*
X117382100Y-49475700D02*
X117332200Y-49559000D01*
X117423600Y-49387900D02*
X117382100Y-49475700D01*
X117456400Y-49296400D02*
X117423600Y-49387900D01*
X117480000Y-49202100D02*
X117456400Y-49296400D01*
X117494200Y-49106000D02*
X117480000Y-49202100D01*
X117499000Y-49008800D02*
X117494200Y-49106000D01*
X117499000Y-48000200D02*
X117499000Y-49008800D01*
X117494200Y-47903000D02*
X117499000Y-48000200D01*
X117480000Y-47806900D02*
X117494200Y-47903000D01*
X117456400Y-47712600D02*
X117480000Y-47806900D01*
X117423600Y-47621100D02*
X117456400Y-47712600D01*
X117382100Y-47533300D02*
X117423600Y-47621100D01*
X117332200Y-47450000D02*
X117382100Y-47533300D01*
X117274300Y-47372000D02*
X117332200Y-47450000D01*
X117209000Y-47300000D02*
X117274300Y-47372000D01*
X117137100Y-47234700D02*
X117209000Y-47300000D01*
X117059000Y-47176900D02*
X117137100Y-47234700D01*
X116975700Y-47126900D02*
X117059000Y-47176900D01*
X116887900Y-47085400D02*
X116975700Y-47126900D01*
X116796400Y-47052600D02*
X116887900Y-47085400D01*
X116702200Y-47029000D02*
X116796400Y-47052600D01*
X116606100Y-47014800D02*
X116702200Y-47029000D01*
X116508800Y-47010000D02*
X116606100Y-47014800D01*
X134199800Y-140990100D02*
X122491300Y-140990100D01*
X134297100Y-140985300D02*
X134199800Y-140990100D01*
X134393200Y-140971000D02*
X134297100Y-140985300D01*
X134487400Y-140947400D02*
X134393200Y-140971000D01*
X134578900Y-140914700D02*
X134487400Y-140947400D01*
X134666700Y-140873200D02*
X134578900Y-140914700D01*
X134750000Y-140823200D02*
X134666700Y-140873200D01*
X134828100Y-140765300D02*
X134750000Y-140823200D01*
X134900000Y-140700100D02*
X134828100Y-140765300D01*
X134965300Y-140628100D02*
X134900000Y-140700100D01*
X135023200Y-140550100D02*
X134965300Y-140628100D01*
X135073100Y-140466700D02*
X135023200Y-140550100D01*
X135114700Y-140378900D02*
X135073100Y-140466700D01*
X135147400Y-140287400D02*
X135114700Y-140378900D01*
X135171000Y-140193200D02*
X135147400Y-140287400D01*
X135185200Y-140097100D02*
X135171000Y-140193200D01*
X135190000Y-139999800D02*
X135185200Y-140097100D01*
X135190000Y-48000200D02*
X135190000Y-139999800D01*
X135185200Y-47903000D02*
X135190000Y-48000200D01*
X135171000Y-47806900D02*
X135185200Y-47903000D01*
X135147400Y-47712600D02*
X135171000Y-47806900D01*
X135114700Y-47621100D02*
X135147400Y-47712600D01*
X135073100Y-47533300D02*
X135114700Y-47621100D01*
X135023200Y-47450000D02*
X135073100Y-47533300D01*
X134965300Y-47372000D02*
X135023200Y-47450000D01*
X134900000Y-47300000D02*
X134965300Y-47372000D01*
X134828100Y-47234700D02*
X134900000Y-47300000D01*
X134750000Y-47176900D02*
X134828100Y-47234700D01*
X134666700Y-47126900D02*
X134750000Y-47176900D01*
X134578900Y-47085400D02*
X134666700Y-47126900D01*
X134487400Y-47052600D02*
X134578900Y-47085400D01*
X134393200Y-47029000D02*
X134487400Y-47052600D01*
X134297100Y-47014800D02*
X134393200Y-47029000D01*
X134199800Y-47010000D02*
X134297100Y-47014800D01*
X122491300Y-47010000D02*
X134199800Y-47010000D01*
X122394000Y-47014800D02*
X122491300Y-47010000D01*
X122297900Y-47029000D02*
X122394000Y-47014800D01*
X122203600Y-47052600D02*
X122297900Y-47029000D01*
X122112200Y-47085400D02*
X122203600Y-47052600D01*
X122024300Y-47126900D02*
X122112200Y-47085400D01*
X121941000Y-47176900D02*
X122024300Y-47126900D01*
X121863000Y-47234700D02*
X121941000Y-47176900D01*
X121791000Y-47300000D02*
X121863000Y-47234700D01*
X121725700Y-47372000D02*
X121791000Y-47300000D01*
X121667900Y-47450000D02*
X121725700Y-47372000D01*
X121617900Y-47533300D02*
X121667900Y-47450000D01*
X121576400Y-47621100D02*
X121617900Y-47533300D01*
X121543700Y-47712600D02*
X121576400Y-47621100D01*
X121520100Y-47806900D02*
X121543700Y-47712600D01*
X121505800Y-47903000D02*
X121520100Y-47806900D01*
X121501000Y-48000200D02*
X121505800Y-47903000D01*
X121501000Y-49008800D02*
X121501000Y-48000200D01*
X121505800Y-49106000D02*
X121501000Y-49008800D01*
X121520100Y-49202100D02*
X121505800Y-49106000D01*
X121543700Y-49296400D02*
X121520100Y-49202100D01*
X121576400Y-49387900D02*
X121543700Y-49296400D01*
X121617900Y-49475700D02*
X121576400Y-49387900D01*
X121667900Y-49559000D02*
X121617900Y-49475700D01*
X121725700Y-49637000D02*
X121667900Y-49559000D01*
X121791000Y-49709000D02*
X121725700Y-49637000D01*
X121863000Y-49774300D02*
X121791000Y-49709000D01*
X121941000Y-49832100D02*
X121863000Y-49774300D01*
X122024300Y-49882100D02*
X121941000Y-49832100D01*
X122112200Y-49923600D02*
X122024300Y-49882100D01*
X122203600Y-49956400D02*
X122112200Y-49923600D01*
X122297900Y-49980000D02*
X122203600Y-49956400D01*
X122394000Y-49994200D02*
X122297900Y-49980000D01*
X122491300Y-49999000D02*
X122394000Y-49994200D01*
X131193400Y-49999000D02*
X122491300Y-49999000D01*
X131304400Y-50004800D02*
X131193400Y-49999000D01*
X131407800Y-50021200D02*
X131304400Y-50004800D01*
X131509000Y-50048300D02*
X131407800Y-50021200D01*
X131606800Y-50085800D02*
X131509000Y-50048300D01*
X131688800Y-50127100D02*
X131606800Y-50085800D01*
X131711500Y-50140300D02*
X131688800Y-50127100D01*
X131777600Y-50183100D02*
X131711500Y-50140300D01*
X131798600Y-50198400D02*
X131777600Y-50183100D01*
X131869800Y-50256600D02*
X131798600Y-50198400D01*
X131943800Y-50330600D02*
X131869800Y-50256600D01*
X132009400Y-50411600D02*
X131943800Y-50330600D01*
X132066500Y-50499500D02*
X132009400Y-50411600D01*
X132114100Y-50592800D02*
X132066500Y-50499500D01*
X132147300Y-50678400D02*
X132114100Y-50592800D01*
X132155400Y-50703400D02*
X132147300Y-50678400D01*
X132175800Y-50779400D02*
X132155400Y-50703400D01*
X132181200Y-50804900D02*
X132175800Y-50779400D01*
X132195200Y-50895700D02*
X132181200Y-50804900D01*
X132201000Y-51006400D02*
X132195200Y-50895700D01*
X132200900Y-59000200D02*
X132201000Y-51006400D01*
X132195200Y-59104900D02*
X132200900Y-59000200D01*
X132178700Y-59208300D02*
X132195200Y-59104900D01*
X132151600Y-59309500D02*
X132178700Y-59208300D01*
X132114000Y-59407300D02*
X132151600Y-59309500D01*
X132066700Y-59500100D02*
X132114000Y-59407300D01*
X132009700Y-59588000D02*
X132066700Y-59500100D01*
X131943800Y-59669400D02*
X132009700Y-59588000D01*
X131869800Y-59743500D02*
X131943800Y-59669400D01*
X131788400Y-59809400D02*
X131869800Y-59743500D01*
X131711600Y-59859700D02*
X131788400Y-59809400D01*
X131688800Y-59872900D02*
X131711600Y-59859700D01*
X131618700Y-59908600D02*
X131688800Y-59872900D01*
X131594900Y-59919200D02*
X131618700Y-59908600D01*
X131509000Y-59951800D02*
X131594900Y-59919200D01*
X131407800Y-59978800D02*
X131509000Y-59951800D01*
X131304800Y-59995100D02*
X131407800Y-59978800D01*
X131200200Y-60000900D02*
X131304800Y-59995100D01*
X122491300Y-60001000D02*
X131200200Y-60000900D01*
X122394000Y-60005800D02*
X122491300Y-60001000D01*
X122297900Y-60020000D02*
X122394000Y-60005800D01*
X122203600Y-60043600D02*
X122297900Y-60020000D01*
X122112200Y-60076400D02*
X122203600Y-60043600D01*
X122024300Y-60117900D02*
X122112200Y-60076400D01*
X121941000Y-60167900D02*
X122024300Y-60117900D01*
X121863000Y-60225700D02*
X121941000Y-60167900D01*
X121791000Y-60291000D02*
X121863000Y-60225700D01*
X121725700Y-60363000D02*
X121791000Y-60291000D01*
X121667900Y-60441000D02*
X121725700Y-60363000D01*
X121617900Y-60524300D02*
X121667900Y-60441000D01*
X121576400Y-60612100D02*
X121617900Y-60524300D01*
X121543700Y-60703600D02*
X121576400Y-60612100D01*
X121520100Y-60797900D02*
X121543700Y-60703600D01*
X121505800Y-60894000D02*
X121520100Y-60797900D01*
X121501000Y-60991200D02*
X121505800Y-60894000D01*
X121501000Y-62008800D02*
X121501000Y-60991200D01*
X121505800Y-62106000D02*
X121501000Y-62008800D01*
X121520100Y-62202100D02*
X121505800Y-62106000D01*
X121543700Y-62296400D02*
X121520100Y-62202100D01*
X121576400Y-62387900D02*
X121543700Y-62296400D01*
X121617900Y-62475700D02*
X121576400Y-62387900D01*
X121667900Y-62559000D02*
X121617900Y-62475700D01*
X121725700Y-62637000D02*
X121667900Y-62559000D01*
X121791000Y-62709000D02*
X121725700Y-62637000D01*
X121863000Y-62774300D02*
X121791000Y-62709000D01*
X121941000Y-62832100D02*
X121863000Y-62774300D01*
X122024300Y-62882100D02*
X121941000Y-62832100D01*
X122112200Y-62923600D02*
X122024300Y-62882100D01*
X122203600Y-62956400D02*
X122112200Y-62923600D01*
X122297900Y-62980000D02*
X122203600Y-62956400D01*
X122394000Y-62994200D02*
X122297900Y-62980000D01*
X122491300Y-62999000D02*
X122394000Y-62994200D01*
X131193400Y-62999000D02*
X122491300Y-62999000D01*
X131304400Y-63004800D02*
X131193400Y-62999000D01*
X131407800Y-63021200D02*
X131304400Y-63004800D01*
X131509000Y-63048300D02*
X131407800Y-63021200D01*
X131606800Y-63085800D02*
X131509000Y-63048300D01*
X131688800Y-63127100D02*
X131606800Y-63085800D01*
X131711500Y-63140300D02*
X131688800Y-63127100D01*
X131777600Y-63183200D02*
X131711500Y-63140300D01*
X131798600Y-63198500D02*
X131777600Y-63183200D01*
X131869800Y-63256600D02*
X131798600Y-63198500D01*
X131943800Y-63330700D02*
X131869800Y-63256600D01*
X132009400Y-63411700D02*
X131943800Y-63330700D01*
X132066500Y-63499500D02*
X132009400Y-63411700D01*
X132114100Y-63592800D02*
X132066500Y-63499500D01*
X132147300Y-63678400D02*
X132114100Y-63592800D01*
X132155400Y-63703400D02*
X132147300Y-63678400D01*
X132175800Y-63779400D02*
X132155400Y-63703400D01*
X132181200Y-63804900D02*
X132175800Y-63779400D01*
X132195200Y-63895700D02*
X132181200Y-63804900D01*
X132201000Y-64006400D02*
X132195200Y-63895700D01*
X132200900Y-72000200D02*
X132201000Y-64006400D01*
X132195200Y-72104900D02*
X132200900Y-72000200D01*
X132178700Y-72208300D02*
X132195200Y-72104900D01*
X132151600Y-72309500D02*
X132178700Y-72208300D01*
X132114000Y-72407300D02*
X132151600Y-72309500D01*
X132066700Y-72500100D02*
X132114000Y-72407300D01*
X132009700Y-72588000D02*
X132066700Y-72500100D01*
X131943800Y-72669400D02*
X132009700Y-72588000D01*
X131869800Y-72743500D02*
X131943800Y-72669400D01*
X131788400Y-72809400D02*
X131869800Y-72743500D01*
X131711600Y-72859700D02*
X131788400Y-72809400D01*
X131688800Y-72872900D02*
X131711600Y-72859700D01*
X131618700Y-72908600D02*
X131688800Y-72872900D01*
X131594900Y-72919200D02*
X131618700Y-72908600D01*
X131509000Y-72951800D02*
X131594900Y-72919200D01*
X131407800Y-72978900D02*
X131509000Y-72951800D01*
X131304800Y-72995200D02*
X131407800Y-72978900D01*
X131200200Y-73000900D02*
X131304800Y-72995200D01*
X122491300Y-73001000D02*
X131200200Y-73000900D01*
X122394000Y-73005800D02*
X122491300Y-73001000D01*
X122297900Y-73020000D02*
X122394000Y-73005800D01*
X122203600Y-73043600D02*
X122297900Y-73020000D01*
X122112200Y-73076400D02*
X122203600Y-73043600D01*
X122024300Y-73117900D02*
X122112200Y-73076400D01*
X121941000Y-73167900D02*
X122024300Y-73117900D01*
X121863000Y-73225700D02*
X121941000Y-73167900D01*
X121791000Y-73291000D02*
X121863000Y-73225700D01*
X121725700Y-73363000D02*
X121791000Y-73291000D01*
X121667900Y-73441000D02*
X121725700Y-73363000D01*
X121617900Y-73524300D02*
X121667900Y-73441000D01*
X121576400Y-73612200D02*
X121617900Y-73524300D01*
X121543700Y-73703600D02*
X121576400Y-73612200D01*
X121520100Y-73797900D02*
X121543700Y-73703600D01*
X121505800Y-73894000D02*
X121520100Y-73797900D01*
X121501000Y-73991300D02*
X121505800Y-73894000D01*
X121501000Y-75008800D02*
X121501000Y-73991300D01*
X121505800Y-75106000D02*
X121501000Y-75008800D01*
X121520100Y-75202100D02*
X121505800Y-75106000D01*
X121543700Y-75296400D02*
X121520100Y-75202100D01*
X121576400Y-75387900D02*
X121543700Y-75296400D01*
X121617900Y-75475700D02*
X121576400Y-75387900D01*
X121667900Y-75559000D02*
X121617900Y-75475700D01*
X121725700Y-75637000D02*
X121667900Y-75559000D01*
X121791000Y-75709000D02*
X121725700Y-75637000D01*
X121863000Y-75774300D02*
X121791000Y-75709000D01*
X121941000Y-75832200D02*
X121863000Y-75774300D01*
X122024300Y-75882100D02*
X121941000Y-75832200D01*
X122112200Y-75923600D02*
X122024300Y-75882100D01*
X122203600Y-75956400D02*
X122112200Y-75923600D01*
X122297900Y-75980000D02*
X122203600Y-75956400D01*
X122394000Y-75994200D02*
X122297900Y-75980000D01*
X122491300Y-75999000D02*
X122394000Y-75994200D01*
X131193400Y-75999000D02*
X122491300Y-75999000D01*
X131304400Y-76004800D02*
X131193400Y-75999000D01*
X131407800Y-76021200D02*
X131304400Y-76004800D01*
X131496600Y-76044600D02*
X131407800Y-76021200D01*
X131521600Y-76052700D02*
X131496600Y-76044600D01*
X131595100Y-76080900D02*
X131521600Y-76052700D01*
X131618900Y-76091500D02*
X131595100Y-76080900D01*
X131700600Y-76133600D02*
X131618900Y-76091500D01*
X131788400Y-76190600D02*
X131700600Y-76133600D01*
X131869400Y-76256200D02*
X131788400Y-76190600D01*
X131943500Y-76330300D02*
X131869400Y-76256200D01*
X132009400Y-76411700D02*
X131943500Y-76330300D01*
X132059700Y-76488500D02*
X132009400Y-76411700D01*
X132072900Y-76511200D02*
X132059700Y-76488500D01*
X132108600Y-76581400D02*
X132072900Y-76511200D01*
X132119200Y-76605100D02*
X132108600Y-76581400D01*
X132151800Y-76691100D02*
X132119200Y-76605100D01*
X132178900Y-76792300D02*
X132151800Y-76691100D01*
X132195200Y-76895200D02*
X132178900Y-76792300D01*
X132200900Y-77000100D02*
X132195200Y-76895200D01*
X132200900Y-85000200D02*
X132200900Y-77000100D01*
X132195200Y-85104900D02*
X132200900Y-85000200D01*
X132178700Y-85208300D02*
X132195200Y-85104900D01*
X132151600Y-85309500D02*
X132178700Y-85208300D01*
X132114000Y-85407300D02*
X132151600Y-85309500D01*
X132066700Y-85500100D02*
X132114000Y-85407300D01*
X132009700Y-85588000D02*
X132066700Y-85500100D01*
X131943800Y-85669400D02*
X132009700Y-85588000D01*
X131869800Y-85743500D02*
X131943800Y-85669400D01*
X131788400Y-85809400D02*
X131869800Y-85743500D01*
X131711600Y-85859700D02*
X131788400Y-85809400D01*
X131688800Y-85872900D02*
X131711600Y-85859700D01*
X131618700Y-85908600D02*
X131688800Y-85872900D01*
X131594900Y-85919200D02*
X131618700Y-85908600D01*
X131509000Y-85951800D02*
X131594900Y-85919200D01*
X131407800Y-85978900D02*
X131509000Y-85951800D01*
X131304800Y-85995200D02*
X131407800Y-85978900D01*
X131200200Y-86000900D02*
X131304800Y-85995200D01*
X122491300Y-86001000D02*
X131200200Y-86000900D01*
X122394000Y-86005800D02*
X122491300Y-86001000D01*
X122297900Y-86020000D02*
X122394000Y-86005800D01*
X122203600Y-86043700D02*
X122297900Y-86020000D01*
X122112200Y-86076400D02*
X122203600Y-86043700D01*
X122024300Y-86117900D02*
X122112200Y-86076400D01*
X121941000Y-86167900D02*
X122024300Y-86117900D01*
X121863000Y-86225700D02*
X121941000Y-86167900D01*
X121791000Y-86291000D02*
X121863000Y-86225700D01*
X121725700Y-86363000D02*
X121791000Y-86291000D01*
X121667900Y-86441000D02*
X121725700Y-86363000D01*
X121617900Y-86524300D02*
X121667900Y-86441000D01*
X121576400Y-86612200D02*
X121617900Y-86524300D01*
X121543700Y-86703600D02*
X121576400Y-86612200D01*
X121520100Y-86797900D02*
X121543700Y-86703600D01*
X121505800Y-86894000D02*
X121520100Y-86797900D01*
X121501000Y-86991300D02*
X121505800Y-86894000D01*
X121501000Y-88008800D02*
X121501000Y-86991300D01*
X121505800Y-88106000D02*
X121501000Y-88008800D01*
X121520100Y-88202100D02*
X121505800Y-88106000D01*
X121543700Y-88296400D02*
X121520100Y-88202100D01*
X121576400Y-88387900D02*
X121543700Y-88296400D01*
X121617900Y-88475700D02*
X121576400Y-88387900D01*
X121667900Y-88559000D02*
X121617900Y-88475700D01*
X121725700Y-88637100D02*
X121667900Y-88559000D01*
X121791000Y-88709000D02*
X121725700Y-88637100D01*
X121863000Y-88774300D02*
X121791000Y-88709000D01*
X121941000Y-88832200D02*
X121863000Y-88774300D01*
X122024300Y-88882100D02*
X121941000Y-88832200D01*
X122112200Y-88923600D02*
X122024300Y-88882100D01*
X122203600Y-88956400D02*
X122112200Y-88923600D01*
X122297900Y-88980000D02*
X122203600Y-88956400D01*
X122394000Y-88994200D02*
X122297900Y-88980000D01*
X122491300Y-88999000D02*
X122394000Y-88994200D01*
X131193400Y-88999000D02*
X122491300Y-88999000D01*
X131304400Y-89004800D02*
X131193400Y-88999000D01*
X131407800Y-89021200D02*
X131304400Y-89004800D01*
X131496600Y-89044600D02*
X131407800Y-89021200D01*
X131521600Y-89052700D02*
X131496600Y-89044600D01*
X131595100Y-89080900D02*
X131521600Y-89052700D01*
X131618900Y-89091500D02*
X131595100Y-89080900D01*
X131700600Y-89133600D02*
X131618900Y-89091500D01*
X131788400Y-89190700D02*
X131700600Y-89133600D01*
X131869400Y-89256200D02*
X131788400Y-89190700D01*
X131943500Y-89330300D02*
X131869400Y-89256200D01*
X132009400Y-89411700D02*
X131943500Y-89330300D01*
X132059700Y-89488500D02*
X132009400Y-89411700D01*
X132072900Y-89511200D02*
X132059700Y-89488500D01*
X132108600Y-89581400D02*
X132072900Y-89511200D01*
X132119200Y-89605200D02*
X132108600Y-89581400D01*
X132151800Y-89691100D02*
X132119200Y-89605200D01*
X132178900Y-89792300D02*
X132151800Y-89691100D01*
X132195200Y-89895200D02*
X132178900Y-89792300D01*
X132200900Y-90000100D02*
X132195200Y-89895200D01*
X132200900Y-98000200D02*
X132200900Y-90000100D01*
X132195200Y-98104900D02*
X132200900Y-98000200D01*
X132178700Y-98208400D02*
X132195200Y-98104900D01*
X132151600Y-98309500D02*
X132178700Y-98208400D01*
X132114000Y-98407300D02*
X132151600Y-98309500D01*
X132066700Y-98500200D02*
X132114000Y-98407300D01*
X132009700Y-98588000D02*
X132066700Y-98500200D01*
X131943800Y-98669400D02*
X132009700Y-98588000D01*
X131869800Y-98743500D02*
X131943800Y-98669400D01*
X131788400Y-98809400D02*
X131869800Y-98743500D01*
X131711600Y-98859700D02*
X131788400Y-98809400D01*
X131688800Y-98872900D02*
X131711600Y-98859700D01*
X131618700Y-98908600D02*
X131688800Y-98872900D01*
X131594900Y-98919200D02*
X131618700Y-98908600D01*
X131509000Y-98951800D02*
X131594900Y-98919200D01*
X131407800Y-98978900D02*
X131509000Y-98951800D01*
X131304800Y-98995200D02*
X131407800Y-98978900D01*
X131200200Y-99000900D02*
X131304800Y-98995200D01*
X122491300Y-99001000D02*
X131200200Y-99000900D01*
X122394000Y-99005800D02*
X122491300Y-99001000D01*
X122297900Y-99020100D02*
X122394000Y-99005800D01*
X122203600Y-99043700D02*
X122297900Y-99020100D01*
X122112200Y-99076400D02*
X122203600Y-99043700D01*
X122024300Y-99117900D02*
X122112200Y-99076400D01*
X121941000Y-99167900D02*
X122024300Y-99117900D01*
X121863000Y-99225700D02*
X121941000Y-99167900D01*
X121791000Y-99291000D02*
X121863000Y-99225700D01*
X121725700Y-99363000D02*
X121791000Y-99291000D01*
X121667900Y-99441000D02*
X121725700Y-99363000D01*
X121617900Y-99524300D02*
X121667900Y-99441000D01*
X121576400Y-99612200D02*
X121617900Y-99524300D01*
X121543700Y-99703600D02*
X121576400Y-99612200D01*
X121520100Y-99797900D02*
X121543700Y-99703600D01*
X121505800Y-99894000D02*
X121520100Y-99797900D01*
X121501000Y-99991300D02*
X121505800Y-99894000D01*
X121501000Y-101008800D02*
X121501000Y-99991300D01*
X121505800Y-101106000D02*
X121501000Y-101008800D01*
X121520100Y-101202200D02*
X121505800Y-101106000D01*
X121543700Y-101296400D02*
X121520100Y-101202200D01*
X121576400Y-101387900D02*
X121543700Y-101296400D01*
X121617900Y-101475700D02*
X121576400Y-101387900D01*
X121667900Y-101559000D02*
X121617900Y-101475700D01*
X121725700Y-101637100D02*
X121667900Y-101559000D01*
X121791000Y-101709000D02*
X121725700Y-101637100D01*
X121863000Y-101774300D02*
X121791000Y-101709000D01*
X121941000Y-101832200D02*
X121863000Y-101774300D01*
X122024300Y-101882100D02*
X121941000Y-101832200D01*
X122112200Y-101923600D02*
X122024300Y-101882100D01*
X122203600Y-101956400D02*
X122112200Y-101923600D01*
X122297900Y-101980000D02*
X122203600Y-101956400D01*
X122394000Y-101994200D02*
X122297900Y-101980000D01*
X122491300Y-101999000D02*
X122394000Y-101994200D01*
X131193400Y-101999000D02*
X122491300Y-101999000D01*
X131291800Y-102003800D02*
X131193400Y-101999000D01*
X131317600Y-102006600D02*
X131291800Y-102003800D01*
X131395100Y-102018800D02*
X131317600Y-102006600D01*
X131420800Y-102024300D02*
X131395100Y-102018800D01*
X131509500Y-102048400D02*
X131420800Y-102024300D01*
X131606800Y-102085800D02*
X131509500Y-102048400D01*
X131688800Y-102127200D02*
X131606800Y-102085800D01*
X131711500Y-102140300D02*
X131688800Y-102127200D01*
X131788000Y-102190400D02*
X131711500Y-102140300D01*
X131859600Y-102247900D02*
X131788000Y-102190400D01*
X131879100Y-102265400D02*
X131859600Y-102247900D01*
X131943500Y-102330300D02*
X131879100Y-102265400D01*
X132001600Y-102401400D02*
X131943500Y-102330300D01*
X132017000Y-102422700D02*
X132001600Y-102401400D01*
X132066500Y-102499500D02*
X132017000Y-102422700D01*
X132108500Y-102581200D02*
X132066500Y-102499500D01*
X132119200Y-102605200D02*
X132108500Y-102581200D01*
X132147300Y-102678400D02*
X132119200Y-102605200D01*
X132155400Y-102703200D02*
X132147300Y-102678400D01*
X132178800Y-102791800D02*
X132155400Y-102703200D01*
X132193500Y-102882400D02*
X132178800Y-102791800D01*
X132196200Y-102908500D02*
X132193500Y-102882400D01*
X132201000Y-103006600D02*
X132196200Y-102908500D01*
X132200900Y-111000200D02*
X132201000Y-103006600D01*
X132195200Y-111104900D02*
X132200900Y-111000200D01*
X132178700Y-111208400D02*
X132195200Y-111104900D01*
X132151800Y-111309000D02*
X132178700Y-111208400D01*
X132114300Y-111406800D02*
X132151800Y-111309000D01*
X132066700Y-111500200D02*
X132114300Y-111406800D01*
X132009700Y-111588000D02*
X132066700Y-111500200D01*
X131943800Y-111669400D02*
X132009700Y-111588000D01*
X131878900Y-111734800D02*
X131943800Y-111669400D01*
X131859600Y-111752200D02*
X131878900Y-111734800D01*
X131788400Y-111809400D02*
X131859600Y-111752200D01*
X131711600Y-111859800D02*
X131788400Y-111809400D01*
X131688800Y-111872900D02*
X131711600Y-111859800D01*
X131618700Y-111908600D02*
X131688800Y-111872900D01*
X131594900Y-111919200D02*
X131618700Y-111908600D01*
X131509000Y-111951800D02*
X131594900Y-111919200D01*
X131407800Y-111978900D02*
X131509000Y-111951800D01*
X131304800Y-111995200D02*
X131407800Y-111978900D01*
X131200200Y-112000900D02*
X131304800Y-111995200D01*
X122491300Y-112001000D02*
X131200200Y-112000900D01*
X122394000Y-112005800D02*
X122491300Y-112001000D01*
X122297900Y-112020100D02*
X122394000Y-112005800D01*
X122203600Y-112043700D02*
X122297900Y-112020100D01*
X122112200Y-112076400D02*
X122203600Y-112043700D01*
X122024300Y-112117900D02*
X122112200Y-112076400D01*
X121941000Y-112167900D02*
X122024300Y-112117900D01*
X121863000Y-112225800D02*
X121941000Y-112167900D01*
X121791000Y-112291000D02*
X121863000Y-112225800D01*
X121725700Y-112363000D02*
X121791000Y-112291000D01*
X121667900Y-112441000D02*
X121725700Y-112363000D01*
X121617900Y-112524300D02*
X121667900Y-112441000D01*
X121576400Y-112612200D02*
X121617900Y-112524300D01*
X121543700Y-112703600D02*
X121576400Y-112612200D01*
X121520100Y-112797900D02*
X121543700Y-112703600D01*
X121505800Y-112894000D02*
X121520100Y-112797900D01*
X121501000Y-112991300D02*
X121505800Y-112894000D01*
X121501000Y-114008800D02*
X121501000Y-112991300D01*
X121505800Y-114106100D02*
X121501000Y-114008800D01*
X121520100Y-114202200D02*
X121505800Y-114106100D01*
X121543700Y-114296400D02*
X121520100Y-114202200D01*
X121576400Y-114387900D02*
X121543700Y-114296400D01*
X121617900Y-114475700D02*
X121576400Y-114387900D01*
X121667900Y-114559000D02*
X121617900Y-114475700D01*
X121725700Y-114637100D02*
X121667900Y-114559000D01*
X121791000Y-114709000D02*
X121725700Y-114637100D01*
X121863000Y-114774300D02*
X121791000Y-114709000D01*
X121941000Y-114832200D02*
X121863000Y-114774300D01*
X122024300Y-114882100D02*
X121941000Y-114832200D01*
X122112200Y-114923600D02*
X122024300Y-114882100D01*
X122203600Y-114956400D02*
X122112200Y-114923600D01*
X122297900Y-114980000D02*
X122203600Y-114956400D01*
X122394000Y-114994200D02*
X122297900Y-114980000D01*
X122491300Y-114999000D02*
X122394000Y-114994200D01*
X131200200Y-114999100D02*
X122491300Y-114999000D01*
X131304900Y-115004900D02*
X131200200Y-114999100D01*
X131408300Y-115021300D02*
X131304900Y-115004900D01*
X131509500Y-115048500D02*
X131408300Y-115021300D01*
X131607300Y-115086000D02*
X131509500Y-115048500D01*
X131700100Y-115133300D02*
X131607300Y-115086000D01*
X131788000Y-115190400D02*
X131700100Y-115133300D01*
X131869400Y-115256300D02*
X131788000Y-115190400D01*
X131943500Y-115330300D02*
X131869400Y-115256300D01*
X132009400Y-115411700D02*
X131943500Y-115330300D01*
X132059700Y-115488500D02*
X132009400Y-115411700D01*
X132072900Y-115511300D02*
X132059700Y-115488500D01*
X132108600Y-115581400D02*
X132072900Y-115511300D01*
X132119200Y-115605200D02*
X132108600Y-115581400D01*
X132151800Y-115691100D02*
X132119200Y-115605200D01*
X132178900Y-115792300D02*
X132151800Y-115691100D01*
X132195200Y-115895200D02*
X132178900Y-115792300D01*
X132200900Y-116000200D02*
X132195200Y-115895200D01*
X132201000Y-123993600D02*
X132200900Y-116000200D01*
X132195200Y-124104400D02*
X132201000Y-123993600D01*
X132178900Y-124207900D02*
X132195200Y-124104400D01*
X132151800Y-124309000D02*
X132178900Y-124207900D01*
X132114300Y-124406800D02*
X132151800Y-124309000D01*
X132072900Y-124488800D02*
X132114300Y-124406800D01*
X132059700Y-124511600D02*
X132072900Y-124488800D01*
X132009700Y-124588000D02*
X132059700Y-124511600D01*
X131952200Y-124659600D02*
X132009700Y-124588000D01*
X131934600Y-124679100D02*
X131952200Y-124659600D01*
X131869800Y-124743500D02*
X131934600Y-124679100D01*
X131788000Y-124809800D02*
X131869800Y-124743500D01*
X131711600Y-124859800D02*
X131788000Y-124809800D01*
X131688800Y-124872900D02*
X131711600Y-124859800D01*
X131607200Y-124914100D02*
X131688800Y-124872900D01*
X131521600Y-124947300D02*
X131607200Y-124914100D01*
X131496600Y-124955500D02*
X131521600Y-124947300D01*
X131408300Y-124978800D02*
X131496600Y-124955500D01*
X131317700Y-124993500D02*
X131408300Y-124978800D01*
X131291500Y-124996300D02*
X131317700Y-124993500D01*
X131193500Y-125001000D02*
X131291500Y-124996300D01*
X122491300Y-125001000D02*
X131193500Y-125001000D01*
X122394000Y-125005800D02*
X122491300Y-125001000D01*
X122297900Y-125020100D02*
X122394000Y-125005800D01*
X122203600Y-125043700D02*
X122297900Y-125020100D01*
X122112200Y-125076400D02*
X122203600Y-125043700D01*
X122024300Y-125117900D02*
X122112200Y-125076400D01*
X121941000Y-125167900D02*
X122024300Y-125117900D01*
X121863000Y-125225800D02*
X121941000Y-125167900D01*
X121791000Y-125291000D02*
X121863000Y-125225800D01*
X121725700Y-125363000D02*
X121791000Y-125291000D01*
X121667900Y-125441000D02*
X121725700Y-125363000D01*
X121617900Y-125524400D02*
X121667900Y-125441000D01*
X121576400Y-125612200D02*
X121617900Y-125524400D01*
X121543700Y-125703700D02*
X121576400Y-125612200D01*
X121520100Y-125797900D02*
X121543700Y-125703700D01*
X121505800Y-125894000D02*
X121520100Y-125797900D01*
X121501000Y-125991300D02*
X121505800Y-125894000D01*
X121501000Y-127008800D02*
X121501000Y-125991300D01*
X121505800Y-127106100D02*
X121501000Y-127008800D01*
X121520100Y-127202200D02*
X121505800Y-127106100D01*
X121543700Y-127296500D02*
X121520100Y-127202200D01*
X121576400Y-127387900D02*
X121543700Y-127296500D01*
X121617900Y-127475800D02*
X121576400Y-127387900D01*
X121667900Y-127559100D02*
X121617900Y-127475800D01*
X121725700Y-127637100D02*
X121667900Y-127559100D01*
X121791000Y-127709100D02*
X121725700Y-127637100D01*
X121863000Y-127774400D02*
X121791000Y-127709100D01*
X121941000Y-127832200D02*
X121863000Y-127774400D01*
X122024300Y-127882200D02*
X121941000Y-127832200D01*
X122112200Y-127923700D02*
X122024300Y-127882200D01*
X122203600Y-127956400D02*
X122112200Y-127923700D01*
X122297900Y-127980000D02*
X122203600Y-127956400D01*
X122394000Y-127994300D02*
X122297900Y-127980000D01*
X122491300Y-127999100D02*
X122394000Y-127994300D01*
X131200200Y-127999200D02*
X122491300Y-127999100D01*
X131304900Y-128004900D02*
X131200200Y-127999200D01*
X131407800Y-128021200D02*
X131304900Y-128004900D01*
X131509000Y-128048300D02*
X131407800Y-128021200D01*
X131594900Y-128080900D02*
X131509000Y-128048300D01*
X131618900Y-128091600D02*
X131594900Y-128080900D01*
X131689000Y-128127300D02*
X131618900Y-128091600D01*
X131711500Y-128140300D02*
X131689000Y-128127300D01*
X131788400Y-128190700D02*
X131711500Y-128140300D01*
X131859600Y-128247900D02*
X131788400Y-128190700D01*
X131878900Y-128265300D02*
X131859600Y-128247900D01*
X131943800Y-128330700D02*
X131878900Y-128265300D01*
X132009700Y-128412100D02*
X131943800Y-128330700D01*
X132066700Y-128500000D02*
X132009700Y-128412100D01*
X132114300Y-128593300D02*
X132066700Y-128500000D01*
X132151600Y-128690600D02*
X132114300Y-128593300D01*
X132178800Y-128791800D02*
X132151600Y-128690600D01*
X132195200Y-128895200D02*
X132178800Y-128791800D01*
X132200900Y-128999900D02*
X132195200Y-128895200D01*
X132201000Y-136993600D02*
X132200900Y-128999900D01*
X132195200Y-137104400D02*
X132201000Y-136993600D01*
X132178900Y-137207900D02*
X132195200Y-137104400D01*
X132155400Y-137296700D02*
X132178900Y-137207900D01*
X132147300Y-137321700D02*
X132155400Y-137296700D01*
X132114000Y-137407300D02*
X132147300Y-137321700D01*
X132066700Y-137500200D02*
X132114000Y-137407300D01*
X132017000Y-137577400D02*
X132066700Y-137500200D01*
X132001600Y-137598600D02*
X132017000Y-137577400D01*
X131943500Y-137669800D02*
X132001600Y-137598600D01*
X131869800Y-137743500D02*
X131943500Y-137669800D01*
X131798600Y-137801600D02*
X131869800Y-137743500D01*
X131777400Y-137817000D02*
X131798600Y-137801600D01*
X131700100Y-137866800D02*
X131777400Y-137817000D01*
X131607200Y-137914100D02*
X131700100Y-137866800D01*
X131509500Y-137951700D02*
X131607200Y-137914100D01*
X131420900Y-137975800D02*
X131509500Y-137951700D01*
X131395200Y-137981200D02*
X131420900Y-137975800D01*
X131304300Y-137995300D02*
X131395200Y-137981200D01*
X131193500Y-138001100D02*
X131304300Y-137995300D01*
X122491300Y-138001100D02*
X131193500Y-138001100D01*
X122394000Y-138005900D02*
X122491300Y-138001100D01*
X122297900Y-138020100D02*
X122394000Y-138005900D01*
X122203600Y-138043700D02*
X122297900Y-138020100D01*
X122112200Y-138076400D02*
X122203600Y-138043700D01*
X122024300Y-138118000D02*
X122112200Y-138076400D01*
X121941000Y-138167900D02*
X122024300Y-138118000D01*
X121863000Y-138225800D02*
X121941000Y-138167900D01*
X121791000Y-138291000D02*
X121863000Y-138225800D01*
X121725700Y-138363000D02*
X121791000Y-138291000D01*
X121667900Y-138441100D02*
X121725700Y-138363000D01*
X121617900Y-138524400D02*
X121667900Y-138441100D01*
X121576400Y-138612200D02*
X121617900Y-138524400D01*
X121543700Y-138703700D02*
X121576400Y-138612200D01*
X121520100Y-138797900D02*
X121543700Y-138703700D01*
X121505800Y-138894000D02*
X121520100Y-138797900D01*
X121501000Y-138991300D02*
X121505800Y-138894000D01*
X121501000Y-139999800D02*
X121501000Y-138991300D01*
X121505800Y-140097100D02*
X121501000Y-139999800D01*
X121520100Y-140193200D02*
X121505800Y-140097100D01*
X121543700Y-140287400D02*
X121520100Y-140193200D01*
X121576400Y-140378900D02*
X121543700Y-140287400D01*
X121617900Y-140466700D02*
X121576400Y-140378900D01*
X121667900Y-140550100D02*
X121617900Y-140466700D01*
X121725700Y-140628100D02*
X121667900Y-140550100D01*
X121791000Y-140700100D02*
X121725700Y-140628100D01*
X121863000Y-140765300D02*
X121791000Y-140700100D01*
X121941000Y-140823200D02*
X121863000Y-140765300D01*
X122024300Y-140873200D02*
X121941000Y-140823200D01*
X122112200Y-140914700D02*
X122024300Y-140873200D01*
X122203600Y-140947400D02*
X122112200Y-140914700D01*
X122297900Y-140971000D02*
X122203600Y-140947400D01*
X122394000Y-140985300D02*
X122297900Y-140971000D01*
X122491300Y-140990100D02*
X122394000Y-140985300D01*
X41100800Y-44009200D02*
X41100000Y-44024100D01*
X41104000Y-44003300D02*
X41100800Y-44009200D01*
X41109200Y-44000800D02*
X41104000Y-44003300D01*
X41124600Y-44000000D02*
X41109200Y-44000800D01*
X141075500Y-44000000D02*
X41124600Y-44000000D01*
X141090800Y-44000800D02*
X141075500Y-44000000D01*
X141096000Y-44003300D02*
X141090800Y-44000800D01*
X141099200Y-44009200D02*
X141096000Y-44003300D01*
X141100000Y-44024600D02*
X141099200Y-44009200D01*
X141100000Y-143975500D02*
X141100000Y-44024600D01*
X141099200Y-143990800D02*
X141100000Y-143975500D01*
X141096700Y-143996100D02*
X141099200Y-143990800D01*
X141090800Y-143999200D02*
X141096700Y-143996100D01*
X141075500Y-144000000D02*
X141090800Y-143999200D01*
X41124600Y-144000000D02*
X141075500Y-144000000D01*
X41109200Y-143999200D02*
X41124600Y-144000000D01*
X41104000Y-143996800D02*
X41109200Y-143999200D01*
X41100800Y-143990800D02*
X41104000Y-143996800D01*
X41100000Y-143975500D02*
X41100800Y-143990800D01*
X41100000Y-44024100D02*
X41100000Y-143975500D01*
M02*
