M48
; DRILL file {KiCad 5.1.9-1.fc32} date Tue Mar 16 17:09:39 2021
; FORMAT={-:-/ absolute / inch / decimal}
; #@! TF.CreationDate,2021-03-16T17:09:39+05:30
; #@! TF.GenerationSoftware,Kicad,Pcbnew,5.1.9-1.fc32
; #@! TF.FileFunction,NonPlated,1,2,NPTH
FMAT,2
INCH
T1C0.0197
T2C0.0591
%
G90
G05
T1
X1.6181Y-1.9567
X1.6181Y-5.4213
X1.6646Y-1.9567
X1.6646Y-5.4213
X1.7112Y-1.9567
X1.7112Y-5.4213
X1.7577Y-1.9567
X1.7577Y-5.4213
X1.8043Y-1.9567
X1.8043Y-5.4213
X1.8508Y-1.9567
X1.8508Y-5.4213
X2.3898Y-1.9567
X2.3898Y-2.3741
X2.3898Y-2.4685
X2.3898Y-2.8859
X2.3898Y-2.9803
X2.3898Y-3.3977
X2.3898Y-3.4921
X2.3898Y-3.9095
X2.3898Y-4.0039
X2.3898Y-4.4213
X2.3898Y-4.5157
X2.3898Y-4.9331
X2.3898Y-5.0275
X2.3898Y-5.4449
X2.4291Y-1.9567
X2.4291Y-2.3741
X2.4291Y-2.4685
X2.4291Y-2.8859
X2.4291Y-2.9803
X2.4291Y-3.3977
X2.4291Y-3.4921
X2.4291Y-3.9095
X2.4291Y-4.0039
X2.4291Y-4.4213
X2.4291Y-4.5157
X2.4291Y-4.9331
X2.4291Y-5.0275
X2.4291Y-5.4449
X2.4685Y-1.9567
X2.4685Y-2.3741
X2.4685Y-2.4685
X2.4685Y-2.8859
X2.4685Y-2.9803
X2.4685Y-3.3977
X2.4685Y-3.4921
X2.4685Y-3.9095
X2.4685Y-4.0039
X2.4685Y-4.4213
X2.4685Y-4.5157
X2.4685Y-4.9331
X2.4685Y-5.0275
X2.4685Y-5.4449
X2.5079Y-1.9567
X2.5079Y-2.3741
X2.5079Y-2.4685
X2.5079Y-2.8859
X2.5079Y-2.9803
X2.5079Y-3.3977
X2.5079Y-3.4921
X2.5079Y-3.9095
X2.5079Y-4.0039
X2.5079Y-4.4213
X2.5079Y-4.5157
X2.5079Y-4.9331
X2.5079Y-5.0275
X2.5079Y-5.4449
X2.5472Y-1.9567
X2.5472Y-2.3741
X2.5472Y-2.4685
X2.5472Y-2.8859
X2.5472Y-2.9803
X2.5472Y-3.3977
X2.5472Y-3.4921
X2.5472Y-3.9095
X2.5472Y-4.0039
X2.5472Y-4.4213
X2.5472Y-4.5157
X2.5472Y-4.9331
X2.5472Y-5.0275
X2.5472Y-5.4449
X3.5079Y-1.9567
X3.5079Y-2.3741
X3.5079Y-2.4685
X3.5079Y-2.8859
X3.5079Y-2.9803
X3.5079Y-3.3977
X3.5079Y-3.4921
X3.5079Y-3.9095
X3.5079Y-4.0039
X3.5079Y-4.4213
X3.5079Y-4.5157
X3.5079Y-4.9331
X3.5079Y-5.0275
X3.5079Y-5.4449
X3.5472Y-1.9567
X3.5472Y-2.3741
X3.5472Y-2.4685
X3.5472Y-2.8859
X3.5472Y-2.9803
X3.5472Y-3.3977
X3.5472Y-3.4921
X3.5472Y-3.9095
X3.5472Y-4.0039
X3.5472Y-4.4213
X3.5472Y-4.5157
X3.5472Y-4.9331
X3.5472Y-5.0275
X3.5472Y-5.4449
X3.5866Y-1.9567
X3.5866Y-2.3741
X3.5866Y-2.4685
X3.5866Y-2.8859
X3.5866Y-2.9803
X3.5866Y-3.3977
X3.5866Y-3.4921
X3.5866Y-3.9095
X3.5866Y-4.0039
X3.5866Y-4.4213
X3.5866Y-4.5157
X3.5866Y-4.9331
X3.5866Y-5.0275
X3.5866Y-5.4449
X3.626Y-1.9567
X3.626Y-2.3741
X3.626Y-2.4685
X3.626Y-2.8859
X3.626Y-2.9803
X3.626Y-3.3977
X3.626Y-3.4921
X3.626Y-3.9095
X3.626Y-4.0039
X3.626Y-4.4213
X3.626Y-4.5157
X3.626Y-4.9331
X3.626Y-5.0275
X3.626Y-5.4449
X3.6654Y-1.9567
X3.6654Y-2.3741
X3.6654Y-2.4685
X3.6654Y-2.8859
X3.6654Y-2.9803
X3.6654Y-3.3977
X3.6654Y-3.4921
X3.6654Y-3.9095
X3.6654Y-4.0039
X3.6654Y-4.4213
X3.6654Y-4.5157
X3.6654Y-4.9331
X3.6654Y-5.0275
X3.6654Y-5.4449
X4.626Y-1.9567
X4.626Y-2.3741
X4.626Y-2.4685
X4.626Y-2.8859
X4.626Y-2.9803
X4.626Y-3.3977
X4.626Y-3.4921
X4.626Y-3.9095
X4.626Y-4.0039
X4.626Y-4.4213
X4.626Y-4.5157
X4.626Y-4.9331
X4.626Y-5.0275
X4.626Y-5.4449
X4.6654Y-1.9567
X4.6654Y-2.3741
X4.6654Y-2.4685
X4.6654Y-2.8859
X4.6654Y-2.9803
X4.6654Y-3.3977
X4.6654Y-3.4921
X4.6654Y-3.9095
X4.6654Y-4.0039
X4.6654Y-4.4213
X4.6654Y-4.5157
X4.6654Y-4.9331
X4.6654Y-5.0275
X4.6654Y-5.4449
X4.7047Y-1.9567
X4.7047Y-2.3741
X4.7047Y-2.4685
X4.7047Y-2.8859
X4.7047Y-2.9803
X4.7047Y-3.3977
X4.7047Y-3.4921
X4.7047Y-3.9095
X4.7047Y-4.0039
X4.7047Y-4.4213
X4.7047Y-4.5157
X4.7047Y-4.9331
X4.7047Y-5.0275
X4.7047Y-5.4449
X4.7441Y-1.9567
X4.7441Y-2.3741
X4.7441Y-2.4685
X4.7441Y-2.8859
X4.7441Y-2.9803
X4.7441Y-3.3977
X4.7441Y-3.4921
X4.7441Y-3.9095
X4.7441Y-4.0039
X4.7441Y-4.4213
X4.7441Y-4.5157
X4.7441Y-4.9331
X4.7441Y-5.0275
X4.7441Y-5.4449
X4.7835Y-1.9567
X4.7835Y-2.3741
X4.7835Y-2.4685
X4.7835Y-2.8859
X4.7835Y-2.9803
X4.7835Y-3.3977
X4.7835Y-3.4921
X4.7835Y-3.9095
X4.7835Y-4.0039
X4.7835Y-4.4213
X4.7835Y-4.5157
X4.7835Y-4.9331
X4.7835Y-5.0275
X4.7835Y-5.4449
X5.3224Y-1.9567
X5.3224Y-5.4213
X5.369Y-1.9567
X5.369Y-5.4213
X5.4155Y-1.9567
X5.4155Y-5.4213
X5.462Y-1.9567
X5.462Y-5.4213
X5.5086Y-1.9567
X5.5086Y-5.4213
X5.5551Y-1.9567
X5.5551Y-5.4213
T2
X1.815Y-1.7913
X1.815Y-5.6102
X5.3583Y-1.7913
T0
M30
