M48
; DRILL file {KiCad 5.1.9-1.fc32} date Tue Mar 16 17:09:39 2021
; FORMAT={-:-/ absolute / inch / decimal}
; #@! TF.CreationDate,2021-03-16T17:09:39+05:30
; #@! TF.GenerationSoftware,Kicad,Pcbnew,5.1.9-1.fc32
; #@! TF.FileFunction,Plated,1,2,PTH
FMAT,2
INCH
T1C0.0118
T2C0.0394
T3C0.0591
%
G90
G05
T1
X1.9882Y-2.015
X1.9882Y-2.5268
X1.9882Y-3.0386
X1.9882Y-3.5504
X1.9882Y-4.0622
X1.9882Y-4.574
X1.9882Y-5.0858
X1.9913Y-2.3157
X1.9913Y-2.8276
X1.9913Y-3.3394
X1.9913Y-3.8512
X1.9913Y-4.363
X1.9913Y-4.8748
X1.9913Y-5.3866
X2.0Y-1.9917
X2.0Y-2.5035
X2.0Y-3.0154
X2.0Y-3.5272
X2.0Y-4.039
X2.0Y-4.5508
X2.0Y-5.0626
X2.0039Y-2.3437
X2.0039Y-2.8555
X2.0039Y-3.3673
X2.0039Y-3.8791
X2.0039Y-4.3909
X2.0039Y-4.9028
X2.0039Y-5.4146
X2.0161Y-2.3165
X2.0161Y-2.8283
X2.0161Y-3.3402
X2.0161Y-3.852
X2.0161Y-4.3638
X2.0161Y-4.8756
X2.0161Y-5.3874
X2.0169Y-2.0146
X2.0169Y-2.5264
X2.0169Y-3.0382
X2.0169Y-3.55
X2.0169Y-4.0618
X2.0169Y-4.5736
X2.0169Y-5.0854
X2.0287Y-2.3445
X2.0287Y-2.8563
X2.0287Y-3.3681
X2.0287Y-3.8799
X2.0287Y-4.3917
X2.0287Y-4.9035
X2.0287Y-5.4154
X2.0398Y-2.3161
X2.0398Y-2.828
X2.0398Y-3.3398
X2.0398Y-3.8516
X2.0398Y-4.3634
X2.0398Y-4.8752
X2.0398Y-5.387
X2.0555Y-2.3441
X2.0555Y-2.8559
X2.0555Y-3.3677
X2.0555Y-3.8795
X2.0555Y-4.3913
X2.0555Y-4.9032
X2.0555Y-5.415
X2.0642Y-2.3161
X2.0642Y-2.828
X2.0642Y-3.3398
X2.0642Y-3.8516
X2.0642Y-4.3634
X2.0642Y-4.8752
X2.0642Y-5.387
X2.0827Y-2.1118
X2.0827Y-2.6236
X2.0827Y-3.1354
X2.0827Y-3.6472
X2.0827Y-4.1591
X2.0827Y-4.6709
X2.0827Y-5.1827
X2.085Y-2.3366
X2.085Y-2.8484
X2.085Y-3.3602
X2.085Y-3.872
X2.085Y-4.3839
X2.085Y-4.8957
X2.085Y-5.4075
X2.0882Y-2.2228
X2.0882Y-2.7346
X2.0882Y-3.2465
X2.0882Y-3.7583
X2.0882Y-4.2701
X2.0882Y-4.7819
X2.0882Y-5.2937
X2.0937Y-2.3083
X2.0937Y-2.8201
X2.0937Y-3.3319
X2.0937Y-3.8437
X2.0937Y-4.3555
X2.0937Y-4.8673
X2.0937Y-5.3791
X2.148Y-2.011
X2.148Y-2.5228
X2.148Y-3.0346
X2.148Y-3.5465
X2.148Y-4.0583
X2.148Y-4.5701
X2.148Y-5.0819
X2.1492Y-1.9854
X2.1492Y-2.4972
X2.1492Y-3.0091
X2.1492Y-3.5209
X2.1492Y-4.0327
X2.1492Y-4.5445
X2.1492Y-5.0563
X2.1677Y-2.1165
X2.1677Y-2.6283
X2.1677Y-3.1402
X2.1677Y-3.652
X2.1677Y-4.1638
X2.1677Y-4.6756
X2.1677Y-5.1874
X2.2118Y-2.1992
X2.2118Y-2.711
X2.2118Y-3.2228
X2.2118Y-3.7346
X2.2118Y-4.2465
X2.2118Y-4.7583
X2.2118Y-5.2701
X2.2575Y-1.985
X2.2575Y-2.4969
X2.2575Y-3.0087
X2.2575Y-3.5205
X2.2575Y-4.0323
X2.2575Y-4.5441
X2.2575Y-5.0559
X2.2587Y-2.0134
X2.2587Y-2.5252
X2.2587Y-3.037
X2.2587Y-3.5488
X2.2587Y-4.0606
X2.2587Y-4.5724
X2.2587Y-5.0843
X2.274Y-2.3106
X2.274Y-2.8224
X2.274Y-3.3343
X2.274Y-3.8461
X2.274Y-4.3579
X2.274Y-4.8697
X2.274Y-5.3815
X2.2752Y-2.3421
X2.2752Y-2.8539
X2.2752Y-3.3657
X2.2752Y-3.8776
X2.2752Y-4.3894
X2.2752Y-4.9012
X2.2752Y-5.413
X2.278Y-2.2366
X2.278Y-2.7484
X2.278Y-3.2602
X2.278Y-3.772
X2.278Y-4.2839
X2.278Y-4.7957
X2.278Y-5.3075
X2.3335Y-2.2504
X2.3335Y-2.7622
X2.3335Y-3.274
X2.3335Y-3.7858
X2.3335Y-4.2976
X2.3335Y-4.8095
X2.3335Y-5.3213
X2.3476Y-2.1992
X2.3476Y-2.711
X2.3476Y-3.2228
X2.3476Y-3.7346
X2.3476Y-4.2465
X2.3476Y-4.7583
X2.3476Y-5.2701
X2.3504Y-1.985
X2.3504Y-2.4969
X2.3504Y-3.0087
X2.3504Y-3.5205
X2.3504Y-4.0323
X2.3504Y-4.5441
X2.3504Y-5.0559
X2.3516Y-2.1472
X2.3516Y-2.6591
X2.3516Y-3.1709
X2.3516Y-3.6827
X2.3516Y-4.1945
X2.3516Y-4.7063
X2.3516Y-5.2181
X2.4217Y-1.9854
X2.4217Y-2.4972
X2.4217Y-3.0091
X2.4217Y-3.5209
X2.4217Y-4.0327
X2.4217Y-4.5445
X2.4217Y-5.0563
X2.4256Y-2.3449
X2.4256Y-2.8567
X2.4256Y-3.3685
X2.4256Y-3.8803
X2.4256Y-4.3921
X2.4256Y-4.9039
X2.4256Y-5.4158
X2.4398Y-2.2677
X2.4398Y-2.7795
X2.4398Y-3.2913
X2.4398Y-3.8032
X2.4398Y-4.315
X2.4398Y-4.8268
X2.4398Y-5.3386
X2.452Y-2.2012
X2.452Y-2.713
X2.452Y-3.2248
X2.452Y-3.7366
X2.452Y-4.2484
X2.452Y-4.7602
X2.452Y-5.272
X2.4677Y-2.0878
X2.4677Y-2.5996
X2.4677Y-3.1114
X2.4677Y-3.6232
X2.4677Y-4.135
X2.4677Y-4.6469
X2.4677Y-5.1587
X2.4705Y-2.1732
X2.4705Y-2.685
X2.4705Y-3.1969
X2.4705Y-3.7087
X2.4705Y-4.2205
X2.4705Y-4.7323
X2.4705Y-5.2441
X2.4894Y-2.3453
X2.4894Y-2.8571
X2.4894Y-3.3689
X2.4894Y-3.8807
X2.4894Y-4.3925
X2.4894Y-4.9043
X2.4894Y-5.4161
X2.4898Y-2.0547
X2.4898Y-2.5665
X2.4898Y-3.0783
X2.4898Y-3.5902
X2.4898Y-4.102
X2.4898Y-4.6138
X2.4898Y-5.1256
X2.5114Y-2.3453
X2.5114Y-2.8571
X2.5114Y-3.3689
X2.5114Y-3.8807
X2.5114Y-4.3925
X2.5114Y-4.9043
X2.5114Y-5.4161
X2.513Y-1.985
X2.513Y-2.4969
X2.513Y-3.0087
X2.513Y-3.5205
X2.513Y-4.0323
X2.513Y-4.5441
X2.513Y-5.0559
X2.5331Y-2.3453
X2.5331Y-2.8571
X2.5331Y-3.3689
X2.5331Y-3.8807
X2.5331Y-4.3925
X2.5331Y-4.9043
X2.5331Y-5.4161
X2.552Y-1.985
X2.552Y-2.4969
X2.552Y-3.0087
X2.552Y-3.5205
X2.552Y-4.0323
X2.552Y-4.5441
X2.552Y-5.0559
X2.5528Y-2.1173
X2.5528Y-2.6291
X2.5528Y-3.1409
X2.5528Y-3.6528
X2.5528Y-4.1646
X2.5528Y-4.6764
X2.5528Y-5.1882
X2.5583Y-2.3457
X2.5583Y-2.8575
X2.5583Y-3.3693
X2.5583Y-3.8811
X2.5583Y-4.3929
X2.5583Y-4.9047
X2.5583Y-5.4165
X2.5673Y-2.2248
X2.5673Y-2.7366
X2.5673Y-3.2484
X2.5673Y-3.7602
X2.5673Y-4.272
X2.5673Y-4.7839
X2.5673Y-5.2957
X2.5736Y-1.985
X2.5736Y-2.4969
X2.5736Y-3.0087
X2.5736Y-3.5205
X2.5736Y-4.0323
X2.5736Y-4.5441
X2.5736Y-5.0559
X2.5953Y-1.985
X2.5953Y-2.4969
X2.5953Y-3.0087
X2.5953Y-3.5205
X2.5953Y-4.0323
X2.5953Y-4.5441
X2.5953Y-5.0559
X2.5957Y-2.2819
X2.5957Y-2.7937
X2.5957Y-3.3055
X2.5957Y-3.8173
X2.5957Y-4.3291
X2.5957Y-4.8409
X2.5957Y-5.3528
X2.6165Y-2.3453
X2.6165Y-2.8571
X2.6165Y-3.3689
X2.6165Y-3.8807
X2.6165Y-4.3925
X2.6165Y-4.9043
X2.6165Y-5.4161
X2.6173Y-1.985
X2.6173Y-2.4969
X2.6173Y-3.0087
X2.6173Y-3.5205
X2.6173Y-4.0323
X2.6173Y-4.5441
X2.6173Y-5.0559
X2.6382Y-2.2976
X2.6382Y-2.3252
X2.6382Y-2.8094
X2.6382Y-2.837
X2.6382Y-3.3213
X2.6382Y-3.3488
X2.6382Y-3.8331
X2.6382Y-3.8606
X2.6382Y-4.3449
X2.6382Y-4.3724
X2.6382Y-4.8567
X2.6382Y-4.8843
X2.6382Y-5.3685
X2.6382Y-5.3961
X2.639Y-1.985
X2.639Y-2.0083
X2.639Y-2.4969
X2.639Y-2.5201
X2.639Y-3.0087
X2.639Y-3.0319
X2.639Y-3.5205
X2.639Y-3.5437
X2.639Y-4.0323
X2.639Y-4.0555
X2.639Y-4.5441
X2.639Y-4.5673
X2.639Y-5.0559
X2.639Y-5.0791
X2.6614Y-2.3453
X2.6614Y-2.8571
X2.6614Y-3.3689
X2.6614Y-3.8807
X2.6614Y-4.3925
X2.6614Y-4.9043
X2.6614Y-5.4161
X2.6862Y-2.3453
X2.6862Y-2.8571
X2.6862Y-3.3689
X2.6862Y-3.8807
X2.6862Y-4.3925
X2.6862Y-4.9043
X2.6862Y-5.4161
X2.7098Y-2.3457
X2.7098Y-2.8575
X2.7098Y-3.3693
X2.7098Y-3.8811
X2.7098Y-4.3929
X2.7098Y-4.9047
X2.7098Y-5.4165
X2.7142Y-1.9854
X2.7142Y-2.4972
X2.7142Y-3.0091
X2.7142Y-3.5209
X2.7142Y-4.0327
X2.7142Y-4.5445
X2.7142Y-5.0563
X2.7335Y-2.3453
X2.7335Y-2.8571
X2.7335Y-3.3689
X2.7335Y-3.8807
X2.7335Y-4.3925
X2.7335Y-4.9043
X2.7335Y-5.4161
X2.7579Y-2.3453
X2.7579Y-2.8571
X2.7579Y-3.3689
X2.7579Y-3.8807
X2.7579Y-4.3925
X2.7579Y-4.9043
X2.7579Y-5.4161
X2.7701Y-2.2295
X2.7701Y-2.7413
X2.7701Y-3.2532
X2.7701Y-3.765
X2.7701Y-4.2768
X2.7701Y-4.7886
X2.7701Y-5.3004
X2.7752Y-2.0331
X2.7752Y-2.5449
X2.7752Y-3.0567
X2.7752Y-3.5685
X2.7752Y-4.0803
X2.7752Y-4.5921
X2.7752Y-5.1039
X2.7827Y-2.3449
X2.7827Y-2.8567
X2.7827Y-3.3685
X2.7827Y-3.8803
X2.7827Y-4.3921
X2.7827Y-4.9039
X2.7827Y-5.4158
X2.7886Y-1.9862
X2.7886Y-2.498
X2.7886Y-3.0098
X2.7886Y-3.5217
X2.7886Y-4.0335
X2.7886Y-4.5453
X2.7886Y-5.0571
X2.7902Y-2.3224
X2.7902Y-2.8343
X2.7902Y-3.3461
X2.7902Y-3.8579
X2.7902Y-4.3697
X2.7902Y-4.8815
X2.7902Y-5.3933
X2.8016Y-2.011
X2.8016Y-2.5228
X2.8016Y-3.0346
X2.8016Y-3.5465
X2.8016Y-4.0583
X2.8016Y-4.5701
X2.8016Y-5.0819
X2.813Y-1.9862
X2.813Y-2.3449
X2.813Y-2.498
X2.813Y-2.8567
X2.813Y-3.0098
X2.813Y-3.3685
X2.813Y-3.5217
X2.813Y-3.8803
X2.813Y-4.0335
X2.813Y-4.3921
X2.813Y-4.5453
X2.813Y-4.9039
X2.813Y-5.0571
X2.813Y-5.4158
X2.8217Y-2.3193
X2.8217Y-2.8311
X2.8217Y-3.3429
X2.8217Y-3.8547
X2.8217Y-4.3665
X2.8217Y-4.8783
X2.8217Y-5.3902
X2.826Y-2.011
X2.826Y-2.5228
X2.826Y-3.0346
X2.826Y-3.5465
X2.826Y-4.0583
X2.826Y-4.5701
X2.826Y-5.0819
X2.8366Y-1.9858
X2.8366Y-2.3453
X2.8366Y-2.4976
X2.8366Y-2.8571
X2.8366Y-3.0094
X2.8366Y-3.3689
X2.8366Y-3.5213
X2.8366Y-3.8807
X2.8366Y-4.0331
X2.8366Y-4.3925
X2.8366Y-4.5449
X2.8366Y-4.9043
X2.8366Y-5.0567
X2.8366Y-5.4161
X2.8476Y-2.3213
X2.8476Y-2.8331
X2.8476Y-3.3449
X2.8476Y-3.8567
X2.8476Y-4.3685
X2.8476Y-4.8803
X2.8476Y-5.3921
X2.8492Y-2.0094
X2.8492Y-2.5213
X2.8492Y-3.0331
X2.8492Y-3.5449
X2.8492Y-4.0567
X2.8492Y-4.5685
X2.8492Y-5.0803
X2.8602Y-1.9862
X2.8602Y-2.3449
X2.8602Y-2.498
X2.8602Y-2.8567
X2.8602Y-3.0098
X2.8602Y-3.3685
X2.8602Y-3.5217
X2.8602Y-3.8803
X2.8602Y-4.0335
X2.8602Y-4.3921
X2.8602Y-4.5453
X2.8602Y-4.9039
X2.8602Y-5.0571
X2.8602Y-5.4158
X2.8713Y-2.3213
X2.8713Y-2.8331
X2.8713Y-3.3449
X2.8713Y-3.8567
X2.8713Y-4.3685
X2.8713Y-4.8803
X2.8713Y-5.3921
X2.8724Y-2.0094
X2.8724Y-2.5213
X2.8724Y-3.0331
X2.8724Y-3.5449
X2.8724Y-4.0567
X2.8724Y-4.5685
X2.8724Y-5.0803
X2.8846Y-1.9862
X2.8846Y-2.3449
X2.8846Y-2.498
X2.8846Y-2.8567
X2.8846Y-3.0098
X2.8846Y-3.3685
X2.8846Y-3.5217
X2.8846Y-3.8803
X2.8846Y-4.0335
X2.8846Y-4.3921
X2.8846Y-4.5453
X2.8846Y-4.9039
X2.8846Y-5.0571
X2.8846Y-5.4158
X2.8957Y-2.3213
X2.8957Y-2.8331
X2.8957Y-3.3449
X2.8957Y-3.8567
X2.8957Y-4.3685
X2.8957Y-4.8803
X2.8957Y-5.3921
X2.8969Y-2.0094
X2.8969Y-2.5213
X2.8969Y-3.0331
X2.8969Y-3.5449
X2.8969Y-4.0567
X2.8969Y-4.5685
X2.8969Y-5.0803
X2.9083Y-1.9858
X2.9083Y-2.3453
X2.9083Y-2.4976
X2.9083Y-2.8571
X2.9083Y-3.0094
X2.9083Y-3.3689
X2.9083Y-3.5213
X2.9083Y-3.8807
X2.9083Y-4.0331
X2.9083Y-4.3925
X2.9083Y-4.5449
X2.9083Y-4.9043
X2.9083Y-5.0567
X2.9083Y-5.4161
X2.9193Y-2.3217
X2.9193Y-2.8335
X2.9193Y-3.3453
X2.9193Y-3.8571
X2.9193Y-4.3689
X2.9193Y-4.8807
X2.9193Y-5.3925
X2.9205Y-2.0091
X2.9205Y-2.5209
X2.9205Y-3.0327
X2.9205Y-3.5445
X2.9205Y-4.0563
X2.9205Y-4.5681
X2.9205Y-5.0799
X2.9331Y-1.9866
X2.9331Y-2.3445
X2.9331Y-2.4984
X2.9331Y-2.8563
X2.9331Y-3.0102
X2.9331Y-3.3681
X2.9331Y-3.522
X2.9331Y-3.8799
X2.9331Y-4.0339
X2.9331Y-4.3917
X2.9331Y-4.5457
X2.9331Y-4.9035
X2.9331Y-5.0575
X2.9331Y-5.4154
X2.9437Y-2.322
X2.9437Y-2.8339
X2.9437Y-3.3457
X2.9437Y-3.8575
X2.9437Y-4.3693
X2.9437Y-4.8811
X2.9437Y-5.3929
X2.9453Y-2.0098
X2.9453Y-2.5217
X2.9453Y-3.0335
X2.9453Y-3.5453
X2.9453Y-4.0571
X2.9453Y-4.5689
X2.9453Y-5.0807
X3.1063Y-2.015
X3.1063Y-2.5268
X3.1063Y-3.0386
X3.1063Y-3.5504
X3.1063Y-4.0622
X3.1063Y-4.574
X3.1063Y-5.0858
X3.1094Y-2.3157
X3.1094Y-2.8276
X3.1094Y-3.3394
X3.1094Y-3.8512
X3.1094Y-4.363
X3.1094Y-4.8748
X3.1094Y-5.3866
X3.1181Y-1.9917
X3.1181Y-2.5035
X3.1181Y-3.0154
X3.1181Y-3.5272
X3.1181Y-4.039
X3.1181Y-4.5508
X3.1181Y-5.0626
X3.122Y-2.3437
X3.122Y-2.8555
X3.122Y-3.3673
X3.122Y-3.8791
X3.122Y-4.3909
X3.122Y-4.9028
X3.122Y-5.4146
X3.1343Y-2.3165
X3.1343Y-2.8283
X3.1343Y-3.3402
X3.1343Y-3.852
X3.1343Y-4.3638
X3.1343Y-4.8756
X3.1343Y-5.3874
X3.135Y-2.0146
X3.135Y-2.5264
X3.135Y-3.0382
X3.135Y-3.55
X3.135Y-4.0618
X3.135Y-4.5736
X3.135Y-5.0854
X3.1469Y-2.3445
X3.1469Y-2.8563
X3.1469Y-3.3681
X3.1469Y-3.8799
X3.1469Y-4.3917
X3.1469Y-4.9035
X3.1469Y-5.4154
X3.1579Y-2.3161
X3.1579Y-2.828
X3.1579Y-3.3398
X3.1579Y-3.8516
X3.1579Y-4.3634
X3.1579Y-4.8752
X3.1579Y-5.387
X3.1736Y-2.3441
X3.1736Y-2.8559
X3.1736Y-3.3677
X3.1736Y-3.8795
X3.1736Y-4.3913
X3.1736Y-4.9032
X3.1736Y-5.415
X3.1823Y-2.3161
X3.1823Y-2.828
X3.1823Y-3.3398
X3.1823Y-3.8516
X3.1823Y-4.3634
X3.1823Y-4.8752
X3.1823Y-5.387
X3.2008Y-2.1118
X3.2008Y-2.6236
X3.2008Y-3.1354
X3.2008Y-3.6472
X3.2008Y-4.1591
X3.2008Y-4.6709
X3.2008Y-5.1827
X3.2031Y-2.3366
X3.2031Y-2.8484
X3.2031Y-3.3602
X3.2031Y-3.872
X3.2031Y-4.3839
X3.2031Y-4.8957
X3.2031Y-5.4075
X3.2063Y-2.2228
X3.2063Y-2.7346
X3.2063Y-3.2465
X3.2063Y-3.7583
X3.2063Y-4.2701
X3.2063Y-4.7819
X3.2063Y-5.2937
X3.2118Y-2.3083
X3.2118Y-2.8201
X3.2118Y-3.3319
X3.2118Y-3.8437
X3.2118Y-4.3555
X3.2118Y-4.8673
X3.2118Y-5.3791
X3.2661Y-2.011
X3.2661Y-2.5228
X3.2661Y-3.0346
X3.2661Y-3.5465
X3.2661Y-4.0583
X3.2661Y-4.5701
X3.2661Y-5.0819
X3.2673Y-1.9854
X3.2673Y-2.4972
X3.2673Y-3.0091
X3.2673Y-3.5209
X3.2673Y-4.0327
X3.2673Y-4.5445
X3.2673Y-5.0563
X3.2858Y-2.1165
X3.2858Y-2.6283
X3.2858Y-3.1402
X3.2858Y-3.652
X3.2858Y-4.1638
X3.2858Y-4.6756
X3.2858Y-5.1874
X3.3299Y-2.1992
X3.3299Y-2.711
X3.3299Y-3.2228
X3.3299Y-3.7346
X3.3299Y-4.2465
X3.3299Y-4.7583
X3.3299Y-5.2701
X3.3756Y-1.985
X3.3756Y-2.4969
X3.3756Y-3.0087
X3.3756Y-3.5205
X3.3756Y-4.0323
X3.3756Y-4.5441
X3.3756Y-5.0559
X3.3768Y-2.0134
X3.3768Y-2.5252
X3.3768Y-3.037
X3.3768Y-3.5488
X3.3768Y-4.0606
X3.3768Y-4.5724
X3.3768Y-5.0843
X3.3921Y-2.3106
X3.3921Y-2.8224
X3.3921Y-3.3343
X3.3921Y-3.8461
X3.3921Y-4.3579
X3.3921Y-4.8697
X3.3921Y-5.3815
X3.3933Y-2.3421
X3.3933Y-2.8539
X3.3933Y-3.3657
X3.3933Y-3.8776
X3.3933Y-4.3894
X3.3933Y-4.9012
X3.3933Y-5.413
X3.3961Y-2.2366
X3.3961Y-2.7484
X3.3961Y-3.2602
X3.3961Y-3.772
X3.3961Y-4.2839
X3.3961Y-4.7957
X3.3961Y-5.3075
X3.4516Y-2.2504
X3.4516Y-2.7622
X3.4516Y-3.274
X3.4516Y-3.7858
X3.4516Y-4.2976
X3.4516Y-4.8095
X3.4516Y-5.3213
X3.4657Y-2.1992
X3.4657Y-2.711
X3.4657Y-3.2228
X3.4657Y-3.7346
X3.4657Y-4.2465
X3.4657Y-4.7583
X3.4657Y-5.2701
X3.4685Y-1.985
X3.4685Y-2.4969
X3.4685Y-3.0087
X3.4685Y-3.5205
X3.4685Y-4.0323
X3.4685Y-4.5441
X3.4685Y-5.0559
X3.4697Y-2.1472
X3.4697Y-2.6591
X3.4697Y-3.1709
X3.4697Y-3.6827
X3.4697Y-4.1945
X3.4697Y-4.7063
X3.4697Y-5.2181
X3.5398Y-1.9854
X3.5398Y-2.4972
X3.5398Y-3.0091
X3.5398Y-3.5209
X3.5398Y-4.0327
X3.5398Y-4.5445
X3.5398Y-5.0563
X3.5437Y-2.3449
X3.5437Y-2.8567
X3.5437Y-3.3685
X3.5437Y-3.8803
X3.5437Y-4.3921
X3.5437Y-4.9039
X3.5437Y-5.4158
X3.5579Y-2.2677
X3.5579Y-2.7795
X3.5579Y-3.2913
X3.5579Y-3.8032
X3.5579Y-4.315
X3.5579Y-4.8268
X3.5579Y-5.3386
X3.5701Y-2.2012
X3.5701Y-2.713
X3.5701Y-3.2248
X3.5701Y-3.7366
X3.5701Y-4.2484
X3.5701Y-4.7602
X3.5701Y-5.272
X3.5858Y-2.0878
X3.5858Y-2.5996
X3.5858Y-3.1114
X3.5858Y-3.6232
X3.5858Y-4.135
X3.5858Y-4.6469
X3.5858Y-5.1587
X3.5886Y-2.1732
X3.5886Y-2.685
X3.5886Y-3.1969
X3.5886Y-3.7087
X3.5886Y-4.2205
X3.5886Y-4.7323
X3.5886Y-5.2441
X3.6075Y-2.3453
X3.6075Y-2.8571
X3.6075Y-3.3689
X3.6075Y-3.8807
X3.6075Y-4.3925
X3.6075Y-4.9043
X3.6075Y-5.4161
X3.6079Y-2.0547
X3.6079Y-2.5665
X3.6079Y-3.0783
X3.6079Y-3.5902
X3.6079Y-4.102
X3.6079Y-4.6138
X3.6079Y-5.1256
X3.6295Y-2.3453
X3.6295Y-2.8571
X3.6295Y-3.3689
X3.6295Y-3.8807
X3.6295Y-4.3925
X3.6295Y-4.9043
X3.6295Y-5.4161
X3.6311Y-1.985
X3.6311Y-2.4969
X3.6311Y-3.0087
X3.6311Y-3.5205
X3.6311Y-4.0323
X3.6311Y-4.5441
X3.6311Y-5.0559
X3.6512Y-2.3453
X3.6512Y-2.8571
X3.6512Y-3.3689
X3.6512Y-3.8807
X3.6512Y-4.3925
X3.6512Y-4.9043
X3.6512Y-5.4161
X3.6701Y-1.985
X3.6701Y-2.4969
X3.6701Y-3.0087
X3.6701Y-3.5205
X3.6701Y-4.0323
X3.6701Y-4.5441
X3.6701Y-5.0559
X3.6709Y-2.1173
X3.6709Y-2.6291
X3.6709Y-3.1409
X3.6709Y-3.6528
X3.6709Y-4.1646
X3.6709Y-4.6764
X3.6709Y-5.1882
X3.6764Y-2.3457
X3.6764Y-2.8575
X3.6764Y-3.3693
X3.6764Y-3.8811
X3.6764Y-4.3929
X3.6764Y-4.9047
X3.6764Y-5.4165
X3.6854Y-2.2248
X3.6854Y-2.7366
X3.6854Y-3.2484
X3.6854Y-3.7602
X3.6854Y-4.272
X3.6854Y-4.7839
X3.6854Y-5.2957
X3.6917Y-1.985
X3.6917Y-2.4969
X3.6917Y-3.0087
X3.6917Y-3.5205
X3.6917Y-4.0323
X3.6917Y-4.5441
X3.6917Y-5.0559
X3.7134Y-1.985
X3.7134Y-2.4969
X3.7134Y-3.0087
X3.7134Y-3.5205
X3.7134Y-4.0323
X3.7134Y-4.5441
X3.7134Y-5.0559
X3.7138Y-2.2819
X3.7138Y-2.7937
X3.7138Y-3.3055
X3.7138Y-3.8173
X3.7138Y-4.3291
X3.7138Y-4.8409
X3.7138Y-5.3528
X3.7346Y-2.3453
X3.7346Y-2.8571
X3.7346Y-3.3689
X3.7346Y-3.8807
X3.7346Y-4.3925
X3.7346Y-4.9043
X3.7346Y-5.4161
X3.7354Y-1.985
X3.7354Y-2.4969
X3.7354Y-3.0087
X3.7354Y-3.5205
X3.7354Y-4.0323
X3.7354Y-4.5441
X3.7354Y-5.0559
X3.7563Y-2.2976
X3.7563Y-2.3252
X3.7563Y-2.8094
X3.7563Y-2.837
X3.7563Y-3.3213
X3.7563Y-3.3488
X3.7563Y-3.8331
X3.7563Y-3.8606
X3.7563Y-4.3449
X3.7563Y-4.3724
X3.7563Y-4.8567
X3.7563Y-4.8843
X3.7563Y-5.3685
X3.7563Y-5.3961
X3.7571Y-1.985
X3.7571Y-2.0083
X3.7571Y-2.4969
X3.7571Y-2.5201
X3.7571Y-3.0087
X3.7571Y-3.0319
X3.7571Y-3.5205
X3.7571Y-3.5437
X3.7571Y-4.0323
X3.7571Y-4.0555
X3.7571Y-4.5441
X3.7571Y-4.5673
X3.7571Y-5.0559
X3.7571Y-5.0791
X3.7795Y-2.3453
X3.7795Y-2.8571
X3.7795Y-3.3689
X3.7795Y-3.8807
X3.7795Y-4.3925
X3.7795Y-4.9043
X3.7795Y-5.4161
X3.8043Y-2.3453
X3.8043Y-2.8571
X3.8043Y-3.3689
X3.8043Y-3.8807
X3.8043Y-4.3925
X3.8043Y-4.9043
X3.8043Y-5.4161
X3.828Y-2.3457
X3.828Y-2.8575
X3.828Y-3.3693
X3.828Y-3.8811
X3.828Y-4.3929
X3.828Y-4.9047
X3.828Y-5.4165
X3.8323Y-1.9854
X3.8323Y-2.4972
X3.8323Y-3.0091
X3.8323Y-3.5209
X3.8323Y-4.0327
X3.8323Y-4.5445
X3.8323Y-5.0563
X3.8516Y-2.3453
X3.8516Y-2.8571
X3.8516Y-3.3689
X3.8516Y-3.8807
X3.8516Y-4.3925
X3.8516Y-4.9043
X3.8516Y-5.4161
X3.876Y-2.3453
X3.876Y-2.8571
X3.876Y-3.3689
X3.876Y-3.8807
X3.876Y-4.3925
X3.876Y-4.9043
X3.876Y-5.4161
X3.8882Y-2.2295
X3.8882Y-2.7413
X3.8882Y-3.2532
X3.8882Y-3.765
X3.8882Y-4.2768
X3.8882Y-4.7886
X3.8882Y-5.3004
X3.8933Y-2.0331
X3.8933Y-2.5449
X3.8933Y-3.0567
X3.8933Y-3.5685
X3.8933Y-4.0803
X3.8933Y-4.5921
X3.8933Y-5.1039
X3.9008Y-2.3449
X3.9008Y-2.8567
X3.9008Y-3.3685
X3.9008Y-3.8803
X3.9008Y-4.3921
X3.9008Y-4.9039
X3.9008Y-5.4158
X3.9067Y-1.9862
X3.9067Y-2.498
X3.9067Y-3.0098
X3.9067Y-3.5217
X3.9067Y-4.0335
X3.9067Y-4.5453
X3.9067Y-5.0571
X3.9083Y-2.3224
X3.9083Y-2.8343
X3.9083Y-3.3461
X3.9083Y-3.8579
X3.9083Y-4.3697
X3.9083Y-4.8815
X3.9083Y-5.3933
X3.9197Y-2.011
X3.9197Y-2.5228
X3.9197Y-3.0346
X3.9197Y-3.5465
X3.9197Y-4.0583
X3.9197Y-4.5701
X3.9197Y-5.0819
X3.9311Y-1.9862
X3.9311Y-2.3449
X3.9311Y-2.498
X3.9311Y-2.8567
X3.9311Y-3.0098
X3.9311Y-3.3685
X3.9311Y-3.5217
X3.9311Y-3.8803
X3.9311Y-4.0335
X3.9311Y-4.3921
X3.9311Y-4.5453
X3.9311Y-4.9039
X3.9311Y-5.0571
X3.9311Y-5.4158
X3.9398Y-2.3193
X3.9398Y-2.8311
X3.9398Y-3.3429
X3.9398Y-3.8547
X3.9398Y-4.3665
X3.9398Y-4.8783
X3.9398Y-5.3902
X3.9441Y-2.011
X3.9441Y-2.5228
X3.9441Y-3.0346
X3.9441Y-3.5465
X3.9441Y-4.0583
X3.9441Y-4.5701
X3.9441Y-5.0819
X3.9547Y-1.9858
X3.9547Y-2.3453
X3.9547Y-2.4976
X3.9547Y-2.8571
X3.9547Y-3.0094
X3.9547Y-3.3689
X3.9547Y-3.5213
X3.9547Y-3.8807
X3.9547Y-4.0331
X3.9547Y-4.3925
X3.9547Y-4.5449
X3.9547Y-4.9043
X3.9547Y-5.0567
X3.9547Y-5.4161
X3.9657Y-2.3213
X3.9657Y-2.8331
X3.9657Y-3.3449
X3.9657Y-3.8567
X3.9657Y-4.3685
X3.9657Y-4.8803
X3.9657Y-5.3921
X3.9673Y-2.0094
X3.9673Y-2.5213
X3.9673Y-3.0331
X3.9673Y-3.5449
X3.9673Y-4.0567
X3.9673Y-4.5685
X3.9673Y-5.0803
X3.9783Y-1.9862
X3.9783Y-2.3449
X3.9783Y-2.498
X3.9783Y-2.8567
X3.9783Y-3.0098
X3.9783Y-3.3685
X3.9783Y-3.5217
X3.9783Y-3.8803
X3.9783Y-4.0335
X3.9783Y-4.3921
X3.9783Y-4.5453
X3.9783Y-4.9039
X3.9783Y-5.0571
X3.9783Y-5.4158
X3.9894Y-2.3213
X3.9894Y-2.8331
X3.9894Y-3.3449
X3.9894Y-3.8567
X3.9894Y-4.3685
X3.9894Y-4.8803
X3.9894Y-5.3921
X3.9906Y-2.0094
X3.9906Y-2.5213
X3.9906Y-3.0331
X3.9906Y-3.5449
X3.9906Y-4.0567
X3.9906Y-4.5685
X3.9906Y-5.0803
X4.0028Y-1.9862
X4.0028Y-2.3449
X4.0028Y-2.498
X4.0028Y-2.8567
X4.0028Y-3.0098
X4.0028Y-3.3685
X4.0028Y-3.5217
X4.0028Y-3.8803
X4.0028Y-4.0335
X4.0028Y-4.3921
X4.0028Y-4.5453
X4.0028Y-4.9039
X4.0028Y-5.0571
X4.0028Y-5.4158
X4.0138Y-2.3213
X4.0138Y-2.8331
X4.0138Y-3.3449
X4.0138Y-3.8567
X4.0138Y-4.3685
X4.0138Y-4.8803
X4.0138Y-5.3921
X4.015Y-2.0094
X4.015Y-2.5213
X4.015Y-3.0331
X4.015Y-3.5449
X4.015Y-4.0567
X4.015Y-4.5685
X4.015Y-5.0803
X4.0264Y-1.9858
X4.0264Y-2.3453
X4.0264Y-2.4976
X4.0264Y-2.8571
X4.0264Y-3.0094
X4.0264Y-3.3689
X4.0264Y-3.5213
X4.0264Y-3.8807
X4.0264Y-4.0331
X4.0264Y-4.3925
X4.0264Y-4.5449
X4.0264Y-4.9043
X4.0264Y-5.0567
X4.0264Y-5.4161
X4.0374Y-2.3217
X4.0374Y-2.8335
X4.0374Y-3.3453
X4.0374Y-3.8571
X4.0374Y-4.3689
X4.0374Y-4.8807
X4.0374Y-5.3925
X4.0386Y-2.0091
X4.0386Y-2.5209
X4.0386Y-3.0327
X4.0386Y-3.5445
X4.0386Y-4.0563
X4.0386Y-4.5681
X4.0386Y-5.0799
X4.0512Y-1.9866
X4.0512Y-2.3445
X4.0512Y-2.4984
X4.0512Y-2.8563
X4.0512Y-3.0102
X4.0512Y-3.3681
X4.0512Y-3.522
X4.0512Y-3.8799
X4.0512Y-4.0339
X4.0512Y-4.3917
X4.0512Y-4.5457
X4.0512Y-4.9035
X4.0512Y-5.0575
X4.0512Y-5.4154
X4.0618Y-2.322
X4.0618Y-2.8339
X4.0618Y-3.3457
X4.0618Y-3.8575
X4.0618Y-4.3693
X4.0618Y-4.8811
X4.0618Y-5.3929
X4.0634Y-2.0098
X4.0634Y-2.5217
X4.0634Y-3.0335
X4.0634Y-3.5453
X4.0634Y-4.0571
X4.0634Y-4.5689
X4.0634Y-5.0807
X4.2244Y-2.015
X4.2244Y-2.5268
X4.2244Y-3.0386
X4.2244Y-3.5504
X4.2244Y-4.0622
X4.2244Y-4.574
X4.2244Y-5.0858
X4.2276Y-2.3157
X4.2276Y-2.8276
X4.2276Y-3.3394
X4.2276Y-3.8512
X4.2276Y-4.363
X4.2276Y-4.8748
X4.2276Y-5.3866
X4.2362Y-1.9917
X4.2362Y-2.5035
X4.2362Y-3.0154
X4.2362Y-3.5272
X4.2362Y-4.039
X4.2362Y-4.5508
X4.2362Y-5.0626
X4.2402Y-2.3437
X4.2402Y-2.8555
X4.2402Y-3.3673
X4.2402Y-3.8791
X4.2402Y-4.3909
X4.2402Y-4.9028
X4.2402Y-5.4146
X4.2524Y-2.3165
X4.2524Y-2.8283
X4.2524Y-3.3402
X4.2524Y-3.852
X4.2524Y-4.3638
X4.2524Y-4.8756
X4.2524Y-5.3874
X4.2532Y-2.0146
X4.2532Y-2.5264
X4.2532Y-3.0382
X4.2532Y-3.55
X4.2532Y-4.0618
X4.2532Y-4.5736
X4.2532Y-5.0854
X4.265Y-2.3445
X4.265Y-2.8563
X4.265Y-3.3681
X4.265Y-3.8799
X4.265Y-4.3917
X4.265Y-4.9035
X4.265Y-5.4154
X4.276Y-2.3161
X4.276Y-2.828
X4.276Y-3.3398
X4.276Y-3.8516
X4.276Y-4.3634
X4.276Y-4.8752
X4.276Y-5.387
X4.2917Y-2.3441
X4.2917Y-2.8559
X4.2917Y-3.3677
X4.2917Y-3.8795
X4.2917Y-4.3913
X4.2917Y-4.9032
X4.2917Y-5.415
X4.3004Y-2.3161
X4.3004Y-2.828
X4.3004Y-3.3398
X4.3004Y-3.8516
X4.3004Y-4.3634
X4.3004Y-4.8752
X4.3004Y-5.387
X4.3189Y-2.1118
X4.3189Y-2.6236
X4.3189Y-3.1354
X4.3189Y-3.6472
X4.3189Y-4.1591
X4.3189Y-4.6709
X4.3189Y-5.1827
X4.3213Y-2.3366
X4.3213Y-2.8484
X4.3213Y-3.3602
X4.3213Y-3.872
X4.3213Y-4.3839
X4.3213Y-4.8957
X4.3213Y-5.4075
X4.3244Y-2.2228
X4.3244Y-2.7346
X4.3244Y-3.2465
X4.3244Y-3.7583
X4.3244Y-4.2701
X4.3244Y-4.7819
X4.3244Y-5.2937
X4.3299Y-2.3083
X4.3299Y-2.8201
X4.3299Y-3.3319
X4.3299Y-3.8437
X4.3299Y-4.3555
X4.3299Y-4.8673
X4.3299Y-5.3791
X4.3843Y-2.011
X4.3843Y-2.5228
X4.3843Y-3.0346
X4.3843Y-3.5465
X4.3843Y-4.0583
X4.3843Y-4.5701
X4.3843Y-5.0819
X4.3854Y-1.9854
X4.3854Y-2.4972
X4.3854Y-3.0091
X4.3854Y-3.5209
X4.3854Y-4.0327
X4.3854Y-4.5445
X4.3854Y-5.0563
X4.4039Y-2.1165
X4.4039Y-2.6283
X4.4039Y-3.1402
X4.4039Y-3.652
X4.4039Y-4.1638
X4.4039Y-4.6756
X4.4039Y-5.1874
X4.448Y-2.1992
X4.448Y-2.711
X4.448Y-3.2228
X4.448Y-3.7346
X4.448Y-4.2465
X4.448Y-4.7583
X4.448Y-5.2701
X4.4937Y-1.985
X4.4937Y-2.4969
X4.4937Y-3.0087
X4.4937Y-3.5205
X4.4937Y-4.0323
X4.4937Y-4.5441
X4.4937Y-5.0559
X4.4949Y-2.0134
X4.4949Y-2.5252
X4.4949Y-3.037
X4.4949Y-3.5488
X4.4949Y-4.0606
X4.4949Y-4.5724
X4.4949Y-5.0843
X4.5102Y-2.3106
X4.5102Y-2.8224
X4.5102Y-3.3343
X4.5102Y-3.8461
X4.5102Y-4.3579
X4.5102Y-4.8697
X4.5102Y-5.3815
X4.5114Y-2.3421
X4.5114Y-2.8539
X4.5114Y-3.3657
X4.5114Y-3.8776
X4.5114Y-4.3894
X4.5114Y-4.9012
X4.5114Y-5.413
X4.5142Y-2.2366
X4.5142Y-2.7484
X4.5142Y-3.2602
X4.5142Y-3.772
X4.5142Y-4.2839
X4.5142Y-4.7957
X4.5142Y-5.3075
X4.5697Y-2.2504
X4.5697Y-2.7622
X4.5697Y-3.274
X4.5697Y-3.7858
X4.5697Y-4.2976
X4.5697Y-4.8095
X4.5697Y-5.3213
X4.5839Y-2.1992
X4.5839Y-2.711
X4.5839Y-3.2228
X4.5839Y-3.7346
X4.5839Y-4.2465
X4.5839Y-4.7583
X4.5839Y-5.2701
X4.5866Y-1.985
X4.5866Y-2.4969
X4.5866Y-3.0087
X4.5866Y-3.5205
X4.5866Y-4.0323
X4.5866Y-4.5441
X4.5866Y-5.0559
X4.5878Y-2.1472
X4.5878Y-2.6591
X4.5878Y-3.1709
X4.5878Y-3.6827
X4.5878Y-4.1945
X4.5878Y-4.7063
X4.5878Y-5.2181
X4.6579Y-1.9854
X4.6579Y-2.4972
X4.6579Y-3.0091
X4.6579Y-3.5209
X4.6579Y-4.0327
X4.6579Y-4.5445
X4.6579Y-5.0563
X4.6618Y-2.3449
X4.6618Y-2.8567
X4.6618Y-3.3685
X4.6618Y-3.8803
X4.6618Y-4.3921
X4.6618Y-4.9039
X4.6618Y-5.4158
X4.676Y-2.2677
X4.676Y-2.7795
X4.676Y-3.2913
X4.676Y-3.8032
X4.676Y-4.315
X4.676Y-4.8268
X4.676Y-5.3386
X4.6882Y-2.2012
X4.6882Y-2.713
X4.6882Y-3.2248
X4.6882Y-3.7366
X4.6882Y-4.2484
X4.6882Y-4.7602
X4.6882Y-5.272
X4.7039Y-2.0878
X4.7039Y-2.5996
X4.7039Y-3.1114
X4.7039Y-3.6232
X4.7039Y-4.135
X4.7039Y-4.6469
X4.7039Y-5.1587
X4.7067Y-2.1732
X4.7067Y-2.685
X4.7067Y-3.1969
X4.7067Y-3.7087
X4.7067Y-4.2205
X4.7067Y-4.7323
X4.7067Y-5.2441
X4.7256Y-2.3453
X4.7256Y-2.8571
X4.7256Y-3.3689
X4.7256Y-3.8807
X4.7256Y-4.3925
X4.7256Y-4.9043
X4.7256Y-5.4161
X4.726Y-2.0547
X4.726Y-2.5665
X4.726Y-3.0783
X4.726Y-3.5902
X4.726Y-4.102
X4.726Y-4.6138
X4.726Y-5.1256
X4.7476Y-2.3453
X4.7476Y-2.8571
X4.7476Y-3.3689
X4.7476Y-3.8807
X4.7476Y-4.3925
X4.7476Y-4.9043
X4.7476Y-5.4161
X4.7492Y-1.985
X4.7492Y-2.4969
X4.7492Y-3.0087
X4.7492Y-3.5205
X4.7492Y-4.0323
X4.7492Y-4.5441
X4.7492Y-5.0559
X4.7693Y-2.3453
X4.7693Y-2.8571
X4.7693Y-3.3689
X4.7693Y-3.8807
X4.7693Y-4.3925
X4.7693Y-4.9043
X4.7693Y-5.4161
X4.7882Y-1.985
X4.7882Y-2.4969
X4.7882Y-3.0087
X4.7882Y-3.5205
X4.7882Y-4.0323
X4.7882Y-4.5441
X4.7882Y-5.0559
X4.789Y-2.1173
X4.789Y-2.6291
X4.789Y-3.1409
X4.789Y-3.6528
X4.789Y-4.1646
X4.789Y-4.6764
X4.789Y-5.1882
X4.7945Y-2.3457
X4.7945Y-2.8575
X4.7945Y-3.3693
X4.7945Y-3.8811
X4.7945Y-4.3929
X4.7945Y-4.9047
X4.7945Y-5.4165
X4.8035Y-2.2248
X4.8035Y-2.7366
X4.8035Y-3.2484
X4.8035Y-3.7602
X4.8035Y-4.272
X4.8035Y-4.7839
X4.8035Y-5.2957
X4.8098Y-1.985
X4.8098Y-2.4969
X4.8098Y-3.0087
X4.8098Y-3.5205
X4.8098Y-4.0323
X4.8098Y-4.5441
X4.8098Y-5.0559
X4.8315Y-1.985
X4.8315Y-2.4969
X4.8315Y-3.0087
X4.8315Y-3.5205
X4.8315Y-4.0323
X4.8315Y-4.5441
X4.8315Y-5.0559
X4.8319Y-2.2819
X4.8319Y-2.7937
X4.8319Y-3.3055
X4.8319Y-3.8173
X4.8319Y-4.3291
X4.8319Y-4.8409
X4.8319Y-5.3528
X4.8528Y-2.3453
X4.8528Y-2.8571
X4.8528Y-3.3689
X4.8528Y-3.8807
X4.8528Y-4.3925
X4.8528Y-4.9043
X4.8528Y-5.4161
X4.8535Y-1.985
X4.8535Y-2.4969
X4.8535Y-3.0087
X4.8535Y-3.5205
X4.8535Y-4.0323
X4.8535Y-4.5441
X4.8535Y-5.0559
X4.8744Y-2.2976
X4.8744Y-2.3252
X4.8744Y-2.8094
X4.8744Y-2.837
X4.8744Y-3.3213
X4.8744Y-3.3488
X4.8744Y-3.8331
X4.8744Y-3.8606
X4.8744Y-4.3449
X4.8744Y-4.3724
X4.8744Y-4.8567
X4.8744Y-4.8843
X4.8744Y-5.3685
X4.8744Y-5.3961
X4.8752Y-1.985
X4.8752Y-2.0083
X4.8752Y-2.4969
X4.8752Y-2.5201
X4.8752Y-3.0087
X4.8752Y-3.0319
X4.8752Y-3.5205
X4.8752Y-3.5437
X4.8752Y-4.0323
X4.8752Y-4.0555
X4.8752Y-4.5441
X4.8752Y-4.5673
X4.8752Y-5.0559
X4.8752Y-5.0791
X4.8976Y-2.3453
X4.8976Y-2.8571
X4.8976Y-3.3689
X4.8976Y-3.8807
X4.8976Y-4.3925
X4.8976Y-4.9043
X4.8976Y-5.4161
X4.9224Y-2.3453
X4.9224Y-2.8571
X4.9224Y-3.3689
X4.9224Y-3.8807
X4.9224Y-4.3925
X4.9224Y-4.9043
X4.9224Y-5.4161
X4.9461Y-2.3457
X4.9461Y-2.8575
X4.9461Y-3.3693
X4.9461Y-3.8811
X4.9461Y-4.3929
X4.9461Y-4.9047
X4.9461Y-5.4165
X4.9504Y-1.9854
X4.9504Y-2.4972
X4.9504Y-3.0091
X4.9504Y-3.5209
X4.9504Y-4.0327
X4.9504Y-4.5445
X4.9504Y-5.0563
X4.9697Y-2.3453
X4.9697Y-2.8571
X4.9697Y-3.3689
X4.9697Y-3.8807
X4.9697Y-4.3925
X4.9697Y-4.9043
X4.9697Y-5.4161
X4.9941Y-2.3453
X4.9941Y-2.8571
X4.9941Y-3.3689
X4.9941Y-3.8807
X4.9941Y-4.3925
X4.9941Y-4.9043
X4.9941Y-5.4161
X5.0063Y-2.2295
X5.0063Y-2.7413
X5.0063Y-3.2532
X5.0063Y-3.765
X5.0063Y-4.2768
X5.0063Y-4.7886
X5.0063Y-5.3004
X5.0114Y-2.0331
X5.0114Y-2.5449
X5.0114Y-3.0567
X5.0114Y-3.5685
X5.0114Y-4.0803
X5.0114Y-4.5921
X5.0114Y-5.1039
X5.0189Y-2.3449
X5.0189Y-2.8567
X5.0189Y-3.3685
X5.0189Y-3.8803
X5.0189Y-4.3921
X5.0189Y-4.9039
X5.0189Y-5.4158
X5.0248Y-1.9862
X5.0248Y-2.498
X5.0248Y-3.0098
X5.0248Y-3.5217
X5.0248Y-4.0335
X5.0248Y-4.5453
X5.0248Y-5.0571
X5.0264Y-2.3224
X5.0264Y-2.8343
X5.0264Y-3.3461
X5.0264Y-3.8579
X5.0264Y-4.3697
X5.0264Y-4.8815
X5.0264Y-5.3933
X5.0378Y-2.011
X5.0378Y-2.5228
X5.0378Y-3.0346
X5.0378Y-3.5465
X5.0378Y-4.0583
X5.0378Y-4.5701
X5.0378Y-5.0819
X5.0492Y-1.9862
X5.0492Y-2.3449
X5.0492Y-2.498
X5.0492Y-2.8567
X5.0492Y-3.0098
X5.0492Y-3.3685
X5.0492Y-3.5217
X5.0492Y-3.8803
X5.0492Y-4.0335
X5.0492Y-4.3921
X5.0492Y-4.5453
X5.0492Y-4.9039
X5.0492Y-5.0571
X5.0492Y-5.4158
X5.0579Y-2.3193
X5.0579Y-2.8311
X5.0579Y-3.3429
X5.0579Y-3.8547
X5.0579Y-4.3665
X5.0579Y-4.8783
X5.0579Y-5.3902
X5.0622Y-2.011
X5.0622Y-2.5228
X5.0622Y-3.0346
X5.0622Y-3.5465
X5.0622Y-4.0583
X5.0622Y-4.5701
X5.0622Y-5.0819
X5.0728Y-1.9858
X5.0728Y-2.3453
X5.0728Y-2.4976
X5.0728Y-2.8571
X5.0728Y-3.0094
X5.0728Y-3.3689
X5.0728Y-3.5213
X5.0728Y-3.8807
X5.0728Y-4.0331
X5.0728Y-4.3925
X5.0728Y-4.5449
X5.0728Y-4.9043
X5.0728Y-5.0567
X5.0728Y-5.4161
X5.0839Y-2.3213
X5.0839Y-2.8331
X5.0839Y-3.3449
X5.0839Y-3.8567
X5.0839Y-4.3685
X5.0839Y-4.8803
X5.0839Y-5.3921
X5.0854Y-2.0094
X5.0854Y-2.5213
X5.0854Y-3.0331
X5.0854Y-3.5449
X5.0854Y-4.0567
X5.0854Y-4.5685
X5.0854Y-5.0803
X5.0965Y-1.9862
X5.0965Y-2.3449
X5.0965Y-2.498
X5.0965Y-2.8567
X5.0965Y-3.0098
X5.0965Y-3.3685
X5.0965Y-3.5217
X5.0965Y-3.8803
X5.0965Y-4.0335
X5.0965Y-4.3921
X5.0965Y-4.5453
X5.0965Y-4.9039
X5.0965Y-5.0571
X5.0965Y-5.4158
X5.1075Y-2.3213
X5.1075Y-2.8331
X5.1075Y-3.3449
X5.1075Y-3.8567
X5.1075Y-4.3685
X5.1075Y-4.8803
X5.1075Y-5.3921
X5.1087Y-2.0094
X5.1087Y-2.5213
X5.1087Y-3.0331
X5.1087Y-3.5449
X5.1087Y-4.0567
X5.1087Y-4.5685
X5.1087Y-5.0803
X5.1209Y-1.9862
X5.1209Y-2.3449
X5.1209Y-2.498
X5.1209Y-2.8567
X5.1209Y-3.0098
X5.1209Y-3.3685
X5.1209Y-3.5217
X5.1209Y-3.8803
X5.1209Y-4.0335
X5.1209Y-4.3921
X5.1209Y-4.5453
X5.1209Y-4.9039
X5.1209Y-5.0571
X5.1209Y-5.4158
X5.1319Y-2.3213
X5.1319Y-2.8331
X5.1319Y-3.3449
X5.1319Y-3.8567
X5.1319Y-4.3685
X5.1319Y-4.8803
X5.1319Y-5.3921
X5.1331Y-2.0094
X5.1331Y-2.5213
X5.1331Y-3.0331
X5.1331Y-3.5449
X5.1331Y-4.0567
X5.1331Y-4.5685
X5.1331Y-5.0803
X5.1445Y-1.9858
X5.1445Y-2.3453
X5.1445Y-2.4976
X5.1445Y-2.8571
X5.1445Y-3.0094
X5.1445Y-3.3689
X5.1445Y-3.5213
X5.1445Y-3.8807
X5.1445Y-4.0331
X5.1445Y-4.3925
X5.1445Y-4.5449
X5.1445Y-4.9043
X5.1445Y-5.0567
X5.1445Y-5.4161
X5.1555Y-2.3217
X5.1555Y-2.8335
X5.1555Y-3.3453
X5.1555Y-3.8571
X5.1555Y-4.3689
X5.1555Y-4.8807
X5.1555Y-5.3925
X5.1567Y-2.0091
X5.1567Y-2.5209
X5.1567Y-3.0327
X5.1567Y-3.5445
X5.1567Y-4.0563
X5.1567Y-4.5681
X5.1567Y-5.0799
X5.1693Y-1.9866
X5.1693Y-2.3445
X5.1693Y-2.4984
X5.1693Y-2.8563
X5.1693Y-3.0102
X5.1693Y-3.3681
X5.1693Y-3.522
X5.1693Y-3.8799
X5.1693Y-4.0339
X5.1693Y-4.3917
X5.1693Y-4.5457
X5.1693Y-4.9035
X5.1693Y-5.0575
X5.1693Y-5.4154
X5.1799Y-2.322
X5.1799Y-2.8339
X5.1799Y-3.3457
X5.1799Y-3.8575
X5.1799Y-4.3693
X5.1799Y-4.8811
X5.1799Y-5.3929
X5.1815Y-2.0098
X5.1815Y-2.5217
X5.1815Y-3.0335
X5.1815Y-3.5453
X5.1815Y-4.0571
X5.1815Y-4.5689
X5.1815Y-5.0807
T2
X1.9685Y-2.0661
X1.9685Y-2.1661
X1.9685Y-2.2661
X1.9685Y-2.578
X1.9685Y-2.678
X1.9685Y-2.778
X1.9685Y-3.0898
X1.9685Y-3.1898
X1.9685Y-3.2898
X1.9685Y-3.6016
X1.9685Y-3.7016
X1.9685Y-3.8016
X1.9685Y-4.1134
X1.9685Y-4.2134
X1.9685Y-4.3134
X1.9685Y-4.6252
X1.9685Y-4.7252
X1.9685Y-4.8252
X1.9685Y-5.137
X1.9685Y-5.237
X1.9685Y-5.337
X2.0433Y-2.0661
X2.0433Y-2.1661
X2.0433Y-2.2661
X2.0433Y-2.578
X2.0433Y-2.678
X2.0433Y-2.778
X2.0433Y-3.0898
X2.0433Y-3.1898
X2.0433Y-3.2898
X2.0433Y-3.6016
X2.0433Y-3.7016
X2.0433Y-3.8016
X2.0433Y-4.1134
X2.0433Y-4.2134
X2.0433Y-4.3134
X2.0433Y-4.6252
X2.0433Y-4.7252
X2.0433Y-4.8252
X2.0433Y-5.137
X2.0433Y-5.237
X2.0433Y-5.337
X2.8449Y-2.0657
X2.8449Y-2.1657
X2.8449Y-2.2657
X2.8449Y-2.5776
X2.8449Y-2.6776
X2.8449Y-2.7776
X2.8449Y-3.0894
X2.8449Y-3.1894
X2.8449Y-3.2894
X2.8449Y-3.6012
X2.8449Y-3.7012
X2.8449Y-3.8012
X2.8449Y-4.113
X2.8449Y-4.213
X2.8449Y-4.313
X2.8449Y-4.6248
X2.8449Y-4.7248
X2.8449Y-4.8248
X2.8449Y-5.1366
X2.8449Y-5.2366
X2.8449Y-5.3366
X2.9689Y-2.0657
X2.9689Y-2.1657
X2.9689Y-2.2657
X2.9689Y-2.5776
X2.9689Y-2.6776
X2.9689Y-2.7776
X2.9689Y-3.0894
X2.9689Y-3.1894
X2.9689Y-3.2894
X2.9689Y-3.6012
X2.9689Y-3.7012
X2.9689Y-3.8012
X2.9689Y-4.113
X2.9689Y-4.213
X2.9689Y-4.313
X2.9689Y-4.6248
X2.9689Y-4.7248
X2.9689Y-4.8248
X2.9689Y-5.1366
X2.9689Y-5.2366
X2.9689Y-5.3366
X3.0866Y-2.0661
X3.0866Y-2.1661
X3.0866Y-2.2661
X3.0866Y-2.578
X3.0866Y-2.678
X3.0866Y-2.778
X3.0866Y-3.0898
X3.0866Y-3.1898
X3.0866Y-3.2898
X3.0866Y-3.6016
X3.0866Y-3.7016
X3.0866Y-3.8016
X3.0866Y-4.1134
X3.0866Y-4.2134
X3.0866Y-4.3134
X3.0866Y-4.6252
X3.0866Y-4.7252
X3.0866Y-4.8252
X3.0866Y-5.137
X3.0866Y-5.237
X3.0866Y-5.337
X3.1614Y-2.0661
X3.1614Y-2.1661
X3.1614Y-2.2661
X3.1614Y-2.578
X3.1614Y-2.678
X3.1614Y-2.778
X3.1614Y-3.0898
X3.1614Y-3.1898
X3.1614Y-3.2898
X3.1614Y-3.6016
X3.1614Y-3.7016
X3.1614Y-3.8016
X3.1614Y-4.1134
X3.1614Y-4.2134
X3.1614Y-4.3134
X3.1614Y-4.6252
X3.1614Y-4.7252
X3.1614Y-4.8252
X3.1614Y-5.137
X3.1614Y-5.237
X3.1614Y-5.337
X3.963Y-2.0657
X3.963Y-2.1657
X3.963Y-2.2657
X3.963Y-2.5776
X3.963Y-2.6776
X3.963Y-2.7776
X3.963Y-3.0894
X3.963Y-3.1894
X3.963Y-3.2894
X3.963Y-3.6012
X3.963Y-3.7012
X3.963Y-3.8012
X3.963Y-4.113
X3.963Y-4.213
X3.963Y-4.313
X3.963Y-4.6248
X3.963Y-4.7248
X3.963Y-4.8248
X3.963Y-5.1366
X3.963Y-5.2366
X3.963Y-5.3366
X4.087Y-2.0657
X4.087Y-2.1657
X4.087Y-2.2657
X4.087Y-2.5776
X4.087Y-2.6776
X4.087Y-2.7776
X4.087Y-3.0894
X4.087Y-3.1894
X4.087Y-3.2894
X4.087Y-3.6012
X4.087Y-3.7012
X4.087Y-3.8012
X4.087Y-4.113
X4.087Y-4.213
X4.087Y-4.313
X4.087Y-4.6248
X4.087Y-4.7248
X4.087Y-4.8248
X4.087Y-5.1366
X4.087Y-5.2366
X4.087Y-5.3366
X4.2047Y-2.0661
X4.2047Y-2.1661
X4.2047Y-2.2661
X4.2047Y-2.578
X4.2047Y-2.678
X4.2047Y-2.778
X4.2047Y-3.0898
X4.2047Y-3.1898
X4.2047Y-3.2898
X4.2047Y-3.6016
X4.2047Y-3.7016
X4.2047Y-3.8016
X4.2047Y-4.1134
X4.2047Y-4.2134
X4.2047Y-4.3134
X4.2047Y-4.6252
X4.2047Y-4.7252
X4.2047Y-4.8252
X4.2047Y-5.137
X4.2047Y-5.237
X4.2047Y-5.337
X4.2795Y-2.0661
X4.2795Y-2.1661
X4.2795Y-2.2661
X4.2795Y-2.578
X4.2795Y-2.678
X4.2795Y-2.778
X4.2795Y-3.0898
X4.2795Y-3.1898
X4.2795Y-3.2898
X4.2795Y-3.6016
X4.2795Y-3.7016
X4.2795Y-3.8016
X4.2795Y-4.1134
X4.2795Y-4.2134
X4.2795Y-4.3134
X4.2795Y-4.6252
X4.2795Y-4.7252
X4.2795Y-4.8252
X4.2795Y-5.137
X4.2795Y-5.237
X4.2795Y-5.337
X5.0811Y-2.0657
X5.0811Y-2.1657
X5.0811Y-2.2657
X5.0811Y-2.5776
X5.0811Y-2.6776
X5.0811Y-2.7776
X5.0811Y-3.0894
X5.0811Y-3.1894
X5.0811Y-3.2894
X5.0811Y-3.6012
X5.0811Y-3.7012
X5.0811Y-3.8012
X5.0811Y-4.113
X5.0811Y-4.213
X5.0811Y-4.313
X5.0811Y-4.6248
X5.0811Y-4.7248
X5.0811Y-4.8248
X5.0811Y-5.1366
X5.0811Y-5.2366
X5.0811Y-5.3366
X5.2051Y-2.0657
X5.2051Y-2.1657
X5.2051Y-2.2657
X5.2051Y-2.5776
X5.2051Y-2.6776
X5.2051Y-2.7776
X5.2051Y-3.0894
X5.2051Y-3.1894
X5.2051Y-3.2894
X5.2051Y-3.6012
X5.2051Y-3.7012
X5.2051Y-3.8012
X5.2051Y-4.113
X5.2051Y-4.213
X5.2051Y-4.313
X5.2051Y-4.6248
X5.2051Y-4.7248
X5.2051Y-4.8248
X5.2051Y-5.1366
X5.2051Y-5.2366
X5.2051Y-5.3366
T3
X2.9079Y-2.0661
X2.9079Y-2.1661
X2.9079Y-2.2661
X2.9079Y-2.578
X2.9079Y-2.678
X2.9079Y-2.778
X2.9079Y-3.0898
X2.9079Y-3.1898
X2.9079Y-3.2898
X2.9079Y-3.6016
X2.9079Y-3.7016
X2.9079Y-3.8016
X2.9079Y-4.1134
X2.9079Y-4.2134
X2.9079Y-4.3134
X2.9079Y-4.6252
X2.9079Y-4.7252
X2.9079Y-4.8252
X2.9079Y-5.137
X2.9079Y-5.237
X2.9079Y-5.337
X4.026Y-2.0661
X4.026Y-2.1661
X4.026Y-2.2661
X4.026Y-2.578
X4.026Y-2.678
X4.026Y-2.778
X4.026Y-3.0898
X4.026Y-3.1898
X4.026Y-3.2898
X4.026Y-3.6016
X4.026Y-3.7016
X4.026Y-3.8016
X4.026Y-4.1134
X4.026Y-4.2134
X4.026Y-4.3134
X4.026Y-4.6252
X4.026Y-4.7252
X4.026Y-4.8252
X4.026Y-5.137
X4.026Y-5.237
X4.026Y-5.337
X5.1441Y-2.0661
X5.1441Y-2.1661
X5.1441Y-2.2661
X5.1441Y-2.578
X5.1441Y-2.678
X5.1441Y-2.778
X5.1441Y-3.0898
X5.1441Y-3.1898
X5.1441Y-3.2898
X5.1441Y-3.6016
X5.1441Y-3.7016
X5.1441Y-3.8016
X5.1441Y-4.1134
X5.1441Y-4.2134
X5.1441Y-4.3134
X5.1441Y-4.6252
X5.1441Y-4.7252
X5.1441Y-4.8252
X5.1441Y-5.137
X5.1441Y-5.237
X5.1441Y-5.337
T0
M30
