<?xml version="1.0" encoding="UTF-8" standalone="no"?>
<svg
   xmlns:dc="http://purl.org/dc/elements/1.1/"
   xmlns:cc="http://creativecommons.org/ns#"
   xmlns:rdf="http://www.w3.org/1999/02/22-rdf-syntax-ns#"
   xmlns:svg="http://www.w3.org/2000/svg"
   xmlns="http://www.w3.org/2000/svg"
   xmlns:xlink="http://www.w3.org/1999/xlink"
   xmlns:sodipodi="http://sodipodi.sourceforge.net/DTD/sodipodi-0.dtd"
   xmlns:inkscape="http://www.inkscape.org/namespaces/inkscape"
   enable-background="new 0 0 841.9 595.3"
   version="1.1"
   viewBox="0 0 33.353217 94.900003"
   xml:space="preserve"
   id="svg994"
   sodipodi:docname="Black-Alligator-Clip.svg"
   width="33.353218"
   height="94.900002"
   inkscape:version="1.0.1 (3bc2e813f5, 2020-09-07)"><metadata
   id="metadata1000"><rdf:RDF><cc:Work
       rdf:about=""><dc:format>image/svg+xml</dc:format><dc:type
         rdf:resource="http://purl.org/dc/dcmitype/StillImage" /><dc:title></dc:title></cc:Work></rdf:RDF></metadata><defs
   id="defs998" /><sodipodi:namedview
   pagecolor="#ffffff"
   bordercolor="#666666"
   borderopacity="1"
   objecttolerance="10"
   gridtolerance="10"
   guidetolerance="10"
   inkscape:pageopacity="0"
   inkscape:pageshadow="2"
   inkscape:window-width="1366"
   inkscape:window-height="694"
   id="namedview996"
   showgrid="false"
   inkscape:zoom="3.1647909"
   inkscape:cx="-19.351933"
   inkscape:cy="44.703203"
   inkscape:window-x="0"
   inkscape:window-y="0"
   inkscape:window-maximized="1"
   inkscape:current-layer="svg994" />
<symbol
   viewBox="-15.7 -15.4 31.4 30.8"
   id="symbol12"
   transform="translate(-298.14806,-391.9)">
	<polygon
   points="1.3,-13.2 1.3,-15.4 -7.2,-15.4 -7.2,-13.2 "
   clip-rule="evenodd"
   fill-rule="evenodd"
   id="polygon2" />
	<polygon
   points="-15.7,-8.3 -15.7,-6.2 9.8,-6.2 9.8,-8.3 "
   clip-rule="evenodd"
   fill-rule="evenodd"
   id="polygon4" />
	<polygon
   points="1.3,0.9 1.3,-1.2 -7.2,-1.2 -7.2,0.9 "
   clip-rule="evenodd"
   fill-rule="evenodd"
   id="polygon6" />
	<polygon
   points="-15.7,5.8 -15.7,8 9.8,8 9.8,5.8 "
   clip-rule="evenodd"
   fill-rule="evenodd"
   id="polygon8" />
		<path
   d="M 15.7,11.1 H 12.9 V 8.2 h -1.5 v 2.9 H 8.6 v 1.4 h 2.8 v 2.9 h 1.5 v -2.9 h 2.8 z"
   fill="#ec1e24"
   id="path10" />
</symbol>
<symbol
   clip-rule="evenodd"
   fill-rule="evenodd"
   stroke="#000000"
   stroke-linecap="square"
   stroke-miterlimit="10"
   stroke-width="0.7193"
   viewBox="-7.6 -4.6 15.2 9.1"
   id="symbol18"
   transform="translate(-298.14806,-391.9)">
		<polygon
   points="7.2,4.2 7.2,1.3 -7.2,1.3 -7.2,4.2 "
   id="polygon14" />
		<polygon
   points="7.2,-1.4 7.2,-4.2 -7.2,-4.2 -7.2,-1.4 "
   id="polygon16" />
</symbol>
<symbol
   clip-rule="evenodd"
   fill-rule="evenodd"
   stroke="#000000"
   stroke-linecap="square"
   stroke-miterlimit="10"
   stroke-width="0.7193"
   viewBox="-8.6 -5.3 17.1 10.5"
   id="symbol24"
   transform="translate(-298.14806,-391.9)">
		<polygon
   points="-8.2,-1.6 -8.2,-4.9 8.2,-4.9 8.2,-1.6 "
   id="polygon20" />
		<polygon
   points="-8.2,4.9 -8.2,1.6 8.2,1.6 8.2,4.9 "
   fill="#ffffff"
   id="polygon22" />
</symbol>
<symbol
   id="cc"
   viewBox="-3 -3 5.9 5.9"
   transform="translate(-298.14806,-391.9)">
		<path
   d="M 2.4,0 C 2.4,-1.3 1.3,-2.4 0,-2.4 -1.3,-2.4 -2.4,-1.3 -2.4,0 -2.4,1.3 -1.3,2.4 0,2.4 1.3,2.4 2.4,1.3 2.4,0 Z"
   clip-rule="evenodd"
   fill-rule="evenodd"
   stroke="#000000"
   stroke-linecap="square"
   stroke-miterlimit="10"
   stroke-width="1.1988"
   id="path26" />
</symbol>
<symbol
   viewBox="-3 -3 5.9 5.9"
   id="symbol31"
   transform="translate(-298.14806,-391.9)">
		<path
   d="M 2.4,0 C 2.4,-1.3 1.3,-2.4 0,-2.4 -1.3,-2.4 -2.4,-1.3 -2.4,0 -2.4,1.3 -1.3,2.4 0,2.4 1.3,2.4 2.4,1.3 2.4,0 Z"
   clip-rule="evenodd"
   fill="#231f20"
   fill-rule="evenodd"
   stroke="#231f20"
   stroke-linecap="square"
   stroke-miterlimit="10"
   stroke-width="1.1988"
   id="path29" />
</symbol>
<symbol
   viewBox="-3 -3 5.9 5.9"
   id="symbol35"
   transform="translate(-298.14806,-391.9)">
		<path
   d="M 2.4,0 C 2.4,-1.3 1.3,-2.4 0,-2.4 -1.3,-2.4 -2.4,-1.3 -2.4,0 -2.4,1.3 -1.3,2.4 0,2.4 1.3,2.4 2.4,1.3 2.4,0 Z"
   clip-rule="evenodd"
   fill="#221f1f"
   fill-rule="evenodd"
   stroke="#221f1f"
   stroke-linecap="square"
   stroke-miterlimit="10"
   stroke-width="1.1988"
   id="path33" />
</symbol>
<symbol
   viewBox="-7.9 -7.9 15.7 15.7"
   id="symbol43"
   transform="translate(-298.14806,-391.9)">
	<g
   clip-rule="evenodd"
   fill-rule="evenodd"
   stroke="#000000"
   stroke-linecap="square"
   stroke-miterlimit="10"
   stroke-width="1.1988"
   id="g41">
			<polygon
   points="6.5,0.1 -7.3,-6.9 -7.3,6.9 "
   id="polygon37" />
			<polygon
   points="7.2,-7 6.3,-7 6.3,7 7.2,7 "
   id="polygon39" />
	</g>
</symbol>
<symbol
   viewBox="-9.1 -4.1 18.2 8.3"
   id="symbol53"
   transform="translate(-298.14806,-391.9)">
	<g
   fill="none"
   stroke="#000000"
   stroke-linecap="square"
   stroke-miterlimit="10"
   stroke-width="1.1988"
   id="g51">
			<line
   x1="8.5"
   x2="-8.5"
   y1="3.5"
   y2="3.5"
   id="line45" />
			<line
   x1="-4.9000001"
   x2="5"
   y1="0.1"
   y2="0.1"
   id="line47" />
			<line
   x1="-1.3"
   x2="1.4"
   y1="-3.5"
   y2="-3.5"
   id="line49" />
	</g>
</symbol>
<symbol
   viewBox="-14 -5.5 28.1 11.1"
   id="symbol65"
   transform="translate(-298.14806,-391.9)">
	<g
   fill="none"
   stroke="#231f20"
   stroke-linecap="round"
   id="g63">
		<path
   d="m -13.5,-0.7 c 0,3.2 2,5.8 4.5,5.8 2.5,0 4.5,-2.6 4.5,-5.8 C -4.5,-2.5 -5,-4 -6,-5"
   id="path55" />
		<path
   d="m -6,-5 c -1,1 -1.5,2.6 -1.5,4.3 0,3.2 2,5.7 4.5,5.7 C -0.5,5 1.5,2.4 1.5,-0.8 1.5,-2.4 0.9,-3.9 0,-5"
   id="path57" />
		<path
   d="m 0,-5 c -1,1 -1.5,2.6 -1.5,4.3 C -1.5,2.5 0.6,5 3,5 5.5,5 7.5,2.4 7.5,-0.8 7.5,-2.4 7,-3.9 6.1,-5"
   id="path59" />
		<path
   d="M 6,-5 C 5.1,-3.9 4.5,-2.4 4.5,-0.7 4.5,2.5 6.6,5 9,5 c 2.5,0 4.5,-2.6 4.5,-5.8"
   id="path61" />
	</g>
</symbol>
<symbol
   viewBox="-3.7 -3.7 7.4 7.4"
   id="symbol69"
   transform="translate(-298.14806,-391.9)">
		<path
   d="M 3.1,0 C 3.1,-1.7 1.7,-3.1 0,-3.1 -1.7,-3.1 -3.1,-1.7 -3.1,0 -3.1,1.7 -1.7,3.1 0,3.1 1.7,3.1 3.1,1.7 3.1,0 Z"
   clip-rule="evenodd"
   fill="#ffffff"
   fill-rule="evenodd"
   stroke="#000000"
   stroke-linecap="square"
   stroke-miterlimit="10"
   stroke-width="1.1988"
   id="path67" />
</symbol>
<symbol
   viewBox="-3.7 -3.7 7.4 7.4"
   id="symbol73"
   transform="translate(-298.14806,-391.9)">
		<path
   d="M 3.1,0 C 3.1,-1.7 1.7,-3.1 0,-3.1 -1.7,-3.1 -3.1,-1.7 -3.1,0 -3.1,1.7 -1.7,3.1 0,3.1 1.7,3.1 3.1,1.7 3.1,0 Z"
   clip-rule="evenodd"
   fill="#ffffff"
   fill-rule="evenodd"
   stroke="#231f20"
   stroke-linecap="square"
   stroke-miterlimit="10"
   stroke-width="1.1988"
   id="path71" />
</symbol>
<symbol
   id="cd"
   viewBox="-4.3 -11 8.5 22.1"
   transform="translate(-298.14806,-391.9)">
	<polygon
   points="4.3,-6.5 -0.5,-3.8 4.3,-1.3 -0.5,1.2 4.3,3.8 -0.5,6.4 4.3,8.9 0.4,11 -0.4,11 0.5,8.9 -4.3,6.4 0.5,3.8 -4.3,1.2 0.5,-1.3 -4.3,-3.8 0.5,-6.5 -4.3,-8.9 -0.4,-11 0.4,-11 -0.4,-8.9 "
   clip-rule="evenodd"
   fill-rule="evenodd"
   id="polygon75" />
</symbol>
<symbol
   viewBox="-10.2 -15.3 20.4 30.7"
   id="symbol90"
   transform="translate(-298.14806,-391.9)">
			<use
   transform="translate(304.09626,387.61)"
   x="-4.3000002"
   y="-11"
   width="8.5"
   height="22.1"
   overflow="visible"
   xlink:href="#cd"
   id="use78" />
		<line
   x1="-9.6999998"
   x2="-9.6999998"
   y1="12.8"
   y2="-3"
   fill="none"
   stroke="#000000"
   stroke-linecap="round"
   stroke-linejoin="round"
   id="line80" />
		<line
   x1="-3.7"
   x2="-9.6999998"
   y1="-3"
   y2="-3"
   fill="none"
   stroke="#000000"
   stroke-linecap="round"
   stroke-linejoin="round"
   id="line82" />
		<line
   x1="5.5999999"
   x2="-9.6999998"
   y1="12.8"
   y2="12.8"
   fill="none"
   stroke="#000000"
   stroke-linecap="round"
   stroke-linejoin="round"
   id="line84" />
			<use
   transform="matrix(0.8293,0,0,0.8293,253.16628,337.89267)"
   x="-3"
   y="-3"
   width="5.9000001"
   height="5.9000001"
   overflow="visible"
   xlink:href="#cc"
   id="use86" />
		<polygon
   points="-4.1,-4.9 -4.1,-1.2 1.7,-3.1 "
   clip-rule="evenodd"
   fill-rule="evenodd"
   id="polygon88" />
</symbol>
				
				
	
				<g
   enable-background="new    "
   id="g478"
   transform="translate(-298.14806,-391.9)">
						<polygon
   points="320.8,484.4 320.5,486.4 318.9,486.6 319.2,484.6 "
   fill="#454545"
   id="polygon384" />
					<g
   enable-background="new    "
   id="g396">
						<defs
   id="defs387">
							<path
   id="cv"
   d="m 321.5,483.6 -0.3,2 c -0.1,0.4 -0.3,0.8 -0.7,0.8 l 0.3,-2 c 0.3,0 0.6,-0.3 0.7,-0.8 z"
   enable-background="new    " />
						</defs>
						<clipPath
   id="cw">
							<use
   overflow="visible"
   xlink:href="#cv"
   id="use389"
   x="0"
   y="0"
   width="100%"
   height="100%" />
						</clipPath>
						<g
   clip-path="url(#cw)"
   enable-background="new    "
   id="g394">
							<path
   d="m 320.5,486.4 0.3,-2 c 0.4,0 0.6,-0.3 0.7,-0.8 l -0.3,2 c -0.1,0.5 -0.4,0.8 -0.7,0.8"
   fill="#434343"
   id="path392" />
						</g>
					</g>
					<g
   enable-background="new    "
   id="g408">
						<defs
   id="defs399">
							<path
   id="cx"
   d="m 324.5,458 0.3,-2 c -0.2,1.5 -2.7,23.2 -3.4,27.6 l -0.3,2 c 0.7,-4.4 3.3,-26 3.4,-27.6 z"
   enable-background="new    " />
						</defs>
						<clipPath
   id="cy">
							<use
   overflow="visible"
   xlink:href="#cx"
   id="use401"
   x="0"
   y="0"
   width="100%"
   height="100%" />
						</clipPath>
						<g
   clip-path="url(#cy)"
   enable-background="new    "
   id="g406">
							<path
   d="m 324.5,458 0.3,-2 c -0.2,1.5 -2.7,23.2 -3.4,27.6 l -0.3,2 c 0.7,-4.4 3.3,-26 3.4,-27.6"
   fill="#73607d"
   id="path404" />
						</g>
					</g>
					<g
   enable-background="new    "
   id="g420">
						<defs
   id="defs411">
							<path
   id="cz"
   d="m 321.5,483.6 -0.3,2 z"
   enable-background="new    " />
						</defs>
						<clipPath
   id="db">
							<use
   overflow="visible"
   xlink:href="#cz"
   id="use413"
   x="0"
   y="0"
   width="100%"
   height="100%" />
						</clipPath>
						<g
   clip-path="url(#db)"
   enable-background="new    "
   id="g418">
							<path
   d="m 321.2,485.6 0.3,-2 -0.3,2"
   fill="#73607d"
   id="path416" />
						</g>
					</g>
						<polygon
   points="319.2,484.6 318.9,486.6 319,485.3 319.3,483.3 "
   fill="#515151"
   id="polygon422" />
						<polygon
   points="320.4,482 320.1,484 319,485.3 319.3,483.3 "
   fill="#5d4e65"
   id="polygon424" />
						<polygon
   points="320.3,481.9 319.9,484 318.9,485.3 319.2,483.2 "
   fill="#404040"
   id="polygon426" />
						<polygon
   points="320.4,481.9 320.1,483.9 318,482.6 318.3,480.6 "
   fill="#565656"
   id="polygon428" />
						<polygon
   points="320.8,478.2 320.4,480.3 318,482.6 318.3,480.6 "
   fill="#5d4e65"
   id="polygon430" />
						<polygon
   points="320.6,478.2 320.3,480.2 317.8,482.7 318.1,480.6 "
   fill="#404040"
   id="polygon432" />
						<polygon
   points="320.7,478.1 320.4,480.2 316.6,478 316.9,475.9 "
   fill="#555555"
   id="polygon434" />
						<polygon
   points="321,472.9 320.7,475 316.6,478 316.9,475.9 "
   fill="#5d4e65"
   id="polygon436" />
						<polygon
   points="320.8,472.9 320.5,474.9 316.4,478 316.7,476 "
   fill="#404040"
   id="polygon438" />
						<polygon
   points="321,472.8 320.6,474.9 315.3,471.2 315.6,469.2 "
   fill="#575757"
   id="polygon440" />
						<polygon
   points="320.5,467.2 320.2,469.3 315.3,471.2 315.6,469.2 "
   fill="#5e4f66"
   id="polygon442" />
						<polygon
   points="320.4,467.1 320,469.2 315.1,471.2 315.4,469.2 "
   fill="#414141"
   id="polygon444" />
						<polygon
   points="320.5,467.1 320.2,469.2 314.6,464.5 315,462.5 "
   fill="#585858"
   id="polygon446" />
						<polygon
   points="320,460.3 319.7,462.4 314.6,464.5 315,462.5 "
   fill="#5e4e66"
   id="polygon448" />
						<polygon
   points="319.9,460.3 319.5,462.3 314.5,464.6 314.8,462.5 "
   fill="#414141"
   id="polygon450" />
						<polygon
   points="320.1,460.2 319.7,462.3 314.8,459.4 315.1,457.3 "
   fill="#565656"
   id="polygon452" />
						<polygon
   points="324.9,456 324.5,458 314.8,459.4 315.1,457.3 "
   fill="#64536c"
   id="polygon454" />
						<path
   d="m 321.3,485.7 c -0.1,0.5 -0.4,0.9 -0.8,0.9 l -1.6,0.2 v -1.5 l 1.1,-1.3 -2.1,-1.3 2.5,-2.5 -3.8,-2.2 4.1,-3.1 -5.4,-3.7 4.9,-2 -5.6,-4.6 5.1,-2.3 -5,-2.9 10,-1.5 c 0,0.3 -2.7,23.2 -3.4,27.8 z m -0.8,0.7 c 0.4,0 0.6,-0.4 0.7,-0.8 0.7,-4.4 3.2,-26.1 3.4,-27.6 l -9.8,1.3 4.9,2.9 -5.1,2.3 5.6,4.6 -4.9,2 5.4,3.7 -4.1,3.1 3.8,2.2 -2.5,2.5 2.1,1.3 -1.1,1.4 -0.1,1.3 1.7,-0.2"
   fill="#707070"
   id="path456" />
						<path
   d="m 324.5,458 c -0.2,1.5 -2.7,23.2 -3.4,27.6 -0.1,0.4 -0.3,0.8 -0.7,0.8 l -1.5,0.2 0.1,-1.3 1.1,-1.3 -2.1,-1.4 2.5,-2.4 -3.9,-2.3 4.1,-3 -5.4,-3.8 4.9,-1.9 -5.6,-4.7 5.1,-2.2 -4.9,-3 z"
   fill="#a186ae"
   id="path458" />
						<polygon
   points="324.9,455.9 324.6,457.9 314.6,459.4 314.9,457.3 "
   fill="#454545"
   id="polygon460" />
					<g
   enable-background="new    "
   id="g476">
						<defs
   id="defs463">
							<path
   id="dc"
   d="m 324.6,457.9 0.3,-2 c 0.1,0.3 -2.6,23.2 -3.3,27.8 l -0.3,2 c 0.7,-4.6 3.4,-27.5 3.3,-27.8 z"
   enable-background="new    " />
						</defs>
						<clipPath
   id="dd">
							<use
   overflow="visible"
   xlink:href="#dc"
   id="use465"
   x="0"
   y="0"
   width="100%"
   height="100%" />
						</clipPath>
						<g
   clip-path="url(#dd)"
   enable-background="new    "
   id="g474">
							<path
   d="m 324.6,457.9 0.3,-2 -0.3,2"
   fill="#545454"
   id="path468" />
							<path
   d="m 324.6,457.9 0.3,-2 c 0,0.5 -0.6,5.3 -1.2,10.9 l -0.3,2 c 0.7,-5.6 1.2,-10.4 1.2,-10.9"
   fill="#525252"
   id="path470" />
							<path
   d="m 323.4,468.8 0.3,-2 c -0.8,6.7 -1.7,14.4 -2.1,16.9 l -0.3,2 c 0.4,-2.5 1.3,-10.2 2.1,-16.9"
   fill="#4f4f4f"
   id="path472" />
						</g>
					</g>
				</g>
				<g
   enable-background="new    "
   id="g574"
   transform="translate(-298.14806,-391.9)">
						<polygon
   points="313.1,483.9 312.7,486 312.3,485.9 312.7,483.9 "
   fill="#484848"
   id="polygon480" />
						<polygon
   points="313.7,482.6 313.4,484.6 312.7,486 313.1,483.9 "
   fill="#404040"
   id="polygon482" />
						<polygon
   points="315,481.5 314.6,483.5 313.4,484.6 313.7,482.6 "
   fill="#404040"
   id="polygon484" />
						<polygon
   points="315,481.5 314.6,483.5 312.7,481.9 313.1,479.8 "
   fill="#806b8a"
   id="polygon486" />
						<polygon
   points="315.2,481.4 314.8,483.4 312.9,481.9 313.2,479.9 "
   fill="#585858"
   id="polygon488" />
						<polygon
   points="315.9,477.8 315.5,479.8 312.7,482 313.1,479.9 "
   fill="#404040"
   id="polygon490" />
						<polygon
   points="315.9,477.8 315.5,479.8 312.1,477.2 312.4,475.2 "
   fill="#7f6a89"
   id="polygon492" />
						<polygon
   points="316.1,477.7 315.7,479.8 312.3,477.2 312.6,475.2 "
   fill="#585858"
   id="polygon494" />
						<polygon
   points="312.4,475.2 312.1,477.2 312.1,477.1 312.4,475.1 "
   fill="#776380"
   id="polygon496" />
						<polygon
   points="316.9,472.6 316.6,474.6 312,477.2 312.4,475.1 "
   fill="#404040"
   id="polygon498" />
						<polygon
   points="316.9,472.6 316.6,474.6 311.8,470.4 312.1,468.4 "
   fill="#806c8b"
   id="polygon500" />
						<polygon
   points="317.1,472.6 316.8,474.6 312,470.4 312.3,468.4 "
   fill="#595959"
   id="polygon502" />
						<polygon
   points="312.1,468.4 311.8,470.4 311.8,470.3 312.1,468.3 "
   fill="#816c8c"
   id="polygon504" />
						<polygon
   points="312.1,468.2 311.8,470.3 312.1,468.3 "
   fill="#404040"
   id="polygon506" />
						<polygon
   points="317.4,466.9 317,468.9 311.8,470.3 312.1,468.2 "
   fill="#434343"
   id="polygon508" />
						<polygon
   points="317.6,467 317.3,469 317.2,468.9 317.6,466.9 "
   fill="#585858"
   id="polygon510" />
						<polygon
   points="317.4,466.9 317,468.9 312.2,463.8 312.5,461.7 "
   fill="#826d8c"
   id="polygon512" />
						<polygon
   points="317.6,466.9 317.2,468.9 312.4,463.8 312.7,461.7 "
   fill="#5a5a5a"
   id="polygon514" />
						<polygon
   points="312.5,461.7 312.2,463.8 312.2,463.7 312.5,461.7 "
   fill="#806a89"
   id="polygon516" />
						<polygon
   points="312.6,461.6 312.2,463.6 312.2,463.7 312.5,461.7 "
   fill="#404040"
   id="polygon518" />
						<polygon
   points="317.9,460.1 317.6,462.1 312.2,463.6 312.6,461.6 "
   fill="#424242"
   id="polygon520" />
						<polygon
   points="318.2,460.1 317.9,462.1 317.8,462.1 318.2,460 "
   fill="#5a5a5a"
   id="polygon522" />
					<g
   enable-background="new    "
   id="g550">
						<defs
   id="defs525">
							<path
   id="de"
   d="m 307,458.8 0.3,-2 c 1,1.9 2.4,18.3 2.9,25.2 0,0.2 0.1,0.5 0.2,0.7 0.4,0.7 1.3,1.2 2.2,1.3 l -0.3,2 c -0.9,0 -1.8,-0.5 -2.2,-1.3 -0.1,-0.2 -0.2,-0.5 -0.2,-0.7 -0.5,-7 -1.9,-23.3 -2.9,-25.2 z"
   enable-background="new    " />
						</defs>
						<clipPath
   id="df">
							<use
   overflow="visible"
   xlink:href="#de"
   id="use527"
   x="0"
   y="0"
   width="100%"
   height="100%" />
						</clipPath>
						<g
   clip-path="url(#df)"
   enable-background="new    "
   id="g548">
							<path
   d="m 307,458.8 0.3,-2 c 0.8,1.5 1.8,12 2.5,19.7 l -0.3,2 c -0.7,-7.7 -1.7,-18.2 -2.5,-19.7"
   fill="#545454"
   id="path530" />
							<path
   d="m 309.5,478.5 0.3,-2 c 0.2,2.1 0.3,4 0.5,5.5 l -0.3,2 c -0.2,-1.5 -0.3,-3.4 -0.5,-5.5"
   fill="#525252"
   id="path532" />
							<path
   d="m 310,484 0.3,-2 c 0,0.2 0.1,0.5 0.2,0.7 0.1,0.2 0.2,0.4 0.4,0.5 l -0.3,2 c -0.1,-0.2 -0.3,-0.3 -0.4,-0.5 -0.2,-0.2 -0.2,-0.5 -0.2,-0.7"
   fill="#545454"
   id="path534" />
							<path
   d="m 310.5,485.2 0.3,-2 0.3,0.3 -0.3,2 -0.3,-0.3"
   fill="#525252"
   id="path536" />
							<path
   d="m 310.8,485.5 0.3,-2 c 0.1,0.1 0.2,0.1 0.3,0.2 l -0.3,2 c -0.1,-0.1 -0.2,-0.2 -0.3,-0.2"
   fill="#4f4f4f"
   id="path538" />
							<path
   d="m 311.1,485.6 0.3,-2 c 0.1,0 0.2,0.1 0.3,0.1 l -0.3,2 c -0.1,0 -0.2,0 -0.3,-0.1"
   fill="#4d4d4d"
   id="path540" />
							<path
   d="m 311.4,485.8 0.3,-2 c 0.1,0 0.2,0.1 0.3,0.1 l -0.3,2 c -0.1,-0.1 -0.2,-0.1 -0.3,-0.1"
   fill="#4a4a4a"
   id="path542" />
							<path
   d="m 311.7,485.8 0.3,-2 c 0.1,0 0.2,0.1 0.3,0.1 l -0.3,2 c -0.1,0 -0.2,0 -0.3,-0.1"
   fill="#484848"
   id="path544" />
							<path
   d="m 312,485.9 0.3,-2 h 0.4 l -0.3,2 H 312"
   fill="#454545"
   id="path546" />
						</g>
					</g>
						<polygon
   points="307.2,456.6 306.9,458.6 306.8,458.7 307.1,456.6 "
   fill="#414141"
   id="polygon552" />
						<polygon
   points="312.8,456.7 312.4,458.7 307,458.8 307.3,456.8 "
   fill="#685670"
   id="polygon554" />
						<polygon
   points="312.9,456.6 312.5,458.6 312.4,458.7 312.8,456.7 "
   fill="#5d4e65"
   id="polygon556" />
						<polygon
   points="312.7,456.5 312.4,458.5 306.9,458.6 307.2,456.6 "
   fill="#474747"
   id="polygon558" />
						<polygon
   points="312.9,456.6 312.5,458.6 312.5,458.2 312.8,456.2 "
   fill="#545454"
   id="polygon560" />
						<polygon
   points="317.9,460.1 317.6,462.1 312.5,458.2 312.8,456.2 "
   fill="#806a89"
   id="polygon562" />
						<path
   d="m 317.6,462.1 -5.4,1.5 -0.1,0.1 v 0.1 l 4.8,5.2 -5.2,1.3 h -0.1 v 0.1 l 4.8,4.2 -4.5,2.5 v 0.1 l 3.5,2.6 -2.8,2 1.9,1.6 -1.2,1.1 -0.7,1.4 h -0.4 c -0.9,0 -1.8,-0.5 -2.2,-1.3 -0.1,-0.2 -0.2,-0.5 -0.2,-0.7 -0.6,-6.9 -2,-23.3 -2.9,-25.2 l 5.4,-0.1 0.1,-0.1 v -0.4 z"
   fill="#a186ae"
   id="path564" />
						<polygon
   points="312.7,455.9 312.4,458 312.3,458 312.7,456 "
   fill="#404040"
   id="polygon566" />
						<path
   d="m 312.9,486.1 h -0.5 c -1,0 -1.9,-0.5 -2.4,-1.4 -0.1,-0.2 -0.2,-0.5 -0.2,-0.8 -0.4,-5.4 -1.9,-23.2 -2.9,-25.1 l -0.1,-0.1 v -0.1 h 0.1 l 5.5,-0.1 V 458 l 0.1,-0.1 h 0.1 l 5.4,4.1 v 0.1 l -5.4,1.6 4.8,5.2 v 0.1 l -5.2,1.4 4.8,4.2 -4.5,2.6 3.5,2.6 -2.8,2.2 1.9,1.5 -1.3,1.3 z m -0.6,-0.2 h 0.4 l 0.7,-1.3 1.3,-1.1 -1.9,-1.5 2.8,-2.1 -3.5,-2.6 v -0.1 l 4.6,-2.5 -4.8,-4.2 v -0.1 h 0.1 l 5.2,-1.3 -4.8,-5.2 v -0.1 l 0.1,-0.1 5.4,-1.5 -5.1,-3.9 v 0.4 l -0.1,0.1 -5.4,0.1 c 1,1.9 2.4,18.3 2.9,25.2 0,0.2 0.1,0.5 0.2,0.7 0.1,0.6 1,1.1 1.9,1.1"
   fill="#707070"
   id="path568" />
						<polygon
   points="312.8,455.9 312.5,458 312.4,458 312.7,455.9 "
   fill="#4b4b4b"
   id="polygon570" />
						<polygon
   points="318.2,460 317.8,462.1 312.5,458 312.8,455.9 "
   fill="#585858"
   id="polygon572" />
				</g>
	<path
   d="m 25.451942,75.7 -15,-0.3 c -1.1000004,0 -2.0000004,-0.8 -2.3000004,-1.9 -2,-8.3 -9.9,-42.1 -7.79999999,-46.6 C 2.7519416,21.7 6.5519416,15.4 10.251942,13 c 2.6,-1.7 3.2,-7.4 3.3,-10.7 0,-1.3 1.2,-2.3 2.5,-2.3 h 4.4 c 1.3,0 2.3,1.1 2.4,2.4 0.1,3.4 0.5,9.7 2.3,11.8 2.5,3.1 8.3,8.9 8.2,13.3 -0.1,3.8 -4.3,37.2 -5.4,46 -0.2,1.3 -1.2,2.2 -2.5,2.2 z"
   stroke="#808080"
   stroke-linejoin="round"
   stroke-miterlimit="10"
   stroke-width="0.1834"
   id="path576"
   style="stroke:none" />
			
			



				
				
	
<ellipse
   style="fill:#000000;fill-opacity:1;stroke:none;stroke-width:4.00565;stroke-linecap:round;stroke-linejoin:round;stroke-dashoffset:18.8976;stroke-opacity:1"
   id="path2768"
   cx="18.221754"
   cy="3.3555846"
   rx="3.9248273"
   ry="3.0799003" /></svg>
