<?xml version="1.0" encoding="UTF-8"?>
<!DOCTYPE svg  PUBLIC '-//W3C//DTD SVG 1.1//EN'  'http://www.w3.org/Graphics/SVG/1.1/DTD/svg11.dtd'>
<svg enable-background="new 0 0 841.9 595.3" version="1.1" viewBox="0 0 841.9 595.3" xml:space="preserve" xmlns="http://www.w3.org/2000/svg" xmlns:xlink="http://www.w3.org/1999/xlink">
<symbol viewBox="-15.7 -15.4 31.4 30.8">
	<polygon points="-7.2 -15.4 -7.2 -13.2 1.3 -13.2 1.3 -15.4" clip-rule="evenodd" fill-rule="evenodd"/>
	<polygon points="9.8 -6.2 9.8 -8.3 -15.7 -8.3 -15.7 -6.2" clip-rule="evenodd" fill-rule="evenodd"/>
	<polygon points="-7.2 -1.2 -7.2 0.9 1.3 0.9 1.3 -1.2" clip-rule="evenodd" fill-rule="evenodd"/>
	<polygon points="9.8 8 9.8 5.8 -15.7 5.8 -15.7 8" clip-rule="evenodd" fill-rule="evenodd"/>
		<path d="M15.7,11.1h-2.8V8.2h-1.5v2.9H8.6v1.4h2.8v2.9h1.5v-2.9h2.8V11.1z" fill="#EC1E24"/>
</symbol>
<symbol clip-rule="evenodd" fill-rule="evenodd" stroke="#000" stroke-linecap="square" stroke-miterlimit="10" stroke-width=".7193" viewBox="-7.6 -4.6 15.2 9.1">
		<polygon points="-7.2 1.3 -7.2 4.2 7.2 4.2 7.2 1.3"/>
		<polygon points="-7.2 -4.2 -7.2 -1.4 7.2 -1.4 7.2 -4.2"/>
</symbol>
<symbol clip-rule="evenodd" fill-rule="evenodd" stroke="#000" stroke-linecap="square" stroke-miterlimit="10" stroke-width=".7193" viewBox="-8.6 -5.3 17.1 10.5">
		<polygon points="8.2 -4.9 8.2 -1.6 -8.2 -1.6 -8.2 -4.9"/>
		<polygon points="8.2 1.6 8.2 4.9 -8.2 4.9 -8.2 1.6" fill="#fff"/>
</symbol>
<symbol id="cc" viewBox="-3 -3 5.9 5.9">
		<path d="   M2.4,0c0-1.3-1.1-2.4-2.4-2.4S-2.4-1.3-2.4,0S-1.3,2.4,0,2.4S2.4,1.3,2.4,0z" clip-rule="evenodd" fill-rule="evenodd" stroke="#000" stroke-linecap="square" stroke-miterlimit="10" stroke-width="1.1988"/>
</symbol>
<symbol viewBox="-3 -3 5.9 5.9">
		<path d="   M2.4,0c0-1.3-1.1-2.4-2.4-2.4S-2.4-1.3-2.4,0S-1.3,2.4,0,2.4S2.4,1.3,2.4,0z" clip-rule="evenodd" fill="#231F20" fill-rule="evenodd" stroke="#231F20" stroke-linecap="square" stroke-miterlimit="10" stroke-width="1.1988"/>
</symbol>
<symbol viewBox="-3 -3 5.9 5.9">
		<path d="   M2.4,0c0-1.3-1.1-2.4-2.4-2.4S-2.4-1.3-2.4,0S-1.3,2.4,0,2.4S2.4,1.3,2.4,0z" clip-rule="evenodd" fill="#221F1F" fill-rule="evenodd" stroke="#221F1F" stroke-linecap="square" stroke-miterlimit="10" stroke-width="1.1988"/>
</symbol>
<symbol viewBox="-7.9 -7.9 15.7 15.7">
	<g clip-rule="evenodd" fill-rule="evenodd" stroke="#000" stroke-linecap="square" stroke-miterlimit="10" stroke-width="1.1988">
			<polygon points="-7.3 -6.9 -7.3 6.9 6.5 0.1"/>
			<polygon points="6.3 7 7.2 7 7.2 -7 6.3 -7"/>
	</g>
</symbol>
<symbol viewBox="-9.1 -4.1 18.2 8.3">
	<g fill="none" stroke="#000" stroke-linecap="square" stroke-miterlimit="10" stroke-width="1.1988">
			<line x1="8.5" x2="-8.5" y1="3.5" y2="3.5"/>
			<line x1="-4.9" x2="5" y1=".1" y2=".1"/>
			<line x1="-1.3" x2="1.4" y1="-3.5" y2="-3.5"/>
	</g>
</symbol>
<symbol viewBox="-14 -5.5 28.1 11.1">
	<g fill="none" stroke="#231F20" stroke-linecap="round">
		<path d="m-13.5-0.7c0 3.2 2 5.8 4.5 5.8s4.5-2.6 4.5-5.8c0-1.8-0.5-3.3-1.5-4.3"/>
		<path d="m-6-5c-1 1-1.5 2.6-1.5 4.3 0 3.2 2 5.7 4.5 5.7s4.5-2.6 4.5-5.8c0-1.6-0.6-3.1-1.5-4.2"/>
		<path d="M0-5C-1-4-1.5-2.4-1.5-0.7C-1.5,2.5,0.6,5,3,5    c2.5,0,4.5-2.6,4.5-5.8C7.5-2.4,7-3.9,6.1-5"/>
		<path d="M6-5C5.1-3.9,4.5-2.4,4.5-0.7C4.5,2.5,6.6,5,9,5    c2.5,0,4.5-2.6,4.5-5.8"/>
	</g>
</symbol>
<symbol viewBox="-3.7 -3.7 7.4 7.4">
		<path d="m3.1 0c0-1.7-1.4-3.1-3.1-3.1s-3.1 1.4-3.1 3.1 1.4 3.1 3.1 3.1 3.1-1.4 3.1-3.1z" clip-rule="evenodd" fill="#fff" fill-rule="evenodd" stroke="#000" stroke-linecap="square" stroke-miterlimit="10" stroke-width="1.1988"/>
</symbol>
<symbol viewBox="-3.7 -3.7 7.4 7.4">
		<path d="m3.1 0c0-1.7-1.4-3.1-3.1-3.1s-3.1 1.4-3.1 3.1 1.4 3.1 3.1 3.1 3.1-1.4 3.1-3.1z" clip-rule="evenodd" fill="#fff" fill-rule="evenodd" stroke="#231F20" stroke-linecap="square" stroke-miterlimit="10" stroke-width="1.1988"/>
</symbol>
<symbol id="cd" viewBox="-4.3 -11 8.5 22.1">
	<polygon points="0.4 -11 -0.4 -8.9 4.3 -6.5 -0.5 -3.8 4.3 -1.3 -0.5 1.2 4.3 3.8 -0.5 6.4 4.3 8.9 0.4 11 -0.4 11 0.5 8.9 -4.3 6.4 0.5 3.8 -4.3 1.2 0.5 -1.3 -4.3 -3.8 0.5 -6.5 -4.3 -8.9 -0.4 -11" clip-rule="evenodd" fill-rule="evenodd"/>
</symbol>
<symbol viewBox="-10.2 -15.3 20.4 30.7">
			<use transform="translate(5.9482 -4.29)" x="-4.3" y="-11" width="8.5" height="22.1" overflow="visible" xlink:href="#cd"/>
		<line x1="-9.7" x2="-9.7" y1="12.8" y2="-3" fill="none" stroke="#000" stroke-linecap="round" stroke-linejoin="round"/>
		<line x1="-3.7" x2="-9.7" y1="-3" y2="-3" fill="none" stroke="#000" stroke-linecap="round" stroke-linejoin="round"/>
		<line x1="5.6" x2="-9.7" y1="12.8" y2="12.8" fill="none" stroke="#000" stroke-linecap="round" stroke-linejoin="round"/>
			<use transform="matrix(.8293 0 0 .8293 5.9121 12.89)" x="-3" y="-3" width="5.9" height="5.9" overflow="visible" xlink:href="#cc"/>
		<polygon points="-4.1 -1.2 1.7 -3.1 -4.1 -4.9" clip-rule="evenodd" fill-rule="evenodd"/>
</symbol>
				<g enable-background="new    ">
					<g enable-background="new    ">
						<defs>
							<path id="cp" d="m528.8 148.1l-1.5-0.8c0.3-0.3 0.4-0.7 0.3-1l1.5 0.8c0.1 0.3 0 0.7-0.3 1z" enable-background="new    "/>
						</defs>
						<clipPath id="da">
							<use overflow="visible" xlink:href="#cp"/>
						</clipPath>
						<g clip-path="url(#da)" enable-background="new    ">
							<path d="m528.8 148.1l-1.5-0.8 0.1-0.1 1.5 0.8c0 0.1-0.1 0.1-0.1 0.1" fill="#4A4A4A"/>
							<path d="m528.9 148l-1.5-0.8c0-0.1 0.1-0.1 0.1-0.2l1.5 0.8c0 0.1-0.1 0.2-0.1 0.2" fill="#484848"/>
							<path d="m529 147.9l-1.5-0.8c0-0.1 0.1-0.1 0.1-0.2l1.5 0.8c-0.1 0.1-0.1 0.1-0.1 0.2" fill="#454545"/>
							<path d="m529.1 147.7l-1.5-0.8c0.1-0.2 0.1-0.4 0-0.6l1.5 0.8c0.1 0.2 0 0.4 0 0.6" fill="#434343"/>
						</g>
					</g>
						<polygon points="529.1 147.2 527.5 146.3 527 145.3 528.5 146.1" fill="#404040"/>
						<polygon points="527.6 147.1 526.1 146.2 527 145.3 528.5 146.1" fill="#786481"/>
					<g enable-background="new    ">
						<defs>
							<path id="bi" d="m510.8 168.9l-1.5-0.8c1-1.2 15.2-17.4 18-20.8l1.5 0.8c-2.8 3.4-17 19.7-18 20.8z" enable-background="new    "/>
						</defs>
						<clipPath id="bt">
							<use overflow="visible" xlink:href="#bi"/>
						</clipPath>
						<g clip-path="url(#bt)" enable-background="new    ">
							<path d="m510.8 168.9l-1.5-0.8c1-1.2 15.2-17.4 18-20.8l1.5 0.8c-2.8 3.4-17 19.7-18 20.8" fill="#4A4A4A"/>
						</g>
					</g>
						<polygon points="527.1 148.6 525.6 147.8 526.1 146.2 527.6 147.1" fill="#675670"/>
						<polygon points="527.1 148.5 525.6 147.7 526 146.2 527.5 147" fill="#464646"/>
						<polygon points="527.5 147 526 146.2 527 145.1 528.5 146" fill="#535353"/>
						<polygon points="524.6 151.4 523.1 150.6 523.8 147.4 525.3 148.2" fill="#64536C"/>
						<polygon points="525.3 148.2 523.8 147.4 525.6 147.8 527.1 148.6" fill="#7C6785"/>
						<polygon points="525.2 148.1 523.7 147.3 525.6 147.7 527.1 148.5" fill="#565656"/>
						<polygon points="524.6 151.3 523.1 150.4 523.7 147.3 525.2 148.1" fill="#444"/>
						<polygon points="521.4 150.5 519.9 149.7 523.1 150.6 524.6 151.4" fill="#7B6683"/>
						<polygon points="521 155.1 519.4 154.3 519.9 149.7 521.4 150.5" fill="#615169"/>
						<polygon points="521 155 519.4 154.2 519.8 149.6 521.3 150.4" fill="#424242"/>
						<polygon points="521.3 150.4 519.8 149.6 523.1 150.4 524.6 151.3" fill="#555"/>
						<polygon points="516.8 158.7 515.3 157.9 514.6 153.5 516.1 154.3" fill="#5D4E65"/>
						<polygon points="516.1 154.3 514.6 153.5 519.4 154.3 521 155.1" fill="#7E6987"/>
						<polygon points="516.7 158.6 515.2 157.8 514.4 153.4 516 154.2" fill="#404040"/>
						<polygon points="516 154.2 514.4 153.4 519.4 154.2 521 155" fill="#575757"/>
						<polygon points="511.1 158.4 509.6 157.6 515.3 157.9 516.8 158.7" fill="#806B8A"/>
						<polygon points="511.7 163.1 510.2 162.3 509.6 157.6 511.1 158.4" fill="#5D4E65"/>
						<polygon points="511 158.4 509.5 157.5 515.2 157.8 516.7 158.6" fill="#595959"/>
						<polygon points="511.7 163 510.1 162.1 509.5 157.5 511 158.4" fill="#404040"/>
						<polygon points="507.5 162 506 161.2 510.2 162.3 511.7 163.1" fill="#7B6784"/>
						<path d="m528.5 146.1l0.6 1.1c0.1 0.3 0 0.6-0.3 1-2.8 3.4-17 19.6-18 20.8l-3.3-6.9 4.2 1.1-0.6-4.7 5.7 0.3-0.7-4.4 4.9 0.8 0.4-4.6 3.2 0.9 0.7-3.2 1.8 0.4 0.5-1.6 0.9-1z" fill="#A186AE"/>
						<polygon points="510.8 168.9 509.3 168.1 506 161.2 507.5 162" fill="#5D4E65"/>
						<polygon points="507.5 161.9 505.9 161 510.1 162.1 511.7 163" fill="#555"/>
						<path d="m529.2 147.1c0.2 0.3 0 0.7-0.3 1.1-2.9 3.5-17.9 20.7-18 20.9l-3.5-7.1 0.1-0.1 4.2 1.1-0.7-4.6 5.7 0.2-0.8-4.4 5 0.8 0.4-4.6 3.3 0.8 0.6-3.1 1.9 0.4 0.4-1.5 1-1.1 0.7 1.2zm-0.4 1c0.3-0.3 0.4-0.7 0.3-1l-0.6-1.1-0.9 1-0.4 1.5-1.9-0.4-0.6 3.1-3.3-0.8-0.4 4.6-5-0.8 0.8 4.4-5.7-0.2 0.7 4.6-4.3-1 3.3 6.9c1-1.1 15.2-17.4 18-20.8" fill="#707070"/>
						<polygon points="507.4 162 505.8 161.1 505.9 161 507.5 161.9" fill="#505050"/>
						<polygon points="510.8 169.1 509.3 168.2 505.8 161.1 507.4 162" fill="#404040"/>
				</g>
				<g enable-background="new    ">
						<polygon points="524.3 144.6 522.7 143.8 523 142.3 524.5 143.1" fill="#444"/>
						<polygon points="524.5 143.1 523 142.3 523.7 140.9 525.2 141.8" fill="#4B4B4B"/>
						<polygon points="525.2 141.8 523.7 140.9 523.5 140.7 525 141.5" fill="#404040"/>
					<g enable-background="new    ">
						<defs>
							<path id="bz" d="m523 140.3l1.5 0.8c0.2 0.1 0.4 0.3 0.5 0.4l-1.5-0.8c-0.1-0.2-0.3-0.3-0.5-0.4z" enable-background="new    "/>
						</defs>
						<clipPath id="ca">
							<use overflow="visible" xlink:href="#bz"/>
						</clipPath>
						<g clip-path="url(#ca)" enable-background="new    ">
							<path d="m525 141.5l-1.5-0.8c-0.1-0.2-0.3-0.3-0.5-0.4l1.5 0.8c0.2 0.1 0.4 0.2 0.5 0.4" fill="#434343"/>
						</g>
					</g>
						<polygon points="522.1 147.6 520.6 146.8 520.8 143.7 522.3 144.5" fill="#424242"/>
						<polygon points="522.3 144.5 520.8 143.7 522.7 143.8 524.3 144.6" fill="#595959"/>
					<g enable-background="new    ">
						<defs>
							<path id="cb" d="m522.1 140.1c0.3 0 0.7 0 0.9 0.2l1.5 0.8c-0.3-0.2-0.6-0.2-0.9-0.2-0.5-0.2-1.1-0.6-1.5-0.8z" enable-background="new    "/>
						</defs>
						<clipPath id="cg">
							<use overflow="visible" xlink:href="#cb"/>
						</clipPath>
						<g clip-path="url(#cg)" enable-background="new    ">
							<path d="m523.6 140.9l-1.5-0.8h0.6l1.5 0.8h-0.6" fill="#7B6684"/>
							<path d="m524.2 141l-1.5-0.8c0.1 0 0.2 0.1 0.3 0.1l1.5 0.8c-0.1-0.1-0.2-0.1-0.3-0.1" fill="#776380"/>
							<path d="m524.5 141.1l-1.5-0.8h0.1l1.4 0.8" fill="#73607D"/>
						</g>
					</g>
					<g enable-background="new    ">
						<defs>
							<path id="dh" d="m521.3 140.4c0.2-0.2 0.5-0.3 0.8-0.3l1.5 0.8c-0.3 0-0.5 0.1-0.8 0.3-0.5-0.2-1-0.5-1.5-0.8z" enable-background="new    "/>
						</defs>
						<clipPath id="ce">
							<use overflow="visible" xlink:href="#dh"/>
						</clipPath>
						<g clip-path="url(#ce)" enable-background="new    ">
							<path d="m522.8 141.2l-1.5-0.8c0.1-0.1 0.2-0.1 0.3-0.2l1.5 0.8c-0.1 0.1-0.2 0.2-0.3 0.2" fill="#776380"/>
							<path d="m523.1 141.1l-1.5-0.8c0.2-0.1 0.3-0.1 0.5-0.2l1.5 0.8c-0.2 0.1-0.4 0.1-0.5 0.2" fill="#7B6684"/>
						</g>
					</g>
					<g enable-background="new    ">
						<defs>
							<path id="cf" d="m521.1 140.5c0.1 0 0.1-0.1 0.2-0.1 0.5 0.3 1 0.6 1.5 0.8-0.1 0-0.1 0.1-0.2 0.1-0.5-0.2-1-0.5-1.5-0.8z" enable-background="new    "/>
						</defs>
						<clipPath id="ch">
							<use overflow="visible" xlink:href="#cf"/>
						</clipPath>
						<g clip-path="url(#ch)" enable-background="new    ">
							<path d="m504.8 156l-1.5-0.8c3.6-2.5 13.3-10.7 17.9-14.6 0.1 0 0.1-0.1 0.2-0.1l1.5 0.8c-0.1 0-0.1 0.1-0.2 0.1-4.6 3.8-14.4 12.1-17.9 14.6" fill="#73607D"/>
							<path d="m522.8 141.2l-1.5-0.8c0.1-0.1 0.2-0.1 0.3-0.2l1.5 0.8c-0.1 0.1-0.2 0.2-0.3 0.2" fill="#776380"/>
						</g>
					</g>
						<polygon points="518.9 151.8 517.3 151 517.2 146.5 518.7 147.3" fill="#414141"/>
						<polygon points="518.7 147.3 517.2 146.4 520.6 146.8 522.1 147.6" fill="#585858"/>
						<polygon points="518.7 147.3 517.2 146.5 517.2 146.4" fill="#484848"/>
					<g enable-background="new    ">
						<defs>
							<path id="ci" d="m516.1 144.8c1.9-1.6 3.7-3.1 5-4.2 0.5 0.3 1 0.6 1.5 0.8-1.3 1.1-3.1 2.6-5 4.2-0.5-0.3-1-0.5-1.5-0.8z" enable-background="new    "/>
						</defs>
						<clipPath id="cj">
							<use overflow="visible" xlink:href="#ci"/>
						</clipPath>
						<g clip-path="url(#cj)" enable-background="new    ">
							<path d="m504.8 156l-1.5-0.8c3.6-2.5 13.3-10.7 17.9-14.6 0.1 0 0.1-0.1 0.2-0.1l1.5 0.8c-0.1 0-0.1 0.1-0.2 0.1-4.6 3.8-14.4 12.1-17.9 14.6" fill="#73607D"/>
						</g>
					</g>
					<g enable-background="new    ">
						<defs>
							<path id="ck" d="m516 144.9c0.6 0.2 1.1 0.5 1.6 0.8l-0.1 0.1c-0.5-0.4-1-0.7-1.5-0.9z" enable-background="new    "/>
						</defs>
						<clipPath id="cl">
							<use overflow="visible" xlink:href="#ck"/>
						</clipPath>
						<g clip-path="url(#cl)" enable-background="new    ">
							<path d="m504.8 156l-1.5-0.8c3.6-2.5 13.3-10.7 17.9-14.6 0.1 0 0.1-0.1 0.2-0.1l1.5 0.8c-0.1 0-0.1 0.1-0.2 0.1-4.6 3.8-14.4 12.1-17.9 14.6" fill="#73607D"/>
						</g>
					</g>
						<polygon points="513.8 151.7 512.3 150.9 517.3 151 518.9 151.8" fill="#595959"/>
						<polygon points="515.1 156 513.5 155.1 512.2 151 513.8 151.8" fill="#404040"/>
						<polygon points="513.8 151.8 512.2 150.9 512.3 150.9 513.8 151.7" fill="#595959"/>
						<polygon points="513.8 151.8 512.2 151 512.2 150.9" fill="#434343"/>
						<polygon points="509.3 156.5 507.8 155.6 513.5 155.1 515.1 156" fill="#5A5A5A"/>
						<polygon points="510.5 160.9 509 160.1 507.7 155.8 509.3 156.6" fill="#404040"/>
						<polygon points="509.3 156.6 507.7 155.8 507.7 155.7 509.3 156.5" fill="#454545"/>
						<polygon points="509.3 156.5 507.7 155.7 507.8 155.6" fill="#585858"/>
						<polygon points="505.6 160.4 504 159.6 509 160.1 510.5 160.9" fill="#585858"/>
						<polygon points="505.9 160.2 504.3 159.3 504.3 159.2 505.9 160.1" fill="#63526B"/>
						<polygon points="505.6 160.4 504 159.6 504.3 159.3 505.9 160.2" fill="#7B6784"/>
						<polygon points="505.4 160.6 503.9 159.7 503.8 159.7 505.3 160.5" fill="#404040"/>
						<polygon points="505.4 160.5 503.8 159.6 504.2 159.3 505.7 160.1" fill="#555"/>
						<polygon points="505.3 160.5 503.8 159.7 503.8 159.6 505.4 160.5" fill="#474747"/>
					<g enable-background="new    ">
						<defs>
							<path id="cm" d="m516 144.9c0.5 0.3 1 0.6 1.5 0.8-4.1 3.4-8.8 7.3-11.6 9.5-0.5-0.3-1-0.6-1.5-0.8 2.8-2.2 7.5-6.1 11.6-9.5z" enable-background="new    "/>
						</defs>
						<clipPath id="cn">
							<use overflow="visible" xlink:href="#cm"/>
						</clipPath>
						<g clip-path="url(#cn)" enable-background="new    ">
							<path d="m504.8 156l-1.5-0.8c3.6-2.5 13.3-10.7 17.9-14.6 0.1 0 0.1-0.1 0.2-0.1l1.5 0.8c-0.1 0-0.1 0.1-0.2 0.1-4.6 3.8-14.4 12.1-17.9 14.6" fill="#73607D"/>
						</g>
					</g>
					<g enable-background="new    ">
						<defs>
							<path id="co" d="m504.3 154.3c0.5 0.3 1 0.6 1.5 0.8-0.7 0.6-1.3 1-1.8 1.2-0.5-0.3-1-0.6-1.5-0.8 0.5-0.2 1.1-0.6 1.8-1.2z" enable-background="new    "/>
						</defs>
						<clipPath id="cq">
							<use overflow="visible" xlink:href="#co"/>
						</clipPath>
						<g clip-path="url(#cq)" enable-background="new    ">
							<path d="m503.7 156.6l-1.5-0.8c0.2-0.1 0.6-0.3 1-0.6l1.5 0.8c-0.4 0.3-0.7 0.5-1 0.6" fill="#776380"/>
							<path d="m504.8 156l-1.5-0.8c3.6-2.5 13.3-10.7 17.9-14.6 0.1 0 0.1-0.1 0.2-0.1l1.5 0.8c-0.1 0-0.1 0.1-0.2 0.1-4.6 3.8-14.4 12.1-17.9 14.6" fill="#73607D"/>
						</g>
					</g>
					<g enable-background="new    ">
						<defs>
							<path id="cr" d="m502.1 155.8c0.1 0 0.3-0.1 0.5-0.3 0.5 0.3 1 0.6 1.5 0.8-0.2 0.1-0.4 0.2-0.5 0.3-0.5-0.2-1.1-0.5-1.5-0.8z" enable-background="new    "/>
						</defs>
						<clipPath id="cs">
							<use overflow="visible" xlink:href="#cr"/>
						</clipPath>
						<g clip-path="url(#cs)" enable-background="new    ">
							<path d="m503.6 156.7l-1.5-0.8s0.1 0 0.1-0.1l1.5 0.8s-0.1 0-0.1 0.1" fill="#7B6684"/>
							<path d="m503.7 156.6l-1.5-0.8c0.2-0.1 0.6-0.3 1-0.6l1.5 0.8c-0.4 0.3-0.7 0.5-1 0.6" fill="#776380"/>
						</g>
					</g>
						<polygon points="505.9 160.1 504.3 159.2 502.1 155.8 503.6 156.7" fill="#5D4E65"/>
						<path d="m525.1 141.4l0.2 0.3v0.1l-0.7 1.3-0.3 1.6-2-0.1-0.2 3.1v0.1l-3.4-0.4 0.2 4.5h-5.1l1.3 4.1v0.1l-5.8 0.6 1.2 4.4v0.1l-5.3-0.5v-0.1l0.4-0.3-2.3-3.4v-0.1l0.1-0.1c1.3-0.2 14.9-11.7 19-15.3 0.3-0.3 0.7-0.4 1-0.5 0.8-0.2 1.4 0 1.7 0.5zm-0.6 1.7l0.7-1.3-0.2-0.2c-0.3-0.5-0.9-0.7-1.4-0.6-0.3 0-0.7 0.2-1 0.4-5.2 4.4-17.3 14.7-19 15.3l2.3 3.4v0.1l-0.3 0.3 4.9 0.5-1.2-4.4v-0.1h0.1l5.7-0.5-1.3-4.1v-0.1h0.1l5 0.1-0.2-4.5v-0.1l3.4 0.4 0.2-3.1 2 0.1 0.2-1.6" fill="#707070"/>
						<path d="m523.6 140.9c0.6-0.1 1.1 0.1 1.4 0.6l0.2 0.2-0.7 1.3-0.3 1.5-1.9-0.2-0.3 3.2-3.3-0.4-0.1 0.1 0.2 4.5-5-0.1h-0.1v0.1l1.3 4.1-5.7 0.5h-0.1v0.1l1.2 4.4-4.9-0.5 0.3-0.3v-0.1l-2.3-3.4c1.7-0.6 13.8-10.8 19-15.3 0.4-0.1 0.7-0.2 1.1-0.3z" fill="#A186AE"/>
						<polygon points="505.7 160.1 504.2 159.3 501.9 155.9 503.4 156.7" fill="#404040"/>
					<g enable-background="new    ">
						<defs>
							<path id="ct" d="m523.1 140.1l1.5 0.8c-0.3-0.2-0.7-0.2-1-0.2-0.4 0.1-0.7 0.2-1 0.5-4.1 3.5-17.7 15-19 15.3l-1.5-0.8c1.3-0.2 14.9-11.7 19-15.3 0.3-0.3 0.7-0.4 1-0.5 0.3 0 0.7 0.1 1 0.2z" enable-background="new    "/>
						</defs>
						<clipPath id="cu">
							<use overflow="visible" xlink:href="#ct"/>
						</clipPath>
						<g clip-path="url(#cu)" enable-background="new    ">
							<path d="m503.5 156.5l-1.5-0.8s0.1 0 0.2-0.1l1.5 0.8c-0.1 0.1-0.1 0.1-0.2 0.1" fill="#545454"/>
							<path d="m503.7 156.5l-1.5-0.8c0.2-0.1 0.5-0.3 1-0.6l1.5 0.8c-0.4 0.3-0.8 0.5-1 0.6" fill="#525252"/>
							<path d="m504.7 155.9l-1.5-0.8c3.7-2.6 14.3-11.6 17.9-14.6 0.1 0 0.1-0.1 0.2-0.1l1.5 0.8c-0.1 0-0.1 0.1-0.2 0.1-3.6 3-14.3 12-17.9 14.6" fill="#4F4F4F"/>
							<path d="m522.7 141.1l-1.5-0.8c0.1-0.1 0.2-0.1 0.3-0.2l1.5 0.8c-0.1 0.1-0.2 0.2-0.3 0.2" fill="#525252"/>
							<path d="m523 141l-1.5-0.8c0.2-0.1 0.4-0.1 0.6-0.2h0.7l1.5 0.8c-0.2-0.1-0.4-0.1-0.7 0-0.2 0-0.4 0.1-0.6 0.2" fill="#545454"/>
							<path d="m524.3 140.8l-1.5-0.8c0.1 0 0.2 0.1 0.3 0.1l1.5 0.8c-0.1 0-0.2-0.1-0.3-0.1" fill="#525252"/>
							<path d="m524.6 140.9l-1.5-0.8h0.1l1.4 0.8" fill="#4F4F4F"/>
						</g>
					</g>
						<polygon points="503.4 156.7 501.9 155.9 501.9 155.8 503.4 156.6" fill="#414141"/>
						<polygon points="503.4 156.6 501.9 155.8 502 155.7 503.5 156.5" fill="#575757"/>
				</g>
	<path d="m515.4 162.2l-9.3-8.5c-0.7-0.7-1.8-0.7-2.6-0.2-6.2 4-30.8 20.1-32.2 24.2-1.6 4.6-2.3 11.3-1.5 14.9 0.6 2.5-2.4 6.4-4.2 8.5-0.8 0.9-0.7 2.2 0.2 3l1.4 1.3c0.8 0.8 2.1 0.7 2.9-0.1 2.1-2.1 6-5.6 8.3-5.9 3.3-0.4 11.1 0.1 13.6-2.7 2.2-2.4 19.1-25.4 23.7-31.6 0.7-0.9 0.5-2.1-0.3-2.9z" stroke="#808080" stroke-linejoin="round" stroke-miterlimit="10" stroke-width=".1564"/>
				<g enable-background="new    ">
						<polygon points="318.9 486.6 319.2 484.6 320.8 484.4 320.5 486.4" fill="#454545"/>
					<g enable-background="new    ">
						<defs>
							<path id="cv" d="m321.5 483.6l-0.3 2c-0.1 0.4-0.3 0.8-0.7 0.8l0.3-2c0.3 0 0.6-0.3 0.7-0.8z" enable-background="new    "/>
						</defs>
						<clipPath id="cw">
							<use overflow="visible" xlink:href="#cv"/>
						</clipPath>
						<g clip-path="url(#cw)" enable-background="new    ">
							<path d="m320.5 486.4l0.3-2c0.4 0 0.6-0.3 0.7-0.8l-0.3 2c-0.1 0.5-0.4 0.8-0.7 0.8" fill="#434343"/>
						</g>
					</g>
					<g enable-background="new    ">
						<defs>
							<path id="cx" d="m324.5 458l0.3-2c-0.2 1.5-2.7 23.2-3.4 27.6l-0.3 2c0.7-4.4 3.3-26 3.4-27.6z" enable-background="new    "/>
						</defs>
						<clipPath id="cy">
							<use overflow="visible" xlink:href="#cx"/>
						</clipPath>
						<g clip-path="url(#cy)" enable-background="new    ">
							<path d="m324.5 458l0.3-2c-0.2 1.5-2.7 23.2-3.4 27.6l-0.3 2c0.7-4.4 3.3-26 3.4-27.6" fill="#73607D"/>
						</g>
					</g>
					<g enable-background="new    ">
						<defs>
							<path id="cz" d="m321.5 483.6l-0.3 2 0.3-2z" enable-background="new    "/>
						</defs>
						<clipPath id="db">
							<use overflow="visible" xlink:href="#cz"/>
						</clipPath>
						<g clip-path="url(#db)" enable-background="new    ">
							<path d="m321.2 485.6l0.3-2-0.3 2" fill="#73607D"/>
						</g>
					</g>
						<polygon points="319 485.3 319.3 483.3 319.2 484.6 318.9 486.6" fill="#515151"/>
						<polygon points="319 485.3 319.3 483.3 320.4 482 320.1 484" fill="#5D4E65"/>
						<polygon points="318.9 485.3 319.2 483.2 320.3 481.9 319.9 484" fill="#404040"/>
						<polygon points="318 482.6 318.3 480.6 320.4 481.9 320.1 483.9" fill="#565656"/>
						<polygon points="318 482.6 318.3 480.6 320.8 478.2 320.4 480.3" fill="#5D4E65"/>
						<polygon points="317.8 482.7 318.1 480.6 320.6 478.2 320.3 480.2" fill="#404040"/>
						<polygon points="316.6 478 316.9 475.9 320.7 478.1 320.4 480.2" fill="#555"/>
						<polygon points="316.6 478 316.9 475.9 321 472.9 320.7 475" fill="#5D4E65"/>
						<polygon points="316.4 478 316.7 476 320.8 472.9 320.5 474.9" fill="#404040"/>
						<polygon points="315.3 471.2 315.6 469.2 321 472.8 320.6 474.9" fill="#575757"/>
						<polygon points="315.3 471.2 315.6 469.2 320.5 467.2 320.2 469.3" fill="#5E4F66"/>
						<polygon points="315.1 471.2 315.4 469.2 320.4 467.1 320 469.2" fill="#414141"/>
						<polygon points="314.6 464.5 315 462.5 320.5 467.1 320.2 469.2" fill="#585858"/>
						<polygon points="314.6 464.5 315 462.5 320 460.3 319.7 462.4" fill="#5E4E66"/>
						<polygon points="314.5 464.6 314.8 462.5 319.9 460.3 319.5 462.3" fill="#414141"/>
						<polygon points="314.8 459.4 315.1 457.3 320.1 460.2 319.7 462.3" fill="#565656"/>
						<polygon points="314.8 459.4 315.1 457.3 324.9 456 324.5 458" fill="#64536C"/>
						<path d="m321.3 485.7c-0.1 0.5-0.4 0.9-0.8 0.9l-1.6 0.2v-1.5l1.1-1.3-2.1-1.3 2.5-2.5-3.8-2.2 4.1-3.1-5.4-3.7 4.9-2-5.6-4.6 5.1-2.3-5-2.9 10-1.5c0 0.3-2.7 23.2-3.4 27.8zm-0.8 0.7c0.4 0 0.6-0.4 0.7-0.8 0.7-4.4 3.2-26.1 3.4-27.6l-9.8 1.3 4.9 2.9-5.1 2.3 5.6 4.6-4.9 2 5.4 3.7-4.1 3.1 3.8 2.2-2.5 2.5 2.1 1.3-1.1 1.4-0.1 1.3 1.7-0.2" fill="#707070"/>
						<path d="m324.5 458c-0.2 1.5-2.7 23.2-3.4 27.6-0.1 0.4-0.3 0.8-0.7 0.8l-1.5 0.2 0.1-1.3 1.1-1.3-2.1-1.4 2.5-2.4-3.9-2.3 4.1-3-5.4-3.8 4.9-1.9-5.6-4.7 5.1-2.2-4.9-3 9.7-1.3z" fill="#A186AE"/>
						<polygon points="314.6 459.4 314.9 457.3 324.9 455.9 324.6 457.9" fill="#454545"/>
					<g enable-background="new    ">
						<defs>
							<path id="dc" d="m324.6 457.9l0.3-2c0.1 0.3-2.6 23.2-3.3 27.8l-0.3 2c0.7-4.6 3.4-27.5 3.3-27.8z" enable-background="new    "/>
						</defs>
						<clipPath id="dd">
							<use overflow="visible" xlink:href="#dc"/>
						</clipPath>
						<g clip-path="url(#dd)" enable-background="new    ">
							<path d="m324.6 457.9l0.3-2-0.3 2" fill="#545454"/>
							<path d="m324.6 457.9l0.3-2c0 0.5-0.6 5.3-1.2 10.9l-0.3 2c0.7-5.6 1.2-10.4 1.2-10.9" fill="#525252"/>
							<path d="m323.4 468.8l0.3-2c-0.8 6.7-1.7 14.4-2.1 16.9l-0.3 2c0.4-2.5 1.3-10.2 2.1-16.9" fill="#4F4F4F"/>
						</g>
					</g>
				</g>
				<g enable-background="new    ">
						<polygon points="312.3 485.9 312.7 483.9 313.1 483.9 312.7 486" fill="#484848"/>
						<polygon points="312.7 486 313.1 483.9 313.7 482.6 313.4 484.6" fill="#404040"/>
						<polygon points="313.4 484.6 313.7 482.6 315 481.5 314.6 483.5" fill="#404040"/>
						<polygon points="312.7 481.9 313.1 479.8 315 481.5 314.6 483.5" fill="#806B8A"/>
						<polygon points="312.9 481.9 313.2 479.9 315.2 481.4 314.8 483.4" fill="#585858"/>
						<polygon points="312.7 482 313.1 479.9 315.9 477.8 315.5 479.8" fill="#404040"/>
						<polygon points="312.1 477.2 312.4 475.2 315.9 477.8 315.5 479.8" fill="#7F6A89"/>
						<polygon points="312.3 477.2 312.6 475.2 316.1 477.7 315.7 479.8" fill="#585858"/>
						<polygon points="312.1 477.1 312.4 475.1 312.4 475.2 312.1 477.2" fill="#776380"/>
						<polygon points="312 477.2 312.4 475.1 316.9 472.6 316.6 474.6" fill="#404040"/>
						<polygon points="311.8 470.4 312.1 468.4 316.9 472.6 316.6 474.6" fill="#806C8B"/>
						<polygon points="312 470.4 312.3 468.4 317.1 472.6 316.8 474.6" fill="#595959"/>
						<polygon points="311.8 470.3 312.1 468.3 312.1 468.4 311.8 470.4" fill="#816C8C"/>
						<polygon points="311.8 470.3 312.1 468.3 312.1 468.2" fill="#404040"/>
						<polygon points="311.8 470.3 312.1 468.2 317.4 466.9 317 468.9" fill="#434343"/>
						<polygon points="317.2 468.9 317.6 466.9 317.6 467 317.3 469" fill="#585858"/>
						<polygon points="312.2 463.8 312.5 461.7 317.4 466.9 317 468.9" fill="#826D8C"/>
						<polygon points="312.4 463.8 312.7 461.7 317.6 466.9 317.2 468.9" fill="#5A5A5A"/>
						<polygon points="312.2 463.7 312.5 461.7 312.5 461.7 312.2 463.8" fill="#806A89"/>
						<polygon points="312.2 463.7 312.5 461.7 312.6 461.6 312.2 463.6" fill="#404040"/>
						<polygon points="312.2 463.6 312.6 461.6 317.9 460.1 317.6 462.1" fill="#424242"/>
						<polygon points="317.8 462.1 318.2 460 318.2 460.1 317.9 462.1" fill="#5A5A5A"/>
					<g enable-background="new    ">
						<defs>
							<path id="de" d="m307 458.8l0.3-2c1 1.9 2.4 18.3 2.9 25.2 0 0.2 0.1 0.5 0.2 0.7 0.4 0.7 1.3 1.2 2.2 1.3l-0.3 2c-0.9 0-1.8-0.5-2.2-1.3-0.1-0.2-0.2-0.5-0.2-0.7-0.5-7-1.9-23.3-2.9-25.2z" enable-background="new    "/>
						</defs>
						<clipPath id="df">
							<use overflow="visible" xlink:href="#de"/>
						</clipPath>
						<g clip-path="url(#df)" enable-background="new    ">
							<path d="m307 458.8l0.3-2c0.8 1.5 1.8 12 2.5 19.7l-0.3 2c-0.7-7.7-1.7-18.2-2.5-19.7" fill="#545454"/>
							<path d="m309.5 478.5l0.3-2c0.2 2.1 0.3 4 0.5 5.5l-0.3 2c-0.2-1.5-0.3-3.4-0.5-5.5" fill="#525252"/>
							<path d="m310 484l0.3-2c0 0.2 0.1 0.5 0.2 0.7s0.2 0.4 0.4 0.5l-0.3 2c-0.1-0.2-0.3-0.3-0.4-0.5-0.2-0.2-0.2-0.5-0.2-0.7" fill="#545454"/>
							<path d="m310.5 485.2l0.3-2 0.3 0.3-0.3 2-0.3-0.3" fill="#525252"/>
							<path d="m310.8 485.5l0.3-2c0.1 0.1 0.2 0.1 0.3 0.2l-0.3 2c-0.1-0.1-0.2-0.2-0.3-0.2" fill="#4F4F4F"/>
							<path d="m311.1 485.6l0.3-2c0.1 0 0.2 0.1 0.3 0.1l-0.3 2c-0.1 0-0.2 0-0.3-0.1" fill="#4D4D4D"/>
							<path d="m311.4 485.8l0.3-2c0.1 0 0.2 0.1 0.3 0.1l-0.3 2c-0.1-0.1-0.2-0.1-0.3-0.1" fill="#4A4A4A"/>
							<path d="m311.7 485.8l0.3-2c0.1 0 0.2 0.1 0.3 0.1l-0.3 2c-0.1 0-0.2 0-0.3-0.1" fill="#484848"/>
							<path d="m312 485.9l0.3-2h0.4l-0.3 2h-0.4" fill="#454545"/>
						</g>
					</g>
						<polygon points="306.8 458.7 307.1 456.6 307.2 456.6 306.9 458.6" fill="#414141"/>
						<polygon points="307 458.8 307.3 456.8 312.8 456.7 312.4 458.7" fill="#685670"/>
						<polygon points="312.4 458.7 312.8 456.7 312.9 456.6 312.5 458.6" fill="#5D4E65"/>
						<polygon points="306.9 458.6 307.2 456.6 312.7 456.5 312.4 458.5" fill="#474747"/>
						<polygon points="312.5 458.2 312.8 456.2 312.9 456.6 312.5 458.6" fill="#545454"/>
						<polygon points="312.5 458.2 312.8 456.2 317.9 460.1 317.6 462.1" fill="#806A89"/>
						<path d="m317.6 462.1l-5.4 1.5-0.1 0.1v0.1l4.8 5.2-5.2 1.3h-0.1v0.1l4.8 4.2-4.5 2.5v0.1l3.5 2.6-2.8 2 1.9 1.6-1.2 1.1-0.7 1.4h-0.4c-0.9 0-1.8-0.5-2.2-1.3-0.1-0.2-0.2-0.5-0.2-0.7-0.6-6.9-2-23.3-2.9-25.2l5.4-0.1 0.1-0.1v-0.4l5.2 4z" fill="#A186AE"/>
						<polygon points="312.3 458 312.7 456 312.7 455.9 312.4 458" fill="#404040"/>
						<path d="m312.9 486.1h-0.5c-1 0-1.9-0.5-2.4-1.4-0.1-0.2-0.2-0.5-0.2-0.8-0.4-5.4-1.9-23.2-2.9-25.1l-0.1-0.1v-0.1h0.1l5.5-0.1v-0.5l0.1-0.1h0.1l5.4 4.1v0.1l-5.4 1.6 4.8 5.2v0.1l-5.2 1.4 4.8 4.2-4.5 2.6 3.5 2.6-2.8 2.2 1.9 1.5-1.3 1.3-0.9 1.3zm-0.6-0.2h0.4l0.7-1.3 1.3-1.1-1.9-1.5 2.8-2.1-3.5-2.6v-0.1l4.6-2.5-4.8-4.2v-0.1h0.1l5.2-1.3-4.8-5.2v-0.1l0.1-0.1 5.4-1.5-5.1-3.9v0.4l-0.1 0.1-5.4 0.1c1 1.9 2.4 18.3 2.9 25.2 0 0.2 0.1 0.5 0.2 0.7 0.1 0.6 1 1.1 1.9 1.1" fill="#707070"/>
						<polygon points="312.4 458 312.7 455.9 312.8 455.9 312.5 458" fill="#4B4B4B"/>
						<polygon points="312.5 458 312.8 455.9 318.2 460 317.8 462.1" fill="#585858"/>
				</g>
	<path d="m323.6 467.6l-15-0.3c-1.1 0-2-0.8-2.3-1.9-2-8.3-9.9-42.1-7.8-46.6 2.4-5.2 6.2-11.5 9.9-13.9 2.6-1.7 3.2-7.4 3.3-10.7 0-1.3 1.2-2.3 2.5-2.3h4.4c1.3 0 2.3 1.1 2.4 2.4 0.1 3.4 0.5 9.7 2.3 11.8 2.5 3.1 8.3 8.9 8.2 13.3-0.1 3.8-4.3 37.2-5.4 46-0.2 1.3-1.2 2.2-2.5 2.2z" stroke="#808080" stroke-linejoin="round" stroke-miterlimit="10" stroke-width=".1834"/>
			<g enable-background="new    ">
					<polygon points="521.8 350.9 521.8 353 512.9 356.8 512.9 354.8" fill="#424242"/>
					<polygon points="521.8 350.9 521.8 353 519.9 357.7 519.9 355.7" fill="#5D4E65"/>
					<polygon points="522 350.8 521.9 352.8 520 357.7 520.1 355.6" fill="#404040"/>
					<polygon points="525.7 354.9 525.7 357 519.9 357.8 520 355.8" fill="#474747"/>
					<polygon points="520 355.8 519.9 357.8 519.9 357.8 519.9 355.7" fill="#555"/>
					<polygon points="525.7 354.9 525.7 357 524.5 363.4 524.6 361.3" fill="#5D4E65"/>
					<polygon points="525.8 354.8 525.7 356.8 524.7 363.3 524.7 361.3" fill="#404040"/>
					<polygon points="530.1 360.5 530 362.5 524.6 363.5 524.7 361.4" fill="#474747"/>
					<polygon points="530.1 360.5 530 362.5 528.3 368.1 528.4 366" fill="#5D4E65"/>
					<polygon points="530.2 360.3 530.1 362.4 528.5 368 528.6 366" fill="#404040"/>
					<polygon points="534 366.4 533.9 368.5 528.4 368.1 528.5 366.1" fill="#4D4D4D"/>
					<polygon points="534 366.4 533.9 368.5 532.4 372.1 532.4 370" fill="#5D4E65"/>
					<polygon points="534.1 366.3 534 368.3 532.5 372.1 532.6 370" fill="#404040"/>
					<polygon points="536.2 370.7 536.2 372.8 532.4 372.2 532.5 370.1" fill="#505050"/>
					<polygon points="536.2 370.7 536.2 372.8 535.4 374.9 535.5 372.8" fill="#5D4E65"/>
					<polygon points="536.4 370.6 536.3 372.7 535.6 374.8 535.6 372.8" fill="#404040"/>
					<polygon points="537.3 373.4 537.3 375.4 535.4 374.9 535.5 372.9" fill="#525252"/>
					<polygon points="538.4 374.3 538.3 376.4 537.3 375.4 537.3 373.4" fill="#5A5A5A"/>
					<polygon points="538.4 374.3 538.3 376.4 536.9 377 537 375" fill="#5F5067"/>
					<polygon points="538.6 374.3 538.5 376.4 537 377.2 537.1 375.1" fill="#414141"/>
					<path d="m512.9 354.8l8.9-3.8-1.9 4.7 0.1 0.1 5.7-0.8-1.2 6.4 5.5-0.9-1.7 5.5 5.6 0.4-1.5 3.6 3.8 0.7-0.8 2.1 1.9 0.6 1 1-1.3 0.6c-0.3 0.2-0.8 0-1.2-0.3-3.7-3.1-21.6-18.8-22.9-19.9z" fill="#A186AE"/>
				<g enable-background="new    ">
					<defs>
						<path id="dg" d="m537 375l-0.1 2.1c-0.3 0.2-0.8 0-1.2-0.3-3.8-3.1-21.6-18.8-22.9-19.9l0.1-2.1c1.3 1.1 19.2 16.8 22.9 19.9 0.4 0.3 0.9 0.4 1.2 0.3z" enable-background="new    "/>
					</defs>
					<clipPath id="be">
						<use overflow="visible" xlink:href="#dg"/>
					</clipPath>
					<g clip-path="url(#be)" enable-background="new    ">
						<path d="m537 375l-0.1 2.1c-0.1 0-0.1 0.1-0.2 0.1l0.1-2.1c0.1-0.1 0.1-0.1 0.2-0.1" fill="#615169"/>
						<path d="m536.8 375l-0.1 2.1h-0.1l0.1-2.1c0 0.1 0 0.1 0.1 0" fill="#64546D"/>
						<path d="m536.7 375.1l-0.1 2.1h-0.1l0.1-2.1c0-0.1 0 0 0.1 0" fill="#685771"/>
						<path d="m536.5 375l-0.1 2.1h-0.1l0.1-2.1h0.1" fill="#6C5A75"/>
						<path d="m536.4 375l-0.1 2.1h-0.1l0.1-2.1h0.1" fill="#705D79"/>
						<path d="m536.3 375l-0.1 2.1c-0.1 0-0.1 0-0.2-0.1l0.1-2.1c0.1 0 0.1 0.1 0.2 0.1" fill="#73607D"/>
						<path d="m536.1 374.9l-0.1 2.1c-0.1 0-0.1-0.1-0.2-0.1l0.1-2.1c0.1 0 0.1 0.1 0.2 0.1" fill="#776380"/>
						<path d="m535.9 374.8l-0.1 2.1h-0.1c-3.8-3.1-21.6-18.8-22.9-19.9l0.1-2.1c1.3 1 19.2 16.7 23 19.9" fill="#7B6684"/>
					</g>
				</g>
				<g enable-background="new    ">
					<defs>
						<path id="bf" d="m537.1 375.1l-0.1 2.1c-0.4 0.2-0.9 0.1-1.3-0.3-3.9-3.2-22.8-19.8-23-20l0.1-2.1c0.2 0.2 19.1 16.8 23 20 0.4 0.4 0.9 0.5 1.3 0.3z" enable-background="new    "/>
					</defs>
					<clipPath id="bg">
						<use overflow="visible" xlink:href="#bf"/>
					</clipPath>
					<g clip-path="url(#bg)" enable-background="new    ">
						<path d="m537.1 375.1l-0.1 2.1c-0.1 0-0.2 0.1-0.3 0.1l0.1-2.1c0.1 0 0.2-0.1 0.3-0.1" fill="#434343"/>
						<path d="m536.8 375.2l-0.1 2.1h-0.1l0.1-2.1h0.1" fill="#454545"/>
						<path d="m536.7 375.2l-0.1 2.1h-0.1l0.1-2.1h0.1" fill="#484848"/>
						<path d="m536.5 375.2l-0.1 2.1h-0.1l0.1-2.1c0-0.1 0.1 0 0.1 0" fill="#4A4A4A"/>
						<path d="m536.4 375.1l-0.1 2.1c-0.1 0-0.1 0-0.2-0.1l0.1-2.1c0.1 0.1 0.1 0.1 0.2 0.1" fill="#4D4D4D"/>
						<path d="m536.2 375.1l-0.1 2.1c-0.1 0-0.1-0.1-0.2-0.1l0.1-2.1c0.1 0 0.2 0.1 0.2 0.1" fill="#4F4F4F"/>
						<path d="m536 375l-0.1 2.1c-0.1 0-0.2-0.1-0.2-0.2l0.1-2.1 0.2 0.2" fill="#525252"/>
						<path d="m535.8 374.8l-0.1 2.1h-0.1c-3.9-3.2-22.8-19.8-23-20l0.1-2.1c0.3 0.2 19.2 16.8 23.1 20" fill="#545454"/>
					</g>
				</g>
					<path d="m512.8 354.8l9.1-4h0.1l-1.9 4.8 5.7-0.8-1.1 6.5 5.4-0.9-1.6 5.7 5.5 0.3-1.5 3.7 3.7 0.6-0.7 2.1 1.8 0.5 1.2 1.1-1.5 0.8c-0.4 0.2-0.9 0.1-1.3-0.3-3.8-3.3-22.7-19.9-22.9-20.1zm9-3.9l-8.9 3.8c1.3 1.1 19.2 16.8 22.9 19.9 0.4 0.3 0.8 0.4 1.2 0.3l1.4-0.6-1-1-1.8-0.5 0.7-2.1-3.7-0.6 1.5-3.7-5.5-0.3 1.6-5.6-5.4 0.9 1.1-6.5-5.7 0.8h-0.1l1.7-4.8" fill="#707070"/>
			</g>
			<g enable-background="new    ">
					<polygon points="523.6 349.3 523.6 351.3 523.3 351 523.4 348.9" fill="#5B5B5B"/>
					<polygon points="528.2 346.6 528.2 348.7 523.7 351.3 523.8 349.3" fill="#414141"/>
					<polygon points="523.8 349.3 523.7 351.3 523.6 351.3 523.6 349.3" fill="#4F4F4F"/>
					<polygon points="527.6 353.1 527.6 355.1 527.5 355.1" fill="#73607D"/>
					<polygon points="527.7 353.1 527.6 355.2 527.6 355.1 527.6 353.1" fill="#816C8B"/>
					<polygon points="523.4 348.9 523.3 351 522 356.6 522.1 354.5" fill="#404040"/>
					<polygon points="527.6 353.1 527.5 355.1 522 356.6 522.1 354.5" fill="#64536C"/>
					<polygon points="521.9 354.7 521.8 356.7 521.8 356.7 521.9 354.6" fill="#585858"/>
					<polygon points="527.5 353.2 527.4 355.3 521.9 356.8 522 354.7" fill="#454545"/>
					<polygon points="522 354.7 521.9 356.8 521.8 356.7 521.9 354.7" fill="#505050"/>
					<polygon points="532.8 358.1 532.8 360.1 532.7 360.1 532.7 358" fill="#73607D"/>
					<polygon points="532.9 358.1 532.8 360.2 532.8 360.1 532.8 358.1" fill="#816C8C"/>
					<polygon points="527.5 359.6 527.5 361.6 527.6 355.2 527.7 353.1" fill="#73607C"/>
					<polygon points="532.7 358 532.7 360.1 527.5 361.6 527.5 359.6" fill="#63536B"/>
					<polygon points="527.4 359.7 527.3 361.8 527.4 355.3 527.5 353.2" fill="#4F4F4F"/>
					<polygon points="527.4 359.8 527.3 361.8 527.3 361.8 527.4 359.7" fill="#595959"/>
					<polygon points="532.7 358.2 532.6 360.3 527.4 361.8 527.5 359.8" fill="#444"/>
					<polygon points="527.5 359.8 527.4 361.8 527.3 361.8 527.4 359.8" fill="#4D4D4D"/>
					<polygon points="537.6 363.5 537.5 365.6 537.5 365.6 537.5 363.5" fill="#7B6784"/>
					<polygon points="537.6 363.6 537.6 365.7 537.5 365.6 537.6 363.5" fill="#806A89"/>
					<polygon points="532.9 358.1 532.8 360.2 532 365.9 532 363.8" fill="#404040"/>
					<polygon points="537.5 363.5 537.5 365.6 532 365.9 532 363.8" fill="#6B5974"/>
					<polygon points="532 364 531.9 366 531.8 366 531.9 363.9" fill="#5A5A5A"/>
					<polygon points="537.4 363.7 537.4 365.7 531.9 366 532 364" fill="#4A4A4A"/>
					<polygon points="537.6 363.6 537.6 365.7 536.6 369.4 536.7 367.4" fill="#404040"/>
					<polygon points="536.6 367.5 536.5 369.6 536.4 369.5 536.5 367.4" fill="#5B5B5B"/>
					<polygon points="540.6 367.7 540.5 369.7 536.6 369.4 536.7 367.4" fill="#705D79"/>
					<polygon points="540.4 367.7 540.3 369.8 536.5 369.6 536.6 367.5" fill="#4C4C4C"/>
				<g enable-background="new    ">
					<defs>
						<path id="bh" d="m544.7 369l-0.1 2.1c0-0.4-0.1-0.7-0.3-1.1l-0.1-0.1c-3.3-4-11.3-14-14.6-18.7-0.9-1.3-1.4-2.1-1.5-2.5l0.1-2.1c0.1 0.4 0.6 1.2 1.5 2.5 3.3 4.8 11.3 14.7 14.6 18.7l0.1 0.1c0.2 0.4 0.3 0.8 0.3 1.1z" enable-background="new    "/>
					</defs>
					<clipPath id="bj">
						<use overflow="visible" xlink:href="#bh"/>
					</clipPath>
					<g clip-path="url(#bj)" enable-background="new    ">
						<path d="m544.7 369l-0.1 2.1v-0.1l0.1-2" fill="#4F4F4F"/>
						<path d="m544.7 369l-0.1 2.1v-0.3l0.1-2.1v0.3" fill="#525252"/>
						<path d="m544.7 368.6l-0.1 2.1c0-0.2-0.1-0.4-0.3-0.7l-0.1-0.1c-3.3-4-11.3-14-14.6-18.7-0.9-1.3-1.4-2.1-1.5-2.5l0.1-2.1c0.1 0.4 0.6 1.2 1.5 2.5 3.3 4.8 11.3 14.7 14.6 18.7l0.1 0.1c0.1 0.3 0.2 0.5 0.3 0.7" fill="#545454"/>
					</g>
				</g>
					<polygon points="540.5 367.6 540.4 369.6 540 371.9 540.1 369.8" fill="#404040"/>
					<polygon points="542 370.1 541.9 372.1 540 371.9 540.1 369.8" fill="#73607C"/>
					<polygon points="541.9 370.2 541.8 372.2 539.9 372 540 369.9" fill="#4F4F4F"/>
				<g enable-background="new    ">
					<defs>
						<path id="bk" d="m544.6 371.1c0 0.6-0.3 1.2-0.9 1.5l0.1-2.1c0.6-0.4 0.9-0.9 0.9-1.5 0 0.7 0 1.5-0.1 2.1z" enable-background="new    "/>
					</defs>
					<clipPath id="bl">
						<use overflow="visible" xlink:href="#bk"/>
					</clipPath>
					<g clip-path="url(#bl)" enable-background="new    ">
						<path d="m544.7 369l-0.1 2.1c0 0.6-0.3 1.2-0.9 1.5l0.1-2.1c0.6-0.3 0.9-0.9 0.9-1.5" fill="#615169"/>
					</g>
				</g>
				<g enable-background="new    ">
					<defs>
						<path id="bm" d="m544.9 369l-0.1 2.1c0 0.6-0.4 1.2-1 1.6l0.1-2.1c0.6-0.3 1-0.9 1-1.6z" enable-background="new    "/>
					</defs>
					<clipPath id="bn">
						<use overflow="visible" xlink:href="#bm"/>
					</clipPath>
					<g clip-path="url(#bn)" enable-background="new    ">
						<path d="m544.9 369l-0.1 2.1c0 0.6-0.4 1.2-1 1.6l0.1-2.1c0.6-0.3 1-0.9 1-1.6" fill="#434343"/>
					</g>
				</g>
					<polygon points="543.8 370.6 543.7 372.6 543.4 372.8 543.5 370.8" fill="#5E4E65"/>
					<polygon points="543.5 370.8 543.4 372.8 541.9 372.1 542 370.1" fill="#7D6987"/>
					<path d="m523.3 348.7l0.4 0.4 4.5-2.6h0.1l0.1 0.1c0 0.2 0.3 0.8 1.5 2.5 3.3 4.8 11.3 14.7 14.6 18.7l0.1 0.1c0.7 0.9 0.4 2.1-0.7 2.8l-0.4 0.2h-0.1l-1.5-0.7-1.9-0.3 0.4-2.2-3.8-0.2-0.1-0.1 0.9-3.7-5.4 0.3-0.1-0.1 0.8-5.7-5.2 1.5h-0.1v-0.1l0.1-6.5-5.5 1.5h-0.1v-0.1l1.4-5.8zm0.3 0.6l-0.3-0.3-1.3 5.6 5.5-1.5h0.1v0.1l-0.1 6.5 5.2-1.5h0.1v0.1l-0.8 5.7 5.5-0.3h0.1v0.1l-0.9 3.8 3.8 0.2-0.4 2.2 1.8 0.3 1.5 0.7 0.3-0.2c1-0.6 1.2-1.7 0.6-2.6l-0.1-0.1c-3.3-4-11.3-14-14.6-18.7-0.9-1.3-1.4-2.1-1.5-2.5l-4.5 2.6v-0.2" fill="#707070"/>
					<path d="m522.1 354.5l1.3-5.6 0.3 0.3h0.1l4.5-2.6c0.1 0.4 0.6 1.2 1.5 2.5 3.3 4.8 11.3 14.7 14.6 18.7l0.1 0.1c0.6 0.9 0.3 2-0.6 2.6l-0.3 0.2-1.5-0.7-1.8-0.3 0.5-2.1-3.9-0.3 0.9-3.8v-0.1h-0.1l-5.5 0.3 0.8-5.7v-0.1h-0.1l-5.2 1.5 0.1-6.5v-0.1h-0.1l-5.6 1.7z" fill="#A186AE"/>
					<polygon points="543.9 370.7 543.8 372.8 543.5 373 543.5 370.9" fill="#404040"/>
					<polygon points="543.4 370.9 543.4 373 541.8 372.2 541.9 370.2" fill="#565656"/>
					<polygon points="543.5 370.9 543.5 373 543.4 373 543.4 370.9" fill="#4B4B4B"/>
			</g>
<path d="m520 361.1l10.5-10.5c0.8-0.8 1-2.1 0.4-3-4.3-7.4-21.9-37.2-26.6-39-5.3-2.1-13.1-3.3-17.4-2.5-3 0.6-7.4-3.1-9.7-5.4-1-0.9-2.5-0.9-3.5 0l-1.5 1.5c-0.9 0.9-1 2.5-0.1 3.5 2.3 2.5 6.3 7.3 6.5 10.1 0.3 3.9-0.7 13 2.4 16.1 2.7 2.7 28.7 23.7 35.7 29.4 1 0.8 2.4 0.7 3.3-0.2z" fill="#EC1C24" stroke="#808080" stroke-linejoin="round" stroke-miterlimit="10" stroke-width=".1834"/>
<path d="m467.1 203.2l-5.1 5.3c-6 6.3-14.3 9.8-23 9.8h-2.7c-8.8 0-17.1-3.6-23.1-10l-17.2-18.2c-4.6-4.8-7.2-11.2-7.4-17.9l-1.3-30.4c-0.4-16.6-14-29.9-30.6-29.9h-10.9c-16.5 0-29.8 13.4-29.8 29.8v250.1" fill="none" stroke="#000" stroke-linejoin="round" stroke-miterlimit="10" stroke-width="6"/>
<path d="m474.2 302.5l-37.8-45.9c-7.5-9.1-18.6-14.3-30.3-14.3h-3.1c-21.3 0-38.7 17-39.2 38.4l-2.5 111.2" fill="none" stroke="#f00" stroke-linejoin="round" stroke-miterlimit="10" stroke-width="6"/>
				<g enable-background="new    ">
						<polygon points="363.9 485.1 364.2 483.1 365.8 482.9 365.4 485" fill="#454545"/>
					<g enable-background="new    ">
						<defs>
							<path id="bo" d="m366.5 482.1l-0.3 2c-0.1 0.4-0.3 0.8-0.7 0.8l0.3-2c0.3 0 0.6-0.3 0.7-0.8z" enable-background="new    "/>
						</defs>
						<clipPath id="bp">
							<use overflow="visible" xlink:href="#bo"/>
						</clipPath>
						<g clip-path="url(#bp)" enable-background="new    ">
							<path d="m365.4 485l0.3-2c0.4 0 0.6-0.3 0.7-0.8l-0.3 2c0 0.4-0.3 0.7-0.7 0.8" fill="#434343"/>
						</g>
					</g>
					<g enable-background="new    ">
						<defs>
							<path id="bq" d="m369.5 456.6l0.3-2c-0.2 1.5-2.7 23.2-3.4 27.6l-0.3 2c0.7-4.5 3.2-26.1 3.4-27.6z" enable-background="new    "/>
						</defs>
						<clipPath id="br">
							<use overflow="visible" xlink:href="#bq"/>
						</clipPath>
						<g clip-path="url(#br)" enable-background="new    ">
							<path d="m369.5 456.6l0.3-2c-0.2 1.5-2.7 23.2-3.4 27.6l-0.3 2c0.7-4.5 3.2-26.1 3.4-27.6" fill="#73607D"/>
						</g>
					</g>
					<g enable-background="new    ">
						<defs>
							<path id="bs" d="m366.5 482.1l-0.3 2 0.3-2z" enable-background="new    "/>
						</defs>
						<clipPath id="bu">
							<use overflow="visible" xlink:href="#bs"/>
						</clipPath>
						<g clip-path="url(#bu)" enable-background="new    ">
							<path d="m366.1 484.2l0.3-2-0.3 2" fill="#73607D"/>
						</g>
					</g>
						<polygon points="364 483.8 364.3 481.8 364.2 483.1 363.9 485.1" fill="#515151"/>
						<polygon points="364 483.8 364.3 481.8 365.4 480.5 365.1 482.5" fill="#5D4E65"/>
						<polygon points="363.8 483.8 364.2 481.7 365.2 480.4 364.9 482.5" fill="#404040"/>
						<polygon points="362.9 481.1 363.3 479.1 365.4 480.4 365 482.4" fill="#565656"/>
						<polygon points="362.9 481.1 363.3 479.1 365.7 476.7 365.4 478.8" fill="#5D4E65"/>
						<polygon points="362.8 481.2 363.1 479.2 365.6 476.7 365.2 478.7" fill="#404040"/>
						<polygon points="361.6 476.5 361.9 474.5 365.7 476.6 365.4 478.7" fill="#555"/>
						<polygon points="361.6 476.5 361.9 474.5 365.9 471.4 365.6 473.5" fill="#5D4E65"/>
						<polygon points="361.4 476.5 361.7 474.5 365.8 471.4 365.5 473.4" fill="#404040"/>
						<polygon points="360.2 469.7 360.6 467.7 365.9 471.3 365.6 473.4" fill="#575757"/>
						<polygon points="360.2 469.7 360.6 467.7 365.5 465.7 365.2 467.8" fill="#5E4F66"/>
						<polygon points="360.1 469.7 360.4 467.7 365.3 465.7 365 467.7" fill="#414141"/>
						<polygon points="359.6 463 359.9 461 365.5 465.6 365.2 467.7" fill="#585858"/>
						<polygon points="359.6 463 359.9 461 365 458.8 364.7 460.9" fill="#5E4E66"/>
						<polygon points="359.4 463.1 359.7 461 364.8 458.8 364.5 460.8" fill="#414141"/>
						<polygon points="359.8 457.9 360.1 455.8 365 458.7 364.7 460.8" fill="#565656"/>
						<polygon points="359.8 457.9 360.1 455.8 369.8 454.5 369.5 456.6" fill="#64536C"/>
						<path d="m366.3 484.2c-0.1 0.5-0.4 0.9-0.8 0.9l-1.6 0.2v-1.5l1.1-1.3-2.1-1.3 2.5-2.5-3.8-2.2 4.1-3.1-5.4-3.7 4.9-2-5.6-4.6 5.1-2.3-5-2.9 10-1.5c-0.1 0.3-2.7 23.2-3.4 27.8zm-0.9 0.8c0.4 0 0.6-0.4 0.7-0.8 0.7-4.4 3.2-26.1 3.4-27.6l-9.8 1.3 4.9 2.9-5.1 2.3 5.6 4.6-4.9 2 5.4 3.7-4.1 3.1 3.8 2.2-2.5 2.5 2.1 1.3-1.1 1.4-0.1 1.3 1.7-0.2" fill="#707070"/>
						<path d="m369.5 456.6c-0.2 1.5-2.7 23.2-3.4 27.6-0.1 0.4-0.3 0.8-0.7 0.8l-1.5 0.2 0.1-1.3 1.1-1.3-2.1-1.4 2.5-2.4-3.9-2.3 4.1-3-5.4-3.8 4.9-1.9-5.6-4.7 5.1-2.2-4.9-3 9.7-1.3z" fill="#A186AE"/>
						<polygon points="359.5 457.9 359.8 455.8 369.9 454.4 369.6 456.4" fill="#454545"/>
					<g enable-background="new    ">
						<defs>
							<path id="bv" d="m369.6 456.4l0.3-2c0.1 0.3-2.6 23.2-3.3 27.8l-0.3 2c0.7-4.6 3.3-27.5 3.3-27.8z" enable-background="new    "/>
						</defs>
						<clipPath id="bw">
							<use overflow="visible" xlink:href="#bv"/>
						</clipPath>
						<g clip-path="url(#bw)" enable-background="new    ">
							<path d="m369.6 456.4l0.3-2-0.3 2" fill="#545454"/>
							<path d="m369.6 456.4l0.3-2c0 0.5-0.6 5.3-1.2 10.9l-0.3 2c0.6-5.5 1.2-10.4 1.2-10.9" fill="#525252"/>
							<path d="m368.4 467.3l0.3-2c-0.8 6.7-1.7 14.4-2.1 16.9l-0.3 2c0.3-2.5 1.3-10.2 2.1-16.9" fill="#4F4F4F"/>
						</g>
					</g>
				</g>
				<g enable-background="new    ">
						<polygon points="357.3 484.5 357.6 482.4 358 482.4 357.7 484.5" fill="#484848"/>
						<polygon points="357.7 484.5 358 482.4 358.7 481.1 358.4 483.1" fill="#404040"/>
						<polygon points="358.4 483.1 358.7 481.1 359.9 480 359.6 482" fill="#404040"/>
						<polygon points="357.7 480.4 358 478.3 359.9 480 359.6 482" fill="#806B8A"/>
						<polygon points="357.9 480.4 358.2 478.4 360.1 479.9 359.8 481.9" fill="#585858"/>
						<polygon points="357.7 480.5 358 478.5 360.8 476.3 360.5 478.3" fill="#404040"/>
						<polygon points="357 475.8 357.4 473.7 360.8 476.3 360.5 478.3" fill="#7F6A89"/>
						<polygon points="357.2 475.7 357.6 473.7 361 476.3 360.7 478.3" fill="#585858"/>
						<polygon points="357 475.6 357.4 473.6 357.4 473.7 357 475.8" fill="#776380"/>
						<polygon points="357 475.7 357.3 473.7 361.9 471.1 361.6 473.1" fill="#404040"/>
						<polygon points="356.8 468.9 357.1 466.9 361.9 471.1 361.6 473.1" fill="#806C8B"/>
						<polygon points="357 468.9 357.3 466.9 362.1 471.1 361.8 473.1" fill="#595959"/>
						<polygon points="356.7 468.8 357.1 466.8 357.1 466.9 356.8 468.9" fill="#816C8C"/>
						<polygon points="356.7 468.8 357.1 466.8 357.1 466.8 356.8 468.8" fill="#404040"/>
						<polygon points="356.8 468.8 357.1 466.8 362.3 465.4 362 467.4" fill="#434343"/>
						<polygon points="362.2 467.4 362.5 465.4 362.6 465.5 362.2 467.5" fill="#585858"/>
						<polygon points="357.2 462.3 357.5 460.2 362.3 465.4 362 467.4" fill="#826D8C"/>
						<polygon points="357.4 462.3 357.7 460.2 362.5 465.4 362.2 467.4" fill="#5A5A5A"/>
						<polygon points="357.1 462.2 357.5 460.2 357.5 460.2 357.2 462.3" fill="#806A89"/>
						<polygon points="357.1 462.2 357.5 460.2 357.5 460.1 357.2 462.2" fill="#404040"/>
						<polygon points="357.2 462.2 357.5 460.1 362.9 458.6 362.6 460.6" fill="#424242"/>
						<polygon points="362.8 460.6 363.1 458.6 363.1 458.6 362.8 460.7" fill="#5A5A5A"/>
					<g enable-background="new    ">
						<defs>
							<path id="bx" d="m352 457.3l0.3-2c1 1.9 2.4 18.3 2.9 25.2 0 0.2 0.1 0.5 0.2 0.7 0.4 0.7 1.3 1.2 2.2 1.3l-0.3 2c-0.9 0-1.8-0.5-2.2-1.3-0.1-0.2-0.2-0.5-0.2-0.7-0.5-6.9-1.9-23.3-2.9-25.2z" enable-background="new    "/>
						</defs>
						<clipPath id="by">
							<use overflow="visible" xlink:href="#bx"/>
						</clipPath>
						<g clip-path="url(#by)" enable-background="new    ">
							<path d="m352 457.3l0.3-2c0.8 1.5 1.8 12 2.5 19.7l-0.3 2c-0.7-7.7-1.7-18.2-2.5-19.7" fill="#545454"/>
							<path d="m354.5 477l0.3-2c0.2 2.1 0.3 4 0.5 5.5l-0.3 2c-0.2-1.5-0.4-3.4-0.5-5.5" fill="#525252"/>
							<path d="m354.9 482.5l0.3-2c0 0.2 0.1 0.5 0.2 0.7s0.2 0.4 0.4 0.5l-0.3 2c-0.1-0.2-0.3-0.3-0.4-0.5s-0.2-0.4-0.2-0.7" fill="#545454"/>
							<path d="m355.5 483.7l0.3-2 0.3 0.3-0.3 2-0.3-0.3" fill="#525252"/>
							<path d="m355.8 484l0.3-2c0.1 0.1 0.2 0.1 0.3 0.2l-0.3 2c-0.1-0.1-0.2-0.2-0.3-0.2" fill="#4F4F4F"/>
							<path d="m356.1 484.1l0.3-2c0.1 0 0.2 0.1 0.3 0.1l-0.3 2c-0.2 0-0.2 0-0.3-0.1" fill="#4D4D4D"/>
							<path d="m356.3 484.3l0.3-2c0.1 0 0.2 0.1 0.3 0.1l-0.3 2c-0.1-0.1-0.2-0.1-0.3-0.1" fill="#4A4A4A"/>
							<path d="m356.6 484.4l0.3-2c0.1 0 0.2 0.1 0.3 0.1l-0.3 2c-0.1-0.1-0.2-0.1-0.3-0.1" fill="#484848"/>
							<path d="m356.9 484.4l0.3-2h0.4l-0.3 2c-0.1 0.1-0.2 0-0.4 0" fill="#454545"/>
						</g>
					</g>
						<polygon points="351.8 457.2 352.1 455.2 352.2 455.1 351.9 457.1" fill="#414141"/>
						<polygon points="352 457.3 352.3 455.3 357.7 455.2 357.4 457.2" fill="#685670"/>
						<polygon points="357.4 457.2 357.7 455.2 357.8 455.1 357.5 457.1" fill="#5D4E65"/>
						<polygon points="351.9 457.1 352.2 455.1 357.6 455 357.3 457.1" fill="#474747"/>
						<polygon points="357.5 456.7 357.8 454.7 357.8 455.1 357.5 457.1" fill="#545454"/>
						<polygon points="357.5 456.7 357.8 454.7 362.9 458.6 362.6 460.6" fill="#806A89"/>
						<path d="m362.6 460.6l-5.4 1.5-0.1 0.1v0.1l4.8 5.2-5.2 1.3h-0.1v0.1l4.8 4.2-4.5 2.5v0.1l3.5 2.6-2.8 2 1.9 1.6-1.2 1.1-0.7 1.4h-0.4c-0.9 0-1.8-0.5-2.2-1.3-0.1-0.2-0.2-0.5-0.2-0.7-0.6-6.9-2-23.3-2.9-25.2l5.4-0.1 0.1-0.1v-0.4l5.2 4z" fill="#A186AE"/>
						<polygon points="357.3 456.6 357.6 454.5 357.7 454.5 357.3 456.5" fill="#404040"/>
						<path d="m357.8 484.6h-0.5c-1 0-1.9-0.5-2.4-1.4-0.1-0.2-0.2-0.5-0.2-0.8-0.4-5.4-1.9-23.2-2.9-25.1l-0.1-0.1v-0.1h0.1l5.5-0.1v-0.5l0.1-0.1h0.1l5.4 4.1v0.1l-5.4 1.6 4.8 5.2v0.1l-5.2 1.4 4.8 4.2-4.5 2.6 3.5 2.6-2.8 2.2 1.9 1.5-1.3 1.3-0.9 1.3zm-0.5-0.1h0.4l0.7-1.3 1.3-1.1-1.9-1.5 2.8-2.1-3.5-2.6v-0.1l4.6-2.5-4.8-4.2v-0.1h0.1l5.2-1.3-4.8-5.2v-0.1l0.1-0.1 5.4-1.5-5.1-3.9v0.4l-0.1 0.1-5.4 0.1c1 1.9 2.4 18.3 2.9 25.2 0 0.2 0.1 0.5 0.2 0.7 0.1 0.6 1 1 1.9 1.1" fill="#707070"/>
						<polygon points="357.3 456.5 357.7 454.5 357.8 454.5 357.4 456.5" fill="#4B4B4B"/>
						<polygon points="357.4 456.5 357.8 454.5 363.1 458.6 362.8 460.6" fill="#585858"/>
				</g>
	<path d="m368.6 466.1l-15-0.3c-1.1 0-2-0.8-2.3-1.9-2-8.3-9.9-42.1-7.8-46.6 2.4-5.2 6.2-11.5 9.9-13.9 2.6-1.7 3.2-7.4 3.3-10.7 0-1.3 1.2-2.3 2.5-2.3h4.4c1.3 0 2.3 1.1 2.4 2.4 0.1 3.4 0.5 9.7 2.3 11.8 2.5 3.1 8.3 8.9 8.2 13.3-0.1 3.8-4.3 37.2-5.4 46-0.2 1.3-1.2 2.2-2.5 2.2z" fill="#f00" stroke="#808080" stroke-linejoin="round" stroke-miterlimit="10" stroke-width=".1834"/>
</svg>
