<?xml version="1.0" encoding="UTF-8" standalone="no"?>
<svg
   xmlns:dc="http://purl.org/dc/elements/1.1/"
   xmlns:cc="http://creativecommons.org/ns#"
   xmlns:rdf="http://www.w3.org/1999/02/22-rdf-syntax-ns#"
   xmlns:svg="http://www.w3.org/2000/svg"
   xmlns="http://www.w3.org/2000/svg"
   xmlns:xlink="http://www.w3.org/1999/xlink"
   xmlns:sodipodi="http://sodipodi.sourceforge.net/DTD/sodipodi-0.dtd"
   xmlns:inkscape="http://www.inkscape.org/namespaces/inkscape"
   enable-background="new 0 0 841.9 595.3"
   version="1.1"
   viewBox="0 0 33.263778 100.55058"
   xml:space="preserve"
   id="svg994"
   sodipodi:docname="Red-Alligator-Clip.svg"
   width="33.263779"
   height="100.55058"
   inkscape:version="1.0.1 (3bc2e813f5, 2020-09-07)"><metadata
   id="metadata1000"><rdf:RDF><cc:Work
       rdf:about=""><dc:format>image/svg+xml</dc:format><dc:type
         rdf:resource="http://purl.org/dc/dcmitype/StillImage" /><dc:title></dc:title></cc:Work></rdf:RDF></metadata><defs
   id="defs998" /><sodipodi:namedview
   pagecolor="#ffffff"
   bordercolor="#666666"
   borderopacity="1"
   objecttolerance="10"
   gridtolerance="10"
   guidetolerance="10"
   inkscape:pageopacity="0"
   inkscape:pageshadow="2"
   inkscape:window-width="1366"
   inkscape:window-height="694"
   id="namedview996"
   showgrid="false"
   inkscape:zoom="1.1189226"
   inkscape:cx="-179.86241"
   inkscape:cy="16.892829"
   inkscape:window-x="0"
   inkscape:window-y="0"
   inkscape:window-maximized="1"
   inkscape:current-layer="svg994" />
<g
   enable-background="new    "
   id="g674"
   transform="rotate(45,608.4445,-400.65202)">
					<polygon
   points="521.8,353 512.9,356.8 512.9,354.8 521.8,350.9 "
   fill="#424242"
   id="polygon578" />
					<polygon
   points="521.8,353 519.9,357.7 519.9,355.7 521.8,350.9 "
   fill="#5d4e65"
   id="polygon580" />
					<polygon
   points="521.9,352.8 520,357.7 520.1,355.6 522,350.8 "
   fill="#404040"
   id="polygon582" />
					<polygon
   points="525.7,357 519.9,357.8 520,355.8 525.7,354.9 "
   fill="#474747"
   id="polygon584" />
					<polygon
   points="519.9,357.8 519.9,355.7 520,355.8 "
   fill="#555555"
   id="polygon586" />
					<polygon
   points="525.7,357 524.5,363.4 524.6,361.3 525.7,354.9 "
   fill="#5d4e65"
   id="polygon588" />
					<polygon
   points="525.7,356.8 524.7,363.3 524.7,361.3 525.8,354.8 "
   fill="#404040"
   id="polygon590" />
					<polygon
   points="530,362.5 524.6,363.5 524.7,361.4 530.1,360.5 "
   fill="#474747"
   id="polygon592" />
					<polygon
   points="530,362.5 528.3,368.1 528.4,366 530.1,360.5 "
   fill="#5d4e65"
   id="polygon594" />
					<polygon
   points="530.1,362.4 528.5,368 528.6,366 530.2,360.3 "
   fill="#404040"
   id="polygon596" />
					<polygon
   points="533.9,368.5 528.4,368.1 528.5,366.1 534,366.4 "
   fill="#4d4d4d"
   id="polygon598" />
					<polygon
   points="533.9,368.5 532.4,372.1 532.4,370 534,366.4 "
   fill="#5d4e65"
   id="polygon600" />
					<polygon
   points="534,368.3 532.5,372.1 532.6,370 534.1,366.3 "
   fill="#404040"
   id="polygon602" />
					<polygon
   points="536.2,372.8 532.4,372.2 532.5,370.1 536.2,370.7 "
   fill="#505050"
   id="polygon604" />
					<polygon
   points="536.2,372.8 535.4,374.9 535.5,372.8 536.2,370.7 "
   fill="#5d4e65"
   id="polygon606" />
					<polygon
   points="536.3,372.7 535.6,374.8 535.6,372.8 536.4,370.6 "
   fill="#404040"
   id="polygon608" />
					<polygon
   points="537.3,375.4 535.4,374.9 535.5,372.9 537.3,373.4 "
   fill="#525252"
   id="polygon610" />
					<polygon
   points="538.3,376.4 537.3,375.4 537.3,373.4 538.4,374.3 "
   fill="#5a5a5a"
   id="polygon612" />
					<polygon
   points="538.3,376.4 536.9,377 537,375 538.4,374.3 "
   fill="#5f5067"
   id="polygon614" />
					<polygon
   points="538.5,376.4 537,377.2 537.1,375.1 538.6,374.3 "
   fill="#414141"
   id="polygon616" />
					<path
   d="m 512.9,354.8 8.9,-3.8 -1.9,4.7 0.1,0.1 5.7,-0.8 -1.2,6.4 5.5,-0.9 -1.7,5.5 5.6,0.4 -1.5,3.6 3.8,0.7 -0.8,2.1 1.9,0.6 1,1 -1.3,0.6 c -0.3,0.2 -0.8,0 -1.2,-0.3 -3.7,-3.1 -21.6,-18.8 -22.9,-19.9 z"
   fill="#a186ae"
   id="path618" />
				<g
   enable-background="new    "
   id="g644">
					<defs
   id="defs621">
						<path
   id="dg"
   d="m 537,375 -0.1,2.1 c -0.3,0.2 -0.8,0 -1.2,-0.3 -3.8,-3.1 -21.6,-18.8 -22.9,-19.9 l 0.1,-2.1 c 1.3,1.1 19.2,16.8 22.9,19.9 0.4,0.3 0.9,0.4 1.2,0.3 z"
   enable-background="new    " />
					</defs>
					<clipPath
   id="be">
						<use
   overflow="visible"
   xlink:href="#dg"
   id="use623"
   x="0"
   y="0"
   width="100%"
   height="100%" />
					</clipPath>
					<g
   clip-path="url(#be)"
   enable-background="new    "
   id="g642">
						<path
   d="m 537,375 -0.1,2.1 c -0.1,0 -0.1,0.1 -0.2,0.1 l 0.1,-2.1 c 0.1,-0.1 0.1,-0.1 0.2,-0.1"
   fill="#615169"
   id="path626" />
						<path
   d="m 536.8,375 -0.1,2.1 h -0.1 l 0.1,-2.1 c 0,0.1 0,0.1 0.1,0"
   fill="#64546d"
   id="path628" />
						<path
   d="m 536.7,375.1 -0.1,2.1 h -0.1 l 0.1,-2.1 c 0,-0.1 0,0 0.1,0"
   fill="#685771"
   id="path630" />
						<path
   d="m 536.5,375 -0.1,2.1 h -0.1 l 0.1,-2.1 h 0.1"
   fill="#6c5a75"
   id="path632" />
						<path
   d="m 536.4,375 -0.1,2.1 h -0.1 l 0.1,-2.1 h 0.1"
   fill="#705d79"
   id="path634" />
						<path
   d="m 536.3,375 -0.1,2.1 c -0.1,0 -0.1,0 -0.2,-0.1 l 0.1,-2.1 c 0.1,0 0.1,0.1 0.2,0.1"
   fill="#73607d"
   id="path636" />
						<path
   d="M 536.1,374.9 536,377 c -0.1,0 -0.1,-0.1 -0.2,-0.1 l 0.1,-2.1 c 0.1,0 0.1,0.1 0.2,0.1"
   fill="#776380"
   id="path638" />
						<path
   d="m 535.9,374.8 -0.1,2.1 h -0.1 c -3.8,-3.1 -21.6,-18.8 -22.9,-19.9 l 0.1,-2.1 c 1.3,1 19.2,16.7 23,19.9"
   fill="#7b6684"
   id="path640" />
					</g>
				</g>
				<g
   enable-background="new    "
   id="g670">
					<defs
   id="defs647">
						<path
   id="bf"
   d="m 537.1,375.1 -0.1,2.1 c -0.4,0.2 -0.9,0.1 -1.3,-0.3 -3.9,-3.2 -22.8,-19.8 -23,-20 l 0.1,-2.1 c 0.2,0.2 19.1,16.8 23,20 0.4,0.4 0.9,0.5 1.3,0.3 z"
   enable-background="new    " />
					</defs>
					<clipPath
   id="bg">
						<use
   overflow="visible"
   xlink:href="#bf"
   id="use649"
   x="0"
   y="0"
   width="100%"
   height="100%" />
					</clipPath>
					<g
   clip-path="url(#bg)"
   enable-background="new    "
   id="g668">
						<path
   d="m 537.1,375.1 -0.1,2.1 c -0.1,0 -0.2,0.1 -0.3,0.1 l 0.1,-2.1 c 0.1,0 0.2,-0.1 0.3,-0.1"
   fill="#434343"
   id="path652" />
						<path
   d="m 536.8,375.2 -0.1,2.1 h -0.1 l 0.1,-2.1 h 0.1"
   fill="#454545"
   id="path654" />
						<path
   d="m 536.7,375.2 -0.1,2.1 h -0.1 l 0.1,-2.1 h 0.1"
   fill="#484848"
   id="path656" />
						<path
   d="m 536.5,375.2 -0.1,2.1 h -0.1 l 0.1,-2.1 c 0,-0.1 0.1,0 0.1,0"
   fill="#4a4a4a"
   id="path658" />
						<path
   d="m 536.4,375.1 -0.1,2.1 c -0.1,0 -0.1,0 -0.2,-0.1 l 0.1,-2.1 c 0.1,0.1 0.1,0.1 0.2,0.1"
   fill="#4d4d4d"
   id="path660" />
						<path
   d="m 536.2,375.1 -0.1,2.1 c -0.1,0 -0.1,-0.1 -0.2,-0.1 L 536,375 c 0.1,0 0.2,0.1 0.2,0.1"
   fill="#4f4f4f"
   id="path662" />
						<path
   d="m 536,375 -0.1,2.1 c -0.1,0 -0.2,-0.1 -0.2,-0.2 l 0.1,-2.1 0.2,0.2"
   fill="#525252"
   id="path664" />
						<path
   d="m 535.8,374.8 -0.1,2.1 h -0.1 c -3.9,-3.2 -22.8,-19.8 -23,-20 l 0.1,-2.1 c 0.3,0.2 19.2,16.8 23.1,20"
   fill="#545454"
   id="path666" />
					</g>
				</g>
					<path
   d="m 512.8,354.8 9.1,-4 h 0.1 l -1.9,4.8 5.7,-0.8 -1.1,6.5 5.4,-0.9 -1.6,5.7 5.5,0.3 -1.5,3.7 3.7,0.6 -0.7,2.1 1.8,0.5 1.2,1.1 -1.5,0.8 c -0.4,0.2 -0.9,0.1 -1.3,-0.3 -3.8,-3.3 -22.7,-19.9 -22.9,-20.1 z m 9,-3.9 -8.9,3.8 c 1.3,1.1 19.2,16.8 22.9,19.9 0.4,0.3 0.8,0.4 1.2,0.3 l 1.4,-0.6 -1,-1 -1.8,-0.5 0.7,-2.1 -3.7,-0.6 1.5,-3.7 -5.5,-0.3 1.6,-5.6 -5.4,0.9 1.1,-6.5 -5.7,0.8 h -0.1 l 1.7,-4.8"
   fill="#707070"
   id="path672" />
			</g><g
   enable-background="new    "
   id="g792"
   transform="rotate(45,608.4445,-400.65202)">
					<polygon
   points="523.6,351.3 523.3,351 523.4,348.9 523.6,349.3 "
   fill="#5b5b5b"
   id="polygon676" />
					<polygon
   points="528.2,348.7 523.7,351.3 523.8,349.3 528.2,346.6 "
   fill="#414141"
   id="polygon678" />
					<polygon
   points="523.7,351.3 523.6,351.3 523.6,349.3 523.8,349.3 "
   fill="#4f4f4f"
   id="polygon680" />
					<polygon
   points="527.5,355.1 527.6,353.1 527.6,355.1 "
   fill="#73607d"
   id="polygon682" />
					<polygon
   points="527.6,355.2 527.6,355.1 527.6,353.1 527.7,353.1 "
   fill="#816c8b"
   id="polygon684" />
					<polygon
   points="523.3,351 522,356.6 522.1,354.5 523.4,348.9 "
   fill="#404040"
   id="polygon686" />
					<polygon
   points="527.5,355.1 522,356.6 522.1,354.5 527.6,353.1 "
   fill="#64536c"
   id="polygon688" />
					<polygon
   points="521.8,356.7 521.9,354.6 521.9,354.7 "
   fill="#585858"
   id="polygon690" />
					<polygon
   points="527.4,355.3 521.9,356.8 522,354.7 527.5,353.2 "
   fill="#454545"
   id="polygon692" />
					<polygon
   points="521.9,356.8 521.8,356.7 521.9,354.7 522,354.7 "
   fill="#505050"
   id="polygon694" />
					<polygon
   points="532.8,360.1 532.7,360.1 532.7,358 532.8,358.1 "
   fill="#73607d"
   id="polygon696" />
					<polygon
   points="532.8,360.2 532.8,360.1 532.8,358.1 532.9,358.1 "
   fill="#816c8c"
   id="polygon698" />
					<polygon
   points="527.5,361.6 527.6,355.2 527.7,353.1 527.5,359.6 "
   fill="#73607c"
   id="polygon700" />
					<polygon
   points="532.7,360.1 527.5,361.6 527.5,359.6 532.7,358 "
   fill="#63536b"
   id="polygon702" />
					<polygon
   points="527.3,361.8 527.4,355.3 527.5,353.2 527.4,359.7 "
   fill="#4f4f4f"
   id="polygon704" />
					<polygon
   points="527.3,361.8 527.4,359.7 527.4,359.8 "
   fill="#595959"
   id="polygon706" />
					<polygon
   points="532.6,360.3 527.4,361.8 527.5,359.8 532.7,358.2 "
   fill="#444444"
   id="polygon708" />
					<polygon
   points="527.4,361.8 527.3,361.8 527.4,359.8 527.5,359.8 "
   fill="#4d4d4d"
   id="polygon710" />
					<polygon
   points="537.5,365.6 537.5,363.5 537.6,363.5 "
   fill="#7b6784"
   id="polygon712" />
					<polygon
   points="537.6,365.7 537.5,365.6 537.6,363.5 537.6,363.6 "
   fill="#806a89"
   id="polygon714" />
					<polygon
   points="532.8,360.2 532,365.9 532,363.8 532.9,358.1 "
   fill="#404040"
   id="polygon716" />
					<polygon
   points="537.5,365.6 532,365.9 532,363.8 537.5,363.5 "
   fill="#6b5974"
   id="polygon718" />
					<polygon
   points="531.9,366 531.8,366 531.9,363.9 532,364 "
   fill="#5a5a5a"
   id="polygon720" />
					<polygon
   points="537.4,365.7 531.9,366 532,364 537.4,363.7 "
   fill="#4a4a4a"
   id="polygon722" />
					<polygon
   points="537.6,365.7 536.6,369.4 536.7,367.4 537.6,363.6 "
   fill="#404040"
   id="polygon724" />
					<polygon
   points="536.5,369.6 536.4,369.5 536.5,367.4 536.6,367.5 "
   fill="#5b5b5b"
   id="polygon726" />
					<polygon
   points="540.5,369.7 536.6,369.4 536.7,367.4 540.6,367.7 "
   fill="#705d79"
   id="polygon728" />
					<polygon
   points="540.3,369.8 536.5,369.6 536.6,367.5 540.4,367.7 "
   fill="#4c4c4c"
   id="polygon730" />
				<g
   enable-background="new    "
   id="g746">
					<defs
   id="defs733">
						<path
   id="bh"
   d="m 544.7,369 -0.1,2.1 c 0,-0.4 -0.1,-0.7 -0.3,-1.1 l -0.1,-0.1 c -3.3,-4 -11.3,-14 -14.6,-18.7 -0.9,-1.3 -1.4,-2.1 -1.5,-2.5 l 0.1,-2.1 c 0.1,0.4 0.6,1.2 1.5,2.5 3.3,4.8 11.3,14.7 14.6,18.7 l 0.1,0.1 c 0.2,0.4 0.3,0.8 0.3,1.1 z"
   enable-background="new    " />
					</defs>
					<clipPath
   id="bj">
						<use
   overflow="visible"
   xlink:href="#bh"
   id="use735"
   x="0"
   y="0"
   width="100%"
   height="100%" />
					</clipPath>
					<g
   clip-path="url(#bj)"
   enable-background="new    "
   id="g744">
						<path
   d="m 544.7,369 -0.1,2.1 V 371 l 0.1,-2"
   fill="#4f4f4f"
   id="path738" />
						<path
   d="m 544.7,369 -0.1,2.1 v -0.3 l 0.1,-2.1 v 0.3"
   fill="#525252"
   id="path740" />
						<path
   d="m 544.7,368.6 -0.1,2.1 c 0,-0.2 -0.1,-0.4 -0.3,-0.7 l -0.1,-0.1 c -3.3,-4 -11.3,-14 -14.6,-18.7 -0.9,-1.3 -1.4,-2.1 -1.5,-2.5 l 0.1,-2.1 c 0.1,0.4 0.6,1.2 1.5,2.5 3.3,4.8 11.3,14.7 14.6,18.7 l 0.1,0.1 c 0.1,0.3 0.2,0.5 0.3,0.7"
   fill="#545454"
   id="path742" />
					</g>
				</g>
					<polygon
   points="540.4,369.6 540,371.9 540.1,369.8 540.5,367.6 "
   fill="#404040"
   id="polygon748" />
					<polygon
   points="541.9,372.1 540,371.9 540.1,369.8 542,370.1 "
   fill="#73607c"
   id="polygon750" />
					<polygon
   points="541.8,372.2 539.9,372 540,369.9 541.9,370.2 "
   fill="#4f4f4f"
   id="polygon752" />
				<g
   enable-background="new    "
   id="g764">
					<defs
   id="defs755">
						<path
   id="bk"
   d="m 544.6,371.1 c 0,0.6 -0.3,1.2 -0.9,1.5 l 0.1,-2.1 c 0.6,-0.4 0.9,-0.9 0.9,-1.5 0,0.7 0,1.5 -0.1,2.1 z"
   enable-background="new    " />
					</defs>
					<clipPath
   id="bl">
						<use
   overflow="visible"
   xlink:href="#bk"
   id="use757"
   x="0"
   y="0"
   width="100%"
   height="100%" />
					</clipPath>
					<g
   clip-path="url(#bl)"
   enable-background="new    "
   id="g762">
						<path
   d="m 544.7,369 -0.1,2.1 c 0,0.6 -0.3,1.2 -0.9,1.5 l 0.1,-2.1 c 0.6,-0.3 0.9,-0.9 0.9,-1.5"
   fill="#615169"
   id="path760" />
					</g>
				</g>
				<g
   enable-background="new    "
   id="g776">
					<defs
   id="defs767">
						<path
   id="bm"
   d="m 544.9,369 -0.1,2.1 c 0,0.6 -0.4,1.2 -1,1.6 l 0.1,-2.1 c 0.6,-0.3 1,-0.9 1,-1.6 z"
   enable-background="new    " />
					</defs>
					<clipPath
   id="bn">
						<use
   overflow="visible"
   xlink:href="#bm"
   id="use769"
   x="0"
   y="0"
   width="100%"
   height="100%" />
					</clipPath>
					<g
   clip-path="url(#bn)"
   enable-background="new    "
   id="g774">
						<path
   d="m 544.9,369 -0.1,2.1 c 0,0.6 -0.4,1.2 -1,1.6 l 0.1,-2.1 c 0.6,-0.3 1,-0.9 1,-1.6"
   fill="#434343"
   id="path772" />
					</g>
				</g>
					<polygon
   points="543.7,372.6 543.4,372.8 543.5,370.8 543.8,370.6 "
   fill="#5e4e65"
   id="polygon778" />
					<polygon
   points="543.4,372.8 541.9,372.1 542,370.1 543.5,370.8 "
   fill="#7d6987"
   id="polygon780" />
					<path
   d="m 523.3,348.7 0.4,0.4 4.5,-2.6 h 0.1 l 0.1,0.1 c 0,0.2 0.3,0.8 1.5,2.5 3.3,4.8 11.3,14.7 14.6,18.7 l 0.1,0.1 c 0.7,0.9 0.4,2.1 -0.7,2.8 l -0.4,0.2 h -0.1 l -1.5,-0.7 -1.9,-0.3 0.4,-2.2 -3.8,-0.2 -0.1,-0.1 0.9,-3.7 -5.4,0.3 -0.1,-0.1 0.8,-5.7 -5.2,1.5 h -0.1 v -0.1 l 0.1,-6.5 -5.5,1.5 h -0.1 v -0.1 z m 0.3,0.6 -0.3,-0.3 -1.3,5.6 5.5,-1.5 h 0.1 v 0.1 l -0.1,6.5 5.2,-1.5 h 0.1 v 0.1 l -0.8,5.7 5.5,-0.3 h 0.1 v 0.1 l -0.9,3.8 3.8,0.2 -0.4,2.2 1.8,0.3 1.5,0.7 0.3,-0.2 c 1,-0.6 1.2,-1.7 0.6,-2.6 l -0.1,-0.1 c -3.3,-4 -11.3,-14 -14.6,-18.7 -0.9,-1.3 -1.4,-2.1 -1.5,-2.5 l -4.5,2.6 v -0.2"
   fill="#707070"
   id="path782" />
					<path
   d="m 522.1,354.5 1.3,-5.6 0.3,0.3 h 0.1 l 4.5,-2.6 c 0.1,0.4 0.6,1.2 1.5,2.5 3.3,4.8 11.3,14.7 14.6,18.7 l 0.1,0.1 c 0.6,0.9 0.3,2 -0.6,2.6 l -0.3,0.2 -1.5,-0.7 -1.8,-0.3 0.5,-2.1 -3.9,-0.3 0.9,-3.8 v -0.1 h -0.1 l -5.5,0.3 0.8,-5.7 v -0.1 h -0.1 l -5.2,1.5 0.1,-6.5 v -0.1 h -0.1 z"
   fill="#a186ae"
   id="path784" />
					<polygon
   points="543.8,372.8 543.5,373 543.5,370.9 543.9,370.7 "
   fill="#404040"
   id="polygon786" />
					<polygon
   points="543.4,373 541.8,372.2 541.9,370.2 543.4,370.9 "
   fill="#565656"
   id="polygon788" />
					<polygon
   points="543.5,373 543.4,373 543.4,370.9 543.5,370.9 "
   fill="#4b4b4b"
   id="polygon790" />
			</g><symbol
   viewBox="-15.7 -15.4 31.4 30.8"
   id="symbol12"
   transform="translate(-493.3748,-287.42586)">
	<polygon
   points="1.3,-13.2 1.3,-15.4 -7.2,-15.4 -7.2,-13.2 "
   clip-rule="evenodd"
   fill-rule="evenodd"
   id="polygon2" />
	<polygon
   points="-15.7,-8.3 -15.7,-6.2 9.8,-6.2 9.8,-8.3 "
   clip-rule="evenodd"
   fill-rule="evenodd"
   id="polygon4" />
	<polygon
   points="1.3,0.9 1.3,-1.2 -7.2,-1.2 -7.2,0.9 "
   clip-rule="evenodd"
   fill-rule="evenodd"
   id="polygon6" />
	<polygon
   points="-15.7,5.8 -15.7,8 9.8,8 9.8,5.8 "
   clip-rule="evenodd"
   fill-rule="evenodd"
   id="polygon8" />
		<path
   d="M 15.7,11.1 H 12.9 V 8.2 h -1.5 v 2.9 H 8.6 v 1.4 h 2.8 v 2.9 h 1.5 v -2.9 h 2.8 z"
   fill="#ec1e24"
   id="path10" />
</symbol>
<symbol
   clip-rule="evenodd"
   fill-rule="evenodd"
   stroke="#000000"
   stroke-linecap="square"
   stroke-miterlimit="10"
   stroke-width="0.7193"
   viewBox="-7.6 -4.6 15.2 9.1"
   id="symbol18"
   transform="translate(-493.3748,-287.42586)">
		<polygon
   points="7.2,4.2 7.2,1.3 -7.2,1.3 -7.2,4.2 "
   id="polygon14" />
		<polygon
   points="7.2,-1.4 7.2,-4.2 -7.2,-4.2 -7.2,-1.4 "
   id="polygon16" />
</symbol>
<symbol
   clip-rule="evenodd"
   fill-rule="evenodd"
   stroke="#000000"
   stroke-linecap="square"
   stroke-miterlimit="10"
   stroke-width="0.7193"
   viewBox="-8.6 -5.3 17.1 10.5"
   id="symbol24"
   transform="translate(-493.3748,-287.42586)">
		<polygon
   points="-8.2,-1.6 -8.2,-4.9 8.2,-4.9 8.2,-1.6 "
   id="polygon20" />
		<polygon
   points="-8.2,4.9 -8.2,1.6 8.2,1.6 8.2,4.9 "
   fill="#ffffff"
   id="polygon22" />
</symbol>
<symbol
   id="cc"
   viewBox="-3 -3 5.9 5.9"
   transform="translate(-493.3748,-287.42586)">
		<path
   d="M 2.4,0 C 2.4,-1.3 1.3,-2.4 0,-2.4 -1.3,-2.4 -2.4,-1.3 -2.4,0 -2.4,1.3 -1.3,2.4 0,2.4 1.3,2.4 2.4,1.3 2.4,0 Z"
   clip-rule="evenodd"
   fill-rule="evenodd"
   stroke="#000000"
   stroke-linecap="square"
   stroke-miterlimit="10"
   stroke-width="1.1988"
   id="path26" />
</symbol>
<symbol
   viewBox="-3 -3 5.9 5.9"
   id="symbol31"
   transform="translate(-493.3748,-287.42586)">
		<path
   d="M 2.4,0 C 2.4,-1.3 1.3,-2.4 0,-2.4 -1.3,-2.4 -2.4,-1.3 -2.4,0 -2.4,1.3 -1.3,2.4 0,2.4 1.3,2.4 2.4,1.3 2.4,0 Z"
   clip-rule="evenodd"
   fill="#231f20"
   fill-rule="evenodd"
   stroke="#231f20"
   stroke-linecap="square"
   stroke-miterlimit="10"
   stroke-width="1.1988"
   id="path29" />
</symbol>
<symbol
   viewBox="-3 -3 5.9 5.9"
   id="symbol35"
   transform="translate(-493.3748,-287.42586)">
		<path
   d="M 2.4,0 C 2.4,-1.3 1.3,-2.4 0,-2.4 -1.3,-2.4 -2.4,-1.3 -2.4,0 -2.4,1.3 -1.3,2.4 0,2.4 1.3,2.4 2.4,1.3 2.4,0 Z"
   clip-rule="evenodd"
   fill="#221f1f"
   fill-rule="evenodd"
   stroke="#221f1f"
   stroke-linecap="square"
   stroke-miterlimit="10"
   stroke-width="1.1988"
   id="path33" />
</symbol>
<symbol
   viewBox="-7.9 -7.9 15.7 15.7"
   id="symbol43"
   transform="translate(-493.3748,-287.42586)">
	<g
   clip-rule="evenodd"
   fill-rule="evenodd"
   stroke="#000000"
   stroke-linecap="square"
   stroke-miterlimit="10"
   stroke-width="1.1988"
   id="g41">
			<polygon
   points="6.5,0.1 -7.3,-6.9 -7.3,6.9 "
   id="polygon37" />
			<polygon
   points="7.2,-7 6.3,-7 6.3,7 7.2,7 "
   id="polygon39" />
	</g>
</symbol>
<symbol
   viewBox="-9.1 -4.1 18.2 8.3"
   id="symbol53"
   transform="translate(-493.3748,-287.42586)">
	<g
   fill="none"
   stroke="#000000"
   stroke-linecap="square"
   stroke-miterlimit="10"
   stroke-width="1.1988"
   id="g51">
			<line
   x1="8.5"
   x2="-8.5"
   y1="3.5"
   y2="3.5"
   id="line45" />
			<line
   x1="-4.9000001"
   x2="5"
   y1="0.1"
   y2="0.1"
   id="line47" />
			<line
   x1="-1.3"
   x2="1.4"
   y1="-3.5"
   y2="-3.5"
   id="line49" />
	</g>
</symbol>
<symbol
   viewBox="-14 -5.5 28.1 11.1"
   id="symbol65"
   transform="translate(-493.3748,-287.42586)">
	<g
   fill="none"
   stroke="#231f20"
   stroke-linecap="round"
   id="g63">
		<path
   d="m -13.5,-0.7 c 0,3.2 2,5.8 4.5,5.8 2.5,0 4.5,-2.6 4.5,-5.8 C -4.5,-2.5 -5,-4 -6,-5"
   id="path55" />
		<path
   d="m -6,-5 c -1,1 -1.5,2.6 -1.5,4.3 0,3.2 2,5.7 4.5,5.7 C -0.5,5 1.5,2.4 1.5,-0.8 1.5,-2.4 0.9,-3.9 0,-5"
   id="path57" />
		<path
   d="m 0,-5 c -1,1 -1.5,2.6 -1.5,4.3 C -1.5,2.5 0.6,5 3,5 5.5,5 7.5,2.4 7.5,-0.8 7.5,-2.4 7,-3.9 6.1,-5"
   id="path59" />
		<path
   d="M 6,-5 C 5.1,-3.9 4.5,-2.4 4.5,-0.7 4.5,2.5 6.6,5 9,5 c 2.5,0 4.5,-2.6 4.5,-5.8"
   id="path61" />
	</g>
</symbol>
<symbol
   viewBox="-3.7 -3.7 7.4 7.4"
   id="symbol69"
   transform="translate(-493.3748,-287.42586)">
		<path
   d="M 3.1,0 C 3.1,-1.7 1.7,-3.1 0,-3.1 -1.7,-3.1 -3.1,-1.7 -3.1,0 -3.1,1.7 -1.7,3.1 0,3.1 1.7,3.1 3.1,1.7 3.1,0 Z"
   clip-rule="evenodd"
   fill="#ffffff"
   fill-rule="evenodd"
   stroke="#000000"
   stroke-linecap="square"
   stroke-miterlimit="10"
   stroke-width="1.1988"
   id="path67" />
</symbol>
<symbol
   viewBox="-3.7 -3.7 7.4 7.4"
   id="symbol73"
   transform="translate(-493.3748,-287.42586)">
		<path
   d="M 3.1,0 C 3.1,-1.7 1.7,-3.1 0,-3.1 -1.7,-3.1 -3.1,-1.7 -3.1,0 -3.1,1.7 -1.7,3.1 0,3.1 1.7,3.1 3.1,1.7 3.1,0 Z"
   clip-rule="evenodd"
   fill="#ffffff"
   fill-rule="evenodd"
   stroke="#231f20"
   stroke-linecap="square"
   stroke-miterlimit="10"
   stroke-width="1.1988"
   id="path71" />
</symbol>
<symbol
   id="cd"
   viewBox="-4.3 -11 8.5 22.1"
   transform="translate(-493.3748,-287.42586)">
	<polygon
   points="4.3,-6.5 -0.5,-3.8 4.3,-1.3 -0.5,1.2 4.3,3.8 -0.5,6.4 4.3,8.9 0.4,11 -0.4,11 0.5,8.9 -4.3,6.4 0.5,3.8 -4.3,1.2 0.5,-1.3 -4.3,-3.8 0.5,-6.5 -4.3,-8.9 -0.4,-11 0.4,-11 -0.4,-8.9 "
   clip-rule="evenodd"
   fill-rule="evenodd"
   id="polygon75" />
</symbol>
<symbol
   viewBox="-10.2 -15.3 20.4 30.7"
   id="symbol90"
   transform="translate(-493.3748,-287.42586)">
			<use
   transform="translate(499.323,283.13586)"
   x="-4.3000002"
   y="-11"
   width="8.5"
   height="22.1"
   overflow="visible"
   xlink:href="#cd"
   id="use78" />
		<line
   x1="-9.6999998"
   x2="-9.6999998"
   y1="12.8"
   y2="-3"
   fill="none"
   stroke="#000000"
   stroke-linecap="round"
   stroke-linejoin="round"
   id="line80" />
		<line
   x1="-3.7"
   x2="-9.6999998"
   y1="-3"
   y2="-3"
   fill="none"
   stroke="#000000"
   stroke-linecap="round"
   stroke-linejoin="round"
   id="line82" />
		<line
   x1="5.5999999"
   x2="-9.6999998"
   y1="12.8"
   y2="12.8"
   fill="none"
   stroke="#000000"
   stroke-linecap="round"
   stroke-linejoin="round"
   id="line84" />
			<use
   transform="matrix(0.8293,0,0,0.8293,415.06782,251.25227)"
   x="-3"
   y="-3"
   width="5.9000001"
   height="5.9000001"
   overflow="visible"
   xlink:href="#cc"
   id="use86" />
		<polygon
   points="-4.1,-4.9 -4.1,-1.2 1.7,-3.1 "
   clip-rule="evenodd"
   fill-rule="evenodd"
   id="polygon88" />
</symbol>
				
				
	
				
				
	
			
			



				
				
	
<path
   d="m 6.92965,75.44829 h 14.84924 c 1.13137,0 2.19203,-0.77782 2.40416,-1.83848 C 26.37509,65.33666 35.00179,31.8198 32.95118,27.22361 30.68844,21.99102 26.02153,15.62706 22.41529,13.15218 19.8697,11.45513 19.37473,5.72756 19.37473,2.47487 19.30403,1.13137 18.24336,0.07071 16.89985,0 H 14.77853 C 13.50574,0 12.30366,1.06066 12.23295,2.40416 12.09153,5.79827 11.52584,12.02081 9.68737,14.14213 7.14178,17.11198 0,22.83955 0,27.22361 0,31.04198 3.53554,64.276 4.45478,73.25626 c 0.14142,1.27279 1.20208,2.19203 2.47487,2.19203 z"
   fill="#ec1c24"
   stroke="#808080"
   stroke-linejoin="round"
   stroke-miterlimit="10"
   stroke-width="0.1834"
   id="path794"
   style="stroke:none" /><ellipse
   style="fill:#ec1c24;fill-opacity:1;stroke:none;stroke-width:3.12981;stroke-linecap:round;stroke-linejoin:round;stroke-dashoffset:18.8976;stroke-opacity:1"
   id="path2768"
   cx="15.813372"
   cy="2.6724067"
   rx="2.8635385"
   ry="2.5771844" /></svg>
