<?xml version="1.0" encoding="UTF-8" standalone="no"?>
<!-- Created with Inkscape (http://www.inkscape.org/) -->
<svg xmlns:svg="http://www.w3.org/2000/svg" xmlns="http://www.w3.org/2000/svg" version="1.0" width="879" height="136" viewBox="0 0 879 136" id="Layer_1" xml:space="preserve"><defs id="defs44"/>
<path d="M 96.125,37.513 L 96.125,37.513 L 99.15,37.513 L 102.175,37.625 L 105.201,37.852 L 108.004,38.187 L 110.58,38.41 L 111.812,38.523 L 112.934,38.746 L 113.942,38.973 L 114.842,39.196 L 116.409,39.644 L 116.075,44.8 L 115.846,49.171 L 115.846,50.067 L 115.846,50.964 L 115.961,51.861 L 116.075,52.756 L 116.409,54.104 L 116.745,55.333 L 117.079,56.457 L 117.416,56.904 L 117.643,57.464 L 118.09,58.25 L 118.65,58.921 L 119.211,59.369 L 119.658,59.932 L 120.221,60.267 L 120.554,60.491 L 121.34,60.828 L 121.566,60.937 L 121.566,61.611 L 121.788,63.515 L 121.902,64.972 L 122.012,66.319 L 122.012,68 L 121.902,69.906 L 121.675,72.371 L 121.566,74.611 L 121.229,76.516 L 120.892,78.082 L 120.555,79.432 L 120.446,80.328 L 120.222,81.11 L 117.418,82.12 L 115.514,82.795 L 113.273,83.687 L 112.039,84.249 L 110.922,84.811 L 108.229,86.158 L 105.539,87.724 L 104.193,88.62 L 102.625,89.628 L 101.505,90.415 L 100.495,91.311 L 99.488,92.207 L 98.476,93.214 L 97.471,94.115 L 96.572,95.231 L 95.679,96.241 L 94.889,97.249 L 94.105,98.37 L 93.435,99.494 L 92.985,100.611 L 92.648,101.285 L 92.426,101.847 L 92.091,103.077 L 91.752,104.309 L 91.531,105.539 L 91.531,106.214 L 91.531,106.885 L 91.531,108.231 L 91.642,109.689 L 91.864,111.036 L 92.091,112.265 L 92.313,113.502 L 92.648,114.511 L 92.985,115.632 L 93.435,116.53 L 92.985,116.748 L 92.313,117.089 L 91.418,117.422 L 90.968,117.648 L 90.297,117.648 L 89.064,117.985 L 88.28,117.985 L 87.384,118.094 L 86.598,118.094 L 85.7,118.094 L 85.14,117.985 L 84.469,117.985 L 83.345,117.648 L 82.115,117.422 L 80.768,116.865 L 80.207,116.642 L 79.645,116.417 L 78.415,115.739 L 77.182,114.845 L 75.949,114.059 L 74.828,113.054 L 73.707,112.042 L 72.587,110.921 L 71.578,109.796 L 70.57,108.567 L 69.56,107.224 L 69.111,106.55 L 68.666,105.879 L 67.766,104.419 L 66.758,102.516 L 65.752,100.495 L 63.955,96.683 L 62.275,92.873 L 61.493,91.083 L 60.596,89.512 L 59.7,87.95 L 59.363,87.166 L 58.8,86.492 L 57.906,85.37 L 57.569,84.811 L 57.008,84.249 L 56.558,83.804 L 55.998,83.354 L 55.55,83.128 L 54.879,82.795 L 54.431,82.457 L 53.87,82.345 L 53.195,82.345 L 52.636,82.237 L 52.075,82.345 L 51.515,82.345 L 51.065,82.345 L 50.507,82.457 L 50.17,82.681 L 49.723,82.907 L 49.27,83.129 L 48.937,83.244 L 48.266,83.913 L 47.594,84.475 L 47.141,85.149 L 46.474,85.708 L 46.023,86.38 L 45.462,86.946 L 44.904,87.5 L 44.342,88.062 L 44.008,88.291 L 43.671,88.51 L 42.886,88.846 L 42.552,88.959 L 42.102,89.07 L 41.653,89.07 L 41.205,89.07 L 40.645,89.07 L 40.083,88.959 L 39.634,88.959 L 39.078,88.734 L 38.628,88.509 L 38.179,88.174 L 37.283,87.5 L 36.833,87.166 L 36.386,86.717 L 35.937,86.379 L 35.6,85.93 L 34.929,84.924 L 34.592,84.365 L 34.255,83.804 L 33.695,82.681 L 33.021,81.562 L 32.015,79.321 L 30.221,75.398 L 29.996,74.836 L 29.548,74.276 L 28.878,73.153 L 27.98,72.145 L 27.086,71.138 L 25.066,69.231 L 23.944,68.335 L 22.936,67.328 L 21.927,66.32 L 21.028,65.197 L 20.135,64.19 L 19.348,62.953 L 18.677,61.611 L 18.34,60.827 L 18.003,60.156 L 17.781,59.367 L 17.668,58.469 L 17.444,57.573 L 17.33,56.565 L 44.789,56.565 L 44.789,17.904 L 70.57,17.904 L 70.57,34.151 L 71.015,34.488 L 71.464,34.825 L 72.026,35.162 L 72.811,35.498 L 73.594,35.72 L 74.603,36.057 L 75.498,36.281 L 76.622,36.503 L 73.706,49.503 L 65.523,49.503 L 62.721,61.05 L 71.13,61.05 L 68.104,75.174 L 67.657,77.303 L 67.542,78.536 L 67.32,79.879 L 67.32,81.337 L 67.32,82.57 L 67.43,83.804 L 67.542,84.365 L 67.657,84.924 L 67.993,85.82 L 68.326,86.609 L 68.778,87.388 L 69.226,88.062 L 69.783,88.845 L 70.232,89.405 L 70.908,89.967 L 71.579,90.416 L 72.028,90.862 L 72.924,91.088 L 73.596,91.425 L 74.383,91.759 L 75.163,91.871 L 75.95,91.983 L 76.846,92.094 L 77.742,92.094 L 78.974,92.094 L 80.32,91.983 L 81.553,91.871 L 82.899,91.648 L 85.25,91.199 L 86.374,90.862 L 87.269,90.641 L 88.278,90.304 L 89.174,90.075 L 90.407,89.629 L 91.641,89.069 L 94.218,79.208 L 93.883,79.321 L 93.322,79.432 L 92.091,79.432 L 90.856,79.541 L 89.737,79.653 L 89.175,79.653 L 88.726,79.541 L 88.393,79.432 L 88.28,79.432 L 88.168,79.321 L 88.056,79.208 L 87.831,79.096 L 87.719,78.759 L 87.497,78.536 L 87.384,77.975 L 87.271,77.529 L 87.384,77.191 L 87.497,76.066 L 90.969,61.05 L 99.152,61.05 L 101.84,49.504 L 93.436,49.504 L 96.125,37.513 z M 80.32,42.112 L 80.32,42.112 L 90.406,42.112 L 82.115,78.871 L 72.363,78.871 L 80.32,42.112 z M 87.269,27.988 L 87.269,27.988 L 87.944,27.988 L 88.391,28.099 L 88.949,28.209 L 89.4,28.325 L 89.849,28.546 L 90.296,28.883 L 90.744,29.106 L 91.079,29.441 L 91.75,30.228 L 92.089,30.676 L 92.311,31.127 L 92.425,31.573 L 92.537,32.246 L 92.646,32.695 L 92.646,33.254 L 92.646,33.816 L 92.537,34.377 L 92.425,34.825 L 92.311,35.384 L 92.089,35.833 L 91.75,36.166 L 91.529,36.729 L 91.192,36.955 L 90.855,37.403 L 90.407,37.625 L 89.959,37.852 L 89.51,38.074 L 89.063,38.188 L 88.503,38.296 L 87.944,38.41 L 87.269,38.41 L 86.71,38.41 L 86.261,38.296 L 85.7,38.188 L 85.25,38.074 L 84.691,37.852 L 84.242,37.625 L 83.906,37.403 L 83.457,37.069 L 83.121,36.729 L 82.787,36.282 L 82.562,35.833 L 82.338,35.499 L 82.225,34.825 L 82.003,34.377 L 81.892,33.816 L 81.892,33.254 L 81.892,32.695 L 82.003,32.246 L 82.225,31.687 L 82.338,31.238 L 82.562,30.787 L 82.787,30.229 L 83.236,29.892 L 83.457,29.559 L 83.906,29.107 L 84.353,28.884 L 84.803,28.547 L 85.249,28.326 L 85.812,28.21 L 86.26,28.1 L 86.819,27.989 L 87.269,27.989 L 87.269,27.988 z " style="fill-rule:evenodd" id="path3"/>
<g id="g5">
	<path d="M 565.45,75.783 L 565.45,75.783 L 566.121,75.558 L 566.796,75.224 L 568.028,74.552 L 568.588,74.324 L 568.813,74.103 L 569.034,73.989 L 569.596,73.428 L 569.934,73.092 L 570.492,72.536 L 570.83,71.974 L 571.055,71.526 L 571.393,70.852 L 571.504,70.291 L 571.616,69.73 L 571.725,69.061 L 571.616,68.273 L 571.504,67.599 L 571.279,66.93 L 570.942,66.366 L 570.717,65.582 L 570.271,65.133 L 569.817,64.686 L 569.263,64.128 L 568.701,63.791 L 568.141,63.456 L 567.467,63.119 L 566.796,62.895 L 566.234,62.67 L 565.451,62.445 L 564.782,62.332 L 564.218,62.332 L 563.547,62.332 L 562.425,62.332 L 560.297,62.332 L 558.276,62.332 L 557.159,62.332 L 556.709,62.445 L 556.372,62.67 L 555.922,62.895 L 555.473,63.119 L 555.367,63.456 L 555.139,63.904 L 555.03,64.463 L 554.918,64.912 L 554.918,65.698 L 554.918,66.146 L 554.918,75.783 L 555.03,81.387 L 555.03,92.928 L 555.03,93.713 L 555.139,94.388 L 555.251,95.062 L 555.366,95.396 L 555.472,95.958 L 555.7,96.4 L 556.149,97.187 L 556.371,97.413 L 556.708,97.75 L 557.379,98.088 L 557.829,98.199 L 558.166,98.421 L 558.949,98.533 L 558.949,99.766 L 541.462,99.766 L 541.462,98.533 L 541.916,98.533 L 542.253,98.421 L 542.695,98.199 L 543.033,98.088 L 543.704,97.75 L 543.933,97.413 L 544.266,97.187 L 544.604,96.742 L 544.716,96.4 L 544.941,95.958 L 545.053,95.396 L 545.274,95.062 L 545.39,94.388 L 545.39,93.713 L 545.39,92.928 L 545.39,63.905 L 545.39,63.234 L 545.274,62.671 L 545.162,61.996 L 545.054,61.437 L 544.828,60.988 L 544.604,60.541 L 544.489,60.204 L 544.154,59.755 L 543.933,59.421 L 543.595,59.308 L 542.92,58.858 L 542.586,58.633 L 542.252,58.521 L 541.461,58.414 L 541.461,57.181 L 565.336,57.181 L 567.02,57.181 L 568.7,57.291 L 570.27,57.514 L 571.724,57.74 L 573.183,58.183 L 573.854,58.413 L 574.416,58.52 L 575.198,58.857 L 575.761,59.083 L 576.881,59.754 L 577.327,60.091 L 577.889,60.428 L 578.334,60.88 L 578.781,61.211 L 579.118,61.659 L 579.572,62.107 L 579.905,62.669 L 580.242,63.118 L 580.468,63.681 L 580.801,64.128 L 580.914,64.686 L 581.138,65.47 L 581.25,66.032 L 581.364,66.707 L 581.472,67.377 L 581.472,68.163 L 581.364,68.948 L 581.364,69.731 L 581.25,70.403 L 581.025,70.962 L 580.8,71.636 L 580.689,72.311 L 580.467,72.758 L 580.129,73.428 L 579.454,74.214 L 579.117,74.661 L 578.78,75.106 L 577.999,75.781 L 577.437,76.01 L 577.103,76.456 L 576.091,76.902 L 575.195,77.463 L 574.187,77.798 L 573.179,78.136 L 572.169,78.474 L 571.273,78.697 L 569.703,79.032 L 570.712,79.478 L 571.61,79.931 L 572.504,80.489 L 573.403,81.162 L 574.186,81.723 L 574.857,82.398 L 575.529,83.066 L 576.203,83.854 L 576.878,84.637 L 577.437,85.307 L 578.669,86.874 L 579.675,88.448 L 580.574,90.132 L 581.47,91.586 L 582.369,93.045 L 582.702,93.712 L 583.15,94.387 L 584.047,95.395 L 584.497,95.957 L 585.056,96.399 L 585.506,96.853 L 586.064,97.186 L 586.514,97.412 L 587.076,97.637 L 587.747,97.749 L 588.419,97.861 L 588.419,98.87 L 587.525,99.32 L 586.177,99.765 L 585.393,99.877 L 584.497,100.103 L 583.488,100.215 L 582.589,100.215 L 581.022,100.215 L 580.351,100.103 L 579.789,99.991 L 578.443,99.765 L 577.322,99.432 L 576.313,98.982 L 575.414,98.42 L 574.521,97.974 L 573.734,97.187 L 573.063,96.516 L 572.501,95.845 L 571.829,95.173 L 571.384,94.277 L 570.822,93.491 L 570.484,92.591 L 569.701,90.803 L 568.134,87.328 L 567.348,85.758 L 567.014,84.862 L 566.452,84.3 L 566.003,83.742 L 565.444,83.066 L 564.884,82.624 L 564.322,82.175 L 563.539,81.838 L 563.197,81.612 L 562.751,81.496 L 562.417,81.387 L 561.969,81.387 L 560.963,81.387 L 555.022,81.387 L 555.022,81.496 L 555.022,81.387 L 554.91,79.704 L 554.91,77.916 L 554.91,76.12 L 556.365,76.12 L 559.727,76.12 L 561.522,76.012 L 563.198,76.012 L 564.548,76.012 L 565.45,75.783 z " style="fill-rule:evenodd" id="path7"/>
	<path d="M 395.542,49.781 L 395.542,49.781 L 395.542,48.996 L 395.542,48.325 L 395.429,47.767 L 395.203,47.092 L 394.982,46.643 L 394.868,46.197 L 394.647,45.863 L 394.311,45.522 L 394.199,45.188 L 393.862,44.963 L 393.188,44.513 L 392.851,44.288 L 392.518,44.176 L 391.73,44.066 L 391.73,42.835 L 410,42.835 L 410,44.066 L 409.664,44.176 L 409.327,44.176 L 408.542,44.513 L 408.208,44.739 L 407.981,44.963 L 407.76,45.188 L 407.423,45.522 L 407.197,45.863 L 406.86,46.197 L 406.751,46.643 L 406.527,47.092 L 406.414,47.767 L 406.302,48.325 L 406.19,48.996 L 406.19,49.781 L 406.19,92.928 L 406.19,93.832 L 406.3,94.5 L 406.412,95.062 L 406.525,95.622 L 406.749,96.067 L 406.974,96.517 L 407.196,96.855 L 407.422,97.307 L 407.759,97.526 L 407.98,97.751 L 408.207,97.976 L 408.653,98.201 L 409.326,98.535 L 410,98.535 L 410,99.881 L 391.729,99.881 L 391.729,98.535 L 392.517,98.535 L 392.85,98.423 L 393.187,98.201 L 393.861,97.752 L 394.198,97.527 L 394.31,97.189 L 394.867,96.518 L 394.981,95.959 L 395.202,95.51 L 395.541,94.501 L 395.541,93.833 L 395.541,92.929 L 395.541,49.781 L 395.542,49.781 z " style="fill-rule:evenodd" id="path9"/>
	<path d="M 455.39,100.444 L 455.39,100.444 L 453.82,100.444 L 424.68,69.622 L 424.68,92.928 L 424.68,93.832 L 424.795,94.388 L 424.907,95.062 L 425.017,95.509 L 425.243,95.958 L 425.354,96.517 L 425.578,96.743 L 425.913,97.188 L 426.138,97.414 L 426.476,97.751 L 427.036,98.2 L 427.482,98.2 L 427.933,98.422 L 428.606,98.534 L 428.606,99.88 L 415.043,99.88 L 415.043,98.534 L 415.494,98.422 L 415.938,98.313 L 416.391,98.201 L 416.724,98.09 L 417.061,97.864 L 417.283,97.639 L 417.62,97.414 L 417.957,97.188 L 418.179,96.743 L 418.404,96.401 L 418.516,95.959 L 418.741,95.51 L 418.854,95.063 L 418.965,94.389 L 419.079,93.833 L 419.079,92.929 L 419.079,63.792 L 419.079,63.12 L 418.965,62.446 L 418.854,61.886 L 418.741,61.329 L 418.631,60.881 L 418.404,60.429 L 418.179,60.092 L 418.067,59.755 L 417.731,59.421 L 417.396,59.308 L 416.723,58.858 L 415.936,58.521 L 415.041,58.414 L 415.041,57.181 L 427.48,57.181 L 449.785,81.386 L 449.785,63.905 L 449.785,63.234 L 449.673,62.671 L 449.561,61.996 L 449.452,61.437 L 449.224,60.988 L 449.224,60.541 L 448.889,60.204 L 448.665,59.871 L 448.326,59.534 L 448.102,59.309 L 447.431,58.859 L 446.647,58.522 L 445.86,58.415 L 445.86,57.182 L 459.422,57.182 L 459.422,58.415 L 458.973,58.522 L 458.635,58.522 L 458.19,58.634 L 457.964,58.859 L 457.181,59.309 L 456.956,59.422 L 456.621,59.756 L 456.284,60.205 L 456.172,60.542 L 455.947,60.989 L 455.721,61.438 L 455.499,62.671 L 455.387,63.234 L 455.387,63.905 L 455.387,100.444 L 455.39,100.444 z " style="fill-rule:evenodd" id="path11"/>
	<path d="M 626.983,85.536 L 626.983,85.536 L 626.866,86.763 L 626.866,87.776 L 626.866,88.784 L 626.642,89.68 L 626.308,90.688 L 625.971,91.478 L 625.637,92.372 L 625.187,93.155 L 624.739,93.942 L 624.178,94.501 L 623.616,95.175 L 623.174,95.735 L 622.387,96.185 L 621.825,96.744 L 621.154,97.308 L 620.478,97.639 L 619.696,98.089 L 619.024,98.422 L 618.239,98.764 L 617.566,99.097 L 615.996,99.659 L 615.212,99.88 L 614.316,100.106 L 612.75,100.327 L 611.288,100.552 L 609.834,100.669 L 608.375,100.669 L 606.918,100.669 L 605.347,100.552 L 603.783,100.327 L 602.214,100.106 L 600.644,99.66 L 598.964,99.21 L 598.068,98.873 L 597.393,98.423 L 596.611,98.201 L 595.828,97.639 L 595.152,97.308 L 594.482,96.744 L 593.698,96.294 L 593.139,95.735 L 592.573,95.29 L 591.902,94.614 L 591.453,93.943 L 590.894,93.156 L 590.557,92.373 L 590.111,91.589 L 589.885,90.806 L 589.548,89.792 L 589.436,89.456 L 589.328,88.897 L 589.099,87.777 L 589.099,86.877 L 589.099,85.65 L 589.099,63.905 L 588.991,63.234 L 588.991,62.896 L 588.991,62.671 L 588.875,62.109 L 588.653,61.438 L 588.428,60.989 L 588.2,60.43 L 587.753,59.756 L 587.417,59.422 L 587.195,59.197 L 586.858,58.976 L 586.52,58.75 L 586.183,58.635 L 585.849,58.523 L 585.062,58.416 L 585.062,57.183 L 602.545,57.183 L 602.545,58.416 L 601.762,58.523 L 601.424,58.635 L 601.091,58.75 L 600.416,59.197 L 600.078,59.422 L 599.857,59.756 L 599.297,60.43 L 599.068,60.989 L 598.96,61.438 L 598.735,62.671 L 598.623,63.234 L 598.623,63.905 L 598.623,85.536 L 598.735,86.875 L 598.735,87.441 L 598.847,88.003 L 599.068,89.12 L 599.406,90.133 L 599.631,90.467 L 599.857,91.026 L 600.416,91.812 L 600.975,92.484 L 601.65,93.155 L 602.546,93.714 L 603.445,94.164 L 604.341,94.613 L 605.238,94.951 L 606.357,95.175 L 607.477,95.397 L 608.71,95.397 L 609.831,95.397 L 611.064,95.397 L 612.181,95.397 L 613.305,95.175 L 614.313,94.951 L 615.323,94.613 L 616.219,94.164 L 617.114,93.714 L 617.898,93.155 L 618.352,92.822 L 618.793,92.484 L 619.022,92.146 L 619.359,91.812 L 619.694,91.363 L 619.918,91.026 L 620.477,90.133 L 620.815,89.12 L 621.153,88.003 L 621.261,87.441 L 621.373,86.875 L 621.373,86.208 L 621.489,85.536 L 621.489,63.905 L 621.373,63.234 L 621.373,62.671 L 621.261,62.109 L 621.036,61.438 L 620.924,60.989 L 620.702,60.542 L 620.476,60.205 L 620.252,59.756 L 619.917,59.422 L 619.693,59.309 L 618.905,58.859 L 618.572,58.634 L 618.236,58.522 L 617.451,58.415 L 617.451,57.182 L 630.9,57.182 L 630.9,58.415 L 630.454,58.522 L 630.117,58.522 L 629.783,58.634 L 629.448,58.859 L 628.77,59.309 L 628.433,59.422 L 628.211,59.756 L 627.874,60.205 L 627.762,60.542 L 627.541,60.989 L 627.315,61.438 L 627.089,62.671 L 626.982,63.234 L 626.982,63.905 L 626.982,85.536 L 626.983,85.536 z " style="fill-rule:evenodd" id="path13"/>
	<path d="M 514.899,65.583 L 514.899,65.583 L 514.899,64.578 L 514.788,63.904 L 514.566,63.344 L 514.34,63.007 L 514.004,62.67 L 513.558,62.445 L 513.111,62.332 L 512.325,62.332 L 509.858,62.332 L 508.737,62.445 L 507.841,62.445 L 506.942,62.556 L 506.162,62.67 L 505.375,62.895 L 504.7,63.007 L 504.141,63.344 L 503.47,63.566 L 502.908,63.904 L 502.349,64.463 L 501.675,65.027 L 501.003,65.698 L 499.661,67.379 L 498.648,66.932 L 501.898,57.182 L 537.432,57.182 L 540.79,66.932 L 539.669,67.379 L 538.327,65.698 L 537.768,65.027 L 537.093,64.463 L 536.53,63.904 L 535.971,63.566 L 535.298,63.344 L 534.736,63.007 L 534.063,62.895 L 533.28,62.67 L 532.496,62.556 L 531.709,62.445 L 530.701,62.445 L 529.693,62.332 L 527.226,62.332 L 526.555,62.332 L 526,62.446 L 525.438,62.671 L 525.438,62.783 L 525.212,63.008 L 524.991,63.12 L 524.879,63.345 L 524.654,63.905 L 524.542,64.579 L 524.542,65.584 L 524.542,93.046 L 524.542,93.832 L 524.542,94.388 L 524.763,95.509 L 525.1,96.401 L 525.438,96.743 L 525.55,97.188 L 525.887,97.526 L 526.224,97.638 L 526.783,98.088 L 527.23,98.312 L 527.567,98.421 L 528.466,98.533 L 528.466,99.879 L 510.98,99.879 L 510.98,98.533 L 511.879,98.421 L 512.658,98.088 L 513.111,97.862 L 513.333,97.637 L 513.667,97.412 L 513.895,97.074 L 514.117,96.741 L 514.342,96.399 L 514.455,95.957 L 514.677,95.508 L 514.789,94.949 L 514.789,94.387 L 514.9,93.831 L 514.9,93.045 L 514.9,65.583 L 514.899,65.583 z " style="fill-rule:evenodd" id="path15"/>
	<path d="M 480.829,56.396 L 480.829,56.396 L 482.624,56.508 L 483.408,56.508 L 484.304,56.617 L 485.875,56.844 L 487.107,56.954 L 488.337,57.291 L 489.349,57.628 L 490.581,57.966 L 491.03,58.074 L 491.253,57.966 L 491.364,57.853 L 491.478,57.74 L 491.586,57.18 L 491.698,56.953 L 491.814,56.843 L 492.823,56.507 L 496.073,66.708 L 494.84,67.155 L 493.94,66.258 L 493.494,65.698 L 492.824,65.249 L 492.262,64.804 L 491.587,64.242 L 490.803,63.906 L 490.02,63.458 L 489.237,63.009 L 488.338,62.784 L 487.334,62.334 L 486.32,62.109 L 485.091,61.887 L 484.083,61.776 L 482.733,61.661 L 481.504,61.553 L 480.829,61.553 L 480.158,61.661 L 478.815,61.776 L 477.246,62.109 L 476.575,62.223 L 475.899,62.557 L 475.341,62.896 L 475.003,63.008 L 474.666,63.12 L 474.216,63.567 L 473.995,63.793 L 473.657,64.017 L 473.436,64.579 L 473.098,65.249 L 472.872,65.921 L 472.872,66.257 L 472.872,66.594 L 472.872,67.378 L 473.207,68.164 L 473.544,68.723 L 473.656,68.949 L 473.994,69.171 L 474.327,69.508 L 474.552,69.732 L 475.34,70.179 L 476.123,70.629 L 477.019,70.963 L 478.028,71.3 L 479.04,71.75 L 481.169,72.313 L 483.52,72.984 L 485.986,73.655 L 488.45,74.442 L 489.796,74.891 L 491.031,75.333 L 492.037,75.895 L 493.162,76.458 L 494.278,77.128 L 495.174,78.028 L 496.186,78.808 L 496.97,79.704 L 497.644,80.602 L 497.979,81.277 L 498.2,81.723 L 498.762,82.953 L 498.874,83.624 L 498.986,84.19 L 499.211,84.861 L 499.319,85.647 L 499.319,86.315 L 499.319,87.099 L 499.319,88.557 L 499.211,89.344 L 498.986,90.015 L 498.874,90.686 L 498.648,91.248 L 498.089,92.591 L 497.415,93.831 L 497.08,94.387 L 496.632,94.835 L 496.185,95.395 L 495.623,95.733 L 495.173,96.292 L 494.503,96.742 L 493.381,97.525 L 492.71,97.974 L 491.923,98.311 L 490.357,98.983 L 489.569,99.208 L 488.786,99.434 L 486.886,99.993 L 485.986,99.993 L 484.979,100.218 L 482.961,100.446 L 480.828,100.446 L 479.04,100.446 L 477.47,100.327 L 475.899,100.106 L 474.442,99.994 L 472.986,99.768 L 471.64,99.435 L 469.174,98.764 L 468.724,98.764 L 468.502,98.764 L 468.28,98.872 L 468.165,98.984 L 468.053,99.096 L 467.942,99.322 L 467.72,99.767 L 467.607,99.993 L 467.496,99.993 L 467.045,100.218 L 466.487,100.326 L 461.887,87.888 L 463.236,87.442 L 464.02,88.225 L 464.69,89.009 L 465.366,89.68 L 466.149,90.467 L 467.045,91.141 L 467.942,91.812 L 468.95,92.372 L 469.962,92.929 L 471.083,93.493 L 472.088,93.942 L 473.325,94.388 L 474.554,94.725 L 475.9,94.951 L 477.247,95.175 L 478.701,95.397 L 480.159,95.397 L 481.505,95.397 L 482.625,95.29 L 483.747,95.063 L 484.755,94.837 L 485.651,94.613 L 486.435,94.279 L 486.997,93.942 L 487.557,93.605 L 487.893,93.379 L 488.118,93.046 L 488.453,92.708 L 488.79,92.146 L 489.128,91.699 L 489.353,91.141 L 489.353,90.688 L 489.465,90.133 L 489.465,89.571 L 489.465,89.12 L 489.353,88.674 L 489.353,88.337 L 489.241,87.888 L 488.791,87.217 L 488.454,86.542 L 488.119,86.208 L 487.786,85.871 L 487.111,85.421 L 486.324,84.974 L 485.431,84.638 L 484.535,84.192 L 483.524,83.855 L 481.398,83.292 L 479.044,82.508 L 476.687,81.951 L 474.333,81.164 L 473.104,80.718 L 471.871,80.268 L 470.859,79.706 L 469.741,79.26 L 468.729,78.588 L 467.836,77.918 L 466.94,77.13 L 466.153,76.235 L 465.816,75.785 L 465.479,75.335 L 464.92,74.218 L 464.36,73.096 L 464.135,72.54 L 464.023,71.865 L 464.023,71.08 L 463.911,70.405 L 463.799,69.622 L 463.799,68.838 L 463.799,68.165 L 463.911,67.379 L 464.023,66.709 L 464.135,66.034 L 464.36,65.361 L 464.582,64.804 L 464.92,64.13 L 465.253,63.567 L 465.59,63.008 L 465.928,62.557 L 466.49,61.996 L 466.939,61.437 L 467.499,60.988 L 467.945,60.541 L 469.177,59.645 L 469.739,59.308 L 470.299,58.975 L 471.086,58.634 L 471.757,58.301 L 473.103,57.742 L 474.557,57.293 L 475.345,57.071 L 476.128,56.845 L 477.694,56.618 L 479.265,56.509 L 480.829,56.396 z " style="fill-rule:evenodd" id="path17"/>
	<path d="M 686.045,93.046 L 686.045,93.046 L 686.045,93.832 L 686.045,94.5 L 686.157,95.062 L 686.269,95.509 L 686.494,95.958 L 686.832,96.517 L 686.94,96.855 L 687.273,97.188 L 687.615,97.526 L 687.837,97.751 L 688.283,97.976 L 688.62,98.201 L 689.405,98.423 L 690.078,98.535 L 690.078,99.881 L 672.37,99.881 L 672.37,98.535 L 673.042,98.423 L 673.379,98.423 L 673.829,98.201 L 674.391,97.752 L 674.726,97.527 L 675.063,97.189 L 675.509,96.518 L 675.734,95.959 L 675.959,95.51 L 676.073,94.501 L 676.184,93.833 L 676.184,93.047 L 676.184,72.647 L 660.6,100.668 L 659.705,100.668 L 643.455,71.864 L 643.455,93.047 L 643.455,93.833 L 643.455,94.5 L 643.679,95.062 L 643.792,95.509 L 644.013,95.958 L 644.35,96.517 L 644.462,96.855 L 644.8,97.188 L 645.137,97.526 L 645.363,97.751 L 645.809,97.976 L 646.146,98.201 L 646.929,98.423 L 647.6,98.535 L 647.6,99.881 L 633.929,99.881 L 633.929,98.535 L 634.605,98.423 L 635.046,98.423 L 635.383,98.201 L 636.058,97.752 L 636.284,97.527 L 636.622,97.189 L 637.071,96.518 L 637.293,95.959 L 637.514,95.51 L 637.743,94.501 L 637.851,93.833 L 637.851,93.047 L 637.851,63.905 L 637.851,63.234 L 637.851,62.896 L 637.743,62.557 L 637.627,61.887 L 637.627,61.553 L 637.515,61.213 L 637.294,60.767 L 637.072,60.319 L 636.956,59.982 L 636.623,59.645 L 636.285,59.421 L 636.059,59.196 L 635.722,58.975 L 635.384,58.749 L 635.047,58.634 L 634.606,58.522 L 633.93,58.522 L 633.93,57.182 L 647.826,57.182 L 662.284,85.2 L 678.092,57.182 L 689.86,57.182 L 689.86,58.522 L 689.074,58.522 L 688.735,58.634 L 688.401,58.749 L 688.065,58.975 L 687.839,59.196 L 687.168,59.645 L 686.942,59.982 L 686.721,60.319 L 686.495,60.767 L 686.27,61.213 L 686.158,61.887 L 686.046,62.557 L 686.046,63.234 L 686.046,63.905 L 686.046,93.046 L 686.045,93.046 z " style="fill-rule:evenodd" id="path19"/>
	<path d="M 776.941,100.444 L 776.941,100.444 L 775.257,100.444 L 746.229,69.622 L 746.229,92.928 L 746.229,93.832 L 746.229,94.5 L 746.454,95.062 L 746.567,95.509 L 746.788,95.958 L 746.904,96.517 L 747.239,96.855 L 747.575,97.188 L 747.8,97.414 L 748.133,97.751 L 748.471,97.976 L 748.809,98.201 L 749.143,98.313 L 749.479,98.422 L 750.263,98.534 L 750.263,99.88 L 736.703,99.88 L 736.703,98.534 L 737.375,98.422 L 737.712,98.313 L 738.046,98.201 L 738.833,97.752 L 739.059,97.415 L 739.284,97.189 L 739.843,96.518 L 739.955,95.959 L 740.18,95.51 L 740.513,94.501 L 740.513,93.833 L 740.513,92.929 L 740.513,63.792 L 740.513,63.12 L 740.513,62.446 L 740.402,61.886 L 740.29,61.329 L 740.068,60.881 L 739.956,60.429 L 739.844,60.092 L 739.507,59.755 L 739.285,59.421 L 738.947,59.196 L 738.61,58.975 L 738.276,58.859 L 737.491,58.522 L 736.705,58.415 L 736.705,57.182 L 748.923,57.182 L 771.339,81.387 L 771.339,63.905 L 771.228,63.234 L 771.228,62.671 L 771.118,61.996 L 770.894,61.437 L 770.777,60.988 L 770.665,60.541 L 770.332,60.204 L 770.107,59.755 L 769.878,59.421 L 769.544,59.308 L 768.869,58.858 L 768.535,58.633 L 768.089,58.521 L 767.306,58.414 L 767.306,57.181 L 780.865,57.181 L 780.865,58.414 L 780.531,58.521 L 780.194,58.521 L 779.744,58.633 L 779.519,58.858 L 778.736,59.308 L 778.51,59.421 L 778.173,59.755 L 777.835,60.204 L 777.728,60.541 L 777.393,60.988 L 777.164,61.437 L 777.056,61.996 L 776.944,62.671 L 776.944,63.234 L 776.944,63.905 L 776.944,100.444 L 776.941,100.444 z " style="fill-rule:evenodd" id="path21"/>
	<path d="M 695.572,99.879 L 695.572,99.879 L 695.572,98.533 L 696.02,98.533 L 696.469,98.421 L 697.25,98.088 L 697.925,97.638 L 698.258,97.413 L 698.599,97.075 L 698.704,96.742 L 698.936,96.4 L 699.157,95.845 L 699.269,95.395 L 699.495,94.387 L 699.495,93.712 L 699.495,92.927 L 699.495,63.905 L 699.495,63.345 L 699.495,62.671 L 699.382,62.109 L 699.157,61.553 L 699.045,61.104 L 698.821,60.542 L 698.598,60.205 L 698.372,59.872 L 698.032,59.535 L 697.698,59.31 L 697.476,59.086 L 697.03,58.86 L 696.352,58.523 L 696.018,58.523 L 695.57,58.523 L 695.57,57.183 L 729.077,57.183 L 732.331,66.369 L 731.21,66.71 L 730.648,66.148 L 730.089,65.586 L 729.53,65.03 L 728.968,64.581 L 727.734,63.795 L 727.173,63.46 L 726.502,63.237 L 725.834,63.011 L 725.155,62.899 L 724.486,62.674 L 723.813,62.56 L 723.026,62.449 L 722.133,62.449 L 720.449,62.336 L 712.266,62.336 L 711.37,62.449 L 710.921,62.449 L 710.698,62.56 L 710.136,62.786 L 709.682,63.011 L 709.578,63.237 L 709.349,63.46 L 709.241,63.908 L 709.128,64.691 L 709.128,65.587 L 709.128,74.667 L 720.224,74.667 L 721.679,74.667 L 722.915,74.557 L 723.811,74.22 L 724.149,74.109 L 724.484,73.884 L 725.045,73.546 L 725.266,73.209 L 725.495,72.988 L 725.716,72.317 L 725.937,71.754 L 727.058,71.754 L 727.058,83.406 L 725.937,83.406 L 725.716,82.51 L 725.6,82.286 L 725.5,81.95 L 725.271,81.612 L 725.05,81.496 L 724.825,81.163 L 724.596,80.937 L 724.154,80.828 L 723.925,80.717 L 723.367,80.603 L 722.92,80.491 L 721.684,80.38 L 720.229,80.268 L 709.133,80.268 L 709.133,91.479 L 709.133,92.373 L 709.246,93.156 L 709.246,93.494 L 709.354,93.715 L 709.583,94.055 L 709.687,94.165 L 709.916,94.28 L 710.141,94.502 L 710.703,94.727 L 711.375,94.838 L 712.271,94.838 L 722.359,94.838 L 723.925,94.838 L 725.383,94.727 L 726.841,94.39 L 727.629,94.281 L 728.3,94.055 L 729.079,93.834 L 729.866,93.494 L 730.538,93.156 L 731.1,92.71 L 731.775,92.26 L 732.554,91.589 L 733.117,91.027 L 733.676,90.359 L 734.8,90.689 L 731.55,99.88 L 695.572,99.88 L 695.572,99.879 z " style="fill-rule:evenodd" id="path23"/>
	<path d="M 797.899,65.583 L 797.899,65.583 L 797.787,64.578 L 797.672,63.904 L 797.559,63.344 L 797.225,63.007 L 797,62.671 L 796.554,62.446 L 795.996,62.333 L 795.434,62.333 L 792.855,62.333 L 791.846,62.446 L 790.838,62.446 L 789.942,62.557 L 789.159,62.671 L 788.375,62.896 L 787.7,63.008 L 787.142,63.345 L 786.467,63.567 L 785.792,63.905 L 785.233,64.464 L 784.674,65.028 L 784.003,65.699 L 782.655,67.38 L 781.533,66.933 L 784.895,57.183 L 820.537,57.183 L 823.787,66.933 L 822.778,67.38 L 821.432,65.699 L 820.648,65.028 L 820.086,64.464 L 819.642,63.905 L 818.966,63.567 L 818.405,63.345 L 817.844,63.008 L 817.061,62.896 L 816.39,62.671 L 815.607,62.557 L 814.711,62.446 L 813.812,62.446 L 812.695,62.333 L 810.228,62.333 L 809.557,62.333 L 809.108,62.446 L 808.657,62.671 L 808.433,62.783 L 808.208,63.008 L 808.095,63.12 L 807.983,63.345 L 807.875,63.905 L 807.646,64.579 L 807.646,65.584 L 807.646,93.046 L 807.646,93.832 L 807.761,94.388 L 807.983,95.509 L 808.095,95.958 L 808.208,96.4 L 808.433,96.742 L 808.766,97.187 L 808.991,97.525 L 809.217,97.637 L 809.891,98.087 L 810.337,98.311 L 810.784,98.42 L 811.572,98.532 L 811.572,99.878 L 793.866,99.878 L 793.866,98.532 L 794.762,98.42 L 795.658,98.087 L 795.996,97.861 L 796.329,97.636 L 796.554,97.411 L 796.892,97.073 L 797.117,96.74 L 797.225,96.398 L 797.451,95.956 L 797.559,95.507 L 797.672,94.948 L 797.787,94.386 L 797.787,93.83 L 797.899,93.044 L 797.899,65.583 L 797.899,65.583 z " style="fill-rule:evenodd" id="path25"/>
	<path d="M 843.175,56.396 L 843.175,56.396 L 844.966,56.508 L 845.754,56.508 L 846.537,56.617 L 848.107,56.844 L 849.452,56.954 L 850.572,57.291 L 851.582,57.628 L 852.816,57.966 L 853.264,58.074 L 853.488,57.966 L 853.599,57.853 L 853.71,57.853 L 853.823,57.74 L 853.931,57.18 L 853.931,56.953 L 854.047,56.843 L 855.169,56.507 L 858.306,66.708 L 857.073,67.155 L 856.174,66.258 L 855.727,65.698 L 855.17,65.249 L 854.498,64.804 L 853.823,64.242 L 853.154,63.906 L 852.368,63.458 L 851.469,63.009 L 850.572,62.784 L 849.565,62.334 L 848.556,62.109 L 847.436,61.887 L 846.312,61.776 L 845.198,61.661 L 843.853,61.553 L 843.174,61.553 L 842.502,61.661 L 841.048,61.776 L 839.59,62.109 L 838.807,62.223 L 838.247,62.557 L 837.573,62.896 L 837.237,63.008 L 836.902,63.12 L 836.451,63.567 L 836.227,63.793 L 836.002,64.017 L 835.668,64.579 L 835.33,65.249 L 835.105,65.921 L 835.105,66.257 L 835.105,66.594 L 835.213,67.378 L 835.442,68.164 L 835.78,68.723 L 836.002,68.949 L 836.227,69.171 L 836.564,69.508 L 836.902,69.732 L 837.685,70.179 L 838.468,70.629 L 839.364,70.963 L 840.26,71.3 L 841.268,71.75 L 843.622,72.313 L 845.864,72.984 L 848.334,73.655 L 850.793,74.442 L 852.03,74.891 L 853.262,75.333 L 854.267,75.895 L 855.504,76.458 L 856.513,77.128 L 857.521,78.028 L 858.417,78.808 L 859.201,79.704 L 859.872,80.602 L 860.208,81.277 L 860.434,81.723 L 860.996,82.953 L 861.217,83.624 L 861.329,84.19 L 861.441,84.861 L 861.554,85.647 L 861.554,86.315 L 861.665,87.099 L 861.554,88.557 L 861.441,89.344 L 861.329,90.015 L 861.217,90.686 L 861,91.249 L 860.329,92.592 L 859.763,93.832 L 859.429,94.388 L 858.867,94.836 L 858.533,95.396 L 857.971,95.734 L 857.409,96.293 L 856.855,96.743 L 855.617,97.526 L 854.946,97.975 L 854.271,98.312 L 852.705,98.984 L 851.812,99.209 L 851.025,99.435 L 849.233,99.994 L 848.221,99.994 L 847.324,100.219 L 845.421,100.447 L 843.177,100.447 L 841.388,100.447 L 839.706,100.328 L 838.134,100.107 L 836.677,99.995 L 835.218,99.769 L 833.99,99.436 L 831.409,98.765 L 831.074,98.765 L 830.735,98.765 L 830.626,98.873 L 830.401,98.985 L 830.293,99.097 L 830.18,99.323 L 830.065,99.768 L 829.956,99.994 L 829.843,99.994 L 829.284,100.219 L 828.722,100.327 L 824.235,87.889 L 825.581,87.443 L 826.256,88.226 L 826.927,89.01 L 827.602,89.681 L 828.498,90.468 L 829.284,91.142 L 830.18,91.813 L 831.185,92.373 L 832.197,92.93 L 833.315,93.494 L 834.439,93.943 L 835.672,94.389 L 836.905,94.726 L 838.134,94.952 L 839.48,95.176 L 841.051,95.398 L 842.505,95.398 L 843.856,95.398 L 844.968,95.291 L 846.093,95.064 L 846.99,94.838 L 847.884,94.614 L 848.672,94.28 L 849.343,93.943 L 849.902,93.606 L 850.127,93.38 L 850.352,93.047 L 850.798,92.709 L 851.135,92.147 L 851.361,91.7 L 851.586,91.142 L 851.698,90.689 L 851.698,90.134 L 851.698,89.572 L 851.698,89.12 L 851.698,88.674 L 851.698,88.337 L 851.473,87.888 L 851.135,87.217 L 850.69,86.542 L 850.352,86.208 L 850.018,85.871 L 849.344,85.421 L 848.56,84.974 L 847.773,84.638 L 846.765,84.192 L 845.757,83.855 L 843.742,83.292 L 841.272,82.508 L 838.922,81.951 L 836.568,81.164 L 835.335,80.718 L 834.21,80.268 L 833.093,79.706 L 832.085,79.26 L 830.964,78.588 L 830.066,77.918 L 829.172,77.13 L 828.385,76.235 L 828.164,75.785 L 827.711,75.335 L 827.152,74.218 L 826.702,73.096 L 826.48,72.54 L 826.368,71.865 L 826.256,71.081 L 826.148,70.406 L 826.032,69.623 L 826.032,68.839 L 826.032,68.166 L 826.148,67.38 L 826.256,66.71 L 826.368,66.035 L 826.594,65.362 L 826.927,64.805 L 827.264,64.131 L 827.492,63.568 L 827.94,63.009 L 828.277,62.558 L 828.723,61.997 L 829.172,61.438 L 829.732,60.989 L 830.181,60.542 L 831.41,59.646 L 831.972,59.309 L 832.534,58.976 L 833.314,58.635 L 833.99,58.302 L 835.334,57.743 L 836.905,57.294 L 837.688,57.072 L 838.359,56.846 L 839.926,56.619 L 841.496,56.51 L 843.175,56.396 z " style="fill-rule:evenodd" id="path27"/>
</g>
<g id="g29">
	<path d="M 322.294,98.538 L 321.512,98.092 L 320.615,97.646 L 319.941,96.863 L 319.157,96.187 L 318.595,95.517 L 318.262,95.067 L 318.148,94.73 L 317.704,93.947 L 302.009,57.076 L 293.828,57.076 L 283.629,81.954 L 277.242,96.634 L 275.446,98.43 L 276.121,99.888 L 286.767,99.888 L 286.767,98.655 L 286.318,98.655 L 285.982,98.539 L 285.755,98.539 L 285.311,98.431 L 284.975,98.322 L 284.751,98.093 L 284.412,97.868 L 284.079,97.646 L 283.968,97.195 L 283.742,96.751 L 283.631,96.416 L 283.631,95.854 L 283.631,95.292 L 283.856,94.618 L 283.968,93.947 L 286.543,87.892 L 304.476,87.892 L 306.83,93.613 L 307.167,94.396 L 307.277,95.067 L 307.392,95.853 L 307.392,96.3 L 307.392,96.634 L 307.277,96.75 L 307.167,97.194 L 306.943,97.645 L 306.608,97.867 L 306.159,98.32 L 305.485,98.538 L 304.814,98.654 L 304.367,98.654 L 304.367,99.887 L 323.194,99.887 L 323.194,98.654 L 322.294,98.538 z M 288.896,81.954 L 295.734,64.359 L 302.683,81.954 L 288.896,81.954 z " style="fill-rule:evenodd" id="path31"/>
	<path d="M 341.574,56.513 L 341.574,56.513 L 343.48,56.513 L 344.262,56.626 L 345.162,56.737 L 346.729,56.963 L 347.962,57.076 L 349.195,57.409 L 350.203,57.636 L 351.436,58.08 L 351.883,58.08 L 352.11,58.08 L 352.218,57.973 L 352.218,57.859 L 352.332,57.746 L 352.444,57.188 L 352.554,56.962 L 352.665,56.962 L 353.677,56.625 L 356.926,66.937 L 355.694,67.273 L 354.794,66.377 L 354.348,65.929 L 353.677,65.369 L 353.117,65.032 L 352.443,64.469 L 351.656,64.021 L 350.872,63.574 L 350.085,63.24 L 349.193,62.791 L 348.181,62.454 L 347.174,62.229 L 345.941,62.007 L 344.933,61.78 L 343.588,61.67 L 342.355,61.67 L 341.681,61.67 L 341.011,61.67 L 339.552,61.895 L 337.985,62.229 L 337.31,62.341 L 336.64,62.566 L 336.077,63.015 L 335.744,63.125 L 335.404,63.241 L 334.96,63.688 L 334.733,64.022 L 334.511,64.133 L 334.174,64.811 L 333.837,65.37 L 333.615,66.04 L 333.615,66.488 L 333.615,66.825 L 333.615,67.611 L 333.948,68.171 L 334.285,68.734 L 334.51,69.067 L 334.732,69.405 L 335.068,69.628 L 335.402,69.852 L 336.075,70.301 L 336.862,70.638 L 337.759,71.085 L 338.77,71.42 L 339.776,71.756 L 342.017,72.43 L 344.372,73.101 L 346.837,73.772 L 349.304,74.67 L 350.647,75.009 L 351.88,75.567 L 352.888,76.126 L 354.012,76.797 L 355.134,77.472 L 356.138,78.034 L 357.038,78.93 L 357.821,79.825 L 358.495,80.834 L 358.83,81.284 L 359.052,81.955 L 359.613,83.074 L 359.728,83.75 L 359.838,84.418 L 360.064,85.093 L 360.176,85.767 L 360.176,86.663 L 360.176,87.448 L 360.176,88.794 L 360.064,89.467 L 359.838,90.247 L 359.728,90.809 L 359.613,91.486 L 358.942,92.831 L 358.268,93.949 L 357.934,94.507 L 357.487,95.069 L 357.038,95.631 L 356.476,96.08 L 356.028,96.636 L 355.357,96.978 L 354.235,97.87 L 353.564,98.323 L 352.78,98.541 L 351.213,99.219 L 350.427,99.328 L 349.642,99.668 L 347.848,100.115 L 346.839,100.228 L 345.831,100.335 L 343.815,100.564 L 341.572,100.668 L 339.778,100.668 L 338.208,100.564 L 336.641,100.335 L 335.183,100.228 L 333.727,99.89 L 332.382,99.667 L 329.916,98.992 L 329.578,98.992 L 329.245,98.992 L 329.133,98.992 L 328.907,99.218 L 328.795,99.327 L 328.683,99.555 L 328.459,100.001 L 328.349,100.114 L 328.349,100.227 L 327.788,100.334 L 327.228,100.563 L 322.746,88.23 L 324.091,87.671 L 324.875,88.454 L 325.545,89.241 L 326.216,89.908 L 327.004,90.582 L 327.788,91.259 L 328.683,92.042 L 329.694,92.603 L 330.7,93.164 L 331.824,93.722 L 332.83,94.172 L 334.065,94.618 L 335.405,94.843 L 336.641,95.181 L 337.986,95.406 L 339.443,95.518 L 340.9,95.63 L 342.358,95.518 L 343.48,95.406 L 344.6,95.293 L 345.609,95.068 L 346.506,94.843 L 347.288,94.505 L 347.849,94.06 L 348.411,93.722 L 348.744,93.501 L 348.97,93.278 L 349.307,92.938 L 349.643,92.379 L 349.98,91.933 L 350.202,91.368 L 350.202,90.807 L 350.313,90.358 L 350.313,89.8 L 350.313,89.353 L 350.202,88.905 L 350.202,88.455 L 350.086,88.23 L 349.753,87.447 L 349.306,86.771 L 348.969,86.553 L 348.636,86.212 L 347.961,85.766 L 347.176,85.204 L 346.278,84.867 L 345.386,84.417 L 344.374,83.971 L 342.245,83.3 L 339.778,82.738 L 337.427,82.179 L 335.069,81.283 L 333.836,80.946 L 332.718,80.384 L 331.594,79.941 L 330.476,79.376 L 329.468,78.705 L 329.017,78.372 L 328.568,78.034 L 327.672,77.359 L 327.001,76.463 L 326.664,75.903 L 326.327,75.454 L 325.764,74.445 L 325.208,73.212 L 324.983,72.538 L 324.871,71.982 L 324.871,71.308 L 324.759,70.521 L 324.645,69.737 L 324.645,68.956 L 324.645,68.17 L 324.759,67.495 L 324.871,66.825 L 324.983,66.262 L 325.208,65.592 L 325.43,65.033 L 325.763,64.249 L 326.1,63.8 L 326.441,63.241 L 326.775,62.566 L 327.224,62.117 L 327.671,61.555 L 328.231,61.111 L 328.68,60.55 L 329.913,59.766 L 330.475,59.429 L 331.034,58.979 L 331.82,58.754 L 332.49,58.42 L 333.834,57.858 L 335.401,57.298 L 336.074,57.074 L 336.861,56.961 L 338.432,56.735 L 340.002,56.511 L 341.574,56.511 L 341.574,56.513 z " style="fill-rule:evenodd" id="path33"/>
	<path d="M 191.278,99.888 L 191.278,99.888 L 191.278,98.655 L 191.725,98.539 L 192.175,98.539 L 192.959,98.205 L 193.52,97.76 L 193.856,97.534 L 194.192,97.195 L 194.304,96.751 L 194.526,96.416 L 194.753,95.967 L 194.863,95.518 L 195.089,94.285 L 195.2,93.723 L 195.2,92.94 L 195.2,63.912 L 195.2,63.126 L 195.089,62.566 L 194.863,61.334 L 194.526,60.438 L 194.304,60.101 L 194.082,59.768 L 193.855,59.431 L 193.519,59.205 L 193.295,58.981 L 192.845,58.756 L 192.512,58.645 L 192.062,58.422 L 191.278,58.422 L 191.278,57.077 L 224.675,57.077 L 227.929,66.264 L 226.804,66.715 L 226.359,66.154 L 225.686,65.593 L 225.125,65.034 L 224.675,64.583 L 223.445,63.8 L 222.775,63.463 L 222.097,63.126 L 221.426,62.905 L 220.755,62.793 L 220.081,62.567 L 219.411,62.456 L 218.627,62.343 L 217.84,62.231 L 216.271,62.231 L 207.977,62.231 L 207.084,62.231 L 206.743,62.343 L 206.407,62.343 L 205.848,62.568 L 205.514,62.906 L 205.289,63.127 L 205.177,63.353 L 204.952,63.914 L 204.84,64.699 L 204.73,65.485 L 204.73,74.673 L 216.049,74.673 L 217.394,74.562 L 217.841,74.562 L 218.515,74.449 L 219.412,74.224 L 219.747,74.116 L 220.198,73.89 L 220.419,73.663 L 220.645,73.553 L 220.869,73.216 L 221.094,72.879 L 221.316,72.32 L 221.543,71.534 L 222.776,71.534 L 222.776,83.3 L 221.543,83.3 L 221.316,82.517 L 221.316,82.179 L 221.094,81.845 L 220.98,81.619 L 220.645,81.283 L 220.419,81.057 L 220.198,80.832 L 219.858,80.72 L 219.523,80.608 L 218.965,80.496 L 218.515,80.384 L 217.394,80.271 L 216.049,80.163 L 204.73,80.163 L 204.73,91.368 L 204.84,92.38 L 204.952,93.164 L 205.067,93.385 L 205.177,93.722 L 205.289,93.948 L 205.514,94.06 L 205.626,94.285 L 205.848,94.506 L 206.407,94.619 L 207.085,94.844 L 207.978,94.844 L 217.955,94.844 L 219.522,94.844 L 221.094,94.619 L 222.551,94.397 L 223.22,94.172 L 223.891,94.06 L 224.79,93.834 L 225.461,93.501 L 226.135,93.164 L 226.806,92.713 L 227.368,92.267 L 228.155,91.597 L 228.714,91.031 L 229.384,90.359 L 230.395,90.584 L 227.144,99.89 L 191.278,99.89 L 191.278,99.888 z " style="fill-rule:evenodd" id="path35"/>
	<path d="M 179.621,93.05 L 179.621,93.05 L 179.621,93.833 L 179.621,94.504 L 179.733,95.066 L 179.958,95.628 L 180.184,96.077 L 180.406,96.633 L 180.517,96.975 L 180.857,97.312 L 181.08,97.645 L 181.414,97.867 L 181.639,98.092 L 182.085,98.321 L 182.872,98.539 L 183.21,98.655 L 183.655,98.655 L 183.655,99.888 L 164.937,99.888 L 164.937,98.655 L 165.724,98.539 L 166.059,98.431 L 166.396,98.322 L 166.845,98.093 L 167.067,97.868 L 167.404,97.646 L 167.741,97.313 L 168.074,96.634 L 168.3,96.078 L 168.523,95.629 L 168.638,95.067 L 168.638,94.505 L 168.749,93.834 L 168.749,93.05 L 168.749,51.695 L 168.638,50.799 L 168.638,50.238 L 168.412,50.016 L 168.3,49.79 L 168.074,49.79 L 167.741,49.675 L 167.628,49.565 L 167.294,49.453 L 166.619,49.342 L 164.713,49.342 L 161.466,49.342 L 160.008,49.342 L 158.663,49.453 L 156.311,49.675 L 155.188,49.79 L 154.179,49.902 L 153.284,50.123 L 152.499,50.46 L 151.715,50.798 L 151.041,51.135 L 150.369,51.582 L 150.032,51.806 L 149.696,52.141 L 149.359,52.364 L 149.026,52.702 L 148.465,53.376 L 147.343,52.812 L 150.708,42.952 L 197.554,42.952 L 200.916,52.812 L 199.797,53.376 L 199.571,53.039 L 199.235,52.702 L 198.676,52.141 L 197.892,51.582 L 197.668,51.359 L 197.218,51.134 L 196.88,50.907 L 196.546,50.797 L 195.764,50.459 L 194.976,50.122 L 194.084,49.901 L 192.064,49.674 L 189.599,49.452 L 188.369,49.341 L 186.798,49.341 L 183.658,49.341 L 181.753,49.341 L 181.083,49.452 L 180.521,49.674 L 180.41,49.789 L 180.188,49.789 L 179.962,50.015 L 179.851,50.237 L 179.625,50.798 L 179.625,51.243 L 179.625,51.694 L 179.625,93.05 L 179.621,93.05 z " style="fill-rule:evenodd" id="path37"/>
	<path d="M 259.196,77.358 L 259.196,77.358 L 249.67,79.598 L 237.228,63.8 L 236.445,62.682 L 235.66,61.781 L 234.986,60.996 L 234.203,60.437 L 233.528,59.875 L 233.191,59.766 L 232.855,59.54 L 231.959,59.203 L 231.398,59.092 L 230.95,59.092 L 230.95,57.859 L 251.011,57.859 L 251.011,59.092 L 250.564,59.092 L 250.34,59.092 L 249.893,59.317 L 249.556,59.43 L 249.33,59.655 L 249.106,59.877 L 248.771,60.101 L 248.66,60.438 L 248.546,60.774 L 248.546,61.111 L 248.434,61.555 L 248.546,62.008 L 248.546,62.455 L 248.771,63.016 L 249.106,63.463 L 249.443,64.023 L 255.381,72.317 L 262.33,63.242 L 262.891,62.455 L 263.116,61.671 L 263.227,61.334 L 263.338,60.997 L 263.227,60.66 L 263.227,60.438 L 263.116,60.101 L 263.005,59.877 L 262.779,59.655 L 262.442,59.43 L 262.105,59.317 L 261.881,59.092 L 261.434,59.092 L 261.1,59.092 L 261.1,57.859 L 277.015,57.859 L 277.015,59.092 L 276.121,59.203 L 275.224,59.429 L 274.326,59.875 L 273.432,60.21 L 272.533,60.772 L 271.525,61.445 L 271.188,62.006 L 270.629,62.453 L 270.293,63.014 L 269.733,63.574 L 259.196,77.358 L 259.196,77.358 z " style="fill-rule:evenodd" id="path39"/>
	<path d="M 260.208,76.796 L 260.208,76.796 L 263.008,81.283 L 264.238,83.523 L 265.583,85.424 L 266.816,87.445 L 268.275,89.464 L 269.841,91.703 L 271.524,94.057 L 272.42,95.289 L 272.869,95.738 L 273.095,96.184 L 274.438,97.31 L 276.903,99.55 L 276.903,99.662 L 276.679,99.772 L 276.453,99.884 L 258.188,99.884 L 258.188,98.651 L 258.749,98.651 L 259.419,98.535 L 259.756,98.317 L 260.091,98.088 L 260.318,97.863 L 260.655,97.755 L 260.877,97.309 L 260.989,96.972 L 261.099,96.63 L 261.099,96.183 L 260.989,95.625 L 260.762,95.063 L 260.429,94.501 L 259.982,93.718 L 253.369,84.643 L 245.857,94.501 L 245.633,95.063 L 245.297,95.513 L 245.074,95.962 L 244.96,96.296 L 244.96,96.746 L 244.96,96.972 L 245.074,97.417 L 245.185,97.642 L 245.296,97.864 L 245.518,98.089 L 245.968,98.427 L 246.305,98.652 L 246.642,98.652 L 247.314,98.652 L 247.314,99.885 L 231.061,99.885 L 231.061,98.652 L 231.51,98.652 L 231.959,98.536 L 232.855,98.202 L 233.867,97.757 L 234.873,97.086 L 235.885,96.413 L 236.892,95.515 L 237.899,94.502 L 238.796,93.498 L 249.667,79.265 L 260.208,76.796 z " style="fill-rule:evenodd" id="path41"/>
</g>
</svg>