M48
; DRILL file {KiCad 5.1.9-1.fc32} date Sun Mar 14 18:14:39 2021
; FORMAT={-:-/ absolute / inch / decimal}
; #@! TF.CreationDate,2021-03-14T18:14:39+05:30
; #@! TF.GenerationSoftware,Kicad,Pcbnew,5.1.9-1.fc32
; #@! TF.FileFunction,Plated,1,2,PTH
FMAT,2
INCH
T1C0.0118
T2C0.0394
T3C0.0591
%
G90
G05
T1
X4.7874Y-3.6685
X4.7906Y-3.9693
X4.7992Y-3.6453
X4.8031Y-3.9972
X4.8154Y-3.9701
X4.8161Y-3.6681
X4.828Y-3.998
X4.839Y-3.9697
X4.8547Y-3.9976
X4.8634Y-3.9697
X4.8819Y-3.7654
X4.8843Y-3.9902
X4.8874Y-3.8764
X4.8929Y-3.9618
X4.9472Y-3.6646
X4.9484Y-3.639
X4.9669Y-3.7701
X5.011Y-3.8528
X5.0567Y-3.6386
X5.0579Y-3.6669
X5.0732Y-3.9642
X5.0744Y-3.9957
X5.0772Y-3.8902
X5.1327Y-3.9039
X5.1469Y-3.8528
X5.1496Y-3.6386
X5.1508Y-3.8008
X5.2063Y-3.9988
X5.2209Y-3.639
X5.239Y-3.9213
X5.2512Y-3.8547
X5.2669Y-3.7413
X5.2697Y-3.8268
X5.2886Y-3.9988
X5.289Y-3.7083
X5.3106Y-3.9988
X5.3122Y-3.6386
X5.3323Y-3.9988
X5.3512Y-3.6386
X5.352Y-3.7709
X5.3575Y-3.9992
X5.3665Y-3.8783
X5.3728Y-3.6386
X5.3945Y-3.6386
X5.3949Y-3.9354
X5.4157Y-3.9988
X5.4165Y-3.6386
X5.4374Y-3.9512
X5.4374Y-3.9787
X5.4382Y-3.6386
X5.4382Y-3.6618
X5.4606Y-3.9988
X5.4854Y-3.9988
X5.5091Y-3.9992
X5.5134Y-3.639
X5.5327Y-3.9988
X5.5571Y-3.9988
X5.5693Y-3.8831
X5.5744Y-3.6866
X5.5819Y-3.9984
X5.5878Y-3.6398
X5.5894Y-3.976
X5.6008Y-3.6646
X5.6122Y-3.6398
X5.6122Y-3.9984
X5.6209Y-3.9728
X5.6252Y-3.6646
X5.6358Y-3.6394
X5.6358Y-3.9988
X5.6469Y-3.9748
X5.6484Y-3.663
X5.6594Y-3.6398
X5.6594Y-3.9984
X5.6705Y-3.9748
X5.6717Y-3.663
X5.6839Y-3.6398
X5.6839Y-3.9984
X5.6949Y-3.9748
X5.6961Y-3.663
X5.7075Y-3.6394
X5.7075Y-3.9988
X5.7185Y-3.9752
X5.7197Y-3.6626
X5.7323Y-3.6402
X5.7323Y-3.998
X5.7429Y-3.9756
X5.7445Y-3.6634
T2
X4.7677Y-3.7197
X4.7677Y-3.8197
X4.7677Y-3.9197
X4.8425Y-3.7197
X4.8425Y-3.8197
X4.8425Y-3.9197
X5.6441Y-3.7193
X5.6441Y-3.8193
X5.6441Y-3.9193
X5.7681Y-3.7193
X5.7681Y-3.8193
X5.7681Y-3.9193
T3
X5.7071Y-3.7197
X5.7071Y-3.8197
X5.7071Y-3.9197
T0
M30
