%TF.GenerationSoftware,KiCad,Pcbnew,5.1.9-1.fc32*%
%TF.CreationDate,2021-03-14T18:14:37+05:30*%
%TF.ProjectId,BioAmp-EXG-Pill,42696f41-6d70-42d4-9558-472d50696c6c,v0.7*%
%TF.SameCoordinates,Original*%
%TF.FileFunction,Copper,L2,Bot*%
%TF.FilePolarity,Positive*%
%FSLAX46Y46*%
G04 Gerber Fmt 4.6, Leading zero omitted, Abs format (unit mm)*
G04 Created by KiCad (PCBNEW 5.1.9-1.fc32) date 2021-03-14 18:14:37*
%MOMM*%
%LPD*%
G01*
G04 APERTURE LIST*
%TA.AperFunction,ComponentPad*%
%ADD10O,3.500000X1.700000*%
%TD*%
%TA.AperFunction,ComponentPad*%
%ADD11O,3.500000X2.000000*%
%TD*%
%TA.AperFunction,ComponentPad*%
%ADD12O,4.500000X2.000000*%
%TD*%
%TA.AperFunction,ComponentPad*%
%ADD13O,2.000000X1.700000*%
%TD*%
%TA.AperFunction,ViaPad*%
%ADD14C,0.500000*%
%TD*%
%TA.AperFunction,ViaPad*%
%ADD15C,0.400000*%
%TD*%
%TA.AperFunction,ViaPad*%
%ADD16C,1.700000*%
%TD*%
%TA.AperFunction,Conductor*%
%ADD17C,0.400000*%
%TD*%
%TA.AperFunction,Conductor*%
%ADD18C,0.254000*%
%TD*%
%TA.AperFunction,Conductor*%
%ADD19C,0.100000*%
%TD*%
G04 APERTURE END LIST*
D10*
%TO.P,J2,1*%
%TO.N,OUT*%
X121850000Y-94480000D03*
%TO.P,J2,2*%
%TO.N,GND*%
X121850000Y-97020000D03*
%TO.P,J2,3*%
%TO.N,VCC*%
X121850000Y-99560000D03*
%TD*%
D11*
%TO.P,J1,1*%
%TO.N,DRL*%
X145760000Y-94470000D03*
%TO.P,J1,2*%
%TO.N,BIO+*%
X145760000Y-97010000D03*
%TO.P,J1,3*%
%TO.N,BIO-*%
X145760000Y-99550000D03*
%TD*%
D12*
%TO.P,J1,3*%
%TO.N,BIO-*%
X144610000Y-99550000D03*
%TO.P,J1,2*%
%TO.N,BIO+*%
X144610000Y-97010000D03*
%TO.P,J1,1*%
%TO.N,DRL*%
X144610000Y-94470000D03*
%TD*%
D13*
%TO.P,J2,3*%
%TO.N,VCC*%
X123000000Y-99560000D03*
%TO.P,J2,2*%
%TO.N,GND*%
X123000000Y-97020000D03*
%TO.P,J2,1*%
%TO.N,OUT*%
X123000000Y-94480000D03*
%TD*%
D14*
%TO.N,Net-(C1-Pad2)*%
X141590000Y-93640000D03*
X134340000Y-94190000D03*
%TO.N,vRef*%
X130730000Y-97860000D03*
X127280000Y-97860000D03*
%TO.N,VCC*%
X128960000Y-98810000D03*
X137030000Y-99960000D03*
D15*
%TO.N,GND*%
X121680000Y-100820000D03*
X122000000Y-101530000D03*
X122310000Y-100840000D03*
X122630000Y-101550000D03*
X122910000Y-100830000D03*
X123310000Y-101540000D03*
X124060000Y-101350000D03*
X123530000Y-100830000D03*
X124280000Y-100630000D03*
X121600000Y-93180000D03*
X122330000Y-93170000D03*
X121900000Y-92590000D03*
X134930000Y-92420000D03*
X135920000Y-92420000D03*
X137020000Y-92420000D03*
X137580000Y-92420000D03*
X136470000Y-92420000D03*
X138130000Y-92420000D03*
X133780000Y-95030000D03*
X135940000Y-95780000D03*
X138110000Y-101060000D03*
X138110000Y-100360000D03*
X135440000Y-101570000D03*
X134890000Y-101570000D03*
X132610000Y-92430000D03*
X130800000Y-92420000D03*
X125690000Y-92430000D03*
X128440000Y-92420000D03*
X128470000Y-93140000D03*
X128890000Y-101490000D03*
X132240000Y-101570000D03*
X144370000Y-92450000D03*
X143470000Y-93040000D03*
X143750000Y-92450000D03*
X145910000Y-93050000D03*
X144060000Y-93040000D03*
X145600000Y-92460000D03*
X145280000Y-93030000D03*
X144680000Y-93040000D03*
X144970000Y-92440000D03*
X143150000Y-92440000D03*
X142550000Y-92450000D03*
X142260000Y-93080000D03*
X142880000Y-93080000D03*
X141930000Y-92450000D03*
X143750000Y-101560000D03*
X143150000Y-101570000D03*
X145870000Y-100980000D03*
X144970000Y-101570000D03*
X143430000Y-100960000D03*
X144370000Y-101560000D03*
X145600000Y-101550000D03*
X144030000Y-100960000D03*
X141970000Y-100990000D03*
X141780000Y-101560000D03*
X145250000Y-100970000D03*
X144650000Y-100960000D03*
X142770000Y-100910000D03*
X142550000Y-101560000D03*
X141150000Y-101570000D03*
X140530000Y-101570000D03*
X139330000Y-101570000D03*
X138700000Y-101570000D03*
X139930000Y-101580000D03*
X134330000Y-101570000D03*
X137560000Y-101570000D03*
X136080000Y-101580000D03*
X140040000Y-92430000D03*
X124000000Y-95640000D03*
X124140000Y-98460000D03*
D14*
X133850000Y-97200000D03*
X126160000Y-95760000D03*
X128860000Y-100690000D03*
D15*
X125660000Y-93080000D03*
X138130000Y-93010000D03*
D16*
%TO.N,BIO+*%
X144960000Y-97020000D03*
%TO.N,BIO-*%
X144960000Y-99560000D03*
D14*
%TO.N,Net-(R1-Pad1)*%
X136310000Y-98510000D03*
X130370000Y-99160000D03*
X141460000Y-98630000D03*
D16*
%TO.N,DRL*%
X144960000Y-94480000D03*
D14*
X133070000Y-99600000D03*
%TO.N,ampRef*%
X130830000Y-96540000D03*
X133380000Y-97910000D03*
%TD*%
D17*
%TO.N,Net-(C1-Pad2)*%
X134890000Y-93640000D02*
X134340000Y-94190000D01*
X141590000Y-93640000D02*
X134890000Y-93640000D01*
%TO.N,vRef*%
X130730000Y-97860000D02*
X127280000Y-97860000D01*
%TO.N,VCC*%
X136039982Y-100950018D02*
X137030000Y-99960000D01*
X131100018Y-100950018D02*
X136039982Y-100950018D01*
X128960000Y-98810000D02*
X131100018Y-100950018D01*
%TO.N,GND*%
X133850000Y-97200000D02*
X132270000Y-95620000D01*
X126500001Y-98330001D02*
X128860000Y-100690000D01*
X126500001Y-98330001D02*
X125840001Y-98330001D01*
X125840001Y-98330001D02*
X125300000Y-97790000D01*
X125300000Y-97790000D02*
X125300000Y-96620000D01*
X125300000Y-96620000D02*
X126160000Y-95760000D01*
X126160000Y-95760000D02*
X127010000Y-94910000D01*
X131560000Y-94910000D02*
X132270000Y-95620000D01*
X127010000Y-94910000D02*
X131560000Y-94910000D01*
%TO.N,Net-(R1-Pad1)*%
X141340000Y-98510000D02*
X141460000Y-98630000D01*
X136310000Y-98510000D02*
X141340000Y-98510000D01*
X134469991Y-100350009D02*
X136310000Y-98510000D01*
X131550009Y-100350009D02*
X134469991Y-100350009D01*
X130410000Y-99210000D02*
X131550009Y-100350009D01*
%TO.N,DRL*%
X138200000Y-94470000D02*
X143360000Y-94470000D01*
X133070000Y-99600000D02*
X138200000Y-94470000D01*
%TO.N,ampRef*%
X131990000Y-96520000D02*
X133380000Y-97910000D01*
X130830000Y-96520000D02*
X131990000Y-96520000D01*
%TD*%
D18*
%TO.N,GND*%
X145625533Y-92365997D02*
X145746291Y-92402456D01*
X145857667Y-92461675D01*
X145955412Y-92541394D01*
X146035816Y-92638586D01*
X146095811Y-92749545D01*
X146133110Y-92870039D01*
X146148000Y-93011699D01*
X146148000Y-93143000D01*
X143294816Y-93143000D01*
X143099863Y-93162201D01*
X142849722Y-93238081D01*
X142619192Y-93361302D01*
X142417130Y-93527130D01*
X142251302Y-93729192D01*
X142137019Y-93943000D01*
X142081494Y-93943000D01*
X142101331Y-93913312D01*
X142144826Y-93808305D01*
X142167000Y-93696830D01*
X142167000Y-93583170D01*
X142144826Y-93471695D01*
X142101331Y-93366688D01*
X142038185Y-93272184D01*
X141957816Y-93191815D01*
X141863312Y-93128669D01*
X141758305Y-93085174D01*
X141646830Y-93063000D01*
X141533170Y-93063000D01*
X141421695Y-93085174D01*
X141354517Y-93113000D01*
X134915877Y-93113000D01*
X134889999Y-93110451D01*
X134864121Y-93113000D01*
X134864119Y-93113000D01*
X134786690Y-93120626D01*
X134687350Y-93150761D01*
X134595798Y-93199696D01*
X134515552Y-93265552D01*
X134499049Y-93285661D01*
X134133869Y-93650842D01*
X134066688Y-93678669D01*
X133972184Y-93741815D01*
X133891815Y-93822184D01*
X133828669Y-93916688D01*
X133785174Y-94021695D01*
X133763000Y-94133170D01*
X133763000Y-94246830D01*
X133785174Y-94358305D01*
X133828669Y-94463312D01*
X133891815Y-94557816D01*
X133972184Y-94638185D01*
X134066688Y-94701331D01*
X134171695Y-94744826D01*
X134283170Y-94767000D01*
X134396830Y-94767000D01*
X134508305Y-94744826D01*
X134613312Y-94701331D01*
X134707816Y-94638185D01*
X134788185Y-94557816D01*
X134851331Y-94463312D01*
X134879158Y-94396131D01*
X135108290Y-94167000D01*
X137757709Y-94167000D01*
X133956781Y-97967929D01*
X133957000Y-97966830D01*
X133957000Y-97853170D01*
X133934826Y-97741695D01*
X133891331Y-97636688D01*
X133828185Y-97542184D01*
X133747816Y-97461815D01*
X133653312Y-97398669D01*
X133586134Y-97370843D01*
X132380955Y-96165666D01*
X132364448Y-96145552D01*
X132284202Y-96079696D01*
X132192650Y-96030761D01*
X132093310Y-96000626D01*
X132015881Y-95993000D01*
X131990000Y-95990451D01*
X131964119Y-95993000D01*
X131017199Y-95993000D01*
X130998305Y-95985174D01*
X130886830Y-95963000D01*
X130773170Y-95963000D01*
X130661695Y-95985174D01*
X130556688Y-96028669D01*
X130462184Y-96091815D01*
X130381815Y-96172184D01*
X130318669Y-96266688D01*
X130275174Y-96371695D01*
X130253000Y-96483170D01*
X130253000Y-96596830D01*
X130275174Y-96708305D01*
X130318669Y-96813312D01*
X130381815Y-96907816D01*
X130462184Y-96988185D01*
X130556688Y-97051331D01*
X130661695Y-97094826D01*
X130773170Y-97117000D01*
X130886830Y-97117000D01*
X130998305Y-97094826D01*
X131103312Y-97051331D01*
X131109794Y-97047000D01*
X131771711Y-97047000D01*
X132840843Y-98116134D01*
X132868669Y-98183312D01*
X132931815Y-98277816D01*
X133012184Y-98358185D01*
X133106688Y-98421331D01*
X133211695Y-98464826D01*
X133323170Y-98487000D01*
X133436830Y-98487000D01*
X133437929Y-98486781D01*
X132863869Y-99060842D01*
X132796688Y-99088669D01*
X132702184Y-99151815D01*
X132621815Y-99232184D01*
X132558669Y-99326688D01*
X132515174Y-99431695D01*
X132493000Y-99543170D01*
X132493000Y-99656830D01*
X132515174Y-99768305D01*
X132537833Y-99823009D01*
X131768299Y-99823009D01*
X130916229Y-98970940D01*
X130881331Y-98886688D01*
X130818185Y-98792184D01*
X130737816Y-98711815D01*
X130643312Y-98648669D01*
X130538305Y-98605174D01*
X130426830Y-98583000D01*
X130313170Y-98583000D01*
X130201695Y-98605174D01*
X130096688Y-98648669D01*
X130002184Y-98711815D01*
X129921815Y-98792184D01*
X129858669Y-98886688D01*
X129836207Y-98940917D01*
X129499158Y-98603869D01*
X129471331Y-98536688D01*
X129408185Y-98442184D01*
X129353001Y-98387000D01*
X130494517Y-98387000D01*
X130561695Y-98414826D01*
X130673170Y-98437000D01*
X130786830Y-98437000D01*
X130898305Y-98414826D01*
X131003312Y-98371331D01*
X131097816Y-98308185D01*
X131178185Y-98227816D01*
X131241331Y-98133312D01*
X131284826Y-98028305D01*
X131307000Y-97916830D01*
X131307000Y-97803170D01*
X131284826Y-97691695D01*
X131241331Y-97586688D01*
X131178185Y-97492184D01*
X131097816Y-97411815D01*
X131003312Y-97348669D01*
X130898305Y-97305174D01*
X130786830Y-97283000D01*
X130673170Y-97283000D01*
X130561695Y-97305174D01*
X130494517Y-97333000D01*
X127515483Y-97333000D01*
X127448305Y-97305174D01*
X127336830Y-97283000D01*
X127223170Y-97283000D01*
X127111695Y-97305174D01*
X127006688Y-97348669D01*
X126912184Y-97411815D01*
X126831815Y-97492184D01*
X126768669Y-97586688D01*
X126725174Y-97691695D01*
X126703000Y-97803170D01*
X126703000Y-97916830D01*
X126725174Y-98028305D01*
X126768669Y-98133312D01*
X126831815Y-98227816D01*
X126912184Y-98308185D01*
X127006688Y-98371331D01*
X127111695Y-98414826D01*
X127223170Y-98437000D01*
X127336830Y-98437000D01*
X127448305Y-98414826D01*
X127515483Y-98387000D01*
X128566999Y-98387000D01*
X128511815Y-98442184D01*
X128448669Y-98536688D01*
X128405174Y-98641695D01*
X128383000Y-98753170D01*
X128383000Y-98866830D01*
X128405174Y-98978305D01*
X128448669Y-99083312D01*
X128511815Y-99177816D01*
X128592184Y-99258185D01*
X128686688Y-99321331D01*
X128753869Y-99349158D01*
X130709067Y-101304357D01*
X130725570Y-101324466D01*
X130805816Y-101390322D01*
X130897368Y-101439257D01*
X130996708Y-101469392D01*
X131074137Y-101477018D01*
X131074139Y-101477018D01*
X131100017Y-101479567D01*
X131125895Y-101477018D01*
X136014101Y-101477018D01*
X136039982Y-101479567D01*
X136065863Y-101477018D01*
X136143292Y-101469392D01*
X136242632Y-101439257D01*
X136334184Y-101390322D01*
X136414430Y-101324466D01*
X136430937Y-101304352D01*
X137236132Y-100499158D01*
X137303312Y-100471331D01*
X137397816Y-100408185D01*
X137478185Y-100327816D01*
X137541331Y-100233312D01*
X137584826Y-100128305D01*
X137607000Y-100016830D01*
X137607000Y-99903170D01*
X137584826Y-99791695D01*
X137541331Y-99686688D01*
X137478185Y-99592184D01*
X137397816Y-99511815D01*
X137303312Y-99448669D01*
X137198305Y-99405174D01*
X137086830Y-99383000D01*
X136973170Y-99383000D01*
X136861695Y-99405174D01*
X136756688Y-99448669D01*
X136662184Y-99511815D01*
X136581815Y-99592184D01*
X136518669Y-99686688D01*
X136490842Y-99753868D01*
X135821693Y-100423018D01*
X135142271Y-100423018D01*
X136516134Y-99049157D01*
X136545483Y-99037000D01*
X141050999Y-99037000D01*
X141092184Y-99078185D01*
X141186688Y-99141331D01*
X141291695Y-99184826D01*
X141403170Y-99207000D01*
X141516830Y-99207000D01*
X141628305Y-99184826D01*
X141733312Y-99141331D01*
X141827816Y-99078185D01*
X141908185Y-98997816D01*
X141971331Y-98903312D01*
X142014826Y-98798305D01*
X142037000Y-98686830D01*
X142037000Y-98573170D01*
X142014826Y-98461695D01*
X141971331Y-98356688D01*
X141908185Y-98262184D01*
X141827816Y-98181815D01*
X141733312Y-98118669D01*
X141653689Y-98085688D01*
X141634202Y-98069696D01*
X141542650Y-98020761D01*
X141443310Y-97990626D01*
X141365881Y-97983000D01*
X141340000Y-97980451D01*
X141314119Y-97983000D01*
X136545483Y-97983000D01*
X136478305Y-97955174D01*
X136366830Y-97933000D01*
X136253170Y-97933000D01*
X136141695Y-97955174D01*
X136036688Y-97998669D01*
X135942184Y-98061815D01*
X135861815Y-98142184D01*
X135798669Y-98236688D01*
X135770843Y-98303866D01*
X134251702Y-99823009D01*
X133602167Y-99823009D01*
X133609158Y-99806131D01*
X138418291Y-94997000D01*
X142137019Y-94997000D01*
X142251302Y-95210808D01*
X142417130Y-95412870D01*
X142619192Y-95578698D01*
X142849722Y-95701919D01*
X142975257Y-95740000D01*
X142849722Y-95778081D01*
X142619192Y-95901302D01*
X142417130Y-96067130D01*
X142251302Y-96269192D01*
X142128081Y-96499722D01*
X142052201Y-96749863D01*
X142026580Y-97010000D01*
X142052201Y-97270137D01*
X142128081Y-97520278D01*
X142251302Y-97750808D01*
X142417130Y-97952870D01*
X142619192Y-98118698D01*
X142849722Y-98241919D01*
X142975257Y-98280000D01*
X142849722Y-98318081D01*
X142619192Y-98441302D01*
X142417130Y-98607130D01*
X142251302Y-98809192D01*
X142128081Y-99039722D01*
X142052201Y-99289863D01*
X142026580Y-99550000D01*
X142052201Y-99810137D01*
X142128081Y-100060278D01*
X142251302Y-100290808D01*
X142417130Y-100492870D01*
X142619192Y-100658698D01*
X142849722Y-100781919D01*
X143099863Y-100857799D01*
X143294816Y-100877000D01*
X146148001Y-100877000D01*
X146148001Y-100982775D01*
X146134003Y-101125537D01*
X146097545Y-101246290D01*
X146038324Y-101357668D01*
X145958606Y-101455412D01*
X145861411Y-101535819D01*
X145750456Y-101595811D01*
X145629961Y-101633110D01*
X145488301Y-101648000D01*
X122117215Y-101648000D01*
X121974463Y-101634003D01*
X121853710Y-101597545D01*
X121742332Y-101538324D01*
X121644588Y-101458606D01*
X121564181Y-101361411D01*
X121504189Y-101250456D01*
X121466890Y-101129961D01*
X121452000Y-100988301D01*
X121452000Y-100737000D01*
X123207812Y-100737000D01*
X123380732Y-100719969D01*
X123602597Y-100652667D01*
X123807070Y-100543374D01*
X123986291Y-100396291D01*
X124133374Y-100217070D01*
X124242667Y-100012597D01*
X124309969Y-99790732D01*
X124332694Y-99560000D01*
X124309969Y-99329268D01*
X124242667Y-99107403D01*
X124133374Y-98902930D01*
X123986291Y-98723709D01*
X123807070Y-98576626D01*
X123602597Y-98467333D01*
X123537939Y-98447719D01*
X123642745Y-98422096D01*
X123906812Y-98299025D01*
X124141795Y-98126802D01*
X124338664Y-97912046D01*
X124489854Y-97663009D01*
X124589554Y-97389261D01*
X124591476Y-97376890D01*
X124470155Y-97147000D01*
X122853000Y-97147000D01*
X122853000Y-96893000D01*
X124470155Y-96893000D01*
X124591476Y-96663110D01*
X124589554Y-96650739D01*
X124489854Y-96376991D01*
X124338664Y-96127954D01*
X124141795Y-95913198D01*
X123906812Y-95740975D01*
X123642745Y-95617904D01*
X123537939Y-95592281D01*
X123602597Y-95572667D01*
X123807070Y-95463374D01*
X123986291Y-95316291D01*
X124133374Y-95137070D01*
X124242667Y-94932597D01*
X124309969Y-94710732D01*
X124332694Y-94480000D01*
X124309969Y-94249268D01*
X124242667Y-94027403D01*
X124133374Y-93822930D01*
X123986291Y-93643709D01*
X123807070Y-93496626D01*
X123602597Y-93387333D01*
X123380732Y-93320031D01*
X123207812Y-93303000D01*
X121452000Y-93303000D01*
X121452000Y-93017216D01*
X121465997Y-92874467D01*
X121502456Y-92753709D01*
X121561675Y-92642333D01*
X121641394Y-92544588D01*
X121738586Y-92464184D01*
X121849545Y-92404189D01*
X121970039Y-92366890D01*
X122111699Y-92352000D01*
X145482784Y-92352000D01*
X145625533Y-92365997D01*
%TA.AperFunction,Conductor*%
D19*
G36*
X145625533Y-92365997D02*
G01*
X145746291Y-92402456D01*
X145857667Y-92461675D01*
X145955412Y-92541394D01*
X146035816Y-92638586D01*
X146095811Y-92749545D01*
X146133110Y-92870039D01*
X146148000Y-93011699D01*
X146148000Y-93143000D01*
X143294816Y-93143000D01*
X143099863Y-93162201D01*
X142849722Y-93238081D01*
X142619192Y-93361302D01*
X142417130Y-93527130D01*
X142251302Y-93729192D01*
X142137019Y-93943000D01*
X142081494Y-93943000D01*
X142101331Y-93913312D01*
X142144826Y-93808305D01*
X142167000Y-93696830D01*
X142167000Y-93583170D01*
X142144826Y-93471695D01*
X142101331Y-93366688D01*
X142038185Y-93272184D01*
X141957816Y-93191815D01*
X141863312Y-93128669D01*
X141758305Y-93085174D01*
X141646830Y-93063000D01*
X141533170Y-93063000D01*
X141421695Y-93085174D01*
X141354517Y-93113000D01*
X134915877Y-93113000D01*
X134889999Y-93110451D01*
X134864121Y-93113000D01*
X134864119Y-93113000D01*
X134786690Y-93120626D01*
X134687350Y-93150761D01*
X134595798Y-93199696D01*
X134515552Y-93265552D01*
X134499049Y-93285661D01*
X134133869Y-93650842D01*
X134066688Y-93678669D01*
X133972184Y-93741815D01*
X133891815Y-93822184D01*
X133828669Y-93916688D01*
X133785174Y-94021695D01*
X133763000Y-94133170D01*
X133763000Y-94246830D01*
X133785174Y-94358305D01*
X133828669Y-94463312D01*
X133891815Y-94557816D01*
X133972184Y-94638185D01*
X134066688Y-94701331D01*
X134171695Y-94744826D01*
X134283170Y-94767000D01*
X134396830Y-94767000D01*
X134508305Y-94744826D01*
X134613312Y-94701331D01*
X134707816Y-94638185D01*
X134788185Y-94557816D01*
X134851331Y-94463312D01*
X134879158Y-94396131D01*
X135108290Y-94167000D01*
X137757709Y-94167000D01*
X133956781Y-97967929D01*
X133957000Y-97966830D01*
X133957000Y-97853170D01*
X133934826Y-97741695D01*
X133891331Y-97636688D01*
X133828185Y-97542184D01*
X133747816Y-97461815D01*
X133653312Y-97398669D01*
X133586134Y-97370843D01*
X132380955Y-96165666D01*
X132364448Y-96145552D01*
X132284202Y-96079696D01*
X132192650Y-96030761D01*
X132093310Y-96000626D01*
X132015881Y-95993000D01*
X131990000Y-95990451D01*
X131964119Y-95993000D01*
X131017199Y-95993000D01*
X130998305Y-95985174D01*
X130886830Y-95963000D01*
X130773170Y-95963000D01*
X130661695Y-95985174D01*
X130556688Y-96028669D01*
X130462184Y-96091815D01*
X130381815Y-96172184D01*
X130318669Y-96266688D01*
X130275174Y-96371695D01*
X130253000Y-96483170D01*
X130253000Y-96596830D01*
X130275174Y-96708305D01*
X130318669Y-96813312D01*
X130381815Y-96907816D01*
X130462184Y-96988185D01*
X130556688Y-97051331D01*
X130661695Y-97094826D01*
X130773170Y-97117000D01*
X130886830Y-97117000D01*
X130998305Y-97094826D01*
X131103312Y-97051331D01*
X131109794Y-97047000D01*
X131771711Y-97047000D01*
X132840843Y-98116134D01*
X132868669Y-98183312D01*
X132931815Y-98277816D01*
X133012184Y-98358185D01*
X133106688Y-98421331D01*
X133211695Y-98464826D01*
X133323170Y-98487000D01*
X133436830Y-98487000D01*
X133437929Y-98486781D01*
X132863869Y-99060842D01*
X132796688Y-99088669D01*
X132702184Y-99151815D01*
X132621815Y-99232184D01*
X132558669Y-99326688D01*
X132515174Y-99431695D01*
X132493000Y-99543170D01*
X132493000Y-99656830D01*
X132515174Y-99768305D01*
X132537833Y-99823009D01*
X131768299Y-99823009D01*
X130916229Y-98970940D01*
X130881331Y-98886688D01*
X130818185Y-98792184D01*
X130737816Y-98711815D01*
X130643312Y-98648669D01*
X130538305Y-98605174D01*
X130426830Y-98583000D01*
X130313170Y-98583000D01*
X130201695Y-98605174D01*
X130096688Y-98648669D01*
X130002184Y-98711815D01*
X129921815Y-98792184D01*
X129858669Y-98886688D01*
X129836207Y-98940917D01*
X129499158Y-98603869D01*
X129471331Y-98536688D01*
X129408185Y-98442184D01*
X129353001Y-98387000D01*
X130494517Y-98387000D01*
X130561695Y-98414826D01*
X130673170Y-98437000D01*
X130786830Y-98437000D01*
X130898305Y-98414826D01*
X131003312Y-98371331D01*
X131097816Y-98308185D01*
X131178185Y-98227816D01*
X131241331Y-98133312D01*
X131284826Y-98028305D01*
X131307000Y-97916830D01*
X131307000Y-97803170D01*
X131284826Y-97691695D01*
X131241331Y-97586688D01*
X131178185Y-97492184D01*
X131097816Y-97411815D01*
X131003312Y-97348669D01*
X130898305Y-97305174D01*
X130786830Y-97283000D01*
X130673170Y-97283000D01*
X130561695Y-97305174D01*
X130494517Y-97333000D01*
X127515483Y-97333000D01*
X127448305Y-97305174D01*
X127336830Y-97283000D01*
X127223170Y-97283000D01*
X127111695Y-97305174D01*
X127006688Y-97348669D01*
X126912184Y-97411815D01*
X126831815Y-97492184D01*
X126768669Y-97586688D01*
X126725174Y-97691695D01*
X126703000Y-97803170D01*
X126703000Y-97916830D01*
X126725174Y-98028305D01*
X126768669Y-98133312D01*
X126831815Y-98227816D01*
X126912184Y-98308185D01*
X127006688Y-98371331D01*
X127111695Y-98414826D01*
X127223170Y-98437000D01*
X127336830Y-98437000D01*
X127448305Y-98414826D01*
X127515483Y-98387000D01*
X128566999Y-98387000D01*
X128511815Y-98442184D01*
X128448669Y-98536688D01*
X128405174Y-98641695D01*
X128383000Y-98753170D01*
X128383000Y-98866830D01*
X128405174Y-98978305D01*
X128448669Y-99083312D01*
X128511815Y-99177816D01*
X128592184Y-99258185D01*
X128686688Y-99321331D01*
X128753869Y-99349158D01*
X130709067Y-101304357D01*
X130725570Y-101324466D01*
X130805816Y-101390322D01*
X130897368Y-101439257D01*
X130996708Y-101469392D01*
X131074137Y-101477018D01*
X131074139Y-101477018D01*
X131100017Y-101479567D01*
X131125895Y-101477018D01*
X136014101Y-101477018D01*
X136039982Y-101479567D01*
X136065863Y-101477018D01*
X136143292Y-101469392D01*
X136242632Y-101439257D01*
X136334184Y-101390322D01*
X136414430Y-101324466D01*
X136430937Y-101304352D01*
X137236132Y-100499158D01*
X137303312Y-100471331D01*
X137397816Y-100408185D01*
X137478185Y-100327816D01*
X137541331Y-100233312D01*
X137584826Y-100128305D01*
X137607000Y-100016830D01*
X137607000Y-99903170D01*
X137584826Y-99791695D01*
X137541331Y-99686688D01*
X137478185Y-99592184D01*
X137397816Y-99511815D01*
X137303312Y-99448669D01*
X137198305Y-99405174D01*
X137086830Y-99383000D01*
X136973170Y-99383000D01*
X136861695Y-99405174D01*
X136756688Y-99448669D01*
X136662184Y-99511815D01*
X136581815Y-99592184D01*
X136518669Y-99686688D01*
X136490842Y-99753868D01*
X135821693Y-100423018D01*
X135142271Y-100423018D01*
X136516134Y-99049157D01*
X136545483Y-99037000D01*
X141050999Y-99037000D01*
X141092184Y-99078185D01*
X141186688Y-99141331D01*
X141291695Y-99184826D01*
X141403170Y-99207000D01*
X141516830Y-99207000D01*
X141628305Y-99184826D01*
X141733312Y-99141331D01*
X141827816Y-99078185D01*
X141908185Y-98997816D01*
X141971331Y-98903312D01*
X142014826Y-98798305D01*
X142037000Y-98686830D01*
X142037000Y-98573170D01*
X142014826Y-98461695D01*
X141971331Y-98356688D01*
X141908185Y-98262184D01*
X141827816Y-98181815D01*
X141733312Y-98118669D01*
X141653689Y-98085688D01*
X141634202Y-98069696D01*
X141542650Y-98020761D01*
X141443310Y-97990626D01*
X141365881Y-97983000D01*
X141340000Y-97980451D01*
X141314119Y-97983000D01*
X136545483Y-97983000D01*
X136478305Y-97955174D01*
X136366830Y-97933000D01*
X136253170Y-97933000D01*
X136141695Y-97955174D01*
X136036688Y-97998669D01*
X135942184Y-98061815D01*
X135861815Y-98142184D01*
X135798669Y-98236688D01*
X135770843Y-98303866D01*
X134251702Y-99823009D01*
X133602167Y-99823009D01*
X133609158Y-99806131D01*
X138418291Y-94997000D01*
X142137019Y-94997000D01*
X142251302Y-95210808D01*
X142417130Y-95412870D01*
X142619192Y-95578698D01*
X142849722Y-95701919D01*
X142975257Y-95740000D01*
X142849722Y-95778081D01*
X142619192Y-95901302D01*
X142417130Y-96067130D01*
X142251302Y-96269192D01*
X142128081Y-96499722D01*
X142052201Y-96749863D01*
X142026580Y-97010000D01*
X142052201Y-97270137D01*
X142128081Y-97520278D01*
X142251302Y-97750808D01*
X142417130Y-97952870D01*
X142619192Y-98118698D01*
X142849722Y-98241919D01*
X142975257Y-98280000D01*
X142849722Y-98318081D01*
X142619192Y-98441302D01*
X142417130Y-98607130D01*
X142251302Y-98809192D01*
X142128081Y-99039722D01*
X142052201Y-99289863D01*
X142026580Y-99550000D01*
X142052201Y-99810137D01*
X142128081Y-100060278D01*
X142251302Y-100290808D01*
X142417130Y-100492870D01*
X142619192Y-100658698D01*
X142849722Y-100781919D01*
X143099863Y-100857799D01*
X143294816Y-100877000D01*
X146148001Y-100877000D01*
X146148001Y-100982775D01*
X146134003Y-101125537D01*
X146097545Y-101246290D01*
X146038324Y-101357668D01*
X145958606Y-101455412D01*
X145861411Y-101535819D01*
X145750456Y-101595811D01*
X145629961Y-101633110D01*
X145488301Y-101648000D01*
X122117215Y-101648000D01*
X121974463Y-101634003D01*
X121853710Y-101597545D01*
X121742332Y-101538324D01*
X121644588Y-101458606D01*
X121564181Y-101361411D01*
X121504189Y-101250456D01*
X121466890Y-101129961D01*
X121452000Y-100988301D01*
X121452000Y-100737000D01*
X123207812Y-100737000D01*
X123380732Y-100719969D01*
X123602597Y-100652667D01*
X123807070Y-100543374D01*
X123986291Y-100396291D01*
X124133374Y-100217070D01*
X124242667Y-100012597D01*
X124309969Y-99790732D01*
X124332694Y-99560000D01*
X124309969Y-99329268D01*
X124242667Y-99107403D01*
X124133374Y-98902930D01*
X123986291Y-98723709D01*
X123807070Y-98576626D01*
X123602597Y-98467333D01*
X123537939Y-98447719D01*
X123642745Y-98422096D01*
X123906812Y-98299025D01*
X124141795Y-98126802D01*
X124338664Y-97912046D01*
X124489854Y-97663009D01*
X124589554Y-97389261D01*
X124591476Y-97376890D01*
X124470155Y-97147000D01*
X122853000Y-97147000D01*
X122853000Y-96893000D01*
X124470155Y-96893000D01*
X124591476Y-96663110D01*
X124589554Y-96650739D01*
X124489854Y-96376991D01*
X124338664Y-96127954D01*
X124141795Y-95913198D01*
X123906812Y-95740975D01*
X123642745Y-95617904D01*
X123537939Y-95592281D01*
X123602597Y-95572667D01*
X123807070Y-95463374D01*
X123986291Y-95316291D01*
X124133374Y-95137070D01*
X124242667Y-94932597D01*
X124309969Y-94710732D01*
X124332694Y-94480000D01*
X124309969Y-94249268D01*
X124242667Y-94027403D01*
X124133374Y-93822930D01*
X123986291Y-93643709D01*
X123807070Y-93496626D01*
X123602597Y-93387333D01*
X123380732Y-93320031D01*
X123207812Y-93303000D01*
X121452000Y-93303000D01*
X121452000Y-93017216D01*
X121465997Y-92874467D01*
X121502456Y-92753709D01*
X121561675Y-92642333D01*
X121641394Y-92544588D01*
X121738586Y-92464184D01*
X121849545Y-92404189D01*
X121970039Y-92366890D01*
X122111699Y-92352000D01*
X145482784Y-92352000D01*
X145625533Y-92365997D01*
G37*
%TD.AperFunction*%
%TD*%
M02*
