%TF.GenerationSoftware,KiCad,Pcbnew,5.1.9-1.fc32*%
%TF.CreationDate,2021-03-14T18:14:37+05:30*%
%TF.ProjectId,BioAmp-EXG-Pill,42696f41-6d70-42d4-9558-472d50696c6c,v0.7*%
%TF.SameCoordinates,Original*%
%TF.FileFunction,Soldermask,Top*%
%TF.FilePolarity,Negative*%
%FSLAX46Y46*%
G04 Gerber Fmt 4.6, Leading zero omitted, Abs format (unit mm)*
G04 Created by KiCad (PCBNEW 5.1.9-1.fc32) date 2021-03-14 18:14:37*
%MOMM*%
%LPD*%
G01*
G04 APERTURE LIST*
%ADD10O,3.500000X1.700000*%
%ADD11O,3.500000X2.000000*%
%ADD12O,4.500000X2.000000*%
%ADD13O,2.000000X1.700000*%
G04 APERTURE END LIST*
%TO.C,U1*%
G36*
G01*
X132325000Y-99050000D02*
X132325000Y-99250000D01*
G75*
G02*
X132225000Y-99350000I-100000J0D01*
G01*
X130950000Y-99350000D01*
G75*
G02*
X130850000Y-99250000I0J100000D01*
G01*
X130850000Y-99050000D01*
G75*
G02*
X130950000Y-98950000I100000J0D01*
G01*
X132225000Y-98950000D01*
G75*
G02*
X132325000Y-99050000I0J-100000D01*
G01*
G37*
G36*
G01*
X132325000Y-98400000D02*
X132325000Y-98600000D01*
G75*
G02*
X132225000Y-98700000I-100000J0D01*
G01*
X130950000Y-98700000D01*
G75*
G02*
X130850000Y-98600000I0J100000D01*
G01*
X130850000Y-98400000D01*
G75*
G02*
X130950000Y-98300000I100000J0D01*
G01*
X132225000Y-98300000D01*
G75*
G02*
X132325000Y-98400000I0J-100000D01*
G01*
G37*
G36*
G01*
X132325000Y-97750000D02*
X132325000Y-97950000D01*
G75*
G02*
X132225000Y-98050000I-100000J0D01*
G01*
X130950000Y-98050000D01*
G75*
G02*
X130850000Y-97950000I0J100000D01*
G01*
X130850000Y-97750000D01*
G75*
G02*
X130950000Y-97650000I100000J0D01*
G01*
X132225000Y-97650000D01*
G75*
G02*
X132325000Y-97750000I0J-100000D01*
G01*
G37*
G36*
G01*
X132325000Y-97100000D02*
X132325000Y-97300000D01*
G75*
G02*
X132225000Y-97400000I-100000J0D01*
G01*
X130950000Y-97400000D01*
G75*
G02*
X130850000Y-97300000I0J100000D01*
G01*
X130850000Y-97100000D01*
G75*
G02*
X130950000Y-97000000I100000J0D01*
G01*
X132225000Y-97000000D01*
G75*
G02*
X132325000Y-97100000I0J-100000D01*
G01*
G37*
G36*
G01*
X132325000Y-96450000D02*
X132325000Y-96650000D01*
G75*
G02*
X132225000Y-96750000I-100000J0D01*
G01*
X130950000Y-96750000D01*
G75*
G02*
X130850000Y-96650000I0J100000D01*
G01*
X130850000Y-96450000D01*
G75*
G02*
X130950000Y-96350000I100000J0D01*
G01*
X132225000Y-96350000D01*
G75*
G02*
X132325000Y-96450000I0J-100000D01*
G01*
G37*
G36*
G01*
X132325000Y-95800000D02*
X132325000Y-96000000D01*
G75*
G02*
X132225000Y-96100000I-100000J0D01*
G01*
X130950000Y-96100000D01*
G75*
G02*
X130850000Y-96000000I0J100000D01*
G01*
X130850000Y-95800000D01*
G75*
G02*
X130950000Y-95700000I100000J0D01*
G01*
X132225000Y-95700000D01*
G75*
G02*
X132325000Y-95800000I0J-100000D01*
G01*
G37*
G36*
G01*
X132325000Y-95150000D02*
X132325000Y-95350000D01*
G75*
G02*
X132225000Y-95450000I-100000J0D01*
G01*
X130950000Y-95450000D01*
G75*
G02*
X130850000Y-95350000I0J100000D01*
G01*
X130850000Y-95150000D01*
G75*
G02*
X130950000Y-95050000I100000J0D01*
G01*
X132225000Y-95050000D01*
G75*
G02*
X132325000Y-95150000I0J-100000D01*
G01*
G37*
G36*
G01*
X138050000Y-95150000D02*
X138050000Y-95350000D01*
G75*
G02*
X137950000Y-95450000I-100000J0D01*
G01*
X136675000Y-95450000D01*
G75*
G02*
X136575000Y-95350000I0J100000D01*
G01*
X136575000Y-95150000D01*
G75*
G02*
X136675000Y-95050000I100000J0D01*
G01*
X137950000Y-95050000D01*
G75*
G02*
X138050000Y-95150000I0J-100000D01*
G01*
G37*
G36*
G01*
X138050000Y-95800000D02*
X138050000Y-96000000D01*
G75*
G02*
X137950000Y-96100000I-100000J0D01*
G01*
X136675000Y-96100000D01*
G75*
G02*
X136575000Y-96000000I0J100000D01*
G01*
X136575000Y-95800000D01*
G75*
G02*
X136675000Y-95700000I100000J0D01*
G01*
X137950000Y-95700000D01*
G75*
G02*
X138050000Y-95800000I0J-100000D01*
G01*
G37*
G36*
G01*
X138050000Y-96450000D02*
X138050000Y-96650000D01*
G75*
G02*
X137950000Y-96750000I-100000J0D01*
G01*
X136675000Y-96750000D01*
G75*
G02*
X136575000Y-96650000I0J100000D01*
G01*
X136575000Y-96450000D01*
G75*
G02*
X136675000Y-96350000I100000J0D01*
G01*
X137950000Y-96350000D01*
G75*
G02*
X138050000Y-96450000I0J-100000D01*
G01*
G37*
G36*
G01*
X138050000Y-97100000D02*
X138050000Y-97300000D01*
G75*
G02*
X137950000Y-97400000I-100000J0D01*
G01*
X136675000Y-97400000D01*
G75*
G02*
X136575000Y-97300000I0J100000D01*
G01*
X136575000Y-97100000D01*
G75*
G02*
X136675000Y-97000000I100000J0D01*
G01*
X137950000Y-97000000D01*
G75*
G02*
X138050000Y-97100000I0J-100000D01*
G01*
G37*
G36*
G01*
X138050000Y-97750000D02*
X138050000Y-97950000D01*
G75*
G02*
X137950000Y-98050000I-100000J0D01*
G01*
X136675000Y-98050000D01*
G75*
G02*
X136575000Y-97950000I0J100000D01*
G01*
X136575000Y-97750000D01*
G75*
G02*
X136675000Y-97650000I100000J0D01*
G01*
X137950000Y-97650000D01*
G75*
G02*
X138050000Y-97750000I0J-100000D01*
G01*
G37*
G36*
G01*
X138050000Y-98400000D02*
X138050000Y-98600000D01*
G75*
G02*
X137950000Y-98700000I-100000J0D01*
G01*
X136675000Y-98700000D01*
G75*
G02*
X136575000Y-98600000I0J100000D01*
G01*
X136575000Y-98400000D01*
G75*
G02*
X136675000Y-98300000I100000J0D01*
G01*
X137950000Y-98300000D01*
G75*
G02*
X138050000Y-98400000I0J-100000D01*
G01*
G37*
G36*
G01*
X138050000Y-99050000D02*
X138050000Y-99250000D01*
G75*
G02*
X137950000Y-99350000I-100000J0D01*
G01*
X136675000Y-99350000D01*
G75*
G02*
X136575000Y-99250000I0J100000D01*
G01*
X136575000Y-99050000D01*
G75*
G02*
X136675000Y-98950000I100000J0D01*
G01*
X137950000Y-98950000D01*
G75*
G02*
X138050000Y-99050000I0J-100000D01*
G01*
G37*
%TD*%
%TO.C,C3*%
G36*
G01*
X127037500Y-98805000D02*
X126562500Y-98805000D01*
G75*
G02*
X126325000Y-98567500I0J237500D01*
G01*
X126325000Y-97967500D01*
G75*
G02*
X126562500Y-97730000I237500J0D01*
G01*
X127037500Y-97730000D01*
G75*
G02*
X127275000Y-97967500I0J-237500D01*
G01*
X127275000Y-98567500D01*
G75*
G02*
X127037500Y-98805000I-237500J0D01*
G01*
G37*
G36*
G01*
X127037500Y-100530000D02*
X126562500Y-100530000D01*
G75*
G02*
X126325000Y-100292500I0J237500D01*
G01*
X126325000Y-99692500D01*
G75*
G02*
X126562500Y-99455000I237500J0D01*
G01*
X127037500Y-99455000D01*
G75*
G02*
X127275000Y-99692500I0J-237500D01*
G01*
X127275000Y-100292500D01*
G75*
G02*
X127037500Y-100530000I-237500J0D01*
G01*
G37*
%TD*%
D10*
%TO.C,J2*%
X121850000Y-94480000D03*
X121850000Y-97020000D03*
X121850000Y-99560000D03*
%TD*%
D11*
%TO.C,J1*%
X145760000Y-94470000D03*
X145760000Y-97010000D03*
X145760000Y-99550000D03*
%TD*%
%TO.C,C1*%
G36*
G01*
X133050000Y-93925000D02*
X133050000Y-92975000D01*
G75*
G02*
X133300000Y-92725000I250000J0D01*
G01*
X133975000Y-92725000D01*
G75*
G02*
X134225000Y-92975000I0J-250000D01*
G01*
X134225000Y-93925000D01*
G75*
G02*
X133975000Y-94175000I-250000J0D01*
G01*
X133300000Y-94175000D01*
G75*
G02*
X133050000Y-93925000I0J250000D01*
G01*
G37*
G36*
G01*
X130975000Y-93925000D02*
X130975000Y-92975000D01*
G75*
G02*
X131225000Y-92725000I250000J0D01*
G01*
X131900000Y-92725000D01*
G75*
G02*
X132150000Y-92975000I0J-250000D01*
G01*
X132150000Y-93925000D01*
G75*
G02*
X131900000Y-94175000I-250000J0D01*
G01*
X131225000Y-94175000D01*
G75*
G02*
X130975000Y-93925000I0J250000D01*
G01*
G37*
%TD*%
%TO.C,C8*%
G36*
G01*
X136395000Y-100967500D02*
X136395000Y-100492500D01*
G75*
G02*
X136632500Y-100255000I237500J0D01*
G01*
X137232500Y-100255000D01*
G75*
G02*
X137470000Y-100492500I0J-237500D01*
G01*
X137470000Y-100967500D01*
G75*
G02*
X137232500Y-101205000I-237500J0D01*
G01*
X136632500Y-101205000D01*
G75*
G02*
X136395000Y-100967500I0J237500D01*
G01*
G37*
G36*
G01*
X134670000Y-100967500D02*
X134670000Y-100492500D01*
G75*
G02*
X134907500Y-100255000I237500J0D01*
G01*
X135507500Y-100255000D01*
G75*
G02*
X135745000Y-100492500I0J-237500D01*
G01*
X135745000Y-100967500D01*
G75*
G02*
X135507500Y-101205000I-237500J0D01*
G01*
X134907500Y-101205000D01*
G75*
G02*
X134670000Y-100967500I0J237500D01*
G01*
G37*
%TD*%
%TO.C,R12*%
G36*
G01*
X140425000Y-96437500D02*
X140425000Y-95962500D01*
G75*
G02*
X140662500Y-95725000I237500J0D01*
G01*
X141162500Y-95725000D01*
G75*
G02*
X141400000Y-95962500I0J-237500D01*
G01*
X141400000Y-96437500D01*
G75*
G02*
X141162500Y-96675000I-237500J0D01*
G01*
X140662500Y-96675000D01*
G75*
G02*
X140425000Y-96437500I0J237500D01*
G01*
G37*
G36*
G01*
X138600000Y-96437500D02*
X138600000Y-95962500D01*
G75*
G02*
X138837500Y-95725000I237500J0D01*
G01*
X139337500Y-95725000D01*
G75*
G02*
X139575000Y-95962500I0J-237500D01*
G01*
X139575000Y-96437500D01*
G75*
G02*
X139337500Y-96675000I-237500J0D01*
G01*
X138837500Y-96675000D01*
G75*
G02*
X138600000Y-96437500I0J237500D01*
G01*
G37*
%TD*%
%TO.C,R11*%
G36*
G01*
X133125000Y-100987500D02*
X133125000Y-100512500D01*
G75*
G02*
X133362500Y-100275000I237500J0D01*
G01*
X133862500Y-100275000D01*
G75*
G02*
X134100000Y-100512500I0J-237500D01*
G01*
X134100000Y-100987500D01*
G75*
G02*
X133862500Y-101225000I-237500J0D01*
G01*
X133362500Y-101225000D01*
G75*
G02*
X133125000Y-100987500I0J237500D01*
G01*
G37*
G36*
G01*
X131300000Y-100987500D02*
X131300000Y-100512500D01*
G75*
G02*
X131537500Y-100275000I237500J0D01*
G01*
X132037500Y-100275000D01*
G75*
G02*
X132275000Y-100512500I0J-237500D01*
G01*
X132275000Y-100987500D01*
G75*
G02*
X132037500Y-101225000I-237500J0D01*
G01*
X131537500Y-101225000D01*
G75*
G02*
X131300000Y-100987500I0J237500D01*
G01*
G37*
%TD*%
%TO.C,R6*%
G36*
G01*
X140425000Y-97937500D02*
X140425000Y-97462500D01*
G75*
G02*
X140662500Y-97225000I237500J0D01*
G01*
X141162500Y-97225000D01*
G75*
G02*
X141400000Y-97462500I0J-237500D01*
G01*
X141400000Y-97937500D01*
G75*
G02*
X141162500Y-98175000I-237500J0D01*
G01*
X140662500Y-98175000D01*
G75*
G02*
X140425000Y-97937500I0J237500D01*
G01*
G37*
G36*
G01*
X138600000Y-97937500D02*
X138600000Y-97462500D01*
G75*
G02*
X138837500Y-97225000I237500J0D01*
G01*
X139337500Y-97225000D01*
G75*
G02*
X139575000Y-97462500I0J-237500D01*
G01*
X139575000Y-97937500D01*
G75*
G02*
X139337500Y-98175000I-237500J0D01*
G01*
X138837500Y-98175000D01*
G75*
G02*
X138600000Y-97937500I0J237500D01*
G01*
G37*
%TD*%
%TO.C,R9*%
G36*
G01*
X126562500Y-96205000D02*
X127037500Y-96205000D01*
G75*
G02*
X127275000Y-96442500I0J-237500D01*
G01*
X127275000Y-96942500D01*
G75*
G02*
X127037500Y-97180000I-237500J0D01*
G01*
X126562500Y-97180000D01*
G75*
G02*
X126325000Y-96942500I0J237500D01*
G01*
X126325000Y-96442500D01*
G75*
G02*
X126562500Y-96205000I237500J0D01*
G01*
G37*
G36*
G01*
X126562500Y-94380000D02*
X127037500Y-94380000D01*
G75*
G02*
X127275000Y-94617500I0J-237500D01*
G01*
X127275000Y-95117500D01*
G75*
G02*
X127037500Y-95355000I-237500J0D01*
G01*
X126562500Y-95355000D01*
G75*
G02*
X126325000Y-95117500I0J237500D01*
G01*
X126325000Y-94617500D01*
G75*
G02*
X126562500Y-94380000I237500J0D01*
G01*
G37*
%TD*%
%TO.C,R8*%
G36*
G01*
X125062500Y-99555000D02*
X125537500Y-99555000D01*
G75*
G02*
X125775000Y-99792500I0J-237500D01*
G01*
X125775000Y-100292500D01*
G75*
G02*
X125537500Y-100530000I-237500J0D01*
G01*
X125062500Y-100530000D01*
G75*
G02*
X124825000Y-100292500I0J237500D01*
G01*
X124825000Y-99792500D01*
G75*
G02*
X125062500Y-99555000I237500J0D01*
G01*
G37*
G36*
G01*
X125062500Y-97730000D02*
X125537500Y-97730000D01*
G75*
G02*
X125775000Y-97967500I0J-237500D01*
G01*
X125775000Y-98467500D01*
G75*
G02*
X125537500Y-98705000I-237500J0D01*
G01*
X125062500Y-98705000D01*
G75*
G02*
X124825000Y-98467500I0J237500D01*
G01*
X124825000Y-97967500D01*
G75*
G02*
X125062500Y-97730000I237500J0D01*
G01*
G37*
%TD*%
%TO.C,R7*%
G36*
G01*
X129562500Y-96205000D02*
X130037500Y-96205000D01*
G75*
G02*
X130275000Y-96442500I0J-237500D01*
G01*
X130275000Y-96942500D01*
G75*
G02*
X130037500Y-97180000I-237500J0D01*
G01*
X129562500Y-97180000D01*
G75*
G02*
X129325000Y-96942500I0J237500D01*
G01*
X129325000Y-96442500D01*
G75*
G02*
X129562500Y-96205000I237500J0D01*
G01*
G37*
G36*
G01*
X129562500Y-94380000D02*
X130037500Y-94380000D01*
G75*
G02*
X130275000Y-94617500I0J-237500D01*
G01*
X130275000Y-95117500D01*
G75*
G02*
X130037500Y-95355000I-237500J0D01*
G01*
X129562500Y-95355000D01*
G75*
G02*
X129325000Y-95117500I0J237500D01*
G01*
X129325000Y-94617500D01*
G75*
G02*
X129562500Y-94380000I237500J0D01*
G01*
G37*
%TD*%
%TO.C,R5*%
G36*
G01*
X139565000Y-92962500D02*
X139565000Y-93437500D01*
G75*
G02*
X139327500Y-93675000I-237500J0D01*
G01*
X138827500Y-93675000D01*
G75*
G02*
X138590000Y-93437500I0J237500D01*
G01*
X138590000Y-92962500D01*
G75*
G02*
X138827500Y-92725000I237500J0D01*
G01*
X139327500Y-92725000D01*
G75*
G02*
X139565000Y-92962500I0J-237500D01*
G01*
G37*
G36*
G01*
X141390000Y-92962500D02*
X141390000Y-93437500D01*
G75*
G02*
X141152500Y-93675000I-237500J0D01*
G01*
X140652500Y-93675000D01*
G75*
G02*
X140415000Y-93437500I0J237500D01*
G01*
X140415000Y-92962500D01*
G75*
G02*
X140652500Y-92725000I237500J0D01*
G01*
X141152500Y-92725000D01*
G75*
G02*
X141390000Y-92962500I0J-237500D01*
G01*
G37*
%TD*%
%TO.C,R4*%
G36*
G01*
X139575000Y-94462500D02*
X139575000Y-94937500D01*
G75*
G02*
X139337500Y-95175000I-237500J0D01*
G01*
X138837500Y-95175000D01*
G75*
G02*
X138600000Y-94937500I0J237500D01*
G01*
X138600000Y-94462500D01*
G75*
G02*
X138837500Y-94225000I237500J0D01*
G01*
X139337500Y-94225000D01*
G75*
G02*
X139575000Y-94462500I0J-237500D01*
G01*
G37*
G36*
G01*
X141400000Y-94462500D02*
X141400000Y-94937500D01*
G75*
G02*
X141162500Y-95175000I-237500J0D01*
G01*
X140662500Y-95175000D01*
G75*
G02*
X140425000Y-94937500I0J237500D01*
G01*
X140425000Y-94462500D01*
G75*
G02*
X140662500Y-94225000I237500J0D01*
G01*
X141162500Y-94225000D01*
G75*
G02*
X141400000Y-94462500I0J-237500D01*
G01*
G37*
%TD*%
%TO.C,R3*%
G36*
G01*
X139565000Y-100442500D02*
X139565000Y-100917500D01*
G75*
G02*
X139327500Y-101155000I-237500J0D01*
G01*
X138827500Y-101155000D01*
G75*
G02*
X138590000Y-100917500I0J237500D01*
G01*
X138590000Y-100442500D01*
G75*
G02*
X138827500Y-100205000I237500J0D01*
G01*
X139327500Y-100205000D01*
G75*
G02*
X139565000Y-100442500I0J-237500D01*
G01*
G37*
G36*
G01*
X141390000Y-100442500D02*
X141390000Y-100917500D01*
G75*
G02*
X141152500Y-101155000I-237500J0D01*
G01*
X140652500Y-101155000D01*
G75*
G02*
X140415000Y-100917500I0J237500D01*
G01*
X140415000Y-100442500D01*
G75*
G02*
X140652500Y-100205000I237500J0D01*
G01*
X141152500Y-100205000D01*
G75*
G02*
X141390000Y-100442500I0J-237500D01*
G01*
G37*
%TD*%
%TO.C,R2*%
G36*
G01*
X140415000Y-99417500D02*
X140415000Y-98942500D01*
G75*
G02*
X140652500Y-98705000I237500J0D01*
G01*
X141152500Y-98705000D01*
G75*
G02*
X141390000Y-98942500I0J-237500D01*
G01*
X141390000Y-99417500D01*
G75*
G02*
X141152500Y-99655000I-237500J0D01*
G01*
X140652500Y-99655000D01*
G75*
G02*
X140415000Y-99417500I0J237500D01*
G01*
G37*
G36*
G01*
X138590000Y-99417500D02*
X138590000Y-98942500D01*
G75*
G02*
X138827500Y-98705000I237500J0D01*
G01*
X139327500Y-98705000D01*
G75*
G02*
X139565000Y-98942500I0J-237500D01*
G01*
X139565000Y-99417500D01*
G75*
G02*
X139327500Y-99655000I-237500J0D01*
G01*
X138827500Y-99655000D01*
G75*
G02*
X138590000Y-99417500I0J237500D01*
G01*
G37*
%TD*%
%TO.C,R1*%
G36*
G01*
X129562500Y-99555000D02*
X130037500Y-99555000D01*
G75*
G02*
X130275000Y-99792500I0J-237500D01*
G01*
X130275000Y-100292500D01*
G75*
G02*
X130037500Y-100530000I-237500J0D01*
G01*
X129562500Y-100530000D01*
G75*
G02*
X129325000Y-100292500I0J237500D01*
G01*
X129325000Y-99792500D01*
G75*
G02*
X129562500Y-99555000I237500J0D01*
G01*
G37*
G36*
G01*
X129562500Y-97730000D02*
X130037500Y-97730000D01*
G75*
G02*
X130275000Y-97967500I0J-237500D01*
G01*
X130275000Y-98467500D01*
G75*
G02*
X130037500Y-98705000I-237500J0D01*
G01*
X129562500Y-98705000D01*
G75*
G02*
X129325000Y-98467500I0J237500D01*
G01*
X129325000Y-97967500D01*
G75*
G02*
X129562500Y-97730000I237500J0D01*
G01*
G37*
%TD*%
D12*
%TO.C,J1*%
X144610000Y-99550000D03*
X144610000Y-97010000D03*
X144610000Y-94470000D03*
%TD*%
D13*
%TO.C,J2*%
X123000000Y-99560000D03*
X123000000Y-97020000D03*
X123000000Y-94480000D03*
%TD*%
%TO.C,C9*%
G36*
G01*
X128537500Y-98805000D02*
X128062500Y-98805000D01*
G75*
G02*
X127825000Y-98567500I0J237500D01*
G01*
X127825000Y-97967500D01*
G75*
G02*
X128062500Y-97730000I237500J0D01*
G01*
X128537500Y-97730000D01*
G75*
G02*
X128775000Y-97967500I0J-237500D01*
G01*
X128775000Y-98567500D01*
G75*
G02*
X128537500Y-98805000I-237500J0D01*
G01*
G37*
G36*
G01*
X128537500Y-100530000D02*
X128062500Y-100530000D01*
G75*
G02*
X127825000Y-100292500I0J237500D01*
G01*
X127825000Y-99692500D01*
G75*
G02*
X128062500Y-99455000I237500J0D01*
G01*
X128537500Y-99455000D01*
G75*
G02*
X128775000Y-99692500I0J-237500D01*
G01*
X128775000Y-100292500D01*
G75*
G02*
X128537500Y-100530000I-237500J0D01*
G01*
G37*
%TD*%
%TO.C,C7*%
G36*
G01*
X135925000Y-93352500D02*
X135925000Y-93827500D01*
G75*
G02*
X135687500Y-94065000I-237500J0D01*
G01*
X135087500Y-94065000D01*
G75*
G02*
X134850000Y-93827500I0J237500D01*
G01*
X134850000Y-93352500D01*
G75*
G02*
X135087500Y-93115000I237500J0D01*
G01*
X135687500Y-93115000D01*
G75*
G02*
X135925000Y-93352500I0J-237500D01*
G01*
G37*
G36*
G01*
X137650000Y-93352500D02*
X137650000Y-93827500D01*
G75*
G02*
X137412500Y-94065000I-237500J0D01*
G01*
X136812500Y-94065000D01*
G75*
G02*
X136575000Y-93827500I0J237500D01*
G01*
X136575000Y-93352500D01*
G75*
G02*
X136812500Y-93115000I237500J0D01*
G01*
X137412500Y-93115000D01*
G75*
G02*
X137650000Y-93352500I0J-237500D01*
G01*
G37*
%TD*%
%TO.C,C4*%
G36*
G01*
X125537500Y-95455000D02*
X125062500Y-95455000D01*
G75*
G02*
X124825000Y-95217500I0J237500D01*
G01*
X124825000Y-94617500D01*
G75*
G02*
X125062500Y-94380000I237500J0D01*
G01*
X125537500Y-94380000D01*
G75*
G02*
X125775000Y-94617500I0J-237500D01*
G01*
X125775000Y-95217500D01*
G75*
G02*
X125537500Y-95455000I-237500J0D01*
G01*
G37*
G36*
G01*
X125537500Y-97180000D02*
X125062500Y-97180000D01*
G75*
G02*
X124825000Y-96942500I0J237500D01*
G01*
X124825000Y-96342500D01*
G75*
G02*
X125062500Y-96105000I237500J0D01*
G01*
X125537500Y-96105000D01*
G75*
G02*
X125775000Y-96342500I0J-237500D01*
G01*
X125775000Y-96942500D01*
G75*
G02*
X125537500Y-97180000I-237500J0D01*
G01*
G37*
%TD*%
%TO.C,C2*%
G36*
G01*
X128062500Y-96105000D02*
X128537500Y-96105000D01*
G75*
G02*
X128775000Y-96342500I0J-237500D01*
G01*
X128775000Y-96942500D01*
G75*
G02*
X128537500Y-97180000I-237500J0D01*
G01*
X128062500Y-97180000D01*
G75*
G02*
X127825000Y-96942500I0J237500D01*
G01*
X127825000Y-96342500D01*
G75*
G02*
X128062500Y-96105000I237500J0D01*
G01*
G37*
G36*
G01*
X128062500Y-94380000D02*
X128537500Y-94380000D01*
G75*
G02*
X128775000Y-94617500I0J-237500D01*
G01*
X128775000Y-95217500D01*
G75*
G02*
X128537500Y-95455000I-237500J0D01*
G01*
X128062500Y-95455000D01*
G75*
G02*
X127825000Y-95217500I0J237500D01*
G01*
X127825000Y-94617500D01*
G75*
G02*
X128062500Y-94380000I237500J0D01*
G01*
G37*
%TD*%
M02*
