%TF.GenerationSoftware,KiCad,Pcbnew,5.1.9-1.fc32*%
%TF.CreationDate,2021-03-14T18:14:37+05:30*%
%TF.ProjectId,BioAmp-EXG-Pill,42696f41-6d70-42d4-9558-472d50696c6c,v0.7*%
%TF.SameCoordinates,Original*%
%TF.FileFunction,Copper,L1,Top*%
%TF.FilePolarity,Positive*%
%FSLAX46Y46*%
G04 Gerber Fmt 4.6, Leading zero omitted, Abs format (unit mm)*
G04 Created by KiCad (PCBNEW 5.1.9-1.fc32) date 2021-03-14 18:14:37*
%MOMM*%
%LPD*%
G01*
G04 APERTURE LIST*
%TA.AperFunction,ComponentPad*%
%ADD10O,3.500000X1.700000*%
%TD*%
%TA.AperFunction,ComponentPad*%
%ADD11O,3.500000X2.000000*%
%TD*%
%TA.AperFunction,ComponentPad*%
%ADD12O,4.500000X2.000000*%
%TD*%
%TA.AperFunction,ComponentPad*%
%ADD13O,2.000000X1.700000*%
%TD*%
%TA.AperFunction,ViaPad*%
%ADD14C,0.500000*%
%TD*%
%TA.AperFunction,ViaPad*%
%ADD15C,0.400000*%
%TD*%
%TA.AperFunction,ViaPad*%
%ADD16C,1.700000*%
%TD*%
%TA.AperFunction,Conductor*%
%ADD17C,0.400000*%
%TD*%
%TA.AperFunction,Conductor*%
%ADD18C,0.300000*%
%TD*%
%TA.AperFunction,Conductor*%
%ADD19C,0.500000*%
%TD*%
%TA.AperFunction,Conductor*%
%ADD20C,0.254000*%
%TD*%
%TA.AperFunction,Conductor*%
%ADD21C,0.100000*%
%TD*%
G04 APERTURE END LIST*
%TO.P,U1,14*%
%TO.N,ampRef*%
%TA.AperFunction,SMDPad,CuDef*%
G36*
G01*
X132325000Y-99050000D02*
X132325000Y-99250000D01*
G75*
G02*
X132225000Y-99350000I-100000J0D01*
G01*
X130950000Y-99350000D01*
G75*
G02*
X130850000Y-99250000I0J100000D01*
G01*
X130850000Y-99050000D01*
G75*
G02*
X130950000Y-98950000I100000J0D01*
G01*
X132225000Y-98950000D01*
G75*
G02*
X132325000Y-99050000I0J-100000D01*
G01*
G37*
%TD.AperFunction*%
%TO.P,U1,13*%
%TA.AperFunction,SMDPad,CuDef*%
G36*
G01*
X132325000Y-98400000D02*
X132325000Y-98600000D01*
G75*
G02*
X132225000Y-98700000I-100000J0D01*
G01*
X130950000Y-98700000D01*
G75*
G02*
X130850000Y-98600000I0J100000D01*
G01*
X130850000Y-98400000D01*
G75*
G02*
X130950000Y-98300000I100000J0D01*
G01*
X132225000Y-98300000D01*
G75*
G02*
X132325000Y-98400000I0J-100000D01*
G01*
G37*
%TD.AperFunction*%
%TO.P,U1,12*%
%TO.N,vRef*%
%TA.AperFunction,SMDPad,CuDef*%
G36*
G01*
X132325000Y-97750000D02*
X132325000Y-97950000D01*
G75*
G02*
X132225000Y-98050000I-100000J0D01*
G01*
X130950000Y-98050000D01*
G75*
G02*
X130850000Y-97950000I0J100000D01*
G01*
X130850000Y-97750000D01*
G75*
G02*
X130950000Y-97650000I100000J0D01*
G01*
X132225000Y-97650000D01*
G75*
G02*
X132325000Y-97750000I0J-100000D01*
G01*
G37*
%TD.AperFunction*%
%TO.P,U1,11*%
%TO.N,GND*%
%TA.AperFunction,SMDPad,CuDef*%
G36*
G01*
X132325000Y-97100000D02*
X132325000Y-97300000D01*
G75*
G02*
X132225000Y-97400000I-100000J0D01*
G01*
X130950000Y-97400000D01*
G75*
G02*
X130850000Y-97300000I0J100000D01*
G01*
X130850000Y-97100000D01*
G75*
G02*
X130950000Y-97000000I100000J0D01*
G01*
X132225000Y-97000000D01*
G75*
G02*
X132325000Y-97100000I0J-100000D01*
G01*
G37*
%TD.AperFunction*%
%TO.P,U1,10*%
%TO.N,ampRef*%
%TA.AperFunction,SMDPad,CuDef*%
G36*
G01*
X132325000Y-96450000D02*
X132325000Y-96650000D01*
G75*
G02*
X132225000Y-96750000I-100000J0D01*
G01*
X130950000Y-96750000D01*
G75*
G02*
X130850000Y-96650000I0J100000D01*
G01*
X130850000Y-96450000D01*
G75*
G02*
X130950000Y-96350000I100000J0D01*
G01*
X132225000Y-96350000D01*
G75*
G02*
X132325000Y-96450000I0J-100000D01*
G01*
G37*
%TD.AperFunction*%
%TO.P,U1,9*%
%TO.N,Net-(C1-Pad1)*%
%TA.AperFunction,SMDPad,CuDef*%
G36*
G01*
X132325000Y-95800000D02*
X132325000Y-96000000D01*
G75*
G02*
X132225000Y-96100000I-100000J0D01*
G01*
X130950000Y-96100000D01*
G75*
G02*
X130850000Y-96000000I0J100000D01*
G01*
X130850000Y-95800000D01*
G75*
G02*
X130950000Y-95700000I100000J0D01*
G01*
X132225000Y-95700000D01*
G75*
G02*
X132325000Y-95800000I0J-100000D01*
G01*
G37*
%TD.AperFunction*%
%TO.P,U1,8*%
%TO.N,OUT*%
%TA.AperFunction,SMDPad,CuDef*%
G36*
G01*
X132325000Y-95150000D02*
X132325000Y-95350000D01*
G75*
G02*
X132225000Y-95450000I-100000J0D01*
G01*
X130950000Y-95450000D01*
G75*
G02*
X130850000Y-95350000I0J100000D01*
G01*
X130850000Y-95150000D01*
G75*
G02*
X130950000Y-95050000I100000J0D01*
G01*
X132225000Y-95050000D01*
G75*
G02*
X132325000Y-95150000I0J-100000D01*
G01*
G37*
%TD.AperFunction*%
%TO.P,U1,7*%
%TO.N,inaOUT*%
%TA.AperFunction,SMDPad,CuDef*%
G36*
G01*
X138050000Y-95150000D02*
X138050000Y-95350000D01*
G75*
G02*
X137950000Y-95450000I-100000J0D01*
G01*
X136675000Y-95450000D01*
G75*
G02*
X136575000Y-95350000I0J100000D01*
G01*
X136575000Y-95150000D01*
G75*
G02*
X136675000Y-95050000I100000J0D01*
G01*
X137950000Y-95050000D01*
G75*
G02*
X138050000Y-95150000I0J-100000D01*
G01*
G37*
%TD.AperFunction*%
%TO.P,U1,6*%
%TO.N,Net-(R3-Pad1)*%
%TA.AperFunction,SMDPad,CuDef*%
G36*
G01*
X138050000Y-95800000D02*
X138050000Y-96000000D01*
G75*
G02*
X137950000Y-96100000I-100000J0D01*
G01*
X136675000Y-96100000D01*
G75*
G02*
X136575000Y-96000000I0J100000D01*
G01*
X136575000Y-95800000D01*
G75*
G02*
X136675000Y-95700000I100000J0D01*
G01*
X137950000Y-95700000D01*
G75*
G02*
X138050000Y-95800000I0J-100000D01*
G01*
G37*
%TD.AperFunction*%
%TO.P,U1,5*%
%TO.N,Net-(R12-Pad1)*%
%TA.AperFunction,SMDPad,CuDef*%
G36*
G01*
X138050000Y-96450000D02*
X138050000Y-96650000D01*
G75*
G02*
X137950000Y-96750000I-100000J0D01*
G01*
X136675000Y-96750000D01*
G75*
G02*
X136575000Y-96650000I0J100000D01*
G01*
X136575000Y-96450000D01*
G75*
G02*
X136675000Y-96350000I100000J0D01*
G01*
X137950000Y-96350000D01*
G75*
G02*
X138050000Y-96450000I0J-100000D01*
G01*
G37*
%TD.AperFunction*%
%TO.P,U1,4*%
%TO.N,VCC*%
%TA.AperFunction,SMDPad,CuDef*%
G36*
G01*
X138050000Y-97100000D02*
X138050000Y-97300000D01*
G75*
G02*
X137950000Y-97400000I-100000J0D01*
G01*
X136675000Y-97400000D01*
G75*
G02*
X136575000Y-97300000I0J100000D01*
G01*
X136575000Y-97100000D01*
G75*
G02*
X136675000Y-97000000I100000J0D01*
G01*
X137950000Y-97000000D01*
G75*
G02*
X138050000Y-97100000I0J-100000D01*
G01*
G37*
%TD.AperFunction*%
%TO.P,U1,3*%
%TO.N,Net-(R6-Pad1)*%
%TA.AperFunction,SMDPad,CuDef*%
G36*
G01*
X138050000Y-97750000D02*
X138050000Y-97950000D01*
G75*
G02*
X137950000Y-98050000I-100000J0D01*
G01*
X136675000Y-98050000D01*
G75*
G02*
X136575000Y-97950000I0J100000D01*
G01*
X136575000Y-97750000D01*
G75*
G02*
X136675000Y-97650000I100000J0D01*
G01*
X137950000Y-97650000D01*
G75*
G02*
X138050000Y-97750000I0J-100000D01*
G01*
G37*
%TD.AperFunction*%
%TO.P,U1,2*%
%TO.N,Net-(R1-Pad1)*%
%TA.AperFunction,SMDPad,CuDef*%
G36*
G01*
X138050000Y-98400000D02*
X138050000Y-98600000D01*
G75*
G02*
X137950000Y-98700000I-100000J0D01*
G01*
X136675000Y-98700000D01*
G75*
G02*
X136575000Y-98600000I0J100000D01*
G01*
X136575000Y-98400000D01*
G75*
G02*
X136675000Y-98300000I100000J0D01*
G01*
X137950000Y-98300000D01*
G75*
G02*
X138050000Y-98400000I0J-100000D01*
G01*
G37*
%TD.AperFunction*%
%TO.P,U1,1*%
%TO.N,Net-(R2-Pad1)*%
%TA.AperFunction,SMDPad,CuDef*%
G36*
G01*
X138050000Y-99050000D02*
X138050000Y-99250000D01*
G75*
G02*
X137950000Y-99350000I-100000J0D01*
G01*
X136675000Y-99350000D01*
G75*
G02*
X136575000Y-99250000I0J100000D01*
G01*
X136575000Y-99050000D01*
G75*
G02*
X136675000Y-98950000I100000J0D01*
G01*
X137950000Y-98950000D01*
G75*
G02*
X138050000Y-99050000I0J-100000D01*
G01*
G37*
%TD.AperFunction*%
%TD*%
%TO.P,C3,2*%
%TO.N,vRef*%
%TA.AperFunction,SMDPad,CuDef*%
G36*
G01*
X127037500Y-98805000D02*
X126562500Y-98805000D01*
G75*
G02*
X126325000Y-98567500I0J237500D01*
G01*
X126325000Y-97967500D01*
G75*
G02*
X126562500Y-97730000I237500J0D01*
G01*
X127037500Y-97730000D01*
G75*
G02*
X127275000Y-97967500I0J-237500D01*
G01*
X127275000Y-98567500D01*
G75*
G02*
X127037500Y-98805000I-237500J0D01*
G01*
G37*
%TD.AperFunction*%
%TO.P,C3,1*%
%TO.N,VCC*%
%TA.AperFunction,SMDPad,CuDef*%
G36*
G01*
X127037500Y-100530000D02*
X126562500Y-100530000D01*
G75*
G02*
X126325000Y-100292500I0J237500D01*
G01*
X126325000Y-99692500D01*
G75*
G02*
X126562500Y-99455000I237500J0D01*
G01*
X127037500Y-99455000D01*
G75*
G02*
X127275000Y-99692500I0J-237500D01*
G01*
X127275000Y-100292500D01*
G75*
G02*
X127037500Y-100530000I-237500J0D01*
G01*
G37*
%TD.AperFunction*%
%TD*%
D10*
%TO.P,J2,1*%
%TO.N,OUT*%
X121850000Y-94480000D03*
%TO.P,J2,2*%
%TO.N,GND*%
X121850000Y-97020000D03*
%TO.P,J2,3*%
%TO.N,VCC*%
X121850000Y-99560000D03*
%TD*%
D11*
%TO.P,J1,1*%
%TO.N,DRL*%
X145760000Y-94470000D03*
%TO.P,J1,2*%
%TO.N,BIO+*%
X145760000Y-97010000D03*
%TO.P,J1,3*%
%TO.N,BIO-*%
X145760000Y-99550000D03*
%TD*%
%TO.P,C1,2*%
%TO.N,Net-(C1-Pad2)*%
%TA.AperFunction,SMDPad,CuDef*%
G36*
G01*
X133050000Y-93925000D02*
X133050000Y-92975000D01*
G75*
G02*
X133300000Y-92725000I250000J0D01*
G01*
X133975000Y-92725000D01*
G75*
G02*
X134225000Y-92975000I0J-250000D01*
G01*
X134225000Y-93925000D01*
G75*
G02*
X133975000Y-94175000I-250000J0D01*
G01*
X133300000Y-94175000D01*
G75*
G02*
X133050000Y-93925000I0J250000D01*
G01*
G37*
%TD.AperFunction*%
%TO.P,C1,1*%
%TO.N,Net-(C1-Pad1)*%
%TA.AperFunction,SMDPad,CuDef*%
G36*
G01*
X130975000Y-93925000D02*
X130975000Y-92975000D01*
G75*
G02*
X131225000Y-92725000I250000J0D01*
G01*
X131900000Y-92725000D01*
G75*
G02*
X132150000Y-92975000I0J-250000D01*
G01*
X132150000Y-93925000D01*
G75*
G02*
X131900000Y-94175000I-250000J0D01*
G01*
X131225000Y-94175000D01*
G75*
G02*
X130975000Y-93925000I0J250000D01*
G01*
G37*
%TD.AperFunction*%
%TD*%
%TO.P,C8,2*%
%TO.N,VCC*%
%TA.AperFunction,SMDPad,CuDef*%
G36*
G01*
X136395000Y-100967500D02*
X136395000Y-100492500D01*
G75*
G02*
X136632500Y-100255000I237500J0D01*
G01*
X137232500Y-100255000D01*
G75*
G02*
X137470000Y-100492500I0J-237500D01*
G01*
X137470000Y-100967500D01*
G75*
G02*
X137232500Y-101205000I-237500J0D01*
G01*
X136632500Y-101205000D01*
G75*
G02*
X136395000Y-100967500I0J237500D01*
G01*
G37*
%TD.AperFunction*%
%TO.P,C8,1*%
%TO.N,GND*%
%TA.AperFunction,SMDPad,CuDef*%
G36*
G01*
X134670000Y-100967500D02*
X134670000Y-100492500D01*
G75*
G02*
X134907500Y-100255000I237500J0D01*
G01*
X135507500Y-100255000D01*
G75*
G02*
X135745000Y-100492500I0J-237500D01*
G01*
X135745000Y-100967500D01*
G75*
G02*
X135507500Y-101205000I-237500J0D01*
G01*
X134907500Y-101205000D01*
G75*
G02*
X134670000Y-100967500I0J237500D01*
G01*
G37*
%TD.AperFunction*%
%TD*%
%TO.P,R12,2*%
%TO.N,BIO+*%
%TA.AperFunction,SMDPad,CuDef*%
G36*
G01*
X140425000Y-96437500D02*
X140425000Y-95962500D01*
G75*
G02*
X140662500Y-95725000I237500J0D01*
G01*
X141162500Y-95725000D01*
G75*
G02*
X141400000Y-95962500I0J-237500D01*
G01*
X141400000Y-96437500D01*
G75*
G02*
X141162500Y-96675000I-237500J0D01*
G01*
X140662500Y-96675000D01*
G75*
G02*
X140425000Y-96437500I0J237500D01*
G01*
G37*
%TD.AperFunction*%
%TO.P,R12,1*%
%TO.N,Net-(R12-Pad1)*%
%TA.AperFunction,SMDPad,CuDef*%
G36*
G01*
X138600000Y-96437500D02*
X138600000Y-95962500D01*
G75*
G02*
X138837500Y-95725000I237500J0D01*
G01*
X139337500Y-95725000D01*
G75*
G02*
X139575000Y-95962500I0J-237500D01*
G01*
X139575000Y-96437500D01*
G75*
G02*
X139337500Y-96675000I-237500J0D01*
G01*
X138837500Y-96675000D01*
G75*
G02*
X138600000Y-96437500I0J237500D01*
G01*
G37*
%TD.AperFunction*%
%TD*%
%TO.P,R11,2*%
%TO.N,ampRef*%
%TA.AperFunction,SMDPad,CuDef*%
G36*
G01*
X133125000Y-100987500D02*
X133125000Y-100512500D01*
G75*
G02*
X133362500Y-100275000I237500J0D01*
G01*
X133862500Y-100275000D01*
G75*
G02*
X134100000Y-100512500I0J-237500D01*
G01*
X134100000Y-100987500D01*
G75*
G02*
X133862500Y-101225000I-237500J0D01*
G01*
X133362500Y-101225000D01*
G75*
G02*
X133125000Y-100987500I0J237500D01*
G01*
G37*
%TD.AperFunction*%
%TO.P,R11,1*%
%TO.N,DRL*%
%TA.AperFunction,SMDPad,CuDef*%
G36*
G01*
X131300000Y-100987500D02*
X131300000Y-100512500D01*
G75*
G02*
X131537500Y-100275000I237500J0D01*
G01*
X132037500Y-100275000D01*
G75*
G02*
X132275000Y-100512500I0J-237500D01*
G01*
X132275000Y-100987500D01*
G75*
G02*
X132037500Y-101225000I-237500J0D01*
G01*
X131537500Y-101225000D01*
G75*
G02*
X131300000Y-100987500I0J237500D01*
G01*
G37*
%TD.AperFunction*%
%TD*%
%TO.P,R6,2*%
%TO.N,BIO-*%
%TA.AperFunction,SMDPad,CuDef*%
G36*
G01*
X140425000Y-97937500D02*
X140425000Y-97462500D01*
G75*
G02*
X140662500Y-97225000I237500J0D01*
G01*
X141162500Y-97225000D01*
G75*
G02*
X141400000Y-97462500I0J-237500D01*
G01*
X141400000Y-97937500D01*
G75*
G02*
X141162500Y-98175000I-237500J0D01*
G01*
X140662500Y-98175000D01*
G75*
G02*
X140425000Y-97937500I0J237500D01*
G01*
G37*
%TD.AperFunction*%
%TO.P,R6,1*%
%TO.N,Net-(R6-Pad1)*%
%TA.AperFunction,SMDPad,CuDef*%
G36*
G01*
X138600000Y-97937500D02*
X138600000Y-97462500D01*
G75*
G02*
X138837500Y-97225000I237500J0D01*
G01*
X139337500Y-97225000D01*
G75*
G02*
X139575000Y-97462500I0J-237500D01*
G01*
X139575000Y-97937500D01*
G75*
G02*
X139337500Y-98175000I-237500J0D01*
G01*
X138837500Y-98175000D01*
G75*
G02*
X138600000Y-97937500I0J237500D01*
G01*
G37*
%TD.AperFunction*%
%TD*%
%TO.P,R9,2*%
%TO.N,vRef*%
%TA.AperFunction,SMDPad,CuDef*%
G36*
G01*
X126562500Y-96205000D02*
X127037500Y-96205000D01*
G75*
G02*
X127275000Y-96442500I0J-237500D01*
G01*
X127275000Y-96942500D01*
G75*
G02*
X127037500Y-97180000I-237500J0D01*
G01*
X126562500Y-97180000D01*
G75*
G02*
X126325000Y-96942500I0J237500D01*
G01*
X126325000Y-96442500D01*
G75*
G02*
X126562500Y-96205000I237500J0D01*
G01*
G37*
%TD.AperFunction*%
%TO.P,R9,1*%
%TO.N,GND*%
%TA.AperFunction,SMDPad,CuDef*%
G36*
G01*
X126562500Y-94380000D02*
X127037500Y-94380000D01*
G75*
G02*
X127275000Y-94617500I0J-237500D01*
G01*
X127275000Y-95117500D01*
G75*
G02*
X127037500Y-95355000I-237500J0D01*
G01*
X126562500Y-95355000D01*
G75*
G02*
X126325000Y-95117500I0J237500D01*
G01*
X126325000Y-94617500D01*
G75*
G02*
X126562500Y-94380000I237500J0D01*
G01*
G37*
%TD.AperFunction*%
%TD*%
%TO.P,R8,2*%
%TO.N,VCC*%
%TA.AperFunction,SMDPad,CuDef*%
G36*
G01*
X125062500Y-99555000D02*
X125537500Y-99555000D01*
G75*
G02*
X125775000Y-99792500I0J-237500D01*
G01*
X125775000Y-100292500D01*
G75*
G02*
X125537500Y-100530000I-237500J0D01*
G01*
X125062500Y-100530000D01*
G75*
G02*
X124825000Y-100292500I0J237500D01*
G01*
X124825000Y-99792500D01*
G75*
G02*
X125062500Y-99555000I237500J0D01*
G01*
G37*
%TD.AperFunction*%
%TO.P,R8,1*%
%TO.N,vRef*%
%TA.AperFunction,SMDPad,CuDef*%
G36*
G01*
X125062500Y-97730000D02*
X125537500Y-97730000D01*
G75*
G02*
X125775000Y-97967500I0J-237500D01*
G01*
X125775000Y-98467500D01*
G75*
G02*
X125537500Y-98705000I-237500J0D01*
G01*
X125062500Y-98705000D01*
G75*
G02*
X124825000Y-98467500I0J237500D01*
G01*
X124825000Y-97967500D01*
G75*
G02*
X125062500Y-97730000I237500J0D01*
G01*
G37*
%TD.AperFunction*%
%TD*%
%TO.P,R7,2*%
%TO.N,Net-(C1-Pad1)*%
%TA.AperFunction,SMDPad,CuDef*%
G36*
G01*
X129562500Y-96205000D02*
X130037500Y-96205000D01*
G75*
G02*
X130275000Y-96442500I0J-237500D01*
G01*
X130275000Y-96942500D01*
G75*
G02*
X130037500Y-97180000I-237500J0D01*
G01*
X129562500Y-97180000D01*
G75*
G02*
X129325000Y-96942500I0J237500D01*
G01*
X129325000Y-96442500D01*
G75*
G02*
X129562500Y-96205000I237500J0D01*
G01*
G37*
%TD.AperFunction*%
%TO.P,R7,1*%
%TO.N,OUT*%
%TA.AperFunction,SMDPad,CuDef*%
G36*
G01*
X129562500Y-94380000D02*
X130037500Y-94380000D01*
G75*
G02*
X130275000Y-94617500I0J-237500D01*
G01*
X130275000Y-95117500D01*
G75*
G02*
X130037500Y-95355000I-237500J0D01*
G01*
X129562500Y-95355000D01*
G75*
G02*
X129325000Y-95117500I0J237500D01*
G01*
X129325000Y-94617500D01*
G75*
G02*
X129562500Y-94380000I237500J0D01*
G01*
G37*
%TD.AperFunction*%
%TD*%
%TO.P,R5,2*%
%TO.N,inaOUT*%
%TA.AperFunction,SMDPad,CuDef*%
G36*
G01*
X139565000Y-92962500D02*
X139565000Y-93437500D01*
G75*
G02*
X139327500Y-93675000I-237500J0D01*
G01*
X138827500Y-93675000D01*
G75*
G02*
X138590000Y-93437500I0J237500D01*
G01*
X138590000Y-92962500D01*
G75*
G02*
X138827500Y-92725000I237500J0D01*
G01*
X139327500Y-92725000D01*
G75*
G02*
X139565000Y-92962500I0J-237500D01*
G01*
G37*
%TD.AperFunction*%
%TO.P,R5,1*%
%TO.N,Net-(C1-Pad2)*%
%TA.AperFunction,SMDPad,CuDef*%
G36*
G01*
X141390000Y-92962500D02*
X141390000Y-93437500D01*
G75*
G02*
X141152500Y-93675000I-237500J0D01*
G01*
X140652500Y-93675000D01*
G75*
G02*
X140415000Y-93437500I0J237500D01*
G01*
X140415000Y-92962500D01*
G75*
G02*
X140652500Y-92725000I237500J0D01*
G01*
X141152500Y-92725000D01*
G75*
G02*
X141390000Y-92962500I0J-237500D01*
G01*
G37*
%TD.AperFunction*%
%TD*%
%TO.P,R4,2*%
%TO.N,Net-(R3-Pad1)*%
%TA.AperFunction,SMDPad,CuDef*%
G36*
G01*
X139575000Y-94462500D02*
X139575000Y-94937500D01*
G75*
G02*
X139337500Y-95175000I-237500J0D01*
G01*
X138837500Y-95175000D01*
G75*
G02*
X138600000Y-94937500I0J237500D01*
G01*
X138600000Y-94462500D01*
G75*
G02*
X138837500Y-94225000I237500J0D01*
G01*
X139337500Y-94225000D01*
G75*
G02*
X139575000Y-94462500I0J-237500D01*
G01*
G37*
%TD.AperFunction*%
%TO.P,R4,1*%
%TO.N,inaOUT*%
%TA.AperFunction,SMDPad,CuDef*%
G36*
G01*
X141400000Y-94462500D02*
X141400000Y-94937500D01*
G75*
G02*
X141162500Y-95175000I-237500J0D01*
G01*
X140662500Y-95175000D01*
G75*
G02*
X140425000Y-94937500I0J237500D01*
G01*
X140425000Y-94462500D01*
G75*
G02*
X140662500Y-94225000I237500J0D01*
G01*
X141162500Y-94225000D01*
G75*
G02*
X141400000Y-94462500I0J-237500D01*
G01*
G37*
%TD.AperFunction*%
%TD*%
%TO.P,R3,2*%
%TO.N,Net-(R2-Pad1)*%
%TA.AperFunction,SMDPad,CuDef*%
G36*
G01*
X139565000Y-100442500D02*
X139565000Y-100917500D01*
G75*
G02*
X139327500Y-101155000I-237500J0D01*
G01*
X138827500Y-101155000D01*
G75*
G02*
X138590000Y-100917500I0J237500D01*
G01*
X138590000Y-100442500D01*
G75*
G02*
X138827500Y-100205000I237500J0D01*
G01*
X139327500Y-100205000D01*
G75*
G02*
X139565000Y-100442500I0J-237500D01*
G01*
G37*
%TD.AperFunction*%
%TO.P,R3,1*%
%TO.N,Net-(R3-Pad1)*%
%TA.AperFunction,SMDPad,CuDef*%
G36*
G01*
X141390000Y-100442500D02*
X141390000Y-100917500D01*
G75*
G02*
X141152500Y-101155000I-237500J0D01*
G01*
X140652500Y-101155000D01*
G75*
G02*
X140415000Y-100917500I0J237500D01*
G01*
X140415000Y-100442500D01*
G75*
G02*
X140652500Y-100205000I237500J0D01*
G01*
X141152500Y-100205000D01*
G75*
G02*
X141390000Y-100442500I0J-237500D01*
G01*
G37*
%TD.AperFunction*%
%TD*%
%TO.P,R2,2*%
%TO.N,Net-(R1-Pad1)*%
%TA.AperFunction,SMDPad,CuDef*%
G36*
G01*
X140415000Y-99417500D02*
X140415000Y-98942500D01*
G75*
G02*
X140652500Y-98705000I237500J0D01*
G01*
X141152500Y-98705000D01*
G75*
G02*
X141390000Y-98942500I0J-237500D01*
G01*
X141390000Y-99417500D01*
G75*
G02*
X141152500Y-99655000I-237500J0D01*
G01*
X140652500Y-99655000D01*
G75*
G02*
X140415000Y-99417500I0J237500D01*
G01*
G37*
%TD.AperFunction*%
%TO.P,R2,1*%
%TO.N,Net-(R2-Pad1)*%
%TA.AperFunction,SMDPad,CuDef*%
G36*
G01*
X138590000Y-99417500D02*
X138590000Y-98942500D01*
G75*
G02*
X138827500Y-98705000I237500J0D01*
G01*
X139327500Y-98705000D01*
G75*
G02*
X139565000Y-98942500I0J-237500D01*
G01*
X139565000Y-99417500D01*
G75*
G02*
X139327500Y-99655000I-237500J0D01*
G01*
X138827500Y-99655000D01*
G75*
G02*
X138590000Y-99417500I0J237500D01*
G01*
G37*
%TD.AperFunction*%
%TD*%
%TO.P,R1,2*%
%TO.N,ampRef*%
%TA.AperFunction,SMDPad,CuDef*%
G36*
G01*
X129562500Y-99555000D02*
X130037500Y-99555000D01*
G75*
G02*
X130275000Y-99792500I0J-237500D01*
G01*
X130275000Y-100292500D01*
G75*
G02*
X130037500Y-100530000I-237500J0D01*
G01*
X129562500Y-100530000D01*
G75*
G02*
X129325000Y-100292500I0J237500D01*
G01*
X129325000Y-99792500D01*
G75*
G02*
X129562500Y-99555000I237500J0D01*
G01*
G37*
%TD.AperFunction*%
%TO.P,R1,1*%
%TO.N,Net-(R1-Pad1)*%
%TA.AperFunction,SMDPad,CuDef*%
G36*
G01*
X129562500Y-97730000D02*
X130037500Y-97730000D01*
G75*
G02*
X130275000Y-97967500I0J-237500D01*
G01*
X130275000Y-98467500D01*
G75*
G02*
X130037500Y-98705000I-237500J0D01*
G01*
X129562500Y-98705000D01*
G75*
G02*
X129325000Y-98467500I0J237500D01*
G01*
X129325000Y-97967500D01*
G75*
G02*
X129562500Y-97730000I237500J0D01*
G01*
G37*
%TD.AperFunction*%
%TD*%
D12*
%TO.P,J1,3*%
%TO.N,BIO-*%
X144610000Y-99550000D03*
%TO.P,J1,2*%
%TO.N,BIO+*%
X144610000Y-97010000D03*
%TO.P,J1,1*%
%TO.N,DRL*%
X144610000Y-94470000D03*
%TD*%
D13*
%TO.P,J2,3*%
%TO.N,VCC*%
X123000000Y-99560000D03*
%TO.P,J2,2*%
%TO.N,GND*%
X123000000Y-97020000D03*
%TO.P,J2,1*%
%TO.N,OUT*%
X123000000Y-94480000D03*
%TD*%
%TO.P,C9,2*%
%TO.N,VCC*%
%TA.AperFunction,SMDPad,CuDef*%
G36*
G01*
X128537500Y-98805000D02*
X128062500Y-98805000D01*
G75*
G02*
X127825000Y-98567500I0J237500D01*
G01*
X127825000Y-97967500D01*
G75*
G02*
X128062500Y-97730000I237500J0D01*
G01*
X128537500Y-97730000D01*
G75*
G02*
X128775000Y-97967500I0J-237500D01*
G01*
X128775000Y-98567500D01*
G75*
G02*
X128537500Y-98805000I-237500J0D01*
G01*
G37*
%TD.AperFunction*%
%TO.P,C9,1*%
%TO.N,GND*%
%TA.AperFunction,SMDPad,CuDef*%
G36*
G01*
X128537500Y-100530000D02*
X128062500Y-100530000D01*
G75*
G02*
X127825000Y-100292500I0J237500D01*
G01*
X127825000Y-99692500D01*
G75*
G02*
X128062500Y-99455000I237500J0D01*
G01*
X128537500Y-99455000D01*
G75*
G02*
X128775000Y-99692500I0J-237500D01*
G01*
X128775000Y-100292500D01*
G75*
G02*
X128537500Y-100530000I-237500J0D01*
G01*
G37*
%TD.AperFunction*%
%TD*%
%TO.P,C7,2*%
%TO.N,GND*%
%TA.AperFunction,SMDPad,CuDef*%
G36*
G01*
X135925000Y-93352500D02*
X135925000Y-93827500D01*
G75*
G02*
X135687500Y-94065000I-237500J0D01*
G01*
X135087500Y-94065000D01*
G75*
G02*
X134850000Y-93827500I0J237500D01*
G01*
X134850000Y-93352500D01*
G75*
G02*
X135087500Y-93115000I237500J0D01*
G01*
X135687500Y-93115000D01*
G75*
G02*
X135925000Y-93352500I0J-237500D01*
G01*
G37*
%TD.AperFunction*%
%TO.P,C7,1*%
%TO.N,VCC*%
%TA.AperFunction,SMDPad,CuDef*%
G36*
G01*
X137650000Y-93352500D02*
X137650000Y-93827500D01*
G75*
G02*
X137412500Y-94065000I-237500J0D01*
G01*
X136812500Y-94065000D01*
G75*
G02*
X136575000Y-93827500I0J237500D01*
G01*
X136575000Y-93352500D01*
G75*
G02*
X136812500Y-93115000I237500J0D01*
G01*
X137412500Y-93115000D01*
G75*
G02*
X137650000Y-93352500I0J-237500D01*
G01*
G37*
%TD.AperFunction*%
%TD*%
%TO.P,C4,2*%
%TO.N,GND*%
%TA.AperFunction,SMDPad,CuDef*%
G36*
G01*
X125537500Y-95455000D02*
X125062500Y-95455000D01*
G75*
G02*
X124825000Y-95217500I0J237500D01*
G01*
X124825000Y-94617500D01*
G75*
G02*
X125062500Y-94380000I237500J0D01*
G01*
X125537500Y-94380000D01*
G75*
G02*
X125775000Y-94617500I0J-237500D01*
G01*
X125775000Y-95217500D01*
G75*
G02*
X125537500Y-95455000I-237500J0D01*
G01*
G37*
%TD.AperFunction*%
%TO.P,C4,1*%
%TO.N,vRef*%
%TA.AperFunction,SMDPad,CuDef*%
G36*
G01*
X125537500Y-97180000D02*
X125062500Y-97180000D01*
G75*
G02*
X124825000Y-96942500I0J237500D01*
G01*
X124825000Y-96342500D01*
G75*
G02*
X125062500Y-96105000I237500J0D01*
G01*
X125537500Y-96105000D01*
G75*
G02*
X125775000Y-96342500I0J-237500D01*
G01*
X125775000Y-96942500D01*
G75*
G02*
X125537500Y-97180000I-237500J0D01*
G01*
G37*
%TD.AperFunction*%
%TD*%
%TO.P,C2,2*%
%TO.N,Net-(C1-Pad1)*%
%TA.AperFunction,SMDPad,CuDef*%
G36*
G01*
X128062500Y-96105000D02*
X128537500Y-96105000D01*
G75*
G02*
X128775000Y-96342500I0J-237500D01*
G01*
X128775000Y-96942500D01*
G75*
G02*
X128537500Y-97180000I-237500J0D01*
G01*
X128062500Y-97180000D01*
G75*
G02*
X127825000Y-96942500I0J237500D01*
G01*
X127825000Y-96342500D01*
G75*
G02*
X128062500Y-96105000I237500J0D01*
G01*
G37*
%TD.AperFunction*%
%TO.P,C2,1*%
%TO.N,OUT*%
%TA.AperFunction,SMDPad,CuDef*%
G36*
G01*
X128062500Y-94380000D02*
X128537500Y-94380000D01*
G75*
G02*
X128775000Y-94617500I0J-237500D01*
G01*
X128775000Y-95217500D01*
G75*
G02*
X128537500Y-95455000I-237500J0D01*
G01*
X128062500Y-95455000D01*
G75*
G02*
X127825000Y-95217500I0J237500D01*
G01*
X127825000Y-94617500D01*
G75*
G02*
X128062500Y-94380000I237500J0D01*
G01*
G37*
%TD.AperFunction*%
%TD*%
D14*
%TO.N,Net-(C1-Pad2)*%
X141590000Y-93640000D03*
X134340000Y-94190000D03*
%TO.N,vRef*%
X130730000Y-97860000D03*
X127280000Y-97860000D03*
%TO.N,VCC*%
X128960000Y-98810000D03*
X137030000Y-99960000D03*
D15*
%TO.N,GND*%
X121680000Y-100820000D03*
X122000000Y-101530000D03*
X122310000Y-100840000D03*
X122630000Y-101550000D03*
X122910000Y-100830000D03*
X123310000Y-101540000D03*
X124060000Y-101350000D03*
X123530000Y-100830000D03*
X124280000Y-100630000D03*
X121600000Y-93180000D03*
X122330000Y-93170000D03*
X121900000Y-92590000D03*
X134930000Y-92420000D03*
X135920000Y-92420000D03*
X137020000Y-92420000D03*
X137580000Y-92420000D03*
X136470000Y-92420000D03*
X138130000Y-92420000D03*
X133780000Y-95030000D03*
X135940000Y-95780000D03*
X138110000Y-101060000D03*
X138110000Y-100360000D03*
X135440000Y-101570000D03*
X134890000Y-101570000D03*
X132610000Y-92430000D03*
X130800000Y-92420000D03*
X125690000Y-92430000D03*
X128440000Y-92420000D03*
X128470000Y-93140000D03*
X128890000Y-101490000D03*
X132240000Y-101570000D03*
X144370000Y-92450000D03*
X143470000Y-93040000D03*
X143750000Y-92450000D03*
X145910000Y-93050000D03*
X144060000Y-93040000D03*
X145600000Y-92460000D03*
X145280000Y-93030000D03*
X144680000Y-93040000D03*
X144970000Y-92440000D03*
X143150000Y-92440000D03*
X142550000Y-92450000D03*
X142260000Y-93080000D03*
X142880000Y-93080000D03*
X141930000Y-92450000D03*
X143750000Y-101560000D03*
X143150000Y-101570000D03*
X145870000Y-100980000D03*
X144970000Y-101570000D03*
X143430000Y-100960000D03*
X144370000Y-101560000D03*
X145600000Y-101550000D03*
X144030000Y-100960000D03*
X141970000Y-100990000D03*
X141780000Y-101560000D03*
X145250000Y-100970000D03*
X144650000Y-100960000D03*
X142770000Y-100910000D03*
X142550000Y-101560000D03*
X141150000Y-101570000D03*
X140530000Y-101570000D03*
X139330000Y-101570000D03*
X138700000Y-101570000D03*
X139930000Y-101580000D03*
X134330000Y-101570000D03*
X137560000Y-101570000D03*
X136080000Y-101580000D03*
X140040000Y-92430000D03*
X124000000Y-95640000D03*
X124140000Y-98460000D03*
D14*
X133850000Y-97200000D03*
X126160000Y-95760000D03*
X128860000Y-100690000D03*
D15*
X125660000Y-93080000D03*
X138130000Y-93010000D03*
D16*
%TO.N,BIO+*%
X144960000Y-97020000D03*
%TO.N,BIO-*%
X144960000Y-99560000D03*
D14*
%TO.N,Net-(R1-Pad1)*%
X136310000Y-98510000D03*
X130370000Y-99160000D03*
X141460000Y-98630000D03*
D16*
%TO.N,DRL*%
X144960000Y-94480000D03*
D14*
X133070000Y-99600000D03*
%TO.N,ampRef*%
X130830000Y-96540000D03*
X133380000Y-97910000D03*
%TD*%
D17*
%TO.N,Net-(C1-Pad2)*%
X133637500Y-93450000D02*
X133637500Y-93412500D01*
X141150000Y-93200000D02*
X141590000Y-93640000D01*
X140902500Y-93200000D02*
X141150000Y-93200000D01*
X134340000Y-94152500D02*
X133637500Y-93450000D01*
X134340000Y-94190000D02*
X134340000Y-94152500D01*
%TO.N,Net-(C1-Pad1)*%
X129750000Y-96642500D02*
X129800000Y-96692500D01*
X128300000Y-96642500D02*
X129750000Y-96642500D01*
X131562500Y-93450000D02*
X131600000Y-93450000D01*
X131587500Y-95900000D02*
X132660000Y-95900000D01*
X132660000Y-95900000D02*
X133170000Y-95390000D01*
X133170000Y-95390000D02*
X133170000Y-94714256D01*
X131905744Y-93450000D02*
X131562500Y-93450000D01*
X133170000Y-94714256D02*
X131905744Y-93450000D01*
D18*
X131587500Y-95900000D02*
X130080000Y-95900000D01*
X129800000Y-96180000D02*
X129800000Y-96692500D01*
X130080000Y-95900000D02*
X129800000Y-96180000D01*
D17*
%TO.N,vRef*%
X125300000Y-96642500D02*
X125300000Y-98217500D01*
X126750000Y-96642500D02*
X126800000Y-96692500D01*
X125300000Y-96642500D02*
X126750000Y-96642500D01*
X126800000Y-96692500D02*
X126800000Y-98267500D01*
X126750000Y-98217500D02*
X126800000Y-98267500D01*
X125300000Y-98217500D02*
X126750000Y-98217500D01*
X126800000Y-98267500D02*
X126912500Y-98267500D01*
X126800000Y-98267500D02*
X126892500Y-98267500D01*
X130740000Y-97850000D02*
X130730000Y-97860000D01*
X131587500Y-97850000D02*
X130740000Y-97850000D01*
X127207500Y-97860000D02*
X126800000Y-98267500D01*
X127280000Y-97860000D02*
X127207500Y-97860000D01*
D19*
%TO.N,VCC*%
X122952500Y-99762500D02*
X122770000Y-99580000D01*
D17*
X124817500Y-99560000D02*
X125300000Y-100042500D01*
X122610000Y-99560000D02*
X124817500Y-99560000D01*
X125350000Y-99992500D02*
X125300000Y-100042500D01*
X126800000Y-99992500D02*
X125350000Y-99992500D01*
X128300000Y-98492500D02*
X126800000Y-99992500D01*
X128300000Y-98267500D02*
X128300000Y-98492500D01*
X137012500Y-100750000D02*
X137012500Y-100482500D01*
X137012500Y-100750000D02*
X137012500Y-100742500D01*
X134930000Y-97200000D02*
X137312500Y-97200000D01*
X134500000Y-97630000D02*
X134930000Y-97200000D01*
X134500000Y-96062500D02*
X134500000Y-97630000D01*
X137012500Y-100750000D02*
X137012500Y-100727500D01*
X136972500Y-93590000D02*
X134500000Y-96062500D01*
X137112500Y-93590000D02*
X136972500Y-93590000D01*
X134500000Y-98297500D02*
X136932500Y-100730000D01*
X134500000Y-97630000D02*
X134500000Y-98297500D01*
X128417500Y-98267500D02*
X128960000Y-98810000D01*
X128300000Y-98267500D02*
X128417500Y-98267500D01*
X137030000Y-100632500D02*
X136932500Y-100730000D01*
X137030000Y-99960000D02*
X137030000Y-100632500D01*
%TO.N,GND*%
X125300000Y-94917500D02*
X126750000Y-94917500D01*
X131587500Y-97200000D02*
X132500000Y-97200000D01*
X132382124Y-97200000D02*
X131587500Y-97200000D01*
X135287500Y-100750000D02*
X135140000Y-100750000D01*
X132513958Y-97200000D02*
X131587500Y-97200000D01*
X135387500Y-94326458D02*
X132513958Y-97200000D01*
X135387500Y-93590000D02*
X135387500Y-94326458D01*
X134930000Y-101007500D02*
X135207500Y-100730000D01*
X135450000Y-100972500D02*
X135207500Y-100730000D01*
X134231576Y-101520000D02*
X134251576Y-101540000D01*
X134231576Y-101520000D02*
X134900000Y-101520000D01*
X134900000Y-101520000D02*
X134954990Y-101574990D01*
X134954990Y-101574990D02*
X134130000Y-101574990D01*
X134130000Y-101574990D02*
X136330000Y-101574990D01*
D18*
X135207500Y-101242500D02*
X134930000Y-101520000D01*
X135207500Y-100730000D02*
X135207500Y-101242500D01*
X135207500Y-101277500D02*
X135450000Y-101520000D01*
X135207500Y-100730000D02*
X135207500Y-101277500D01*
D17*
X131587500Y-97200000D02*
X133850000Y-97200000D01*
X126750000Y-94917500D02*
X126800000Y-94867500D01*
X128300000Y-100130000D02*
X128860000Y-100690000D01*
X128300000Y-99992500D02*
X128300000Y-100130000D01*
X126800000Y-95120000D02*
X126160000Y-95760000D01*
X126800000Y-94867500D02*
X126800000Y-95120000D01*
%TO.N,OUT*%
X129750000Y-94917500D02*
X129800000Y-94867500D01*
X128300000Y-94917500D02*
X129750000Y-94917500D01*
X123110010Y-93979990D02*
X122610000Y-94480000D01*
X128912490Y-93979990D02*
X123110010Y-93979990D01*
X129800000Y-94867500D02*
X128912490Y-93979990D01*
X131205000Y-94867500D02*
X131587500Y-95250000D01*
X129800000Y-94867500D02*
X131205000Y-94867500D01*
%TO.N,BIO+*%
X140912500Y-96200000D02*
X141000000Y-96200000D01*
X142550000Y-96200000D02*
X143360000Y-97010000D01*
X140912500Y-96200000D02*
X142550000Y-96200000D01*
%TO.N,BIO-*%
X143090000Y-99590000D02*
X144900000Y-99590000D01*
X140912500Y-97700000D02*
X141200000Y-97700000D01*
X141510000Y-97700000D02*
X143360000Y-99550000D01*
X140912500Y-97700000D02*
X141510000Y-97700000D01*
%TO.N,Net-(R1-Pad1)*%
X136320000Y-98500000D02*
X136310000Y-98510000D01*
X137312500Y-98500000D02*
X136320000Y-98500000D01*
X140910000Y-99180000D02*
X141460000Y-98630000D01*
X140902500Y-99180000D02*
X140910000Y-99180000D01*
X129800000Y-98590000D02*
X130370000Y-99160000D01*
X129800000Y-98217500D02*
X129800000Y-98590000D01*
%TO.N,Net-(R3-Pad1)*%
X139975010Y-99752510D02*
X140902500Y-100680000D01*
X139975010Y-95587510D02*
X139975010Y-99752510D01*
X139087500Y-94700000D02*
X139975010Y-95587510D01*
D18*
X139087500Y-94848914D02*
X138036414Y-95900000D01*
X138036414Y-95900000D02*
X137312500Y-95900000D01*
X139087500Y-94700000D02*
X139087500Y-94848914D01*
D17*
%TO.N,DRL*%
X131787500Y-100750000D02*
X131787500Y-100662500D01*
X131920000Y-100750000D02*
X133070000Y-99600000D01*
X131787500Y-100750000D02*
X131920000Y-100750000D01*
%TO.N,Net-(R6-Pad1)*%
X138937500Y-97850000D02*
X139087500Y-97700000D01*
X137312500Y-97850000D02*
X138937500Y-97850000D01*
%TO.N,Net-(R12-Pad1)*%
X138737500Y-96550000D02*
X139087500Y-96200000D01*
X137312500Y-96550000D02*
X138737500Y-96550000D01*
%TO.N,ampRef*%
X131587500Y-99150000D02*
X130837500Y-99900000D01*
X129942500Y-99900000D02*
X129800000Y-100042500D01*
X130837500Y-99900000D02*
X129942500Y-99900000D01*
X131587500Y-98500000D02*
X131587500Y-99150000D01*
X133720001Y-100642499D02*
X133612500Y-100750000D01*
X133720001Y-99287999D02*
X133720001Y-100642499D01*
X132932002Y-98500000D02*
X133720001Y-99287999D01*
X131587500Y-98500000D02*
X132932002Y-98500000D01*
X130860000Y-96550000D02*
X130830000Y-96520000D01*
X131587500Y-96550000D02*
X130860000Y-96550000D01*
X132932002Y-98357998D02*
X132932002Y-98500000D01*
X133380000Y-97910000D02*
X132932002Y-98357998D01*
%TO.N,Net-(R2-Pad1)*%
X139077500Y-99180000D02*
X139077500Y-100680000D01*
X139047500Y-99150000D02*
X139077500Y-99180000D01*
X137312500Y-99150000D02*
X139047500Y-99150000D01*
%TO.N,inaOUT*%
X139412500Y-93200000D02*
X140912500Y-94700000D01*
X139077500Y-93200000D02*
X139412500Y-93200000D01*
X137312500Y-94965000D02*
X137312500Y-95250000D01*
X139077500Y-93200000D02*
X137312500Y-94965000D01*
%TD*%
D20*
%TO.N,GND*%
X128427000Y-99865500D02*
X128447000Y-99865500D01*
X128447000Y-100119500D01*
X128427000Y-100119500D01*
X128427000Y-101006250D01*
X128585750Y-101165000D01*
X128775000Y-101168072D01*
X128899482Y-101155812D01*
X129019180Y-101119502D01*
X129129494Y-101060537D01*
X129226185Y-100981185D01*
X129305537Y-100884494D01*
X129343187Y-100814058D01*
X129345870Y-100815492D01*
X129452063Y-100847705D01*
X129562500Y-100858582D01*
X130037500Y-100858582D01*
X130147937Y-100847705D01*
X130254130Y-100815492D01*
X130351998Y-100763180D01*
X130437780Y-100692780D01*
X130508180Y-100606998D01*
X130560492Y-100509130D01*
X130585406Y-100427000D01*
X130811619Y-100427000D01*
X130837500Y-100429549D01*
X130863381Y-100427000D01*
X130940810Y-100419374D01*
X130981815Y-100406935D01*
X130971418Y-100512500D01*
X130971418Y-100987500D01*
X130982295Y-101097937D01*
X131014508Y-101204130D01*
X131066820Y-101301998D01*
X131137220Y-101387780D01*
X131223002Y-101458180D01*
X131320870Y-101510492D01*
X131427063Y-101542705D01*
X131537500Y-101553582D01*
X132037500Y-101553582D01*
X132147937Y-101542705D01*
X132254130Y-101510492D01*
X132351998Y-101458180D01*
X132437780Y-101387780D01*
X132508180Y-101301998D01*
X132560492Y-101204130D01*
X132592705Y-101097937D01*
X132603582Y-100987500D01*
X132603582Y-100811708D01*
X132796418Y-100618872D01*
X132796418Y-100987500D01*
X132807295Y-101097937D01*
X132839508Y-101204130D01*
X132891820Y-101301998D01*
X132962220Y-101387780D01*
X133048002Y-101458180D01*
X133145870Y-101510492D01*
X133252063Y-101542705D01*
X133362500Y-101553582D01*
X133862500Y-101553582D01*
X133972937Y-101542705D01*
X134079130Y-101510492D01*
X134105684Y-101496299D01*
X134139463Y-101559494D01*
X134212098Y-101648000D01*
X122117215Y-101648000D01*
X121974463Y-101634003D01*
X121853710Y-101597545D01*
X121742332Y-101538324D01*
X121644588Y-101458606D01*
X121564181Y-101361411D01*
X121504189Y-101250456D01*
X121466890Y-101129961D01*
X121452000Y-100988301D01*
X121452000Y-100737000D01*
X123207812Y-100737000D01*
X123380732Y-100719969D01*
X123602597Y-100652667D01*
X123807070Y-100543374D01*
X123986291Y-100396291D01*
X124133374Y-100217070D01*
X124202898Y-100087000D01*
X124496418Y-100087000D01*
X124496418Y-100292500D01*
X124507295Y-100402937D01*
X124539508Y-100509130D01*
X124591820Y-100606998D01*
X124662220Y-100692780D01*
X124748002Y-100763180D01*
X124845870Y-100815492D01*
X124952063Y-100847705D01*
X125062500Y-100858582D01*
X125537500Y-100858582D01*
X125647937Y-100847705D01*
X125754130Y-100815492D01*
X125851998Y-100763180D01*
X125937780Y-100692780D01*
X126008180Y-100606998D01*
X126050000Y-100528759D01*
X126091820Y-100606998D01*
X126162220Y-100692780D01*
X126248002Y-100763180D01*
X126345870Y-100815492D01*
X126452063Y-100847705D01*
X126562500Y-100858582D01*
X127037500Y-100858582D01*
X127147937Y-100847705D01*
X127254130Y-100815492D01*
X127256813Y-100814058D01*
X127294463Y-100884494D01*
X127373815Y-100981185D01*
X127470506Y-101060537D01*
X127580820Y-101119502D01*
X127700518Y-101155812D01*
X127825000Y-101168072D01*
X128014250Y-101165000D01*
X128173000Y-101006250D01*
X128173000Y-100119500D01*
X128153000Y-100119500D01*
X128153000Y-99865500D01*
X128173000Y-99865500D01*
X128173000Y-99845500D01*
X128427000Y-99845500D01*
X128427000Y-99865500D01*
%TA.AperFunction,Conductor*%
D21*
G36*
X128427000Y-99865500D02*
G01*
X128447000Y-99865500D01*
X128447000Y-100119500D01*
X128427000Y-100119500D01*
X128427000Y-101006250D01*
X128585750Y-101165000D01*
X128775000Y-101168072D01*
X128899482Y-101155812D01*
X129019180Y-101119502D01*
X129129494Y-101060537D01*
X129226185Y-100981185D01*
X129305537Y-100884494D01*
X129343187Y-100814058D01*
X129345870Y-100815492D01*
X129452063Y-100847705D01*
X129562500Y-100858582D01*
X130037500Y-100858582D01*
X130147937Y-100847705D01*
X130254130Y-100815492D01*
X130351998Y-100763180D01*
X130437780Y-100692780D01*
X130508180Y-100606998D01*
X130560492Y-100509130D01*
X130585406Y-100427000D01*
X130811619Y-100427000D01*
X130837500Y-100429549D01*
X130863381Y-100427000D01*
X130940810Y-100419374D01*
X130981815Y-100406935D01*
X130971418Y-100512500D01*
X130971418Y-100987500D01*
X130982295Y-101097937D01*
X131014508Y-101204130D01*
X131066820Y-101301998D01*
X131137220Y-101387780D01*
X131223002Y-101458180D01*
X131320870Y-101510492D01*
X131427063Y-101542705D01*
X131537500Y-101553582D01*
X132037500Y-101553582D01*
X132147937Y-101542705D01*
X132254130Y-101510492D01*
X132351998Y-101458180D01*
X132437780Y-101387780D01*
X132508180Y-101301998D01*
X132560492Y-101204130D01*
X132592705Y-101097937D01*
X132603582Y-100987500D01*
X132603582Y-100811708D01*
X132796418Y-100618872D01*
X132796418Y-100987500D01*
X132807295Y-101097937D01*
X132839508Y-101204130D01*
X132891820Y-101301998D01*
X132962220Y-101387780D01*
X133048002Y-101458180D01*
X133145870Y-101510492D01*
X133252063Y-101542705D01*
X133362500Y-101553582D01*
X133862500Y-101553582D01*
X133972937Y-101542705D01*
X134079130Y-101510492D01*
X134105684Y-101496299D01*
X134139463Y-101559494D01*
X134212098Y-101648000D01*
X122117215Y-101648000D01*
X121974463Y-101634003D01*
X121853710Y-101597545D01*
X121742332Y-101538324D01*
X121644588Y-101458606D01*
X121564181Y-101361411D01*
X121504189Y-101250456D01*
X121466890Y-101129961D01*
X121452000Y-100988301D01*
X121452000Y-100737000D01*
X123207812Y-100737000D01*
X123380732Y-100719969D01*
X123602597Y-100652667D01*
X123807070Y-100543374D01*
X123986291Y-100396291D01*
X124133374Y-100217070D01*
X124202898Y-100087000D01*
X124496418Y-100087000D01*
X124496418Y-100292500D01*
X124507295Y-100402937D01*
X124539508Y-100509130D01*
X124591820Y-100606998D01*
X124662220Y-100692780D01*
X124748002Y-100763180D01*
X124845870Y-100815492D01*
X124952063Y-100847705D01*
X125062500Y-100858582D01*
X125537500Y-100858582D01*
X125647937Y-100847705D01*
X125754130Y-100815492D01*
X125851998Y-100763180D01*
X125937780Y-100692780D01*
X126008180Y-100606998D01*
X126050000Y-100528759D01*
X126091820Y-100606998D01*
X126162220Y-100692780D01*
X126248002Y-100763180D01*
X126345870Y-100815492D01*
X126452063Y-100847705D01*
X126562500Y-100858582D01*
X127037500Y-100858582D01*
X127147937Y-100847705D01*
X127254130Y-100815492D01*
X127256813Y-100814058D01*
X127294463Y-100884494D01*
X127373815Y-100981185D01*
X127470506Y-101060537D01*
X127580820Y-101119502D01*
X127700518Y-101155812D01*
X127825000Y-101168072D01*
X128014250Y-101165000D01*
X128173000Y-101006250D01*
X128173000Y-100119500D01*
X128153000Y-100119500D01*
X128153000Y-99865500D01*
X128173000Y-99865500D01*
X128173000Y-99845500D01*
X128427000Y-99845500D01*
X128427000Y-99865500D01*
G37*
%TD.AperFunction*%
D20*
X142122577Y-99057866D02*
X142052201Y-99289863D01*
X142026580Y-99550000D01*
X142052201Y-99810137D01*
X142128081Y-100060278D01*
X142251302Y-100290808D01*
X142417130Y-100492870D01*
X142619192Y-100658698D01*
X142849722Y-100781919D01*
X143099863Y-100857799D01*
X143294816Y-100877000D01*
X146148001Y-100877000D01*
X146148001Y-100982775D01*
X146134003Y-101125537D01*
X146097545Y-101246290D01*
X146038324Y-101357668D01*
X145958606Y-101455412D01*
X145861411Y-101535819D01*
X145750456Y-101595811D01*
X145629961Y-101633110D01*
X145488301Y-101648000D01*
X136202902Y-101648000D01*
X136275537Y-101559494D01*
X136334502Y-101449180D01*
X136335071Y-101447304D01*
X136415870Y-101490492D01*
X136522063Y-101522705D01*
X136632500Y-101533582D01*
X137232500Y-101533582D01*
X137342937Y-101522705D01*
X137449130Y-101490492D01*
X137546998Y-101438180D01*
X137632780Y-101367780D01*
X137703180Y-101281998D01*
X137755492Y-101184130D01*
X137787705Y-101077937D01*
X137798582Y-100967500D01*
X137798582Y-100492500D01*
X137787705Y-100382063D01*
X137755492Y-100275870D01*
X137703180Y-100178002D01*
X137632780Y-100092220D01*
X137597726Y-100063452D01*
X137607000Y-100016830D01*
X137607000Y-99903170D01*
X137584826Y-99791695D01*
X137541331Y-99686688D01*
X137535915Y-99678582D01*
X137950000Y-99678582D01*
X137966062Y-99677000D01*
X138327423Y-99677000D01*
X138356820Y-99731998D01*
X138427220Y-99817780D01*
X138513002Y-99888180D01*
X138550500Y-99908224D01*
X138550501Y-99951776D01*
X138513002Y-99971820D01*
X138427220Y-100042220D01*
X138356820Y-100128002D01*
X138304508Y-100225870D01*
X138272295Y-100332063D01*
X138261418Y-100442500D01*
X138261418Y-100917500D01*
X138272295Y-101027937D01*
X138304508Y-101134130D01*
X138356820Y-101231998D01*
X138427220Y-101317780D01*
X138513002Y-101388180D01*
X138610870Y-101440492D01*
X138717063Y-101472705D01*
X138827500Y-101483582D01*
X139327500Y-101483582D01*
X139437937Y-101472705D01*
X139544130Y-101440492D01*
X139641998Y-101388180D01*
X139727780Y-101317780D01*
X139798180Y-101231998D01*
X139850492Y-101134130D01*
X139882705Y-101027937D01*
X139893582Y-100917500D01*
X139893582Y-100442500D01*
X139890727Y-100413517D01*
X140086418Y-100609208D01*
X140086418Y-100917500D01*
X140097295Y-101027937D01*
X140129508Y-101134130D01*
X140181820Y-101231998D01*
X140252220Y-101317780D01*
X140338002Y-101388180D01*
X140435870Y-101440492D01*
X140542063Y-101472705D01*
X140652500Y-101483582D01*
X141152500Y-101483582D01*
X141262937Y-101472705D01*
X141369130Y-101440492D01*
X141466998Y-101388180D01*
X141552780Y-101317780D01*
X141623180Y-101231998D01*
X141675492Y-101134130D01*
X141707705Y-101027937D01*
X141718582Y-100917500D01*
X141718582Y-100442500D01*
X141707705Y-100332063D01*
X141675492Y-100225870D01*
X141623180Y-100128002D01*
X141552780Y-100042220D01*
X141466998Y-99971820D01*
X141388759Y-99930000D01*
X141466998Y-99888180D01*
X141552780Y-99817780D01*
X141623180Y-99731998D01*
X141675492Y-99634130D01*
X141707705Y-99527937D01*
X141718582Y-99417500D01*
X141718582Y-99147432D01*
X141733312Y-99141331D01*
X141827816Y-99078185D01*
X141908185Y-98997816D01*
X141970006Y-98905295D01*
X142122577Y-99057866D01*
%TA.AperFunction,Conductor*%
D21*
G36*
X142122577Y-99057866D02*
G01*
X142052201Y-99289863D01*
X142026580Y-99550000D01*
X142052201Y-99810137D01*
X142128081Y-100060278D01*
X142251302Y-100290808D01*
X142417130Y-100492870D01*
X142619192Y-100658698D01*
X142849722Y-100781919D01*
X143099863Y-100857799D01*
X143294816Y-100877000D01*
X146148001Y-100877000D01*
X146148001Y-100982775D01*
X146134003Y-101125537D01*
X146097545Y-101246290D01*
X146038324Y-101357668D01*
X145958606Y-101455412D01*
X145861411Y-101535819D01*
X145750456Y-101595811D01*
X145629961Y-101633110D01*
X145488301Y-101648000D01*
X136202902Y-101648000D01*
X136275537Y-101559494D01*
X136334502Y-101449180D01*
X136335071Y-101447304D01*
X136415870Y-101490492D01*
X136522063Y-101522705D01*
X136632500Y-101533582D01*
X137232500Y-101533582D01*
X137342937Y-101522705D01*
X137449130Y-101490492D01*
X137546998Y-101438180D01*
X137632780Y-101367780D01*
X137703180Y-101281998D01*
X137755492Y-101184130D01*
X137787705Y-101077937D01*
X137798582Y-100967500D01*
X137798582Y-100492500D01*
X137787705Y-100382063D01*
X137755492Y-100275870D01*
X137703180Y-100178002D01*
X137632780Y-100092220D01*
X137597726Y-100063452D01*
X137607000Y-100016830D01*
X137607000Y-99903170D01*
X137584826Y-99791695D01*
X137541331Y-99686688D01*
X137535915Y-99678582D01*
X137950000Y-99678582D01*
X137966062Y-99677000D01*
X138327423Y-99677000D01*
X138356820Y-99731998D01*
X138427220Y-99817780D01*
X138513002Y-99888180D01*
X138550500Y-99908224D01*
X138550501Y-99951776D01*
X138513002Y-99971820D01*
X138427220Y-100042220D01*
X138356820Y-100128002D01*
X138304508Y-100225870D01*
X138272295Y-100332063D01*
X138261418Y-100442500D01*
X138261418Y-100917500D01*
X138272295Y-101027937D01*
X138304508Y-101134130D01*
X138356820Y-101231998D01*
X138427220Y-101317780D01*
X138513002Y-101388180D01*
X138610870Y-101440492D01*
X138717063Y-101472705D01*
X138827500Y-101483582D01*
X139327500Y-101483582D01*
X139437937Y-101472705D01*
X139544130Y-101440492D01*
X139641998Y-101388180D01*
X139727780Y-101317780D01*
X139798180Y-101231998D01*
X139850492Y-101134130D01*
X139882705Y-101027937D01*
X139893582Y-100917500D01*
X139893582Y-100442500D01*
X139890727Y-100413517D01*
X140086418Y-100609208D01*
X140086418Y-100917500D01*
X140097295Y-101027937D01*
X140129508Y-101134130D01*
X140181820Y-101231998D01*
X140252220Y-101317780D01*
X140338002Y-101388180D01*
X140435870Y-101440492D01*
X140542063Y-101472705D01*
X140652500Y-101483582D01*
X141152500Y-101483582D01*
X141262937Y-101472705D01*
X141369130Y-101440492D01*
X141466998Y-101388180D01*
X141552780Y-101317780D01*
X141623180Y-101231998D01*
X141675492Y-101134130D01*
X141707705Y-101027937D01*
X141718582Y-100917500D01*
X141718582Y-100442500D01*
X141707705Y-100332063D01*
X141675492Y-100225870D01*
X141623180Y-100128002D01*
X141552780Y-100042220D01*
X141466998Y-99971820D01*
X141388759Y-99930000D01*
X141466998Y-99888180D01*
X141552780Y-99817780D01*
X141623180Y-99731998D01*
X141675492Y-99634130D01*
X141707705Y-99527937D01*
X141718582Y-99417500D01*
X141718582Y-99147432D01*
X141733312Y-99141331D01*
X141827816Y-99078185D01*
X141908185Y-98997816D01*
X141970006Y-98905295D01*
X142122577Y-99057866D01*
G37*
%TD.AperFunction*%
D20*
X135334500Y-100603000D02*
X135354500Y-100603000D01*
X135354500Y-100857000D01*
X135334500Y-100857000D01*
X135334500Y-100877000D01*
X135080500Y-100877000D01*
X135080500Y-100857000D01*
X135060500Y-100857000D01*
X135060500Y-100603000D01*
X135080500Y-100603000D01*
X135080500Y-100583000D01*
X135334500Y-100583000D01*
X135334500Y-100603000D01*
%TA.AperFunction,Conductor*%
D21*
G36*
X135334500Y-100603000D02*
G01*
X135354500Y-100603000D01*
X135354500Y-100857000D01*
X135334500Y-100857000D01*
X135334500Y-100877000D01*
X135080500Y-100877000D01*
X135080500Y-100857000D01*
X135060500Y-100857000D01*
X135060500Y-100603000D01*
X135080500Y-100603000D01*
X135080500Y-100583000D01*
X135334500Y-100583000D01*
X135334500Y-100603000D01*
G37*
%TD.AperFunction*%
D20*
X133891815Y-94557816D02*
X133972184Y-94638185D01*
X134066688Y-94701331D01*
X134171695Y-94744826D01*
X134283170Y-94767000D01*
X134396830Y-94767000D01*
X134508305Y-94744826D01*
X134613312Y-94701331D01*
X134659174Y-94670687D01*
X134725518Y-94690812D01*
X134850000Y-94703072D01*
X135101750Y-94700000D01*
X135260498Y-94541252D01*
X135260498Y-94556712D01*
X134145666Y-95671545D01*
X134125552Y-95688052D01*
X134059696Y-95768298D01*
X134029094Y-95825552D01*
X134010761Y-95859851D01*
X133980626Y-95959191D01*
X133970451Y-96062500D01*
X133973000Y-96088381D01*
X133973001Y-97604110D01*
X133970451Y-97630000D01*
X133973000Y-97655881D01*
X133973000Y-98271619D01*
X133970451Y-98297500D01*
X133980626Y-98400809D01*
X134010761Y-98500149D01*
X134059696Y-98591701D01*
X134063068Y-98595810D01*
X134125553Y-98671948D01*
X134145662Y-98688451D01*
X135080498Y-99623287D01*
X135080498Y-99778748D01*
X134921750Y-99620000D01*
X134670000Y-99616928D01*
X134545518Y-99629188D01*
X134425820Y-99665498D01*
X134315506Y-99724463D01*
X134247001Y-99780683D01*
X134247001Y-99313880D01*
X134249550Y-99287999D01*
X134239375Y-99184689D01*
X134234632Y-99169055D01*
X134209240Y-99085349D01*
X134160305Y-98993797D01*
X134094449Y-98913551D01*
X134074340Y-98897048D01*
X133614641Y-98437349D01*
X133653312Y-98421331D01*
X133747816Y-98358185D01*
X133828185Y-98277816D01*
X133891331Y-98183312D01*
X133934826Y-98078305D01*
X133957000Y-97966830D01*
X133957000Y-97853170D01*
X133934826Y-97741695D01*
X133891331Y-97636688D01*
X133828185Y-97542184D01*
X133747816Y-97461815D01*
X133653312Y-97398669D01*
X133548305Y-97355174D01*
X133436830Y-97333000D01*
X133323170Y-97333000D01*
X133211695Y-97355174D01*
X133106688Y-97398669D01*
X133012184Y-97461815D01*
X132949939Y-97524060D01*
X132960000Y-97431750D01*
X132801250Y-97273000D01*
X131714500Y-97273000D01*
X131714500Y-97321418D01*
X131460500Y-97321418D01*
X131460500Y-97273000D01*
X131440500Y-97273000D01*
X131440500Y-97127000D01*
X131460500Y-97127000D01*
X131460500Y-97078582D01*
X131714500Y-97078582D01*
X131714500Y-97127000D01*
X132801250Y-97127000D01*
X132960000Y-96968250D01*
X132948868Y-96866117D01*
X132910761Y-96746979D01*
X132850144Y-96637564D01*
X132769346Y-96542078D01*
X132671471Y-96464189D01*
X132653582Y-96454970D01*
X132653582Y-96450000D01*
X132651485Y-96428710D01*
X132660000Y-96429549D01*
X132685881Y-96427000D01*
X132763310Y-96419374D01*
X132862650Y-96389239D01*
X132954202Y-96340304D01*
X133034448Y-96274448D01*
X133050955Y-96254334D01*
X133524339Y-95780951D01*
X133544448Y-95764448D01*
X133610304Y-95684202D01*
X133659239Y-95592650D01*
X133689374Y-95493310D01*
X133697000Y-95415881D01*
X133697000Y-95415880D01*
X133699549Y-95390000D01*
X133697000Y-95364119D01*
X133697000Y-94740137D01*
X133699549Y-94714256D01*
X133689374Y-94610946D01*
X133659239Y-94511606D01*
X133654950Y-94503582D01*
X133855577Y-94503582D01*
X133891815Y-94557816D01*
%TA.AperFunction,Conductor*%
D21*
G36*
X133891815Y-94557816D02*
G01*
X133972184Y-94638185D01*
X134066688Y-94701331D01*
X134171695Y-94744826D01*
X134283170Y-94767000D01*
X134396830Y-94767000D01*
X134508305Y-94744826D01*
X134613312Y-94701331D01*
X134659174Y-94670687D01*
X134725518Y-94690812D01*
X134850000Y-94703072D01*
X135101750Y-94700000D01*
X135260498Y-94541252D01*
X135260498Y-94556712D01*
X134145666Y-95671545D01*
X134125552Y-95688052D01*
X134059696Y-95768298D01*
X134029094Y-95825552D01*
X134010761Y-95859851D01*
X133980626Y-95959191D01*
X133970451Y-96062500D01*
X133973000Y-96088381D01*
X133973001Y-97604110D01*
X133970451Y-97630000D01*
X133973000Y-97655881D01*
X133973000Y-98271619D01*
X133970451Y-98297500D01*
X133980626Y-98400809D01*
X134010761Y-98500149D01*
X134059696Y-98591701D01*
X134063068Y-98595810D01*
X134125553Y-98671948D01*
X134145662Y-98688451D01*
X135080498Y-99623287D01*
X135080498Y-99778748D01*
X134921750Y-99620000D01*
X134670000Y-99616928D01*
X134545518Y-99629188D01*
X134425820Y-99665498D01*
X134315506Y-99724463D01*
X134247001Y-99780683D01*
X134247001Y-99313880D01*
X134249550Y-99287999D01*
X134239375Y-99184689D01*
X134234632Y-99169055D01*
X134209240Y-99085349D01*
X134160305Y-98993797D01*
X134094449Y-98913551D01*
X134074340Y-98897048D01*
X133614641Y-98437349D01*
X133653312Y-98421331D01*
X133747816Y-98358185D01*
X133828185Y-98277816D01*
X133891331Y-98183312D01*
X133934826Y-98078305D01*
X133957000Y-97966830D01*
X133957000Y-97853170D01*
X133934826Y-97741695D01*
X133891331Y-97636688D01*
X133828185Y-97542184D01*
X133747816Y-97461815D01*
X133653312Y-97398669D01*
X133548305Y-97355174D01*
X133436830Y-97333000D01*
X133323170Y-97333000D01*
X133211695Y-97355174D01*
X133106688Y-97398669D01*
X133012184Y-97461815D01*
X132949939Y-97524060D01*
X132960000Y-97431750D01*
X132801250Y-97273000D01*
X131714500Y-97273000D01*
X131714500Y-97321418D01*
X131460500Y-97321418D01*
X131460500Y-97273000D01*
X131440500Y-97273000D01*
X131440500Y-97127000D01*
X131460500Y-97127000D01*
X131460500Y-97078582D01*
X131714500Y-97078582D01*
X131714500Y-97127000D01*
X132801250Y-97127000D01*
X132960000Y-96968250D01*
X132948868Y-96866117D01*
X132910761Y-96746979D01*
X132850144Y-96637564D01*
X132769346Y-96542078D01*
X132671471Y-96464189D01*
X132653582Y-96454970D01*
X132653582Y-96450000D01*
X132651485Y-96428710D01*
X132660000Y-96429549D01*
X132685881Y-96427000D01*
X132763310Y-96419374D01*
X132862650Y-96389239D01*
X132954202Y-96340304D01*
X133034448Y-96274448D01*
X133050955Y-96254334D01*
X133524339Y-95780951D01*
X133544448Y-95764448D01*
X133610304Y-95684202D01*
X133659239Y-95592650D01*
X133689374Y-95493310D01*
X133697000Y-95415881D01*
X133697000Y-95415880D01*
X133699549Y-95390000D01*
X133697000Y-95364119D01*
X133697000Y-94740137D01*
X133699549Y-94714256D01*
X133689374Y-94610946D01*
X133659239Y-94511606D01*
X133654950Y-94503582D01*
X133855577Y-94503582D01*
X133891815Y-94557816D01*
G37*
%TD.AperFunction*%
D20*
X124539508Y-97159130D02*
X124591820Y-97256998D01*
X124662220Y-97342780D01*
X124748002Y-97413180D01*
X124773000Y-97426542D01*
X124773001Y-97483458D01*
X124748002Y-97496820D01*
X124662220Y-97567220D01*
X124591820Y-97653002D01*
X124539508Y-97750870D01*
X124507295Y-97857063D01*
X124496418Y-97967500D01*
X124496418Y-98467500D01*
X124507295Y-98577937D01*
X124539508Y-98684130D01*
X124591820Y-98781998D01*
X124662220Y-98867780D01*
X124748002Y-98938180D01*
X124845870Y-98990492D01*
X124952063Y-99022705D01*
X125062500Y-99033582D01*
X125537500Y-99033582D01*
X125647937Y-99022705D01*
X125754130Y-98990492D01*
X125851998Y-98938180D01*
X125937780Y-98867780D01*
X126008180Y-98781998D01*
X126027753Y-98745379D01*
X126039508Y-98784130D01*
X126091820Y-98881998D01*
X126162220Y-98967780D01*
X126248002Y-99038180D01*
X126345870Y-99090492D01*
X126452063Y-99122705D01*
X126526131Y-99130000D01*
X126452063Y-99137295D01*
X126345870Y-99169508D01*
X126248002Y-99221820D01*
X126162220Y-99292220D01*
X126091820Y-99378002D01*
X126045051Y-99465500D01*
X125997920Y-99465500D01*
X125937780Y-99392220D01*
X125851998Y-99321820D01*
X125754130Y-99269508D01*
X125647937Y-99237295D01*
X125537500Y-99226418D01*
X125229207Y-99226418D01*
X125208455Y-99205666D01*
X125191948Y-99185552D01*
X125111702Y-99119696D01*
X125020150Y-99070761D01*
X124920810Y-99040626D01*
X124843381Y-99033000D01*
X124817500Y-99030451D01*
X124791619Y-99033000D01*
X124202898Y-99033000D01*
X124133374Y-98902930D01*
X123986291Y-98723709D01*
X123807070Y-98576626D01*
X123602597Y-98467333D01*
X123537939Y-98447719D01*
X123642745Y-98422096D01*
X123906812Y-98299025D01*
X124141795Y-98126802D01*
X124338664Y-97912046D01*
X124489854Y-97663009D01*
X124589554Y-97389261D01*
X124591476Y-97376890D01*
X124470156Y-97147002D01*
X124535829Y-97147002D01*
X124539508Y-97159130D01*
%TA.AperFunction,Conductor*%
D21*
G36*
X124539508Y-97159130D02*
G01*
X124591820Y-97256998D01*
X124662220Y-97342780D01*
X124748002Y-97413180D01*
X124773000Y-97426542D01*
X124773001Y-97483458D01*
X124748002Y-97496820D01*
X124662220Y-97567220D01*
X124591820Y-97653002D01*
X124539508Y-97750870D01*
X124507295Y-97857063D01*
X124496418Y-97967500D01*
X124496418Y-98467500D01*
X124507295Y-98577937D01*
X124539508Y-98684130D01*
X124591820Y-98781998D01*
X124662220Y-98867780D01*
X124748002Y-98938180D01*
X124845870Y-98990492D01*
X124952063Y-99022705D01*
X125062500Y-99033582D01*
X125537500Y-99033582D01*
X125647937Y-99022705D01*
X125754130Y-98990492D01*
X125851998Y-98938180D01*
X125937780Y-98867780D01*
X126008180Y-98781998D01*
X126027753Y-98745379D01*
X126039508Y-98784130D01*
X126091820Y-98881998D01*
X126162220Y-98967780D01*
X126248002Y-99038180D01*
X126345870Y-99090492D01*
X126452063Y-99122705D01*
X126526131Y-99130000D01*
X126452063Y-99137295D01*
X126345870Y-99169508D01*
X126248002Y-99221820D01*
X126162220Y-99292220D01*
X126091820Y-99378002D01*
X126045051Y-99465500D01*
X125997920Y-99465500D01*
X125937780Y-99392220D01*
X125851998Y-99321820D01*
X125754130Y-99269508D01*
X125647937Y-99237295D01*
X125537500Y-99226418D01*
X125229207Y-99226418D01*
X125208455Y-99205666D01*
X125191948Y-99185552D01*
X125111702Y-99119696D01*
X125020150Y-99070761D01*
X124920810Y-99040626D01*
X124843381Y-99033000D01*
X124817500Y-99030451D01*
X124791619Y-99033000D01*
X124202898Y-99033000D01*
X124133374Y-98902930D01*
X123986291Y-98723709D01*
X123807070Y-98576626D01*
X123602597Y-98467333D01*
X123537939Y-98447719D01*
X123642745Y-98422096D01*
X123906812Y-98299025D01*
X124141795Y-98126802D01*
X124338664Y-97912046D01*
X124489854Y-97663009D01*
X124589554Y-97389261D01*
X124591476Y-97376890D01*
X124470156Y-97147002D01*
X124535829Y-97147002D01*
X124539508Y-97159130D01*
G37*
%TD.AperFunction*%
D20*
X123147000Y-97147000D02*
X122853000Y-97147000D01*
X122853000Y-96893000D01*
X123147000Y-96893000D01*
X123147000Y-97147000D01*
%TA.AperFunction,Conductor*%
D21*
G36*
X123147000Y-97147000D02*
G01*
X122853000Y-97147000D01*
X122853000Y-96893000D01*
X123147000Y-96893000D01*
X123147000Y-97147000D01*
G37*
%TD.AperFunction*%
D20*
X136254653Y-95066388D02*
X136246418Y-95150000D01*
X136246418Y-95350000D01*
X136254653Y-95433612D01*
X136279042Y-95514011D01*
X136311641Y-95575000D01*
X136279042Y-95635989D01*
X136254653Y-95716388D01*
X136246418Y-95800000D01*
X136246418Y-96000000D01*
X136254653Y-96083612D01*
X136279042Y-96164011D01*
X136311641Y-96225000D01*
X136279042Y-96285989D01*
X136254653Y-96366388D01*
X136246418Y-96450000D01*
X136246418Y-96650000D01*
X136248683Y-96673000D01*
X135027000Y-96673000D01*
X135027000Y-96280789D01*
X136260423Y-95047366D01*
X136254653Y-95066388D01*
%TA.AperFunction,Conductor*%
D21*
G36*
X136254653Y-95066388D02*
G01*
X136246418Y-95150000D01*
X136246418Y-95350000D01*
X136254653Y-95433612D01*
X136279042Y-95514011D01*
X136311641Y-95575000D01*
X136279042Y-95635989D01*
X136254653Y-95716388D01*
X136246418Y-95800000D01*
X136246418Y-96000000D01*
X136254653Y-96083612D01*
X136279042Y-96164011D01*
X136311641Y-96225000D01*
X136279042Y-96285989D01*
X136254653Y-96366388D01*
X136246418Y-96450000D01*
X136246418Y-96650000D01*
X136248683Y-96673000D01*
X135027000Y-96673000D01*
X135027000Y-96280789D01*
X136260423Y-95047366D01*
X136254653Y-95066388D01*
G37*
%TD.AperFunction*%
D20*
X124190000Y-95044502D02*
X124348748Y-95044502D01*
X124190000Y-95203250D01*
X124186928Y-95455000D01*
X124199188Y-95579482D01*
X124235498Y-95699180D01*
X124294463Y-95809494D01*
X124373815Y-95906185D01*
X124470506Y-95985537D01*
X124580820Y-96044502D01*
X124582696Y-96045071D01*
X124539508Y-96125870D01*
X124507295Y-96232063D01*
X124496418Y-96342500D01*
X124496418Y-96395014D01*
X124489854Y-96376991D01*
X124338664Y-96127954D01*
X124141795Y-95913198D01*
X123906812Y-95740975D01*
X123642745Y-95617904D01*
X123537939Y-95592281D01*
X123602597Y-95572667D01*
X123807070Y-95463374D01*
X123986291Y-95316291D01*
X124133374Y-95137070D01*
X124190000Y-95031130D01*
X124190000Y-95044502D01*
%TA.AperFunction,Conductor*%
D21*
G36*
X124190000Y-95044502D02*
G01*
X124348748Y-95044502D01*
X124190000Y-95203250D01*
X124186928Y-95455000D01*
X124199188Y-95579482D01*
X124235498Y-95699180D01*
X124294463Y-95809494D01*
X124373815Y-95906185D01*
X124470506Y-95985537D01*
X124580820Y-96044502D01*
X124582696Y-96045071D01*
X124539508Y-96125870D01*
X124507295Y-96232063D01*
X124496418Y-96342500D01*
X124496418Y-96395014D01*
X124489854Y-96376991D01*
X124338664Y-96127954D01*
X124141795Y-95913198D01*
X123906812Y-95740975D01*
X123642745Y-95617904D01*
X123537939Y-95592281D01*
X123602597Y-95572667D01*
X123807070Y-95463374D01*
X123986291Y-95316291D01*
X124133374Y-95137070D01*
X124190000Y-95031130D01*
X124190000Y-95044502D01*
G37*
%TD.AperFunction*%
D20*
X145625533Y-92365997D02*
X145746291Y-92402456D01*
X145857667Y-92461675D01*
X145955412Y-92541394D01*
X146035816Y-92638586D01*
X146095811Y-92749545D01*
X146133110Y-92870039D01*
X146148000Y-93011699D01*
X146148000Y-93143000D01*
X143294816Y-93143000D01*
X143099863Y-93162201D01*
X142849722Y-93238081D01*
X142619192Y-93361302D01*
X142417130Y-93527130D01*
X142251302Y-93729192D01*
X142128081Y-93959722D01*
X142052201Y-94209863D01*
X142026580Y-94470000D01*
X142052201Y-94730137D01*
X142128081Y-94980278D01*
X142251302Y-95210808D01*
X142417130Y-95412870D01*
X142619192Y-95578698D01*
X142849722Y-95701919D01*
X142975257Y-95740000D01*
X142862048Y-95774342D01*
X142844202Y-95759696D01*
X142752650Y-95710761D01*
X142653310Y-95680626D01*
X142575881Y-95673000D01*
X142550000Y-95670451D01*
X142524119Y-95673000D01*
X141646542Y-95673000D01*
X141633180Y-95648002D01*
X141562780Y-95562220D01*
X141476998Y-95491820D01*
X141398759Y-95450000D01*
X141476998Y-95408180D01*
X141562780Y-95337780D01*
X141633180Y-95251998D01*
X141685492Y-95154130D01*
X141717705Y-95047937D01*
X141728582Y-94937500D01*
X141728582Y-94462500D01*
X141717705Y-94352063D01*
X141685492Y-94245870D01*
X141667828Y-94212823D01*
X141758305Y-94194826D01*
X141863312Y-94151331D01*
X141957816Y-94088185D01*
X142038185Y-94007816D01*
X142101331Y-93913312D01*
X142144826Y-93808305D01*
X142167000Y-93696830D01*
X142167000Y-93583170D01*
X142144826Y-93471695D01*
X142101331Y-93366688D01*
X142038185Y-93272184D01*
X141957816Y-93191815D01*
X141863312Y-93128669D01*
X141796132Y-93100842D01*
X141718582Y-93023293D01*
X141718582Y-92962500D01*
X141707705Y-92852063D01*
X141675492Y-92745870D01*
X141623180Y-92648002D01*
X141552780Y-92562220D01*
X141466998Y-92491820D01*
X141369130Y-92439508D01*
X141262937Y-92407295D01*
X141152500Y-92396418D01*
X140652500Y-92396418D01*
X140542063Y-92407295D01*
X140435870Y-92439508D01*
X140338002Y-92491820D01*
X140252220Y-92562220D01*
X140181820Y-92648002D01*
X140129508Y-92745870D01*
X140097295Y-92852063D01*
X140086418Y-92962500D01*
X140086418Y-93128629D01*
X139890664Y-92932875D01*
X139882705Y-92852063D01*
X139850492Y-92745870D01*
X139798180Y-92648002D01*
X139727780Y-92562220D01*
X139641998Y-92491820D01*
X139544130Y-92439508D01*
X139437937Y-92407295D01*
X139327500Y-92396418D01*
X138827500Y-92396418D01*
X138717063Y-92407295D01*
X138610870Y-92439508D01*
X138513002Y-92491820D01*
X138427220Y-92562220D01*
X138356820Y-92648002D01*
X138304508Y-92745870D01*
X138272295Y-92852063D01*
X138261418Y-92962500D01*
X138261418Y-93270792D01*
X137978582Y-93553628D01*
X137978582Y-93352500D01*
X137967705Y-93242063D01*
X137935492Y-93135870D01*
X137883180Y-93038002D01*
X137812780Y-92952220D01*
X137726998Y-92881820D01*
X137629130Y-92829508D01*
X137522937Y-92797295D01*
X137412500Y-92786418D01*
X136812500Y-92786418D01*
X136702063Y-92797295D01*
X136595870Y-92829508D01*
X136515071Y-92872696D01*
X136514502Y-92870820D01*
X136455537Y-92760506D01*
X136376185Y-92663815D01*
X136279494Y-92584463D01*
X136169180Y-92525498D01*
X136049482Y-92489188D01*
X135925000Y-92476928D01*
X135673250Y-92480000D01*
X135514500Y-92638750D01*
X135514500Y-93463000D01*
X135534500Y-93463000D01*
X135534500Y-93717000D01*
X135514500Y-93717000D01*
X135514500Y-93737000D01*
X135260500Y-93737000D01*
X135260500Y-93717000D01*
X135240500Y-93717000D01*
X135240500Y-93463000D01*
X135260500Y-93463000D01*
X135260500Y-92638750D01*
X135101750Y-92480000D01*
X134850000Y-92476928D01*
X134725518Y-92489188D01*
X134605820Y-92525498D01*
X134495506Y-92584463D01*
X134438060Y-92631608D01*
X134384119Y-92565881D01*
X134296443Y-92493927D01*
X134196414Y-92440460D01*
X134087876Y-92407535D01*
X133975000Y-92396418D01*
X133300000Y-92396418D01*
X133187124Y-92407535D01*
X133078586Y-92440460D01*
X132978557Y-92493927D01*
X132890881Y-92565881D01*
X132818927Y-92653557D01*
X132765460Y-92753586D01*
X132732535Y-92862124D01*
X132721418Y-92975000D01*
X132721418Y-93520385D01*
X132478582Y-93277549D01*
X132478582Y-92975000D01*
X132467465Y-92862124D01*
X132434540Y-92753586D01*
X132381073Y-92653557D01*
X132309119Y-92565881D01*
X132221443Y-92493927D01*
X132121414Y-92440460D01*
X132012876Y-92407535D01*
X131900000Y-92396418D01*
X131225000Y-92396418D01*
X131112124Y-92407535D01*
X131003586Y-92440460D01*
X130903557Y-92493927D01*
X130815881Y-92565881D01*
X130743927Y-92653557D01*
X130690460Y-92753586D01*
X130657535Y-92862124D01*
X130646418Y-92975000D01*
X130646418Y-93925000D01*
X130657535Y-94037876D01*
X130690460Y-94146414D01*
X130743927Y-94246443D01*
X130815881Y-94334119D01*
X130823656Y-94340500D01*
X130528223Y-94340500D01*
X130508180Y-94303002D01*
X130437780Y-94217220D01*
X130351998Y-94146820D01*
X130254130Y-94094508D01*
X130147937Y-94062295D01*
X130037500Y-94051418D01*
X129729208Y-94051418D01*
X129303445Y-93625656D01*
X129286938Y-93605542D01*
X129206692Y-93539686D01*
X129115140Y-93490751D01*
X129015800Y-93460616D01*
X128938371Y-93452990D01*
X128912490Y-93450441D01*
X128886609Y-93452990D01*
X123725433Y-93452990D01*
X123602597Y-93387333D01*
X123380732Y-93320031D01*
X123207812Y-93303000D01*
X121452000Y-93303000D01*
X121452000Y-93017216D01*
X121465997Y-92874467D01*
X121502456Y-92753709D01*
X121561675Y-92642333D01*
X121641394Y-92544588D01*
X121738586Y-92464184D01*
X121849545Y-92404189D01*
X121970039Y-92366890D01*
X122111699Y-92352000D01*
X145482784Y-92352000D01*
X145625533Y-92365997D01*
%TA.AperFunction,Conductor*%
D21*
G36*
X145625533Y-92365997D02*
G01*
X145746291Y-92402456D01*
X145857667Y-92461675D01*
X145955412Y-92541394D01*
X146035816Y-92638586D01*
X146095811Y-92749545D01*
X146133110Y-92870039D01*
X146148000Y-93011699D01*
X146148000Y-93143000D01*
X143294816Y-93143000D01*
X143099863Y-93162201D01*
X142849722Y-93238081D01*
X142619192Y-93361302D01*
X142417130Y-93527130D01*
X142251302Y-93729192D01*
X142128081Y-93959722D01*
X142052201Y-94209863D01*
X142026580Y-94470000D01*
X142052201Y-94730137D01*
X142128081Y-94980278D01*
X142251302Y-95210808D01*
X142417130Y-95412870D01*
X142619192Y-95578698D01*
X142849722Y-95701919D01*
X142975257Y-95740000D01*
X142862048Y-95774342D01*
X142844202Y-95759696D01*
X142752650Y-95710761D01*
X142653310Y-95680626D01*
X142575881Y-95673000D01*
X142550000Y-95670451D01*
X142524119Y-95673000D01*
X141646542Y-95673000D01*
X141633180Y-95648002D01*
X141562780Y-95562220D01*
X141476998Y-95491820D01*
X141398759Y-95450000D01*
X141476998Y-95408180D01*
X141562780Y-95337780D01*
X141633180Y-95251998D01*
X141685492Y-95154130D01*
X141717705Y-95047937D01*
X141728582Y-94937500D01*
X141728582Y-94462500D01*
X141717705Y-94352063D01*
X141685492Y-94245870D01*
X141667828Y-94212823D01*
X141758305Y-94194826D01*
X141863312Y-94151331D01*
X141957816Y-94088185D01*
X142038185Y-94007816D01*
X142101331Y-93913312D01*
X142144826Y-93808305D01*
X142167000Y-93696830D01*
X142167000Y-93583170D01*
X142144826Y-93471695D01*
X142101331Y-93366688D01*
X142038185Y-93272184D01*
X141957816Y-93191815D01*
X141863312Y-93128669D01*
X141796132Y-93100842D01*
X141718582Y-93023293D01*
X141718582Y-92962500D01*
X141707705Y-92852063D01*
X141675492Y-92745870D01*
X141623180Y-92648002D01*
X141552780Y-92562220D01*
X141466998Y-92491820D01*
X141369130Y-92439508D01*
X141262937Y-92407295D01*
X141152500Y-92396418D01*
X140652500Y-92396418D01*
X140542063Y-92407295D01*
X140435870Y-92439508D01*
X140338002Y-92491820D01*
X140252220Y-92562220D01*
X140181820Y-92648002D01*
X140129508Y-92745870D01*
X140097295Y-92852063D01*
X140086418Y-92962500D01*
X140086418Y-93128629D01*
X139890664Y-92932875D01*
X139882705Y-92852063D01*
X139850492Y-92745870D01*
X139798180Y-92648002D01*
X139727780Y-92562220D01*
X139641998Y-92491820D01*
X139544130Y-92439508D01*
X139437937Y-92407295D01*
X139327500Y-92396418D01*
X138827500Y-92396418D01*
X138717063Y-92407295D01*
X138610870Y-92439508D01*
X138513002Y-92491820D01*
X138427220Y-92562220D01*
X138356820Y-92648002D01*
X138304508Y-92745870D01*
X138272295Y-92852063D01*
X138261418Y-92962500D01*
X138261418Y-93270792D01*
X137978582Y-93553628D01*
X137978582Y-93352500D01*
X137967705Y-93242063D01*
X137935492Y-93135870D01*
X137883180Y-93038002D01*
X137812780Y-92952220D01*
X137726998Y-92881820D01*
X137629130Y-92829508D01*
X137522937Y-92797295D01*
X137412500Y-92786418D01*
X136812500Y-92786418D01*
X136702063Y-92797295D01*
X136595870Y-92829508D01*
X136515071Y-92872696D01*
X136514502Y-92870820D01*
X136455537Y-92760506D01*
X136376185Y-92663815D01*
X136279494Y-92584463D01*
X136169180Y-92525498D01*
X136049482Y-92489188D01*
X135925000Y-92476928D01*
X135673250Y-92480000D01*
X135514500Y-92638750D01*
X135514500Y-93463000D01*
X135534500Y-93463000D01*
X135534500Y-93717000D01*
X135514500Y-93717000D01*
X135514500Y-93737000D01*
X135260500Y-93737000D01*
X135260500Y-93717000D01*
X135240500Y-93717000D01*
X135240500Y-93463000D01*
X135260500Y-93463000D01*
X135260500Y-92638750D01*
X135101750Y-92480000D01*
X134850000Y-92476928D01*
X134725518Y-92489188D01*
X134605820Y-92525498D01*
X134495506Y-92584463D01*
X134438060Y-92631608D01*
X134384119Y-92565881D01*
X134296443Y-92493927D01*
X134196414Y-92440460D01*
X134087876Y-92407535D01*
X133975000Y-92396418D01*
X133300000Y-92396418D01*
X133187124Y-92407535D01*
X133078586Y-92440460D01*
X132978557Y-92493927D01*
X132890881Y-92565881D01*
X132818927Y-92653557D01*
X132765460Y-92753586D01*
X132732535Y-92862124D01*
X132721418Y-92975000D01*
X132721418Y-93520385D01*
X132478582Y-93277549D01*
X132478582Y-92975000D01*
X132467465Y-92862124D01*
X132434540Y-92753586D01*
X132381073Y-92653557D01*
X132309119Y-92565881D01*
X132221443Y-92493927D01*
X132121414Y-92440460D01*
X132012876Y-92407535D01*
X131900000Y-92396418D01*
X131225000Y-92396418D01*
X131112124Y-92407535D01*
X131003586Y-92440460D01*
X130903557Y-92493927D01*
X130815881Y-92565881D01*
X130743927Y-92653557D01*
X130690460Y-92753586D01*
X130657535Y-92862124D01*
X130646418Y-92975000D01*
X130646418Y-93925000D01*
X130657535Y-94037876D01*
X130690460Y-94146414D01*
X130743927Y-94246443D01*
X130815881Y-94334119D01*
X130823656Y-94340500D01*
X130528223Y-94340500D01*
X130508180Y-94303002D01*
X130437780Y-94217220D01*
X130351998Y-94146820D01*
X130254130Y-94094508D01*
X130147937Y-94062295D01*
X130037500Y-94051418D01*
X129729208Y-94051418D01*
X129303445Y-93625656D01*
X129286938Y-93605542D01*
X129206692Y-93539686D01*
X129115140Y-93490751D01*
X129015800Y-93460616D01*
X128938371Y-93452990D01*
X128912490Y-93450441D01*
X128886609Y-93452990D01*
X123725433Y-93452990D01*
X123602597Y-93387333D01*
X123380732Y-93320031D01*
X123207812Y-93303000D01*
X121452000Y-93303000D01*
X121452000Y-93017216D01*
X121465997Y-92874467D01*
X121502456Y-92753709D01*
X121561675Y-92642333D01*
X121641394Y-92544588D01*
X121738586Y-92464184D01*
X121849545Y-92404189D01*
X121970039Y-92366890D01*
X122111699Y-92352000D01*
X145482784Y-92352000D01*
X145625533Y-92365997D01*
G37*
%TD.AperFunction*%
D20*
X126927000Y-94740500D02*
X126947000Y-94740500D01*
X126947000Y-94994500D01*
X126927000Y-94994500D01*
X126927000Y-95014500D01*
X126673000Y-95014500D01*
X126673000Y-94994500D01*
X125848750Y-94994500D01*
X125798750Y-95044500D01*
X125427000Y-95044500D01*
X125427000Y-95064500D01*
X125173000Y-95064500D01*
X125173000Y-95044500D01*
X125153000Y-95044500D01*
X125153000Y-94790500D01*
X125173000Y-94790500D01*
X125173000Y-94770500D01*
X125427000Y-94770500D01*
X125427000Y-94790500D01*
X126251250Y-94790500D01*
X126301250Y-94740500D01*
X126673000Y-94740500D01*
X126673000Y-94720500D01*
X126927000Y-94720500D01*
X126927000Y-94740500D01*
%TA.AperFunction,Conductor*%
D21*
G36*
X126927000Y-94740500D02*
G01*
X126947000Y-94740500D01*
X126947000Y-94994500D01*
X126927000Y-94994500D01*
X126927000Y-95014500D01*
X126673000Y-95014500D01*
X126673000Y-94994500D01*
X125848750Y-94994500D01*
X125798750Y-95044500D01*
X125427000Y-95044500D01*
X125427000Y-95064500D01*
X125173000Y-95064500D01*
X125173000Y-95044500D01*
X125153000Y-95044500D01*
X125153000Y-94790500D01*
X125173000Y-94790500D01*
X125173000Y-94770500D01*
X125427000Y-94770500D01*
X125427000Y-94790500D01*
X126251250Y-94790500D01*
X126301250Y-94740500D01*
X126673000Y-94740500D01*
X126673000Y-94720500D01*
X126927000Y-94720500D01*
X126927000Y-94740500D01*
G37*
%TD.AperFunction*%
%TD*%
M02*
